  0
SECTION
  2
HEADER
  9
$ANGBASE
  50
0.0
  9
$ANGDIR
  70
  1
  9
$MEASUREMENT
  70
0
  0
ENDSEC
  0
SECTION
  2
TABLES
  0
TABLE
  2
LTYPE
  70
1
  0
LTYPE
  2
CONTINUOUS
  70
0
  3
Solid line
  72
65
  73
0
  40
0.0
  0
ENDTAB
  0
TABLE
  2
STYLE
  70
4
  0
STYLE
  2
KICAD
  70
0
  40
0
  41
1
  42
1
  50
0
  71
0
  3
isocp.shx
  0
STYLE
  2
KICADB
  70
0
  40
0
  41
1
  42
1
  50
0
  71
0
  3
isocp.shx
  0
STYLE
  2
KICADI
  70
0
  40
0
  41
1
  42
1
  50
15
  71
0
  3
isocp.shx
  0
STYLE
  2
KICADBI
  70
0
  40
0
  41
1
  42
1
  50
15
  71
0
  3
isocp.shx
  0
ENDTAB
  0
TABLE
  2
LAYER
  70
30
  0
LAYER
  2
BLACK
  70
0
  62
7
  6
CONTINUOUS
  0
LAYER
  2
GRAY1
  70
0
  62
251
  6
CONTINUOUS
  0
LAYER
  2
GRAY2
  70
0
  62
8
  6
CONTINUOUS
  0
LAYER
  2
GRAY3
  70
0
  62
9
  6
CONTINUOUS
  0
LAYER
  2
WHITE
  70
0
  62
7
  6
CONTINUOUS
  0
LAYER
  2
LYELLOW
  70
0
  62
51
  6
CONTINUOUS
  0
LAYER
  2
BLUE1
  70
0
  62
178
  6
CONTINUOUS
  0
LAYER
  2
GREEN1
  70
0
  62
98
  6
CONTINUOUS
  0
LAYER
  2
CYAN1
  70
0
  62
138
  6
CONTINUOUS
  0
LAYER
  2
RED1
  70
0
  62
18
  6
CONTINUOUS
  0
LAYER
  2
MAGENTA1
  70
0
  62
228
  6
CONTINUOUS
  0
LAYER
  2
BROWN1
  70
0
  62
58
  6
CONTINUOUS
  0
LAYER
  2
BLUE2
  70
0
  62
5
  6
CONTINUOUS
  0
LAYER
  2
GREEN2
  70
0
  62
3
  6
CONTINUOUS
  0
LAYER
  2
CYAN2
  70
0
  62
4
  6
CONTINUOUS
  0
LAYER
  2
RED2
  70
0
  62
1
  6
CONTINUOUS
  0
LAYER
  2
MAGENTA2
  70
0
  62
6
  6
CONTINUOUS
  0
LAYER
  2
BROWN2
  70
0
  62
54
  6
CONTINUOUS
  0
LAYER
  2
BLUE3
  70
0
  62
171
  6
CONTINUOUS
  0
LAYER
  2
GREEN3
  70
0
  62
91
  6
CONTINUOUS
  0
LAYER
  2
CYAN3
  70
0
  62
131
  6
CONTINUOUS
  0
LAYER
  2
RED3
  70
0
  62
11
  6
CONTINUOUS
  0
LAYER
  2
MAGENTA3
  70
0
  62
221
  6
CONTINUOUS
  0
LAYER
  2
YELLOW3
  70
0
  62
2
  6
CONTINUOUS
  0
LAYER
  2
BLUE4
  70
0
  62
5
  6
CONTINUOUS
  0
LAYER
  2
GREEN4
  70
0
  62
3
  6
CONTINUOUS
  0
LAYER
  2
CYAN4
  70
0
  62
4
  6
CONTINUOUS
  0
LAYER
  2
RED4
  70
0
  62
1
  6
CONTINUOUS
  0
LAYER
  2
MAGENTA4
  70
0
  62
6
  6
CONTINUOUS
  0
LAYER
  2
YELLOW4
  70
0
  62
2
  6
CONTINUOUS
  0
ENDTAB
  0
ENDSEC
  0
SECTION
  2
ENTITIES
0
LINE
8
Black
10
72.4703
20
-39.925
11
227.33
21
-39.925
0
LINE
8
Black
10
227.33
20
-39.925
11
227.343
21
-39.9273
0
LINE
8
Black
10
227.343
20
-39.9273
11
227.345
21
-39.9272
0
LINE
8
Black
10
227.345
20
-39.9272
11
227.348
21
-39.9282
0
LINE
8
Black
10
227.348
20
-39.9282
11
227.356
21
-39.9295
0
LINE
8
Black
10
227.356
20
-39.9295
11
227.358
21
-39.931
0
LINE
8
Black
10
227.358
20
-39.931
11
227.37
21
-39.9342
0
LINE
8
Black
10
227.37
20
-39.9342
11
227.391
21
-39.9493
0
LINE
8
Black
10
227.391
20
-39.9493
11
227.406
21
-39.9708
0
LINE
8
Black
10
227.406
20
-39.9708
11
227.412
21
-39.996
0
LINE
8
Black
10
227.412
20
-39.996
11
229.588
21
-67.653
0
LINE
8
Black
10
229.588
20
-67.653
11
229.585
21
-67.6789
0
LINE
8
Black
10
229.585
20
-67.6789
11
222.171
21
-94.4121
0
LINE
8
Black
10
222.171
20
-94.4121
11
222.167
21
-94.4206
0
LINE
8
Black
10
222.167
20
-94.4206
11
222.163
21
-94.4295
0
LINE
8
Black
10
222.163
20
-94.4295
11
216.065
21
-105.037
0
LINE
8
Black
10
216.065
20
-105.037
11
216.065
21
-105.037
0
LINE
8
Black
10
216.065
20
-105.037
11
216.065
21
-105.037
0
LINE
8
Black
10
216.065
20
-105.037
11
216.057
21
-105.047
0
LINE
8
Black
10
216.057
20
-105.047
11
216.048
21
-105.057
0
LINE
8
Black
10
216.048
20
-105.057
11
216.048
21
-105.057
0
LINE
8
Black
10
216.048
20
-105.057
11
216.048
21
-105.057
0
LINE
8
Black
10
216.048
20
-105.057
11
216.037
21
-105.064
0
LINE
8
Black
10
216.037
20
-105.064
11
216.026
21
-105.07
0
LINE
8
Black
10
216.026
20
-105.07
11
216.026
21
-105.07
0
LINE
8
Black
10
216.026
20
-105.07
11
216.026
21
-105.07
0
LINE
8
Black
10
216.026
20
-105.07
11
216.013
21
-105.073
0
LINE
8
Black
10
216.013
20
-105.073
11
216
21
-105.075
0
LINE
8
Black
10
216
20
-105.075
11
216
21
-105.075
0
LINE
8
Black
10
216
20
-105.075
11
216
21
-105.075
0
LINE
8
Black
10
216
20
-105.075
11
83.75
21
-105.075
0
LINE
8
Black
10
83.75
20
-105.075
11
83.7462
21
-105.074
0
LINE
8
Black
10
83.7462
20
-105.074
11
83.7424
21
-105.075
0
LINE
8
Black
10
83.7424
20
-105.075
11
83.7335
21
-105.072
0
LINE
8
Black
10
83.7335
20
-105.072
11
83.7243
21
-105.07
0
LINE
8
Black
10
83.7243
20
-105.07
11
83.721
21
-105.069
0
LINE
8
Black
10
83.721
20
-105.069
11
83.7173
21
-105.068
0
LINE
8
Black
10
83.7173
20
-105.068
11
83.7098
21
-105.062
0
LINE
8
Black
10
83.7098
20
-105.062
11
83.7018
21
-105.057
0
LINE
8
Black
10
83.7018
20
-105.057
11
83.6993
21
-105.055
0
LINE
8
Black
10
83.6993
20
-105.055
11
83.6962
21
-105.052
0
LINE
8
Black
10
83.6962
20
-105.052
11
83.691
21
-105.045
0
LINE
8
Black
10
83.691
20
-105.045
11
83.685
21
-105.037
0
LINE
8
Black
10
83.685
20
-105.037
11
83.6837
21
-105.034
0
LINE
8
Black
10
83.6837
20
-105.034
11
83.6816
21
-105.031
0
LINE
8
Black
10
83.6816
20
-105.031
11
72.286
21
-79.6581
0
LINE
8
Black
10
72.286
20
-79.6581
11
72.2797
21
-79.6328
0
LINE
8
Black
10
72.2797
20
-79.6328
11
70.2493
21
-51.8928
0
LINE
8
Black
10
70.2493
20
-51.8928
11
70.2503
21
-51.8835
0
LINE
8
Black
10
70.2503
20
-51.8835
11
70.2503
21
-51.8741
0
LINE
8
Black
10
70.2503
20
-51.8741
11
72.3767
21
-39.9833
0
LINE
8
Black
10
72.3767
20
-39.9833
11
72.3857
21
-39.9588
0
LINE
8
Black
10
72.3857
20
-39.9588
11
72.4024
21
-39.9389
0
LINE
8
Black
10
72.4024
20
-39.9389
11
72.425
21
-39.926
0
LINE
8
Black
10
72.425
20
-39.926
11
72.4507
21
-39.9215
0
LINE
8
Black
10
72.4507
20
-39.9215
11
72.4703
21
-39.925
0
LINE
8
Black
10
72.5127
20
-40.075
11
70.3996
21
-51.8912
0
LINE
8
Black
10
70.3996
20
-51.8912
11
72.4283
21
-79.6087
0
LINE
8
Black
10
72.4283
20
-79.6087
11
83.7985
21
-104.925
0
LINE
8
Black
10
83.7985
20
-104.925
11
215.957
21
-104.925
0
LINE
8
Black
10
215.957
20
-104.925
11
222.029
21
-94.3629
0
LINE
8
Black
10
222.029
20
-94.3629
11
229.437
21
-67.6516
0
LINE
8
Black
10
229.437
20
-67.6516
11
227.268
21
-40.075
0
LINE
8
Black
10
227.268
20
-40.075
11
72.5127
21
-40.075
  0
ENDSEC
  0
EOF
