  0
SECTION
  2
HEADER
  9
$ANGBASE
  50
0.0
  9
$ANGDIR
  70
  1
  9
$MEASUREMENT
  70
0
  0
ENDSEC
  0
SECTION
  2
TABLES
  0
TABLE
  2
LTYPE
  70
1
  0
LTYPE
  2
CONTINUOUS
  70
0
  3
Solid line
  72
65
  73
0
  40
0.0
  0
ENDTAB
  0
TABLE
  2
STYLE
  70
4
  0
STYLE
  2
KICAD
  70
0
  40
0
  41
1
  42
1
  50
0
  71
0
  3
isocp.shx
  0
STYLE
  2
KICADB
  70
0
  40
0
  41
1
  42
1
  50
0
  71
0
  3
isocp.shx
  0
STYLE
  2
KICADI
  70
0
  40
0
  41
1
  42
1
  50
15
  71
0
  3
isocp.shx
  0
STYLE
  2
KICADBI
  70
0
  40
0
  41
1
  42
1
  50
15
  71
0
  3
isocp.shx
  0
ENDTAB
  0
TABLE
  2
LAYER
  70
30
  0
LAYER
  2
BLACK
  70
0
  62
7
  6
CONTINUOUS
  0
LAYER
  2
GRAY1
  70
0
  62
251
  6
CONTINUOUS
  0
LAYER
  2
GRAY2
  70
0
  62
8
  6
CONTINUOUS
  0
LAYER
  2
GRAY3
  70
0
  62
9
  6
CONTINUOUS
  0
LAYER
  2
WHITE
  70
0
  62
7
  6
CONTINUOUS
  0
LAYER
  2
LYELLOW
  70
0
  62
51
  6
CONTINUOUS
  0
LAYER
  2
BLUE1
  70
0
  62
178
  6
CONTINUOUS
  0
LAYER
  2
GREEN1
  70
0
  62
98
  6
CONTINUOUS
  0
LAYER
  2
CYAN1
  70
0
  62
138
  6
CONTINUOUS
  0
LAYER
  2
RED1
  70
0
  62
18
  6
CONTINUOUS
  0
LAYER
  2
MAGENTA1
  70
0
  62
228
  6
CONTINUOUS
  0
LAYER
  2
BROWN1
  70
0
  62
58
  6
CONTINUOUS
  0
LAYER
  2
BLUE2
  70
0
  62
5
  6
CONTINUOUS
  0
LAYER
  2
GREEN2
  70
0
  62
3
  6
CONTINUOUS
  0
LAYER
  2
CYAN2
  70
0
  62
4
  6
CONTINUOUS
  0
LAYER
  2
RED2
  70
0
  62
1
  6
CONTINUOUS
  0
LAYER
  2
MAGENTA2
  70
0
  62
6
  6
CONTINUOUS
  0
LAYER
  2
BROWN2
  70
0
  62
54
  6
CONTINUOUS
  0
LAYER
  2
BLUE3
  70
0
  62
171
  6
CONTINUOUS
  0
LAYER
  2
GREEN3
  70
0
  62
91
  6
CONTINUOUS
  0
LAYER
  2
CYAN3
  70
0
  62
131
  6
CONTINUOUS
  0
LAYER
  2
RED3
  70
0
  62
11
  6
CONTINUOUS
  0
LAYER
  2
MAGENTA3
  70
0
  62
221
  6
CONTINUOUS
  0
LAYER
  2
YELLOW3
  70
0
  62
2
  6
CONTINUOUS
  0
LAYER
  2
BLUE4
  70
0
  62
5
  6
CONTINUOUS
  0
LAYER
  2
GREEN4
  70
0
  62
3
  6
CONTINUOUS
  0
LAYER
  2
CYAN4
  70
0
  62
4
  6
CONTINUOUS
  0
LAYER
  2
RED4
  70
0
  62
1
  6
CONTINUOUS
  0
LAYER
  2
MAGENTA4
  70
0
  62
6
  6
CONTINUOUS
  0
LAYER
  2
YELLOW4
  70
0
  62
2
  6
CONTINUOUS
  0
ENDTAB
  0
ENDSEC
  0
SECTION
  2
ENTITIES
0
LINE
8
Black
10
118.67
20
-101.443
11
118.961
21
-101.61
0
LINE
8
Black
10
118.961
20
-101.61
11
119.176
21
-101.867
0
LINE
8
Black
10
119.176
20
-101.867
11
119.291
21
-102.182
0
LINE
8
Black
10
119.291
20
-102.182
11
119.291
21
-102.518
0
LINE
8
Black
10
119.291
20
-102.518
11
119.176
21
-102.833
0
LINE
8
Black
10
119.176
20
-102.833
11
118.961
21
-103.09
0
LINE
8
Black
10
118.961
20
-103.09
11
118.67
21
-103.257
0
LINE
8
Black
10
118.67
20
-103.257
11
118.34
21
-103.316
0
LINE
8
Black
10
118.34
20
-103.316
11
118.01
21
-103.257
0
LINE
8
Black
10
118.01
20
-103.257
11
117.719
21
-103.09
0
LINE
8
Black
10
117.719
20
-103.09
11
117.504
21
-102.833
0
LINE
8
Black
10
117.504
20
-102.833
11
117.389
21
-102.518
0
LINE
8
Black
10
117.389
20
-102.518
11
117.389
21
-102.182
0
LINE
8
Black
10
117.389
20
-102.182
11
117.504
21
-101.867
0
LINE
8
Black
10
117.504
20
-101.867
11
117.719
21
-101.61
0
LINE
8
Black
10
117.719
20
-101.61
11
118.01
21
-101.443
0
LINE
8
Black
10
118.01
20
-101.443
11
118.34
21
-101.384
0
LINE
8
Black
10
118.34
20
-101.384
11
118.67
21
-101.443
0
LINE
8
Black
10
116.13
20
-101.443
11
116.421
21
-101.61
0
LINE
8
Black
10
116.421
20
-101.61
11
116.636
21
-101.867
0
LINE
8
Black
10
116.636
20
-101.867
11
116.751
21
-102.182
0
LINE
8
Black
10
116.751
20
-102.182
11
116.751
21
-102.518
0
LINE
8
Black
10
116.751
20
-102.518
11
116.636
21
-102.833
0
LINE
8
Black
10
116.636
20
-102.833
11
116.421
21
-103.09
0
LINE
8
Black
10
116.421
20
-103.09
11
116.13
21
-103.257
0
LINE
8
Black
10
116.13
20
-103.257
11
115.8
21
-103.316
0
LINE
8
Black
10
115.8
20
-103.316
11
115.47
21
-103.257
0
LINE
8
Black
10
115.47
20
-103.257
11
115.179
21
-103.09
0
LINE
8
Black
10
115.179
20
-103.09
11
114.964
21
-102.833
0
LINE
8
Black
10
114.964
20
-102.833
11
114.849
21
-102.518
0
LINE
8
Black
10
114.849
20
-102.518
11
114.849
21
-102.182
0
LINE
8
Black
10
114.849
20
-102.182
11
114.964
21
-101.867
0
LINE
8
Black
10
114.964
20
-101.867
11
115.179
21
-101.61
0
LINE
8
Black
10
115.179
20
-101.61
11
115.47
21
-101.443
0
LINE
8
Black
10
115.47
20
-101.443
11
115.8
21
-101.384
0
LINE
8
Black
10
115.8
20
-101.384
11
116.13
21
-101.443
0
LINE
8
Black
10
113.59
20
-101.443
11
113.881
21
-101.61
0
LINE
8
Black
10
113.881
20
-101.61
11
114.096
21
-101.867
0
LINE
8
Black
10
114.096
20
-101.867
11
114.211
21
-102.182
0
LINE
8
Black
10
114.211
20
-102.182
11
114.211
21
-102.518
0
LINE
8
Black
10
114.211
20
-102.518
11
114.096
21
-102.833
0
LINE
8
Black
10
114.096
20
-102.833
11
113.881
21
-103.09
0
LINE
8
Black
10
113.881
20
-103.09
11
113.59
21
-103.257
0
LINE
8
Black
10
113.59
20
-103.257
11
113.26
21
-103.316
0
LINE
8
Black
10
113.26
20
-103.316
11
112.93
21
-103.257
0
LINE
8
Black
10
112.93
20
-103.257
11
112.639
21
-103.09
0
LINE
8
Black
10
112.639
20
-103.09
11
112.424
21
-102.833
0
LINE
8
Black
10
112.424
20
-102.833
11
112.309
21
-102.518
0
LINE
8
Black
10
112.309
20
-102.518
11
112.309
21
-102.182
0
LINE
8
Black
10
112.309
20
-102.182
11
112.424
21
-101.867
0
LINE
8
Black
10
112.424
20
-101.867
11
112.639
21
-101.61
0
LINE
8
Black
10
112.639
20
-101.61
11
112.93
21
-101.443
0
LINE
8
Black
10
112.93
20
-101.443
11
113.26
21
-101.384
0
LINE
8
Black
10
113.26
20
-101.384
11
113.59
21
-101.443
0
LINE
8
Black
10
100.704
20
-98.0663
11
101.323
21
-98.4236
0
LINE
8
Black
10
101.323
20
-98.4236
11
101.782
21
-98.9711
0
LINE
8
Black
10
101.782
20
-98.9711
11
102.027
21
-99.6427
0
LINE
8
Black
10
102.027
20
-99.6427
11
102.027
21
-100.357
0
LINE
8
Black
10
102.027
20
-100.357
11
101.782
21
-101.029
0
LINE
8
Black
10
101.782
20
-101.029
11
101.323
21
-101.576
0
LINE
8
Black
10
101.323
20
-101.576
11
100.704
21
-101.934
0
LINE
8
Black
10
100.704
20
-101.934
11
100
21
-102.058
0
LINE
8
Black
10
100
20
-102.058
11
99.2962
21
-101.934
0
LINE
8
Black
10
99.2962
20
-101.934
11
98.6773
21
-101.576
0
LINE
8
Black
10
98.6773
20
-101.576
11
98.2179
21
-101.029
0
LINE
8
Black
10
98.2179
20
-101.029
11
97.9734
21
-100.357
0
LINE
8
Black
10
97.9734
20
-100.357
11
97.9734
21
-99.6427
0
LINE
8
Black
10
97.9734
20
-99.6427
11
98.2179
21
-98.9711
0
LINE
8
Black
10
98.2179
20
-98.9711
11
98.6773
21
-98.4236
0
LINE
8
Black
10
98.6773
20
-98.4236
11
99.2962
21
-98.0663
0
LINE
8
Black
10
99.2962
20
-98.0663
11
100
21
-97.9422
0
LINE
8
Black
10
100
20
-97.9422
11
100.704
21
-98.0663
0
LINE
8
Black
10
200.704
20
-98.0663
11
201.323
21
-98.4236
0
LINE
8
Black
10
201.323
20
-98.4236
11
201.782
21
-98.9711
0
LINE
8
Black
10
201.782
20
-98.9711
11
202.027
21
-99.6427
0
LINE
8
Black
10
202.027
20
-99.6427
11
202.027
21
-100.357
0
LINE
8
Black
10
202.027
20
-100.357
11
201.782
21
-101.029
0
LINE
8
Black
10
201.782
20
-101.029
11
201.323
21
-101.576
0
LINE
8
Black
10
201.323
20
-101.576
11
200.704
21
-101.934
0
LINE
8
Black
10
200.704
20
-101.934
11
200
21
-102.058
0
LINE
8
Black
10
200
20
-102.058
11
199.296
21
-101.934
0
LINE
8
Black
10
199.296
20
-101.934
11
198.677
21
-101.576
0
LINE
8
Black
10
198.677
20
-101.576
11
198.218
21
-101.029
0
LINE
8
Black
10
198.218
20
-101.029
11
197.973
21
-100.357
0
LINE
8
Black
10
197.973
20
-100.357
11
197.973
21
-99.6427
0
LINE
8
Black
10
197.973
20
-99.6427
11
198.218
21
-98.9711
0
LINE
8
Black
10
198.218
20
-98.9711
11
198.677
21
-98.4236
0
LINE
8
Black
10
198.677
20
-98.4236
11
199.296
21
-98.0663
0
LINE
8
Black
10
199.296
20
-98.0663
11
200
21
-97.9422
0
LINE
8
Black
10
200
20
-97.9422
11
200.704
21
-98.0663
0
LINE
8
Black
10
130.59
20
-101.05
11
128.49
21
-101.05
0
LINE
8
Black
10
128.49
20
-101.05
11
128.49
21
-98.95
0
LINE
8
Black
10
128.49
20
-98.95
11
130.59
21
-98.95
0
LINE
8
Black
10
130.59
20
-98.95
11
130.59
21
-101.05
0
LINE
8
Black
10
153.45
20
-101.042
11
151.35
21
-101.042
0
LINE
8
Black
10
151.35
20
-101.042
11
151.35
21
-98.942
0
LINE
8
Black
10
151.35
20
-98.942
11
153.45
21
-98.942
0
LINE
8
Black
10
153.45
20
-98.942
11
153.45
21
-101.042
0
LINE
8
Black
10
163.61
20
-101.042
11
161.51
21
-101.042
0
LINE
8
Black
10
161.51
20
-101.042
11
161.51
21
-98.942
0
LINE
8
Black
10
161.51
20
-98.942
11
163.61
21
-98.942
0
LINE
8
Black
10
163.61
20
-98.942
11
163.61
21
-101.042
0
LINE
8
Black
10
147.845
20
-99.0867
11
148.124
21
-99.3211
0
LINE
8
Black
10
148.124
20
-99.3211
11
148.307
21
-99.6369
0
LINE
8
Black
10
148.307
20
-99.6369
11
148.37
21
-99.996
0
LINE
8
Black
10
148.37
20
-99.996
11
148.37
21
-100.004
0
LINE
8
Black
10
148.37
20
-100.004
11
148.307
21
-100.363
0
LINE
8
Black
10
148.307
20
-100.363
11
148.124
21
-100.679
0
LINE
8
Black
10
148.124
20
-100.679
11
147.845
21
-100.913
0
LINE
8
Black
10
147.845
20
-100.913
11
147.502
21
-101.038
0
LINE
8
Black
10
147.502
20
-101.038
11
147.138
21
-101.038
0
LINE
8
Black
10
147.138
20
-101.038
11
146.795
21
-100.913
0
LINE
8
Black
10
146.795
20
-100.913
11
146.516
21
-100.679
0
LINE
8
Black
10
146.516
20
-100.679
11
146.333
21
-100.363
0
LINE
8
Black
10
146.333
20
-100.363
11
146.27
21
-100.004
0
LINE
8
Black
10
146.27
20
-100.004
11
146.27
21
-99.996
0
LINE
8
Black
10
146.27
20
-99.996
11
146.333
21
-99.6369
0
LINE
8
Black
10
146.333
20
-99.6369
11
146.516
21
-99.3211
0
LINE
8
Black
10
146.516
20
-99.3211
11
146.795
21
-99.0867
0
LINE
8
Black
10
146.795
20
-99.0867
11
147.138
21
-98.9619
0
LINE
8
Black
10
147.138
20
-98.9619
11
147.502
21
-98.9619
0
LINE
8
Black
10
147.502
20
-98.9619
11
147.845
21
-99.0867
0
LINE
8
Black
10
145.305
20
-99.0867
11
145.584
21
-99.3211
0
LINE
8
Black
10
145.584
20
-99.3211
11
145.767
21
-99.6369
0
LINE
8
Black
10
145.767
20
-99.6369
11
145.83
21
-99.996
0
LINE
8
Black
10
145.83
20
-99.996
11
145.83
21
-100.004
0
LINE
8
Black
10
145.83
20
-100.004
11
145.767
21
-100.363
0
LINE
8
Black
10
145.767
20
-100.363
11
145.584
21
-100.679
0
LINE
8
Black
10
145.584
20
-100.679
11
145.305
21
-100.913
0
LINE
8
Black
10
145.305
20
-100.913
11
144.962
21
-101.038
0
LINE
8
Black
10
144.962
20
-101.038
11
144.598
21
-101.038
0
LINE
8
Black
10
144.598
20
-101.038
11
144.255
21
-100.913
0
LINE
8
Black
10
144.255
20
-100.913
11
143.976
21
-100.679
0
LINE
8
Black
10
143.976
20
-100.679
11
143.793
21
-100.363
0
LINE
8
Black
10
143.793
20
-100.363
11
143.73
21
-100.004
0
LINE
8
Black
10
143.73
20
-100.004
11
143.73
21
-99.996
0
LINE
8
Black
10
143.73
20
-99.996
11
143.793
21
-99.6369
0
LINE
8
Black
10
143.793
20
-99.6369
11
143.976
21
-99.3211
0
LINE
8
Black
10
143.976
20
-99.3211
11
144.255
21
-99.0867
0
LINE
8
Black
10
144.255
20
-99.0867
11
144.598
21
-98.9619
0
LINE
8
Black
10
144.598
20
-98.9619
11
144.962
21
-98.9619
0
LINE
8
Black
10
144.962
20
-98.9619
11
145.305
21
-99.0867
0
LINE
8
Black
10
142.765
20
-99.0867
11
143.044
21
-99.3211
0
LINE
8
Black
10
143.044
20
-99.3211
11
143.227
21
-99.6369
0
LINE
8
Black
10
143.227
20
-99.6369
11
143.29
21
-99.996
0
LINE
8
Black
10
143.29
20
-99.996
11
143.29
21
-100.004
0
LINE
8
Black
10
143.29
20
-100.004
11
143.227
21
-100.363
0
LINE
8
Black
10
143.227
20
-100.363
11
143.044
21
-100.679
0
LINE
8
Black
10
143.044
20
-100.679
11
142.765
21
-100.913
0
LINE
8
Black
10
142.765
20
-100.913
11
142.422
21
-101.038
0
LINE
8
Black
10
142.422
20
-101.038
11
142.058
21
-101.038
0
LINE
8
Black
10
142.058
20
-101.038
11
141.715
21
-100.913
0
LINE
8
Black
10
141.715
20
-100.913
11
141.436
21
-100.679
0
LINE
8
Black
10
141.436
20
-100.679
11
141.253
21
-100.363
0
LINE
8
Black
10
141.253
20
-100.363
11
141.19
21
-100.004
0
LINE
8
Black
10
141.19
20
-100.004
11
141.19
21
-99.996
0
LINE
8
Black
10
141.19
20
-99.996
11
141.253
21
-99.6369
0
LINE
8
Black
10
141.253
20
-99.6369
11
141.436
21
-99.3211
0
LINE
8
Black
10
141.436
20
-99.3211
11
141.715
21
-99.0867
0
LINE
8
Black
10
141.715
20
-99.0867
11
142.058
21
-98.9619
0
LINE
8
Black
10
142.058
20
-98.9619
11
142.422
21
-98.9619
0
LINE
8
Black
10
142.422
20
-98.9619
11
142.765
21
-99.0867
0
LINE
8
Black
10
140.225
20
-99.0867
11
140.504
21
-99.3211
0
LINE
8
Black
10
140.504
20
-99.3211
11
140.687
21
-99.6369
0
LINE
8
Black
10
140.687
20
-99.6369
11
140.75
21
-99.996
0
LINE
8
Black
10
140.75
20
-99.996
11
140.75
21
-100.004
0
LINE
8
Black
10
140.75
20
-100.004
11
140.687
21
-100.363
0
LINE
8
Black
10
140.687
20
-100.363
11
140.504
21
-100.679
0
LINE
8
Black
10
140.504
20
-100.679
11
140.225
21
-100.913
0
LINE
8
Black
10
140.225
20
-100.913
11
139.882
21
-101.038
0
LINE
8
Black
10
139.882
20
-101.038
11
139.518
21
-101.038
0
LINE
8
Black
10
139.518
20
-101.038
11
139.175
21
-100.913
0
LINE
8
Black
10
139.175
20
-100.913
11
138.896
21
-100.679
0
LINE
8
Black
10
138.896
20
-100.679
11
138.713
21
-100.363
0
LINE
8
Black
10
138.713
20
-100.363
11
138.65
21
-100.004
0
LINE
8
Black
10
138.65
20
-100.004
11
138.65
21
-99.996
0
LINE
8
Black
10
138.65
20
-99.996
11
138.713
21
-99.6369
0
LINE
8
Black
10
138.713
20
-99.6369
11
138.896
21
-99.3211
0
LINE
8
Black
10
138.896
20
-99.3211
11
139.175
21
-99.0867
0
LINE
8
Black
10
139.175
20
-99.0867
11
139.518
21
-98.9619
0
LINE
8
Black
10
139.518
20
-98.9619
11
139.882
21
-98.9619
0
LINE
8
Black
10
139.882
20
-98.9619
11
140.225
21
-99.0867
0
LINE
8
Black
10
137.685
20
-99.0867
11
137.964
21
-99.3211
0
LINE
8
Black
10
137.964
20
-99.3211
11
138.147
21
-99.6369
0
LINE
8
Black
10
138.147
20
-99.6369
11
138.21
21
-99.996
0
LINE
8
Black
10
138.21
20
-99.996
11
138.21
21
-100.004
0
LINE
8
Black
10
138.21
20
-100.004
11
138.147
21
-100.363
0
LINE
8
Black
10
138.147
20
-100.363
11
137.964
21
-100.679
0
LINE
8
Black
10
137.964
20
-100.679
11
137.685
21
-100.913
0
LINE
8
Black
10
137.685
20
-100.913
11
137.342
21
-101.038
0
LINE
8
Black
10
137.342
20
-101.038
11
136.978
21
-101.038
0
LINE
8
Black
10
136.978
20
-101.038
11
136.635
21
-100.913
0
LINE
8
Black
10
136.635
20
-100.913
11
136.356
21
-100.679
0
LINE
8
Black
10
136.356
20
-100.679
11
136.173
21
-100.363
0
LINE
8
Black
10
136.173
20
-100.363
11
136.11
21
-100.004
0
LINE
8
Black
10
136.11
20
-100.004
11
136.11
21
-99.996
0
LINE
8
Black
10
136.11
20
-99.996
11
136.173
21
-99.6369
0
LINE
8
Black
10
136.173
20
-99.6369
11
136.356
21
-99.3211
0
LINE
8
Black
10
136.356
20
-99.3211
11
136.635
21
-99.0867
0
LINE
8
Black
10
136.635
20
-99.0867
11
136.978
21
-98.9619
0
LINE
8
Black
10
136.978
20
-98.9619
11
137.342
21
-98.9619
0
LINE
8
Black
10
137.342
20
-98.9619
11
137.685
21
-99.0867
0
LINE
8
Black
10
135.145
20
-99.0867
11
135.424
21
-99.3211
0
LINE
8
Black
10
135.424
20
-99.3211
11
135.607
21
-99.6369
0
LINE
8
Black
10
135.607
20
-99.6369
11
135.67
21
-99.996
0
LINE
8
Black
10
135.67
20
-99.996
11
135.67
21
-100.004
0
LINE
8
Black
10
135.67
20
-100.004
11
135.607
21
-100.363
0
LINE
8
Black
10
135.607
20
-100.363
11
135.424
21
-100.679
0
LINE
8
Black
10
135.424
20
-100.679
11
135.145
21
-100.913
0
LINE
8
Black
10
135.145
20
-100.913
11
134.802
21
-101.038
0
LINE
8
Black
10
134.802
20
-101.038
11
134.438
21
-101.038
0
LINE
8
Black
10
134.438
20
-101.038
11
134.095
21
-100.913
0
LINE
8
Black
10
134.095
20
-100.913
11
133.816
21
-100.679
0
LINE
8
Black
10
133.816
20
-100.679
11
133.633
21
-100.363
0
LINE
8
Black
10
133.633
20
-100.363
11
133.57
21
-100.004
0
LINE
8
Black
10
133.57
20
-100.004
11
133.57
21
-99.996
0
LINE
8
Black
10
133.57
20
-99.996
11
133.633
21
-99.6369
0
LINE
8
Black
10
133.633
20
-99.6369
11
133.816
21
-99.3211
0
LINE
8
Black
10
133.816
20
-99.3211
11
134.095
21
-99.0867
0
LINE
8
Black
10
134.095
20
-99.0867
11
134.438
21
-98.9619
0
LINE
8
Black
10
134.438
20
-98.9619
11
134.802
21
-98.9619
0
LINE
8
Black
10
134.802
20
-98.9619
11
135.145
21
-99.0867
0
LINE
8
Black
10
132.605
20
-99.0867
11
132.884
21
-99.3211
0
LINE
8
Black
10
132.884
20
-99.3211
11
133.067
21
-99.6369
0
LINE
8
Black
10
133.067
20
-99.6369
11
133.13
21
-99.996
0
LINE
8
Black
10
133.13
20
-99.996
11
133.13
21
-100.004
0
LINE
8
Black
10
133.13
20
-100.004
11
133.067
21
-100.363
0
LINE
8
Black
10
133.067
20
-100.363
11
132.884
21
-100.679
0
LINE
8
Black
10
132.884
20
-100.679
11
132.605
21
-100.913
0
LINE
8
Black
10
132.605
20
-100.913
11
132.262
21
-101.038
0
LINE
8
Black
10
132.262
20
-101.038
11
131.898
21
-101.038
0
LINE
8
Black
10
131.898
20
-101.038
11
131.555
21
-100.913
0
LINE
8
Black
10
131.555
20
-100.913
11
131.276
21
-100.679
0
LINE
8
Black
10
131.276
20
-100.679
11
131.093
21
-100.363
0
LINE
8
Black
10
131.093
20
-100.363
11
131.03
21
-100.004
0
LINE
8
Black
10
131.03
20
-100.004
11
131.03
21
-99.996
0
LINE
8
Black
10
131.03
20
-99.996
11
131.093
21
-99.6369
0
LINE
8
Black
10
131.093
20
-99.6369
11
131.276
21
-99.3211
0
LINE
8
Black
10
131.276
20
-99.3211
11
131.555
21
-99.0867
0
LINE
8
Black
10
131.555
20
-99.0867
11
131.898
21
-98.9619
0
LINE
8
Black
10
131.898
20
-98.9619
11
132.262
21
-98.9619
0
LINE
8
Black
10
132.262
20
-98.9619
11
132.605
21
-99.0867
0
LINE
8
Black
10
158.005
20
-99.0787
11
158.284
21
-99.3131
0
LINE
8
Black
10
158.284
20
-99.3131
11
158.467
21
-99.6289
0
LINE
8
Black
10
158.467
20
-99.6289
11
158.53
21
-99.988
0
LINE
8
Black
10
158.53
20
-99.988
11
158.53
21
-99.996
0
LINE
8
Black
10
158.53
20
-99.996
11
158.467
21
-100.355
0
LINE
8
Black
10
158.467
20
-100.355
11
158.284
21
-100.671
0
LINE
8
Black
10
158.284
20
-100.671
11
158.005
21
-100.905
0
LINE
8
Black
10
158.005
20
-100.905
11
157.662
21
-101.03
0
LINE
8
Black
10
157.662
20
-101.03
11
157.298
21
-101.03
0
LINE
8
Black
10
157.298
20
-101.03
11
156.955
21
-100.905
0
LINE
8
Black
10
156.955
20
-100.905
11
156.676
21
-100.671
0
LINE
8
Black
10
156.676
20
-100.671
11
156.493
21
-100.355
0
LINE
8
Black
10
156.493
20
-100.355
11
156.43
21
-99.996
0
LINE
8
Black
10
156.43
20
-99.996
11
156.43
21
-99.988
0
LINE
8
Black
10
156.43
20
-99.988
11
156.493
21
-99.6289
0
LINE
8
Black
10
156.493
20
-99.6289
11
156.676
21
-99.3131
0
LINE
8
Black
10
156.676
20
-99.3131
11
156.955
21
-99.0787
0
LINE
8
Black
10
156.955
20
-99.0787
11
157.298
21
-98.9539
0
LINE
8
Black
10
157.298
20
-98.9539
11
157.662
21
-98.9539
0
LINE
8
Black
10
157.662
20
-98.9539
11
158.005
21
-99.0787
0
LINE
8
Black
10
168.165
20
-99.0787
11
168.444
21
-99.3131
0
LINE
8
Black
10
168.444
20
-99.3131
11
168.627
21
-99.6289
0
LINE
8
Black
10
168.627
20
-99.6289
11
168.69
21
-99.988
0
LINE
8
Black
10
168.69
20
-99.988
11
168.69
21
-99.996
0
LINE
8
Black
10
168.69
20
-99.996
11
168.627
21
-100.355
0
LINE
8
Black
10
168.627
20
-100.355
11
168.444
21
-100.671
0
LINE
8
Black
10
168.444
20
-100.671
11
168.165
21
-100.905
0
LINE
8
Black
10
168.165
20
-100.905
11
167.822
21
-101.03
0
LINE
8
Black
10
167.822
20
-101.03
11
167.458
21
-101.03
0
LINE
8
Black
10
167.458
20
-101.03
11
167.115
21
-100.905
0
LINE
8
Black
10
167.115
20
-100.905
11
166.836
21
-100.671
0
LINE
8
Black
10
166.836
20
-100.671
11
166.653
21
-100.355
0
LINE
8
Black
10
166.653
20
-100.355
11
166.59
21
-99.996
0
LINE
8
Black
10
166.59
20
-99.996
11
166.59
21
-99.988
0
LINE
8
Black
10
166.59
20
-99.988
11
166.653
21
-99.6289
0
LINE
8
Black
10
166.653
20
-99.6289
11
166.836
21
-99.3131
0
LINE
8
Black
10
166.836
20
-99.3131
11
167.115
21
-99.0787
0
LINE
8
Black
10
167.115
20
-99.0787
11
167.458
21
-98.9539
0
LINE
8
Black
10
167.458
20
-98.9539
11
167.822
21
-98.9539
0
LINE
8
Black
10
167.822
20
-98.9539
11
168.165
21
-99.0787
0
LINE
8
Black
10
165.625
20
-99.0787
11
165.904
21
-99.3131
0
LINE
8
Black
10
165.904
20
-99.3131
11
166.087
21
-99.6289
0
LINE
8
Black
10
166.087
20
-99.6289
11
166.15
21
-99.988
0
LINE
8
Black
10
166.15
20
-99.988
11
166.15
21
-99.996
0
LINE
8
Black
10
166.15
20
-99.996
11
166.087
21
-100.355
0
LINE
8
Black
10
166.087
20
-100.355
11
165.904
21
-100.671
0
LINE
8
Black
10
165.904
20
-100.671
11
165.625
21
-100.905
0
LINE
8
Black
10
165.625
20
-100.905
11
165.282
21
-101.03
0
LINE
8
Black
10
165.282
20
-101.03
11
164.918
21
-101.03
0
LINE
8
Black
10
164.918
20
-101.03
11
164.575
21
-100.905
0
LINE
8
Black
10
164.575
20
-100.905
11
164.296
21
-100.671
0
LINE
8
Black
10
164.296
20
-100.671
11
164.113
21
-100.355
0
LINE
8
Black
10
164.113
20
-100.355
11
164.05
21
-99.996
0
LINE
8
Black
10
164.05
20
-99.996
11
164.05
21
-99.988
0
LINE
8
Black
10
164.05
20
-99.988
11
164.113
21
-99.6289
0
LINE
8
Black
10
164.113
20
-99.6289
11
164.296
21
-99.3131
0
LINE
8
Black
10
164.296
20
-99.3131
11
164.575
21
-99.0787
0
LINE
8
Black
10
164.575
20
-99.0787
11
164.918
21
-98.9539
0
LINE
8
Black
10
164.918
20
-98.9539
11
165.282
21
-98.9539
0
LINE
8
Black
10
165.282
20
-98.9539
11
165.625
21
-99.0787
0
LINE
8
Black
10
155.465
20
-99.0787
11
155.744
21
-99.3131
0
LINE
8
Black
10
155.744
20
-99.3131
11
155.927
21
-99.6289
0
LINE
8
Black
10
155.927
20
-99.6289
11
155.99
21
-99.988
0
LINE
8
Black
10
155.99
20
-99.988
11
155.99
21
-99.996
0
LINE
8
Black
10
155.99
20
-99.996
11
155.927
21
-100.355
0
LINE
8
Black
10
155.927
20
-100.355
11
155.744
21
-100.671
0
LINE
8
Black
10
155.744
20
-100.671
11
155.465
21
-100.905
0
LINE
8
Black
10
155.465
20
-100.905
11
155.122
21
-101.03
0
LINE
8
Black
10
155.122
20
-101.03
11
154.758
21
-101.03
0
LINE
8
Black
10
154.758
20
-101.03
11
154.415
21
-100.905
0
LINE
8
Black
10
154.415
20
-100.905
11
154.136
21
-100.671
0
LINE
8
Black
10
154.136
20
-100.671
11
153.953
21
-100.355
0
LINE
8
Black
10
153.953
20
-100.355
11
153.89
21
-99.996
0
LINE
8
Black
10
153.89
20
-99.996
11
153.89
21
-99.988
0
LINE
8
Black
10
153.89
20
-99.988
11
153.953
21
-99.6289
0
LINE
8
Black
10
153.953
20
-99.6289
11
154.136
21
-99.3131
0
LINE
8
Black
10
154.136
20
-99.3131
11
154.415
21
-99.0787
0
LINE
8
Black
10
154.415
20
-99.0787
11
154.758
21
-98.9539
0
LINE
8
Black
10
154.758
20
-98.9539
11
155.122
21
-98.9539
0
LINE
8
Black
10
155.122
20
-98.9539
11
155.465
21
-99.0787
0
LINE
8
Black
10
90.4978
20
-67.2682
11
90.9356
21
-67.521
0
LINE
8
Black
10
90.9356
20
-67.521
11
91.2605
21
-67.9082
0
LINE
8
Black
10
91.2605
20
-67.9082
11
91.4334
21
-68.3832
0
LINE
8
Black
10
91.4334
20
-68.3832
11
91.4334
21
-68.8888
0
LINE
8
Black
10
91.4334
20
-68.8888
11
91.2605
21
-69.3638
0
LINE
8
Black
10
91.2605
20
-69.3638
11
90.9356
21
-69.751
0
LINE
8
Black
10
90.9356
20
-69.751
11
90.4978
21
-70.0038
0
LINE
8
Black
10
90.4978
20
-70.0038
11
90
21
-70.0915
0
LINE
8
Black
10
90
20
-70.0915
11
89.5022
21
-70.0038
0
LINE
8
Black
10
89.5022
20
-70.0038
11
89.0644
21
-69.751
0
LINE
8
Black
10
89.0644
20
-69.751
11
88.7395
21
-69.3638
0
LINE
8
Black
10
88.7395
20
-69.3638
11
88.5666
21
-68.8888
0
LINE
8
Black
10
88.5666
20
-68.8888
11
88.5666
21
-68.3832
0
LINE
8
Black
10
88.5666
20
-68.3832
11
88.7395
21
-67.9082
0
LINE
8
Black
10
88.7395
20
-67.9082
11
89.0644
21
-67.521
0
LINE
8
Black
10
89.0644
20
-67.521
11
89.5022
21
-67.2682
0
LINE
8
Black
10
89.5022
20
-67.2682
11
90
21
-67.1805
0
LINE
8
Black
10
90
20
-67.1805
11
90.4978
21
-67.2682
0
LINE
8
Black
10
210.498
20
-67.2682
11
210.936
21
-67.521
0
LINE
8
Black
10
210.936
20
-67.521
11
211.261
21
-67.9082
0
LINE
8
Black
10
211.261
20
-67.9082
11
211.433
21
-68.3832
0
LINE
8
Black
10
211.433
20
-68.3832
11
211.433
21
-68.8888
0
LINE
8
Black
10
211.433
20
-68.8888
11
211.261
21
-69.3638
0
LINE
8
Black
10
211.261
20
-69.3638
11
210.936
21
-69.751
0
LINE
8
Black
10
210.936
20
-69.751
11
210.498
21
-70.0038
0
LINE
8
Black
10
210.498
20
-70.0038
11
210
21
-70.0915
0
LINE
8
Black
10
210
20
-70.0915
11
209.502
21
-70.0038
0
LINE
8
Black
10
209.502
20
-70.0038
11
209.064
21
-69.751
0
LINE
8
Black
10
209.064
20
-69.751
11
208.739
21
-69.3638
0
LINE
8
Black
10
208.739
20
-69.3638
11
208.567
21
-68.8888
0
LINE
8
Black
10
208.567
20
-68.8888
11
208.567
21
-68.3832
0
LINE
8
Black
10
208.567
20
-68.3832
11
208.739
21
-67.9082
0
LINE
8
Black
10
208.739
20
-67.9082
11
209.064
21
-67.521
0
LINE
8
Black
10
209.064
20
-67.521
11
209.502
21
-67.2682
0
LINE
8
Black
10
209.502
20
-67.2682
11
210
21
-67.1805
0
LINE
8
Black
10
210
20
-67.1805
11
210.498
21
-67.2682
0
LINE
8
Black
10
190.498
20
-67.2682
11
190.936
21
-67.521
0
LINE
8
Black
10
190.936
20
-67.521
11
191.261
21
-67.9082
0
LINE
8
Black
10
191.261
20
-67.9082
11
191.433
21
-68.3832
0
LINE
8
Black
10
191.433
20
-68.3832
11
191.433
21
-68.8888
0
LINE
8
Black
10
191.433
20
-68.8888
11
191.261
21
-69.3638
0
LINE
8
Black
10
191.261
20
-69.3638
11
190.936
21
-69.751
0
LINE
8
Black
10
190.936
20
-69.751
11
190.498
21
-70.0038
0
LINE
8
Black
10
190.498
20
-70.0038
11
190
21
-70.0915
0
LINE
8
Black
10
190
20
-70.0915
11
189.502
21
-70.0038
0
LINE
8
Black
10
189.502
20
-70.0038
11
189.064
21
-69.751
0
LINE
8
Black
10
189.064
20
-69.751
11
188.739
21
-69.3638
0
LINE
8
Black
10
188.739
20
-69.3638
11
188.567
21
-68.8888
0
LINE
8
Black
10
188.567
20
-68.8888
11
188.567
21
-68.3832
0
LINE
8
Black
10
188.567
20
-68.3832
11
188.739
21
-67.9082
0
LINE
8
Black
10
188.739
20
-67.9082
11
189.064
21
-67.521
0
LINE
8
Black
10
189.064
20
-67.521
11
189.502
21
-67.2682
0
LINE
8
Black
10
189.502
20
-67.2682
11
190
21
-67.1805
0
LINE
8
Black
10
190
20
-67.1805
11
190.498
21
-67.2682
0
LINE
8
Black
10
110.498
20
-67.2682
11
110.936
21
-67.521
0
LINE
8
Black
10
110.936
20
-67.521
11
111.261
21
-67.9082
0
LINE
8
Black
10
111.261
20
-67.9082
11
111.433
21
-68.3832
0
LINE
8
Black
10
111.433
20
-68.3832
11
111.433
21
-68.8888
0
LINE
8
Black
10
111.433
20
-68.8888
11
111.261
21
-69.3638
0
LINE
8
Black
10
111.261
20
-69.3638
11
110.936
21
-69.751
0
LINE
8
Black
10
110.936
20
-69.751
11
110.498
21
-70.0038
0
LINE
8
Black
10
110.498
20
-70.0038
11
110
21
-70.0915
0
LINE
8
Black
10
110
20
-70.0915
11
109.502
21
-70.0038
0
LINE
8
Black
10
109.502
20
-70.0038
11
109.064
21
-69.751
0
LINE
8
Black
10
109.064
20
-69.751
11
108.739
21
-69.3638
0
LINE
8
Black
10
108.739
20
-69.3638
11
108.567
21
-68.8888
0
LINE
8
Black
10
108.567
20
-68.8888
11
108.567
21
-68.3832
0
LINE
8
Black
10
108.567
20
-68.3832
11
108.739
21
-67.9082
0
LINE
8
Black
10
108.739
20
-67.9082
11
109.064
21
-67.521
0
LINE
8
Black
10
109.064
20
-67.521
11
109.502
21
-67.2682
0
LINE
8
Black
10
109.502
20
-67.2682
11
110
21
-67.1805
0
LINE
8
Black
10
110
20
-67.1805
11
110.498
21
-67.2682
0
LINE
8
Black
10
140.498
20
-67.2682
11
140.936
21
-67.521
0
LINE
8
Black
10
140.936
20
-67.521
11
141.261
21
-67.9082
0
LINE
8
Black
10
141.261
20
-67.9082
11
141.433
21
-68.3832
0
LINE
8
Black
10
141.433
20
-68.3832
11
141.433
21
-68.8888
0
LINE
8
Black
10
141.433
20
-68.8888
11
141.261
21
-69.3638
0
LINE
8
Black
10
141.261
20
-69.3638
11
140.936
21
-69.751
0
LINE
8
Black
10
140.936
20
-69.751
11
140.498
21
-70.0038
0
LINE
8
Black
10
140.498
20
-70.0038
11
140
21
-70.0915
0
LINE
8
Black
10
140
20
-70.0915
11
139.502
21
-70.0038
0
LINE
8
Black
10
139.502
20
-70.0038
11
139.064
21
-69.751
0
LINE
8
Black
10
139.064
20
-69.751
11
138.739
21
-69.3638
0
LINE
8
Black
10
138.739
20
-69.3638
11
138.567
21
-68.8888
0
LINE
8
Black
10
138.567
20
-68.8888
11
138.567
21
-68.3832
0
LINE
8
Black
10
138.567
20
-68.3832
11
138.739
21
-67.9082
0
LINE
8
Black
10
138.739
20
-67.9082
11
139.064
21
-67.521
0
LINE
8
Black
10
139.064
20
-67.521
11
139.502
21
-67.2682
0
LINE
8
Black
10
139.502
20
-67.2682
11
140
21
-67.1805
0
LINE
8
Black
10
140
20
-67.1805
11
140.498
21
-67.2682
0
LINE
8
Black
10
160.498
20
-67.2682
11
160.936
21
-67.521
0
LINE
8
Black
10
160.936
20
-67.521
11
161.261
21
-67.9082
0
LINE
8
Black
10
161.261
20
-67.9082
11
161.433
21
-68.3832
0
LINE
8
Black
10
161.433
20
-68.3832
11
161.433
21
-68.8888
0
LINE
8
Black
10
161.433
20
-68.8888
11
161.261
21
-69.3638
0
LINE
8
Black
10
161.261
20
-69.3638
11
160.936
21
-69.751
0
LINE
8
Black
10
160.936
20
-69.751
11
160.498
21
-70.0038
0
LINE
8
Black
10
160.498
20
-70.0038
11
160
21
-70.0915
0
LINE
8
Black
10
160
20
-70.0915
11
159.502
21
-70.0038
0
LINE
8
Black
10
159.502
20
-70.0038
11
159.064
21
-69.751
0
LINE
8
Black
10
159.064
20
-69.751
11
158.739
21
-69.3638
0
LINE
8
Black
10
158.739
20
-69.3638
11
158.567
21
-68.8888
0
LINE
8
Black
10
158.567
20
-68.8888
11
158.567
21
-68.3832
0
LINE
8
Black
10
158.567
20
-68.3832
11
158.739
21
-67.9082
0
LINE
8
Black
10
158.739
20
-67.9082
11
159.064
21
-67.521
0
LINE
8
Black
10
159.064
20
-67.521
11
159.502
21
-67.2682
0
LINE
8
Black
10
159.502
20
-67.2682
11
160
21
-67.1805
0
LINE
8
Black
10
160
20
-67.1805
11
160.498
21
-67.2682
0
LINE
8
Black
10
114.284
20
-66.3942
11
114.722
21
-66.647
0
LINE
8
Black
10
114.722
20
-66.647
11
115.047
21
-67.0342
0
LINE
8
Black
10
115.047
20
-67.0342
11
115.219
21
-67.5092
0
LINE
8
Black
10
115.219
20
-67.5092
11
115.219
21
-68.0148
0
LINE
8
Black
10
115.219
20
-68.0148
11
115.047
21
-68.4898
0
LINE
8
Black
10
115.047
20
-68.4898
11
114.722
21
-68.877
0
LINE
8
Black
10
114.722
20
-68.877
11
114.284
21
-69.1298
0
LINE
8
Black
10
114.284
20
-69.1298
11
113.786
21
-69.2175
0
LINE
8
Black
10
113.786
20
-69.2175
11
113.288
21
-69.1298
0
LINE
8
Black
10
113.288
20
-69.1298
11
112.85
21
-68.877
0
LINE
8
Black
10
112.85
20
-68.877
11
112.525
21
-68.4898
0
LINE
8
Black
10
112.525
20
-68.4898
11
112.353
21
-68.0148
0
LINE
8
Black
10
112.353
20
-68.0148
11
112.353
21
-67.5092
0
LINE
8
Black
10
112.353
20
-67.5092
11
112.525
21
-67.0342
0
LINE
8
Black
10
112.525
20
-67.0342
11
112.85
21
-66.647
0
LINE
8
Black
10
112.85
20
-66.647
11
113.288
21
-66.3942
0
LINE
8
Black
10
113.288
20
-66.3942
11
113.786
21
-66.3065
0
LINE
8
Black
10
113.786
20
-66.3065
11
114.284
21
-66.3942
0
LINE
8
Black
10
86.7118
20
-66.3942
11
87.1496
21
-66.647
0
LINE
8
Black
10
87.1496
20
-66.647
11
87.4745
21
-67.0342
0
LINE
8
Black
10
87.4745
20
-67.0342
11
87.6474
21
-67.5092
0
LINE
8
Black
10
87.6474
20
-67.5092
11
87.6474
21
-68.0148
0
LINE
8
Black
10
87.6474
20
-68.0148
11
87.4745
21
-68.4898
0
LINE
8
Black
10
87.4745
20
-68.4898
11
87.1496
21
-68.877
0
LINE
8
Black
10
87.1496
20
-68.877
11
86.7118
21
-69.1298
0
LINE
8
Black
10
86.7118
20
-69.1298
11
86.214
21
-69.2175
0
LINE
8
Black
10
86.214
20
-69.2175
11
85.7162
21
-69.1298
0
LINE
8
Black
10
85.7162
20
-69.1298
11
85.2784
21
-68.877
0
LINE
8
Black
10
85.2784
20
-68.877
11
84.9535
21
-68.4898
0
LINE
8
Black
10
84.9535
20
-68.4898
11
84.7806
21
-68.0148
0
LINE
8
Black
10
84.7806
20
-68.0148
11
84.7806
21
-67.5092
0
LINE
8
Black
10
84.7806
20
-67.5092
11
84.9535
21
-67.0342
0
LINE
8
Black
10
84.9535
20
-67.0342
11
85.2784
21
-66.647
0
LINE
8
Black
10
85.2784
20
-66.647
11
85.7162
21
-66.3942
0
LINE
8
Black
10
85.7162
20
-66.3942
11
86.214
21
-66.3065
0
LINE
8
Black
10
86.214
20
-66.3065
11
86.7118
21
-66.3942
0
LINE
8
Black
10
106.712
20
-66.3942
11
107.15
21
-66.647
0
LINE
8
Black
10
107.15
20
-66.647
11
107.475
21
-67.0342
0
LINE
8
Black
10
107.475
20
-67.0342
11
107.647
21
-67.5092
0
LINE
8
Black
10
107.647
20
-67.5092
11
107.647
21
-68.0148
0
LINE
8
Black
10
107.647
20
-68.0148
11
107.475
21
-68.4898
0
LINE
8
Black
10
107.475
20
-68.4898
11
107.15
21
-68.877
0
LINE
8
Black
10
107.15
20
-68.877
11
106.712
21
-69.1298
0
LINE
8
Black
10
106.712
20
-69.1298
11
106.214
21
-69.2175
0
LINE
8
Black
10
106.214
20
-69.2175
11
105.716
21
-69.1298
0
LINE
8
Black
10
105.716
20
-69.1298
11
105.278
21
-68.877
0
LINE
8
Black
10
105.278
20
-68.877
11
104.953
21
-68.4898
0
LINE
8
Black
10
104.953
20
-68.4898
11
104.781
21
-68.0148
0
LINE
8
Black
10
104.781
20
-68.0148
11
104.781
21
-67.5092
0
LINE
8
Black
10
104.781
20
-67.5092
11
104.953
21
-67.0342
0
LINE
8
Black
10
104.953
20
-67.0342
11
105.278
21
-66.647
0
LINE
8
Black
10
105.278
20
-66.647
11
105.716
21
-66.3942
0
LINE
8
Black
10
105.716
20
-66.3942
11
106.214
21
-66.3065
0
LINE
8
Black
10
106.214
20
-66.3065
11
106.712
21
-66.3942
0
LINE
8
Black
10
164.284
20
-66.3942
11
164.722
21
-66.647
0
LINE
8
Black
10
164.722
20
-66.647
11
165.047
21
-67.0342
0
LINE
8
Black
10
165.047
20
-67.0342
11
165.219
21
-67.5092
0
LINE
8
Black
10
165.219
20
-67.5092
11
165.219
21
-68.0148
0
LINE
8
Black
10
165.219
20
-68.0148
11
165.047
21
-68.4898
0
LINE
8
Black
10
165.047
20
-68.4898
11
164.722
21
-68.877
0
LINE
8
Black
10
164.722
20
-68.877
11
164.284
21
-69.1298
0
LINE
8
Black
10
164.284
20
-69.1298
11
163.786
21
-69.2175
0
LINE
8
Black
10
163.786
20
-69.2175
11
163.288
21
-69.1298
0
LINE
8
Black
10
163.288
20
-69.1298
11
162.85
21
-68.877
0
LINE
8
Black
10
162.85
20
-68.877
11
162.525
21
-68.4898
0
LINE
8
Black
10
162.525
20
-68.4898
11
162.353
21
-68.0148
0
LINE
8
Black
10
162.353
20
-68.0148
11
162.353
21
-67.5092
0
LINE
8
Black
10
162.353
20
-67.5092
11
162.525
21
-67.0342
0
LINE
8
Black
10
162.525
20
-67.0342
11
162.85
21
-66.647
0
LINE
8
Black
10
162.85
20
-66.647
11
163.288
21
-66.3942
0
LINE
8
Black
10
163.288
20
-66.3942
11
163.786
21
-66.3065
0
LINE
8
Black
10
163.786
20
-66.3065
11
164.284
21
-66.3942
0
LINE
8
Black
10
156.712
20
-66.3942
11
157.15
21
-66.647
0
LINE
8
Black
10
157.15
20
-66.647
11
157.475
21
-67.0342
0
LINE
8
Black
10
157.475
20
-67.0342
11
157.647
21
-67.5092
0
LINE
8
Black
10
157.647
20
-67.5092
11
157.647
21
-68.0148
0
LINE
8
Black
10
157.647
20
-68.0148
11
157.475
21
-68.4898
0
LINE
8
Black
10
157.475
20
-68.4898
11
157.15
21
-68.877
0
LINE
8
Black
10
157.15
20
-68.877
11
156.712
21
-69.1298
0
LINE
8
Black
10
156.712
20
-69.1298
11
156.214
21
-69.2175
0
LINE
8
Black
10
156.214
20
-69.2175
11
155.716
21
-69.1298
0
LINE
8
Black
10
155.716
20
-69.1298
11
155.278
21
-68.877
0
LINE
8
Black
10
155.278
20
-68.877
11
154.953
21
-68.4898
0
LINE
8
Black
10
154.953
20
-68.4898
11
154.781
21
-68.0148
0
LINE
8
Black
10
154.781
20
-68.0148
11
154.781
21
-67.5092
0
LINE
8
Black
10
154.781
20
-67.5092
11
154.953
21
-67.0342
0
LINE
8
Black
10
154.953
20
-67.0342
11
155.278
21
-66.647
0
LINE
8
Black
10
155.278
20
-66.647
11
155.716
21
-66.3942
0
LINE
8
Black
10
155.716
20
-66.3942
11
156.214
21
-66.3065
0
LINE
8
Black
10
156.214
20
-66.3065
11
156.712
21
-66.3942
0
LINE
8
Black
10
94.2838
20
-66.3942
11
94.7216
21
-66.647
0
LINE
8
Black
10
94.7216
20
-66.647
11
95.0465
21
-67.0342
0
LINE
8
Black
10
95.0465
20
-67.0342
11
95.2194
21
-67.5092
0
LINE
8
Black
10
95.2194
20
-67.5092
11
95.2194
21
-68.0148
0
LINE
8
Black
10
95.2194
20
-68.0148
11
95.0465
21
-68.4898
0
LINE
8
Black
10
95.0465
20
-68.4898
11
94.7216
21
-68.877
0
LINE
8
Black
10
94.7216
20
-68.877
11
94.2838
21
-69.1298
0
LINE
8
Black
10
94.2838
20
-69.1298
11
93.786
21
-69.2175
0
LINE
8
Black
10
93.786
20
-69.2175
11
93.2882
21
-69.1298
0
LINE
8
Black
10
93.2882
20
-69.1298
11
92.8504
21
-68.877
0
LINE
8
Black
10
92.8504
20
-68.877
11
92.5255
21
-68.4898
0
LINE
8
Black
10
92.5255
20
-68.4898
11
92.3526
21
-68.0148
0
LINE
8
Black
10
92.3526
20
-68.0148
11
92.3526
21
-67.5092
0
LINE
8
Black
10
92.3526
20
-67.5092
11
92.5255
21
-67.0342
0
LINE
8
Black
10
92.5255
20
-67.0342
11
92.8504
21
-66.647
0
LINE
8
Black
10
92.8504
20
-66.647
11
93.2882
21
-66.3942
0
LINE
8
Black
10
93.2882
20
-66.3942
11
93.786
21
-66.3065
0
LINE
8
Black
10
93.786
20
-66.3065
11
94.2838
21
-66.3942
0
LINE
8
Black
10
136.712
20
-66.3942
11
137.15
21
-66.647
0
LINE
8
Black
10
137.15
20
-66.647
11
137.475
21
-67.0342
0
LINE
8
Black
10
137.475
20
-67.0342
11
137.647
21
-67.5092
0
LINE
8
Black
10
137.647
20
-67.5092
11
137.647
21
-68.0148
0
LINE
8
Black
10
137.647
20
-68.0148
11
137.475
21
-68.4898
0
LINE
8
Black
10
137.475
20
-68.4898
11
137.15
21
-68.877
0
LINE
8
Black
10
137.15
20
-68.877
11
136.712
21
-69.1298
0
LINE
8
Black
10
136.712
20
-69.1298
11
136.214
21
-69.2175
0
LINE
8
Black
10
136.214
20
-69.2175
11
135.716
21
-69.1298
0
LINE
8
Black
10
135.716
20
-69.1298
11
135.278
21
-68.877
0
LINE
8
Black
10
135.278
20
-68.877
11
134.953
21
-68.4898
0
LINE
8
Black
10
134.953
20
-68.4898
11
134.781
21
-68.0148
0
LINE
8
Black
10
134.781
20
-68.0148
11
134.781
21
-67.5092
0
LINE
8
Black
10
134.781
20
-67.5092
11
134.953
21
-67.0342
0
LINE
8
Black
10
134.953
20
-67.0342
11
135.278
21
-66.647
0
LINE
8
Black
10
135.278
20
-66.647
11
135.716
21
-66.3942
0
LINE
8
Black
10
135.716
20
-66.3942
11
136.214
21
-66.3065
0
LINE
8
Black
10
136.214
20
-66.3065
11
136.712
21
-66.3942
0
LINE
8
Black
10
194.284
20
-66.3942
11
194.722
21
-66.647
0
LINE
8
Black
10
194.722
20
-66.647
11
195.047
21
-67.0342
0
LINE
8
Black
10
195.047
20
-67.0342
11
195.219
21
-67.5092
0
LINE
8
Black
10
195.219
20
-67.5092
11
195.219
21
-68.0148
0
LINE
8
Black
10
195.219
20
-68.0148
11
195.047
21
-68.4898
0
LINE
8
Black
10
195.047
20
-68.4898
11
194.722
21
-68.877
0
LINE
8
Black
10
194.722
20
-68.877
11
194.284
21
-69.1298
0
LINE
8
Black
10
194.284
20
-69.1298
11
193.786
21
-69.2175
0
LINE
8
Black
10
193.786
20
-69.2175
11
193.288
21
-69.1298
0
LINE
8
Black
10
193.288
20
-69.1298
11
192.85
21
-68.877
0
LINE
8
Black
10
192.85
20
-68.877
11
192.525
21
-68.4898
0
LINE
8
Black
10
192.525
20
-68.4898
11
192.353
21
-68.0148
0
LINE
8
Black
10
192.353
20
-68.0148
11
192.353
21
-67.5092
0
LINE
8
Black
10
192.353
20
-67.5092
11
192.525
21
-67.0342
0
LINE
8
Black
10
192.525
20
-67.0342
11
192.85
21
-66.647
0
LINE
8
Black
10
192.85
20
-66.647
11
193.288
21
-66.3942
0
LINE
8
Black
10
193.288
20
-66.3942
11
193.786
21
-66.3065
0
LINE
8
Black
10
193.786
20
-66.3065
11
194.284
21
-66.3942
0
LINE
8
Black
10
186.712
20
-66.3942
11
187.15
21
-66.647
0
LINE
8
Black
10
187.15
20
-66.647
11
187.475
21
-67.0342
0
LINE
8
Black
10
187.475
20
-67.0342
11
187.647
21
-67.5092
0
LINE
8
Black
10
187.647
20
-67.5092
11
187.647
21
-68.0148
0
LINE
8
Black
10
187.647
20
-68.0148
11
187.475
21
-68.4898
0
LINE
8
Black
10
187.475
20
-68.4898
11
187.15
21
-68.877
0
LINE
8
Black
10
187.15
20
-68.877
11
186.712
21
-69.1298
0
LINE
8
Black
10
186.712
20
-69.1298
11
186.214
21
-69.2175
0
LINE
8
Black
10
186.214
20
-69.2175
11
185.716
21
-69.1298
0
LINE
8
Black
10
185.716
20
-69.1298
11
185.278
21
-68.877
0
LINE
8
Black
10
185.278
20
-68.877
11
184.953
21
-68.4898
0
LINE
8
Black
10
184.953
20
-68.4898
11
184.781
21
-68.0148
0
LINE
8
Black
10
184.781
20
-68.0148
11
184.781
21
-67.5092
0
LINE
8
Black
10
184.781
20
-67.5092
11
184.953
21
-67.0342
0
LINE
8
Black
10
184.953
20
-67.0342
11
185.278
21
-66.647
0
LINE
8
Black
10
185.278
20
-66.647
11
185.716
21
-66.3942
0
LINE
8
Black
10
185.716
20
-66.3942
11
186.214
21
-66.3065
0
LINE
8
Black
10
186.214
20
-66.3065
11
186.712
21
-66.3942
0
LINE
8
Black
10
214.284
20
-66.3942
11
214.722
21
-66.647
0
LINE
8
Black
10
214.722
20
-66.647
11
215.047
21
-67.0342
0
LINE
8
Black
10
215.047
20
-67.0342
11
215.219
21
-67.5092
0
LINE
8
Black
10
215.219
20
-67.5092
11
215.219
21
-68.0148
0
LINE
8
Black
10
215.219
20
-68.0148
11
215.047
21
-68.4898
0
LINE
8
Black
10
215.047
20
-68.4898
11
214.722
21
-68.877
0
LINE
8
Black
10
214.722
20
-68.877
11
214.284
21
-69.1298
0
LINE
8
Black
10
214.284
20
-69.1298
11
213.786
21
-69.2175
0
LINE
8
Black
10
213.786
20
-69.2175
11
213.288
21
-69.1298
0
LINE
8
Black
10
213.288
20
-69.1298
11
212.85
21
-68.877
0
LINE
8
Black
10
212.85
20
-68.877
11
212.525
21
-68.4898
0
LINE
8
Black
10
212.525
20
-68.4898
11
212.353
21
-68.0148
0
LINE
8
Black
10
212.353
20
-68.0148
11
212.353
21
-67.5092
0
LINE
8
Black
10
212.353
20
-67.5092
11
212.525
21
-67.0342
0
LINE
8
Black
10
212.525
20
-67.0342
11
212.85
21
-66.647
0
LINE
8
Black
10
212.85
20
-66.647
11
213.288
21
-66.3942
0
LINE
8
Black
10
213.288
20
-66.3942
11
213.786
21
-66.3065
0
LINE
8
Black
10
213.786
20
-66.3065
11
214.284
21
-66.3942
0
LINE
8
Black
10
144.284
20
-66.3942
11
144.722
21
-66.647
0
LINE
8
Black
10
144.722
20
-66.647
11
145.047
21
-67.0342
0
LINE
8
Black
10
145.047
20
-67.0342
11
145.219
21
-67.5092
0
LINE
8
Black
10
145.219
20
-67.5092
11
145.219
21
-68.0148
0
LINE
8
Black
10
145.219
20
-68.0148
11
145.047
21
-68.4898
0
LINE
8
Black
10
145.047
20
-68.4898
11
144.722
21
-68.877
0
LINE
8
Black
10
144.722
20
-68.877
11
144.284
21
-69.1298
0
LINE
8
Black
10
144.284
20
-69.1298
11
143.786
21
-69.2175
0
LINE
8
Black
10
143.786
20
-69.2175
11
143.288
21
-69.1298
0
LINE
8
Black
10
143.288
20
-69.1298
11
142.85
21
-68.877
0
LINE
8
Black
10
142.85
20
-68.877
11
142.525
21
-68.4898
0
LINE
8
Black
10
142.525
20
-68.4898
11
142.353
21
-68.0148
0
LINE
8
Black
10
142.353
20
-68.0148
11
142.353
21
-67.5092
0
LINE
8
Black
10
142.353
20
-67.5092
11
142.525
21
-67.0342
0
LINE
8
Black
10
142.525
20
-67.0342
11
142.85
21
-66.647
0
LINE
8
Black
10
142.85
20
-66.647
11
143.288
21
-66.3942
0
LINE
8
Black
10
143.288
20
-66.3942
11
143.786
21
-66.3065
0
LINE
8
Black
10
143.786
20
-66.3065
11
144.284
21
-66.3942
0
LINE
8
Black
10
206.712
20
-66.3942
11
207.15
21
-66.647
0
LINE
8
Black
10
207.15
20
-66.647
11
207.475
21
-67.0342
0
LINE
8
Black
10
207.475
20
-67.0342
11
207.647
21
-67.5092
0
LINE
8
Black
10
207.647
20
-67.5092
11
207.647
21
-68.0148
0
LINE
8
Black
10
207.647
20
-68.0148
11
207.475
21
-68.4898
0
LINE
8
Black
10
207.475
20
-68.4898
11
207.15
21
-68.877
0
LINE
8
Black
10
207.15
20
-68.877
11
206.712
21
-69.1298
0
LINE
8
Black
10
206.712
20
-69.1298
11
206.214
21
-69.2175
0
LINE
8
Black
10
206.214
20
-69.2175
11
205.716
21
-69.1298
0
LINE
8
Black
10
205.716
20
-69.1298
11
205.278
21
-68.877
0
LINE
8
Black
10
205.278
20
-68.877
11
204.953
21
-68.4898
0
LINE
8
Black
10
204.953
20
-68.4898
11
204.781
21
-68.0148
0
LINE
8
Black
10
204.781
20
-68.0148
11
204.781
21
-67.5092
0
LINE
8
Black
10
204.781
20
-67.5092
11
204.953
21
-67.0342
0
LINE
8
Black
10
204.953
20
-67.0342
11
205.278
21
-66.647
0
LINE
8
Black
10
205.278
20
-66.647
11
205.716
21
-66.3942
0
LINE
8
Black
10
205.716
20
-66.3942
11
206.214
21
-66.3065
0
LINE
8
Black
10
206.214
20
-66.3065
11
206.712
21
-66.3942
0
LINE
8
Black
10
161.698
20
-63.8292
11
162.136
21
-64.082
0
LINE
8
Black
10
162.136
20
-64.082
11
162.461
21
-64.4692
0
LINE
8
Black
10
162.461
20
-64.4692
11
162.633
21
-64.9442
0
LINE
8
Black
10
162.633
20
-64.9442
11
162.633
21
-65.4498
0
LINE
8
Black
10
162.633
20
-65.4498
11
162.461
21
-65.9248
0
LINE
8
Black
10
162.461
20
-65.9248
11
162.136
21
-66.312
0
LINE
8
Black
10
162.136
20
-66.312
11
161.698
21
-66.5648
0
LINE
8
Black
10
161.698
20
-66.5648
11
161.2
21
-66.6525
0
LINE
8
Black
10
161.2
20
-66.6525
11
160.702
21
-66.5648
0
LINE
8
Black
10
160.702
20
-66.5648
11
160.264
21
-66.312
0
LINE
8
Black
10
160.264
20
-66.312
11
159.939
21
-65.9248
0
LINE
8
Black
10
159.939
20
-65.9248
11
159.767
21
-65.4498
0
LINE
8
Black
10
159.767
20
-65.4498
11
159.767
21
-64.9442
0
LINE
8
Black
10
159.767
20
-64.9442
11
159.939
21
-64.4692
0
LINE
8
Black
10
159.939
20
-64.4692
11
160.264
21
-64.082
0
LINE
8
Black
10
160.264
20
-64.082
11
160.702
21
-63.8292
0
LINE
8
Black
10
160.702
20
-63.8292
11
161.2
21
-63.7415
0
LINE
8
Black
10
161.2
20
-63.7415
11
161.698
21
-63.8292
0
LINE
8
Black
10
111.698
20
-63.8292
11
112.136
21
-64.082
0
LINE
8
Black
10
112.136
20
-64.082
11
112.461
21
-64.4692
0
LINE
8
Black
10
112.461
20
-64.4692
11
112.633
21
-64.9442
0
LINE
8
Black
10
112.633
20
-64.9442
11
112.633
21
-65.4498
0
LINE
8
Black
10
112.633
20
-65.4498
11
112.461
21
-65.9248
0
LINE
8
Black
10
112.461
20
-65.9248
11
112.136
21
-66.312
0
LINE
8
Black
10
112.136
20
-66.312
11
111.698
21
-66.5648
0
LINE
8
Black
10
111.698
20
-66.5648
11
111.2
21
-66.6525
0
LINE
8
Black
10
111.2
20
-66.6525
11
110.702
21
-66.5648
0
LINE
8
Black
10
110.702
20
-66.5648
11
110.264
21
-66.312
0
LINE
8
Black
10
110.264
20
-66.312
11
109.939
21
-65.9248
0
LINE
8
Black
10
109.939
20
-65.9248
11
109.767
21
-65.4498
0
LINE
8
Black
10
109.767
20
-65.4498
11
109.767
21
-64.9442
0
LINE
8
Black
10
109.767
20
-64.9442
11
109.939
21
-64.4692
0
LINE
8
Black
10
109.939
20
-64.4692
11
110.264
21
-64.082
0
LINE
8
Black
10
110.264
20
-64.082
11
110.702
21
-63.8292
0
LINE
8
Black
10
110.702
20
-63.8292
11
111.2
21
-63.7415
0
LINE
8
Black
10
111.2
20
-63.7415
11
111.698
21
-63.8292
0
LINE
8
Black
10
191.698
20
-63.8292
11
192.136
21
-64.082
0
LINE
8
Black
10
192.136
20
-64.082
11
192.461
21
-64.4692
0
LINE
8
Black
10
192.461
20
-64.4692
11
192.633
21
-64.9442
0
LINE
8
Black
10
192.633
20
-64.9442
11
192.633
21
-65.4498
0
LINE
8
Black
10
192.633
20
-65.4498
11
192.461
21
-65.9248
0
LINE
8
Black
10
192.461
20
-65.9248
11
192.136
21
-66.312
0
LINE
8
Black
10
192.136
20
-66.312
11
191.698
21
-66.5648
0
LINE
8
Black
10
191.698
20
-66.5648
11
191.2
21
-66.6525
0
LINE
8
Black
10
191.2
20
-66.6525
11
190.702
21
-66.5648
0
LINE
8
Black
10
190.702
20
-66.5648
11
190.264
21
-66.312
0
LINE
8
Black
10
190.264
20
-66.312
11
189.939
21
-65.9248
0
LINE
8
Black
10
189.939
20
-65.9248
11
189.767
21
-65.4498
0
LINE
8
Black
10
189.767
20
-65.4498
11
189.767
21
-64.9442
0
LINE
8
Black
10
189.767
20
-64.9442
11
189.939
21
-64.4692
0
LINE
8
Black
10
189.939
20
-64.4692
11
190.264
21
-64.082
0
LINE
8
Black
10
190.264
20
-64.082
11
190.702
21
-63.8292
0
LINE
8
Black
10
190.702
20
-63.8292
11
191.2
21
-63.7415
0
LINE
8
Black
10
191.2
20
-63.7415
11
191.698
21
-63.8292
0
LINE
8
Black
10
91.6978
20
-63.8292
11
92.1356
21
-64.082
0
LINE
8
Black
10
92.1356
20
-64.082
11
92.4605
21
-64.4692
0
LINE
8
Black
10
92.4605
20
-64.4692
11
92.6334
21
-64.9442
0
LINE
8
Black
10
92.6334
20
-64.9442
11
92.6334
21
-65.4498
0
LINE
8
Black
10
92.6334
20
-65.4498
11
92.4605
21
-65.9248
0
LINE
8
Black
10
92.4605
20
-65.9248
11
92.1356
21
-66.312
0
LINE
8
Black
10
92.1356
20
-66.312
11
91.6978
21
-66.5648
0
LINE
8
Black
10
91.6978
20
-66.5648
11
91.2
21
-66.6525
0
LINE
8
Black
10
91.2
20
-66.6525
11
90.7022
21
-66.5648
0
LINE
8
Black
10
90.7022
20
-66.5648
11
90.2644
21
-66.312
0
LINE
8
Black
10
90.2644
20
-66.312
11
89.9395
21
-65.9248
0
LINE
8
Black
10
89.9395
20
-65.9248
11
89.7666
21
-65.4498
0
LINE
8
Black
10
89.7666
20
-65.4498
11
89.7666
21
-64.9442
0
LINE
8
Black
10
89.7666
20
-64.9442
11
89.9395
21
-64.4692
0
LINE
8
Black
10
89.9395
20
-64.4692
11
90.2644
21
-64.082
0
LINE
8
Black
10
90.2644
20
-64.082
11
90.7022
21
-63.8292
0
LINE
8
Black
10
90.7022
20
-63.8292
11
91.2
21
-63.7415
0
LINE
8
Black
10
91.2
20
-63.7415
11
91.6978
21
-63.8292
0
LINE
8
Black
10
141.698
20
-63.8292
11
142.136
21
-64.082
0
LINE
8
Black
10
142.136
20
-64.082
11
142.461
21
-64.4692
0
LINE
8
Black
10
142.461
20
-64.4692
11
142.633
21
-64.9442
0
LINE
8
Black
10
142.633
20
-64.9442
11
142.633
21
-65.4498
0
LINE
8
Black
10
142.633
20
-65.4498
11
142.461
21
-65.9248
0
LINE
8
Black
10
142.461
20
-65.9248
11
142.136
21
-66.312
0
LINE
8
Black
10
142.136
20
-66.312
11
141.698
21
-66.5648
0
LINE
8
Black
10
141.698
20
-66.5648
11
141.2
21
-66.6525
0
LINE
8
Black
10
141.2
20
-66.6525
11
140.702
21
-66.5648
0
LINE
8
Black
10
140.702
20
-66.5648
11
140.264
21
-66.312
0
LINE
8
Black
10
140.264
20
-66.312
11
139.939
21
-65.9248
0
LINE
8
Black
10
139.939
20
-65.9248
11
139.767
21
-65.4498
0
LINE
8
Black
10
139.767
20
-65.4498
11
139.767
21
-64.9442
0
LINE
8
Black
10
139.767
20
-64.9442
11
139.939
21
-64.4692
0
LINE
8
Black
10
139.939
20
-64.4692
11
140.264
21
-64.082
0
LINE
8
Black
10
140.264
20
-64.082
11
140.702
21
-63.8292
0
LINE
8
Black
10
140.702
20
-63.8292
11
141.2
21
-63.7415
0
LINE
8
Black
10
141.2
20
-63.7415
11
141.698
21
-63.8292
0
LINE
8
Black
10
211.698
20
-63.8292
11
212.136
21
-64.082
0
LINE
8
Black
10
212.136
20
-64.082
11
212.461
21
-64.4692
0
LINE
8
Black
10
212.461
20
-64.4692
11
212.633
21
-64.9442
0
LINE
8
Black
10
212.633
20
-64.9442
11
212.633
21
-65.4498
0
LINE
8
Black
10
212.633
20
-65.4498
11
212.461
21
-65.9248
0
LINE
8
Black
10
212.461
20
-65.9248
11
212.136
21
-66.312
0
LINE
8
Black
10
212.136
20
-66.312
11
211.698
21
-66.5648
0
LINE
8
Black
10
211.698
20
-66.5648
11
211.2
21
-66.6525
0
LINE
8
Black
10
211.2
20
-66.6525
11
210.702
21
-66.5648
0
LINE
8
Black
10
210.702
20
-66.5648
11
210.264
21
-66.312
0
LINE
8
Black
10
210.264
20
-66.312
11
209.939
21
-65.9248
0
LINE
8
Black
10
209.939
20
-65.9248
11
209.767
21
-65.4498
0
LINE
8
Black
10
209.767
20
-65.4498
11
209.767
21
-64.9442
0
LINE
8
Black
10
209.767
20
-64.9442
11
209.939
21
-64.4692
0
LINE
8
Black
10
209.939
20
-64.4692
11
210.264
21
-64.082
0
LINE
8
Black
10
210.264
20
-64.082
11
210.702
21
-63.8292
0
LINE
8
Black
10
210.702
20
-63.8292
11
211.2
21
-63.7415
0
LINE
8
Black
10
211.2
20
-63.7415
11
211.698
21
-63.8292
0
LINE
8
Black
10
75.0631
20
-64.0933
11
75.3789
21
-64.2757
0
LINE
8
Black
10
75.3789
20
-64.2757
11
75.6133
21
-64.555
0
LINE
8
Black
10
75.6133
20
-64.555
11
75.7381
21
-64.8977
0
LINE
8
Black
10
75.7381
20
-64.8977
11
75.7381
21
-65.2623
0
LINE
8
Black
10
75.7381
20
-65.2623
11
75.6133
21
-65.605
0
LINE
8
Black
10
75.6133
20
-65.605
11
75.3789
21
-65.8843
0
LINE
8
Black
10
75.3789
20
-65.8843
11
75.0631
21
-66.0667
0
LINE
8
Black
10
75.0631
20
-66.0667
11
74.704
21
-66.13
0
LINE
8
Black
10
74.704
20
-66.13
11
74.696
21
-66.13
0
LINE
8
Black
10
74.696
20
-66.13
11
74.3369
21
-66.0667
0
LINE
8
Black
10
74.3369
20
-66.0667
11
74.0211
21
-65.8843
0
LINE
8
Black
10
74.0211
20
-65.8843
11
73.7867
21
-65.605
0
LINE
8
Black
10
73.7867
20
-65.605
11
73.6619
21
-65.2623
0
LINE
8
Black
10
73.6619
20
-65.2623
11
73.6619
21
-64.8977
0
LINE
8
Black
10
73.6619
20
-64.8977
11
73.7867
21
-64.555
0
LINE
8
Black
10
73.7867
20
-64.555
11
74.0211
21
-64.2757
0
LINE
8
Black
10
74.0211
20
-64.2757
11
74.3369
21
-64.0933
0
LINE
8
Black
10
74.3369
20
-64.0933
11
74.696
21
-64.03
0
LINE
8
Black
10
74.696
20
-64.03
11
74.704
21
-64.03
0
LINE
8
Black
10
74.704
20
-64.03
11
75.0631
21
-64.0933
0
LINE
8
Black
10
77.6031
20
-64.0933
11
77.9189
21
-64.2757
0
LINE
8
Black
10
77.9189
20
-64.2757
11
78.1533
21
-64.555
0
LINE
8
Black
10
78.1533
20
-64.555
11
78.2781
21
-64.8977
0
LINE
8
Black
10
78.2781
20
-64.8977
11
78.2781
21
-65.2623
0
LINE
8
Black
10
78.2781
20
-65.2623
11
78.1533
21
-65.605
0
LINE
8
Black
10
78.1533
20
-65.605
11
77.9189
21
-65.8843
0
LINE
8
Black
10
77.9189
20
-65.8843
11
77.6031
21
-66.0667
0
LINE
8
Black
10
77.6031
20
-66.0667
11
77.244
21
-66.13
0
LINE
8
Black
10
77.244
20
-66.13
11
77.236
21
-66.13
0
LINE
8
Black
10
77.236
20
-66.13
11
76.8769
21
-66.0667
0
LINE
8
Black
10
76.8769
20
-66.0667
11
76.5611
21
-65.8843
0
LINE
8
Black
10
76.5611
20
-65.8843
11
76.3267
21
-65.605
0
LINE
8
Black
10
76.3267
20
-65.605
11
76.2019
21
-65.2623
0
LINE
8
Black
10
76.2019
20
-65.2623
11
76.2019
21
-64.8977
0
LINE
8
Black
10
76.2019
20
-64.8977
11
76.3267
21
-64.555
0
LINE
8
Black
10
76.3267
20
-64.555
11
76.5611
21
-64.2757
0
LINE
8
Black
10
76.5611
20
-64.2757
11
76.8769
21
-64.0933
0
LINE
8
Black
10
76.8769
20
-64.0933
11
77.236
21
-64.03
0
LINE
8
Black
10
77.236
20
-64.03
11
77.244
21
-64.03
0
LINE
8
Black
10
77.244
20
-64.03
11
77.6031
21
-64.0933
0
LINE
8
Black
10
104.91
20
-62.9502
11
105.348
21
-63.203
0
LINE
8
Black
10
105.348
20
-63.203
11
105.673
21
-63.5902
0
LINE
8
Black
10
105.673
20
-63.5902
11
105.845
21
-64.0652
0
LINE
8
Black
10
105.845
20
-64.0652
11
105.845
21
-64.5708
0
LINE
8
Black
10
105.845
20
-64.5708
11
105.673
21
-65.0458
0
LINE
8
Black
10
105.673
20
-65.0458
11
105.348
21
-65.433
0
LINE
8
Black
10
105.348
20
-65.433
11
104.91
21
-65.6858
0
LINE
8
Black
10
104.91
20
-65.6858
11
104.412
21
-65.7735
0
LINE
8
Black
10
104.412
20
-65.7735
11
103.914
21
-65.6858
0
LINE
8
Black
10
103.914
20
-65.6858
11
103.476
21
-65.433
0
LINE
8
Black
10
103.476
20
-65.433
11
103.151
21
-65.0458
0
LINE
8
Black
10
103.151
20
-65.0458
11
102.979
21
-64.5708
0
LINE
8
Black
10
102.979
20
-64.5708
11
102.979
21
-64.0652
0
LINE
8
Black
10
102.979
20
-64.0652
11
103.151
21
-63.5902
0
LINE
8
Black
10
103.151
20
-63.5902
11
103.476
21
-63.203
0
LINE
8
Black
10
103.476
20
-63.203
11
103.914
21
-62.9502
0
LINE
8
Black
10
103.914
20
-62.9502
11
104.412
21
-62.8625
0
LINE
8
Black
10
104.412
20
-62.8625
11
104.91
21
-62.9502
0
LINE
8
Black
10
154.91
20
-62.9502
11
155.348
21
-63.203
0
LINE
8
Black
10
155.348
20
-63.203
11
155.673
21
-63.5902
0
LINE
8
Black
10
155.673
20
-63.5902
11
155.845
21
-64.0652
0
LINE
8
Black
10
155.845
20
-64.0652
11
155.845
21
-64.5708
0
LINE
8
Black
10
155.845
20
-64.5708
11
155.673
21
-65.0458
0
LINE
8
Black
10
155.673
20
-65.0458
11
155.348
21
-65.433
0
LINE
8
Black
10
155.348
20
-65.433
11
154.91
21
-65.6858
0
LINE
8
Black
10
154.91
20
-65.6858
11
154.412
21
-65.7735
0
LINE
8
Black
10
154.412
20
-65.7735
11
153.914
21
-65.6858
0
LINE
8
Black
10
153.914
20
-65.6858
11
153.476
21
-65.433
0
LINE
8
Black
10
153.476
20
-65.433
11
153.151
21
-65.0458
0
LINE
8
Black
10
153.151
20
-65.0458
11
152.979
21
-64.5708
0
LINE
8
Black
10
152.979
20
-64.5708
11
152.979
21
-64.0652
0
LINE
8
Black
10
152.979
20
-64.0652
11
153.151
21
-63.5902
0
LINE
8
Black
10
153.151
20
-63.5902
11
153.476
21
-63.203
0
LINE
8
Black
10
153.476
20
-63.203
11
153.914
21
-62.9502
0
LINE
8
Black
10
153.914
20
-62.9502
11
154.412
21
-62.8625
0
LINE
8
Black
10
154.412
20
-62.8625
11
154.91
21
-62.9502
0
LINE
8
Black
10
96.0858
20
-62.9502
11
96.5236
21
-63.203
0
LINE
8
Black
10
96.5236
20
-63.203
11
96.8485
21
-63.5902
0
LINE
8
Black
10
96.8485
20
-63.5902
11
97.0214
21
-64.0652
0
LINE
8
Black
10
97.0214
20
-64.0652
11
97.0214
21
-64.5708
0
LINE
8
Black
10
97.0214
20
-64.5708
11
96.8485
21
-65.0458
0
LINE
8
Black
10
96.8485
20
-65.0458
11
96.5236
21
-65.433
0
LINE
8
Black
10
96.5236
20
-65.433
11
96.0858
21
-65.6858
0
LINE
8
Black
10
96.0858
20
-65.6858
11
95.588
21
-65.7735
0
LINE
8
Black
10
95.588
20
-65.7735
11
95.0902
21
-65.6858
0
LINE
8
Black
10
95.0902
20
-65.6858
11
94.6524
21
-65.433
0
LINE
8
Black
10
94.6524
20
-65.433
11
94.3275
21
-65.0458
0
LINE
8
Black
10
94.3275
20
-65.0458
11
94.1546
21
-64.5708
0
LINE
8
Black
10
94.1546
20
-64.5708
11
94.1546
21
-64.0652
0
LINE
8
Black
10
94.1546
20
-64.0652
11
94.3275
21
-63.5902
0
LINE
8
Black
10
94.3275
20
-63.5902
11
94.6524
21
-63.203
0
LINE
8
Black
10
94.6524
20
-63.203
11
95.0902
21
-62.9502
0
LINE
8
Black
10
95.0902
20
-62.9502
11
95.588
21
-62.8625
0
LINE
8
Black
10
95.588
20
-62.8625
11
96.0858
21
-62.9502
0
LINE
8
Black
10
134.91
20
-62.9502
11
135.348
21
-63.203
0
LINE
8
Black
10
135.348
20
-63.203
11
135.673
21
-63.5902
0
LINE
8
Black
10
135.673
20
-63.5902
11
135.845
21
-64.0652
0
LINE
8
Black
10
135.845
20
-64.0652
11
135.845
21
-64.5708
0
LINE
8
Black
10
135.845
20
-64.5708
11
135.673
21
-65.0458
0
LINE
8
Black
10
135.673
20
-65.0458
11
135.348
21
-65.433
0
LINE
8
Black
10
135.348
20
-65.433
11
134.91
21
-65.6858
0
LINE
8
Black
10
134.91
20
-65.6858
11
134.412
21
-65.7735
0
LINE
8
Black
10
134.412
20
-65.7735
11
133.914
21
-65.6858
0
LINE
8
Black
10
133.914
20
-65.6858
11
133.476
21
-65.433
0
LINE
8
Black
10
133.476
20
-65.433
11
133.151
21
-65.0458
0
LINE
8
Black
10
133.151
20
-65.0458
11
132.979
21
-64.5708
0
LINE
8
Black
10
132.979
20
-64.5708
11
132.979
21
-64.0652
0
LINE
8
Black
10
132.979
20
-64.0652
11
133.151
21
-63.5902
0
LINE
8
Black
10
133.151
20
-63.5902
11
133.476
21
-63.203
0
LINE
8
Black
10
133.476
20
-63.203
11
133.914
21
-62.9502
0
LINE
8
Black
10
133.914
20
-62.9502
11
134.412
21
-62.8625
0
LINE
8
Black
10
134.412
20
-62.8625
11
134.91
21
-62.9502
0
LINE
8
Black
10
196.086
20
-62.9502
11
196.524
21
-63.203
0
LINE
8
Black
10
196.524
20
-63.203
11
196.849
21
-63.5902
0
LINE
8
Black
10
196.849
20
-63.5902
11
197.021
21
-64.0652
0
LINE
8
Black
10
197.021
20
-64.0652
11
197.021
21
-64.5708
0
LINE
8
Black
10
197.021
20
-64.5708
11
196.849
21
-65.0458
0
LINE
8
Black
10
196.849
20
-65.0458
11
196.524
21
-65.433
0
LINE
8
Black
10
196.524
20
-65.433
11
196.086
21
-65.6858
0
LINE
8
Black
10
196.086
20
-65.6858
11
195.588
21
-65.7735
0
LINE
8
Black
10
195.588
20
-65.7735
11
195.09
21
-65.6858
0
LINE
8
Black
10
195.09
20
-65.6858
11
194.652
21
-65.433
0
LINE
8
Black
10
194.652
20
-65.433
11
194.327
21
-65.0458
0
LINE
8
Black
10
194.327
20
-65.0458
11
194.155
21
-64.5708
0
LINE
8
Black
10
194.155
20
-64.5708
11
194.155
21
-64.0652
0
LINE
8
Black
10
194.155
20
-64.0652
11
194.327
21
-63.5902
0
LINE
8
Black
10
194.327
20
-63.5902
11
194.652
21
-63.203
0
LINE
8
Black
10
194.652
20
-63.203
11
195.09
21
-62.9502
0
LINE
8
Black
10
195.09
20
-62.9502
11
195.588
21
-62.8625
0
LINE
8
Black
10
195.588
20
-62.8625
11
196.086
21
-62.9502
0
LINE
8
Black
10
166.086
20
-62.9502
11
166.524
21
-63.203
0
LINE
8
Black
10
166.524
20
-63.203
11
166.849
21
-63.5902
0
LINE
8
Black
10
166.849
20
-63.5902
11
167.021
21
-64.0652
0
LINE
8
Black
10
167.021
20
-64.0652
11
167.021
21
-64.5708
0
LINE
8
Black
10
167.021
20
-64.5708
11
166.849
21
-65.0458
0
LINE
8
Black
10
166.849
20
-65.0458
11
166.524
21
-65.433
0
LINE
8
Black
10
166.524
20
-65.433
11
166.086
21
-65.6858
0
LINE
8
Black
10
166.086
20
-65.6858
11
165.588
21
-65.7735
0
LINE
8
Black
10
165.588
20
-65.7735
11
165.09
21
-65.6858
0
LINE
8
Black
10
165.09
20
-65.6858
11
164.652
21
-65.433
0
LINE
8
Black
10
164.652
20
-65.433
11
164.327
21
-65.0458
0
LINE
8
Black
10
164.327
20
-65.0458
11
164.155
21
-64.5708
0
LINE
8
Black
10
164.155
20
-64.5708
11
164.155
21
-64.0652
0
LINE
8
Black
10
164.155
20
-64.0652
11
164.327
21
-63.5902
0
LINE
8
Black
10
164.327
20
-63.5902
11
164.652
21
-63.203
0
LINE
8
Black
10
164.652
20
-63.203
11
165.09
21
-62.9502
0
LINE
8
Black
10
165.09
20
-62.9502
11
165.588
21
-62.8625
0
LINE
8
Black
10
165.588
20
-62.8625
11
166.086
21
-62.9502
0
LINE
8
Black
10
184.91
20
-62.9502
11
185.348
21
-63.203
0
LINE
8
Black
10
185.348
20
-63.203
11
185.673
21
-63.5902
0
LINE
8
Black
10
185.673
20
-63.5902
11
185.845
21
-64.0652
0
LINE
8
Black
10
185.845
20
-64.0652
11
185.845
21
-64.5708
0
LINE
8
Black
10
185.845
20
-64.5708
11
185.673
21
-65.0458
0
LINE
8
Black
10
185.673
20
-65.0458
11
185.348
21
-65.433
0
LINE
8
Black
10
185.348
20
-65.433
11
184.91
21
-65.6858
0
LINE
8
Black
10
184.91
20
-65.6858
11
184.412
21
-65.7735
0
LINE
8
Black
10
184.412
20
-65.7735
11
183.914
21
-65.6858
0
LINE
8
Black
10
183.914
20
-65.6858
11
183.476
21
-65.433
0
LINE
8
Black
10
183.476
20
-65.433
11
183.151
21
-65.0458
0
LINE
8
Black
10
183.151
20
-65.0458
11
182.979
21
-64.5708
0
LINE
8
Black
10
182.979
20
-64.5708
11
182.979
21
-64.0652
0
LINE
8
Black
10
182.979
20
-64.0652
11
183.151
21
-63.5902
0
LINE
8
Black
10
183.151
20
-63.5902
11
183.476
21
-63.203
0
LINE
8
Black
10
183.476
20
-63.203
11
183.914
21
-62.9502
0
LINE
8
Black
10
183.914
20
-62.9502
11
184.412
21
-62.8625
0
LINE
8
Black
10
184.412
20
-62.8625
11
184.91
21
-62.9502
0
LINE
8
Black
10
146.086
20
-62.9502
11
146.524
21
-63.203
0
LINE
8
Black
10
146.524
20
-63.203
11
146.849
21
-63.5902
0
LINE
8
Black
10
146.849
20
-63.5902
11
147.021
21
-64.0652
0
LINE
8
Black
10
147.021
20
-64.0652
11
147.021
21
-64.5708
0
LINE
8
Black
10
147.021
20
-64.5708
11
146.849
21
-65.0458
0
LINE
8
Black
10
146.849
20
-65.0458
11
146.524
21
-65.433
0
LINE
8
Black
10
146.524
20
-65.433
11
146.086
21
-65.6858
0
LINE
8
Black
10
146.086
20
-65.6858
11
145.588
21
-65.7735
0
LINE
8
Black
10
145.588
20
-65.7735
11
145.09
21
-65.6858
0
LINE
8
Black
10
145.09
20
-65.6858
11
144.652
21
-65.433
0
LINE
8
Black
10
144.652
20
-65.433
11
144.327
21
-65.0458
0
LINE
8
Black
10
144.327
20
-65.0458
11
144.155
21
-64.5708
0
LINE
8
Black
10
144.155
20
-64.5708
11
144.155
21
-64.0652
0
LINE
8
Black
10
144.155
20
-64.0652
11
144.327
21
-63.5902
0
LINE
8
Black
10
144.327
20
-63.5902
11
144.652
21
-63.203
0
LINE
8
Black
10
144.652
20
-63.203
11
145.09
21
-62.9502
0
LINE
8
Black
10
145.09
20
-62.9502
11
145.588
21
-62.8625
0
LINE
8
Black
10
145.588
20
-62.8625
11
146.086
21
-62.9502
0
LINE
8
Black
10
204.91
20
-62.9502
11
205.348
21
-63.203
0
LINE
8
Black
10
205.348
20
-63.203
11
205.673
21
-63.5902
0
LINE
8
Black
10
205.673
20
-63.5902
11
205.845
21
-64.0652
0
LINE
8
Black
10
205.845
20
-64.0652
11
205.845
21
-64.5708
0
LINE
8
Black
10
205.845
20
-64.5708
11
205.673
21
-65.0458
0
LINE
8
Black
10
205.673
20
-65.0458
11
205.348
21
-65.433
0
LINE
8
Black
10
205.348
20
-65.433
11
204.91
21
-65.6858
0
LINE
8
Black
10
204.91
20
-65.6858
11
204.412
21
-65.7735
0
LINE
8
Black
10
204.412
20
-65.7735
11
203.914
21
-65.6858
0
LINE
8
Black
10
203.914
20
-65.6858
11
203.476
21
-65.433
0
LINE
8
Black
10
203.476
20
-65.433
11
203.151
21
-65.0458
0
LINE
8
Black
10
203.151
20
-65.0458
11
202.979
21
-64.5708
0
LINE
8
Black
10
202.979
20
-64.5708
11
202.979
21
-64.0652
0
LINE
8
Black
10
202.979
20
-64.0652
11
203.151
21
-63.5902
0
LINE
8
Black
10
203.151
20
-63.5902
11
203.476
21
-63.203
0
LINE
8
Black
10
203.476
20
-63.203
11
203.914
21
-62.9502
0
LINE
8
Black
10
203.914
20
-62.9502
11
204.412
21
-62.8625
0
LINE
8
Black
10
204.412
20
-62.8625
11
204.91
21
-62.9502
0
LINE
8
Black
10
216.086
20
-62.9502
11
216.524
21
-63.203
0
LINE
8
Black
10
216.524
20
-63.203
11
216.849
21
-63.5902
0
LINE
8
Black
10
216.849
20
-63.5902
11
217.021
21
-64.0652
0
LINE
8
Black
10
217.021
20
-64.0652
11
217.021
21
-64.5708
0
LINE
8
Black
10
217.021
20
-64.5708
11
216.849
21
-65.0458
0
LINE
8
Black
10
216.849
20
-65.0458
11
216.524
21
-65.433
0
LINE
8
Black
10
216.524
20
-65.433
11
216.086
21
-65.6858
0
LINE
8
Black
10
216.086
20
-65.6858
11
215.588
21
-65.7735
0
LINE
8
Black
10
215.588
20
-65.7735
11
215.09
21
-65.6858
0
LINE
8
Black
10
215.09
20
-65.6858
11
214.652
21
-65.433
0
LINE
8
Black
10
214.652
20
-65.433
11
214.327
21
-65.0458
0
LINE
8
Black
10
214.327
20
-65.0458
11
214.155
21
-64.5708
0
LINE
8
Black
10
214.155
20
-64.5708
11
214.155
21
-64.0652
0
LINE
8
Black
10
214.155
20
-64.0652
11
214.327
21
-63.5902
0
LINE
8
Black
10
214.327
20
-63.5902
11
214.652
21
-63.203
0
LINE
8
Black
10
214.652
20
-63.203
11
215.09
21
-62.9502
0
LINE
8
Black
10
215.09
20
-62.9502
11
215.588
21
-62.8625
0
LINE
8
Black
10
215.588
20
-62.8625
11
216.086
21
-62.9502
0
LINE
8
Black
10
116.086
20
-62.9502
11
116.524
21
-63.203
0
LINE
8
Black
10
116.524
20
-63.203
11
116.849
21
-63.5902
0
LINE
8
Black
10
116.849
20
-63.5902
11
117.021
21
-64.0652
0
LINE
8
Black
10
117.021
20
-64.0652
11
117.021
21
-64.5708
0
LINE
8
Black
10
117.021
20
-64.5708
11
116.849
21
-65.0458
0
LINE
8
Black
10
116.849
20
-65.0458
11
116.524
21
-65.433
0
LINE
8
Black
10
116.524
20
-65.433
11
116.086
21
-65.6858
0
LINE
8
Black
10
116.086
20
-65.6858
11
115.588
21
-65.7735
0
LINE
8
Black
10
115.588
20
-65.7735
11
115.09
21
-65.6858
0
LINE
8
Black
10
115.09
20
-65.6858
11
114.652
21
-65.433
0
LINE
8
Black
10
114.652
20
-65.433
11
114.327
21
-65.0458
0
LINE
8
Black
10
114.327
20
-65.0458
11
114.155
21
-64.5708
0
LINE
8
Black
10
114.155
20
-64.5708
11
114.155
21
-64.0652
0
LINE
8
Black
10
114.155
20
-64.0652
11
114.327
21
-63.5902
0
LINE
8
Black
10
114.327
20
-63.5902
11
114.652
21
-63.203
0
LINE
8
Black
10
114.652
20
-63.203
11
115.09
21
-62.9502
0
LINE
8
Black
10
115.09
20
-62.9502
11
115.588
21
-62.8625
0
LINE
8
Black
10
115.588
20
-62.8625
11
116.086
21
-62.9502
0
LINE
8
Black
10
84.9098
20
-62.9502
11
85.3476
21
-63.203
0
LINE
8
Black
10
85.3476
20
-63.203
11
85.6725
21
-63.5902
0
LINE
8
Black
10
85.6725
20
-63.5902
11
85.8454
21
-64.0652
0
LINE
8
Black
10
85.8454
20
-64.0652
11
85.8454
21
-64.5708
0
LINE
8
Black
10
85.8454
20
-64.5708
11
85.6725
21
-65.0458
0
LINE
8
Black
10
85.6725
20
-65.0458
11
85.3476
21
-65.433
0
LINE
8
Black
10
85.3476
20
-65.433
11
84.9098
21
-65.6858
0
LINE
8
Black
10
84.9098
20
-65.6858
11
84.412
21
-65.7735
0
LINE
8
Black
10
84.412
20
-65.7735
11
83.9142
21
-65.6858
0
LINE
8
Black
10
83.9142
20
-65.6858
11
83.4764
21
-65.433
0
LINE
8
Black
10
83.4764
20
-65.433
11
83.1515
21
-65.0458
0
LINE
8
Black
10
83.1515
20
-65.0458
11
82.9786
21
-64.5708
0
LINE
8
Black
10
82.9786
20
-64.5708
11
82.9786
21
-64.0652
0
LINE
8
Black
10
82.9786
20
-64.0652
11
83.1515
21
-63.5902
0
LINE
8
Black
10
83.1515
20
-63.5902
11
83.4764
21
-63.203
0
LINE
8
Black
10
83.4764
20
-63.203
11
83.9142
21
-62.9502
0
LINE
8
Black
10
83.9142
20
-62.9502
11
84.412
21
-62.8625
0
LINE
8
Black
10
84.412
20
-62.8625
11
84.9098
21
-62.9502
0
LINE
8
Black
10
77.6031
20
-61.5533
11
77.9189
21
-61.7357
0
LINE
8
Black
10
77.9189
20
-61.7357
11
78.1533
21
-62.015
0
LINE
8
Black
10
78.1533
20
-62.015
11
78.2781
21
-62.3577
0
LINE
8
Black
10
78.2781
20
-62.3577
11
78.2781
21
-62.7223
0
LINE
8
Black
10
78.2781
20
-62.7223
11
78.1533
21
-63.065
0
LINE
8
Black
10
78.1533
20
-63.065
11
77.9189
21
-63.3443
0
LINE
8
Black
10
77.9189
20
-63.3443
11
77.6031
21
-63.5267
0
LINE
8
Black
10
77.6031
20
-63.5267
11
77.244
21
-63.59
0
LINE
8
Black
10
77.244
20
-63.59
11
77.236
21
-63.59
0
LINE
8
Black
10
77.236
20
-63.59
11
76.8769
21
-63.5267
0
LINE
8
Black
10
76.8769
20
-63.5267
11
76.5611
21
-63.3443
0
LINE
8
Black
10
76.5611
20
-63.3443
11
76.3267
21
-63.065
0
LINE
8
Black
10
76.3267
20
-63.065
11
76.2019
21
-62.7223
0
LINE
8
Black
10
76.2019
20
-62.7223
11
76.2019
21
-62.3577
0
LINE
8
Black
10
76.2019
20
-62.3577
11
76.3267
21
-62.015
0
LINE
8
Black
10
76.3267
20
-62.015
11
76.5611
21
-61.7357
0
LINE
8
Black
10
76.5611
20
-61.7357
11
76.8769
21
-61.5533
0
LINE
8
Black
10
76.8769
20
-61.5533
11
77.236
21
-61.49
0
LINE
8
Black
10
77.236
20
-61.49
11
77.244
21
-61.49
0
LINE
8
Black
10
77.244
20
-61.49
11
77.6031
21
-61.5533
0
LINE
8
Black
10
75.0631
20
-61.5533
11
75.3789
21
-61.7357
0
LINE
8
Black
10
75.3789
20
-61.7357
11
75.6133
21
-62.015
0
LINE
8
Black
10
75.6133
20
-62.015
11
75.7381
21
-62.3577
0
LINE
8
Black
10
75.7381
20
-62.3577
11
75.7381
21
-62.7223
0
LINE
8
Black
10
75.7381
20
-62.7223
11
75.6133
21
-63.065
0
LINE
8
Black
10
75.6133
20
-63.065
11
75.3789
21
-63.3443
0
LINE
8
Black
10
75.3789
20
-63.3443
11
75.0631
21
-63.5267
0
LINE
8
Black
10
75.0631
20
-63.5267
11
74.704
21
-63.59
0
LINE
8
Black
10
74.704
20
-63.59
11
74.696
21
-63.59
0
LINE
8
Black
10
74.696
20
-63.59
11
74.3369
21
-63.5267
0
LINE
8
Black
10
74.3369
20
-63.5267
11
74.0211
21
-63.3443
0
LINE
8
Black
10
74.0211
20
-63.3443
11
73.7867
21
-63.065
0
LINE
8
Black
10
73.7867
20
-63.065
11
73.6619
21
-62.7223
0
LINE
8
Black
10
73.6619
20
-62.7223
11
73.6619
21
-62.3577
0
LINE
8
Black
10
73.6619
20
-62.3577
11
73.7867
21
-62.015
0
LINE
8
Black
10
73.7867
20
-62.015
11
74.0211
21
-61.7357
0
LINE
8
Black
10
74.0211
20
-61.7357
11
74.3369
21
-61.5533
0
LINE
8
Black
10
74.3369
20
-61.5533
11
74.696
21
-61.49
0
LINE
8
Black
10
74.696
20
-61.49
11
74.704
21
-61.49
0
LINE
8
Black
10
74.704
20
-61.49
11
75.0631
21
-61.5533
0
LINE
8
Black
10
225.363
20
-61.5533
11
225.679
21
-61.7357
0
LINE
8
Black
10
225.679
20
-61.7357
11
225.913
21
-62.015
0
LINE
8
Black
10
225.913
20
-62.015
11
226.038
21
-62.3577
0
LINE
8
Black
10
226.038
20
-62.3577
11
226.038
21
-62.7223
0
LINE
8
Black
10
226.038
20
-62.7223
11
225.913
21
-63.065
0
LINE
8
Black
10
225.913
20
-63.065
11
225.679
21
-63.3443
0
LINE
8
Black
10
225.679
20
-63.3443
11
225.363
21
-63.5267
0
LINE
8
Black
10
225.363
20
-63.5267
11
225.004
21
-63.59
0
LINE
8
Black
10
225.004
20
-63.59
11
224.996
21
-63.59
0
LINE
8
Black
10
224.996
20
-63.59
11
224.637
21
-63.5267
0
LINE
8
Black
10
224.637
20
-63.5267
11
224.321
21
-63.3443
0
LINE
8
Black
10
224.321
20
-63.3443
11
224.087
21
-63.065
0
LINE
8
Black
10
224.087
20
-63.065
11
223.962
21
-62.7223
0
LINE
8
Black
10
223.962
20
-62.7223
11
223.962
21
-62.3577
0
LINE
8
Black
10
223.962
20
-62.3577
11
224.087
21
-62.015
0
LINE
8
Black
10
224.087
20
-62.015
11
224.321
21
-61.7357
0
LINE
8
Black
10
224.321
20
-61.7357
11
224.637
21
-61.5533
0
LINE
8
Black
10
224.637
20
-61.5533
11
224.996
21
-61.49
0
LINE
8
Black
10
224.996
20
-61.49
11
225.004
21
-61.49
0
LINE
8
Black
10
225.004
20
-61.49
11
225.363
21
-61.5533
0
LINE
8
Black
10
84.9098
20
-58.6322
11
85.3476
21
-58.885
0
LINE
8
Black
10
85.3476
20
-58.885
11
85.6725
21
-59.2722
0
LINE
8
Black
10
85.6725
20
-59.2722
11
85.8454
21
-59.7472
0
LINE
8
Black
10
85.8454
20
-59.7472
11
85.8454
21
-60.2528
0
LINE
8
Black
10
85.8454
20
-60.2528
11
85.6725
21
-60.7278
0
LINE
8
Black
10
85.6725
20
-60.7278
11
85.3476
21
-61.115
0
LINE
8
Black
10
85.3476
20
-61.115
11
84.9098
21
-61.3678
0
LINE
8
Black
10
84.9098
20
-61.3678
11
84.412
21
-61.4555
0
LINE
8
Black
10
84.412
20
-61.4555
11
83.9142
21
-61.3678
0
LINE
8
Black
10
83.9142
20
-61.3678
11
83.4764
21
-61.115
0
LINE
8
Black
10
83.4764
20
-61.115
11
83.1515
21
-60.7278
0
LINE
8
Black
10
83.1515
20
-60.7278
11
82.9786
21
-60.2528
0
LINE
8
Black
10
82.9786
20
-60.2528
11
82.9786
21
-59.7472
0
LINE
8
Black
10
82.9786
20
-59.7472
11
83.1515
21
-59.2722
0
LINE
8
Black
10
83.1515
20
-59.2722
11
83.4764
21
-58.885
0
LINE
8
Black
10
83.4764
20
-58.885
11
83.9142
21
-58.6322
0
LINE
8
Black
10
83.9142
20
-58.6322
11
84.412
21
-58.5445
0
LINE
8
Black
10
84.412
20
-58.5445
11
84.9098
21
-58.6322
0
LINE
8
Black
10
204.91
20
-58.6322
11
205.348
21
-58.885
0
LINE
8
Black
10
205.348
20
-58.885
11
205.673
21
-59.2722
0
LINE
8
Black
10
205.673
20
-59.2722
11
205.845
21
-59.7472
0
LINE
8
Black
10
205.845
20
-59.7472
11
205.845
21
-60.2528
0
LINE
8
Black
10
205.845
20
-60.2528
11
205.673
21
-60.7278
0
LINE
8
Black
10
205.673
20
-60.7278
11
205.348
21
-61.115
0
LINE
8
Black
10
205.348
20
-61.115
11
204.91
21
-61.3678
0
LINE
8
Black
10
204.91
20
-61.3678
11
204.412
21
-61.4555
0
LINE
8
Black
10
204.412
20
-61.4555
11
203.914
21
-61.3678
0
LINE
8
Black
10
203.914
20
-61.3678
11
203.476
21
-61.115
0
LINE
8
Black
10
203.476
20
-61.115
11
203.151
21
-60.7278
0
LINE
8
Black
10
203.151
20
-60.7278
11
202.979
21
-60.2528
0
LINE
8
Black
10
202.979
20
-60.2528
11
202.979
21
-59.7472
0
LINE
8
Black
10
202.979
20
-59.7472
11
203.151
21
-59.2722
0
LINE
8
Black
10
203.151
20
-59.2722
11
203.476
21
-58.885
0
LINE
8
Black
10
203.476
20
-58.885
11
203.914
21
-58.6322
0
LINE
8
Black
10
203.914
20
-58.6322
11
204.412
21
-58.5445
0
LINE
8
Black
10
204.412
20
-58.5445
11
204.91
21
-58.6322
0
LINE
8
Black
10
146.086
20
-58.6322
11
146.524
21
-58.885
0
LINE
8
Black
10
146.524
20
-58.885
11
146.849
21
-59.2722
0
LINE
8
Black
10
146.849
20
-59.2722
11
147.021
21
-59.7472
0
LINE
8
Black
10
147.021
20
-59.7472
11
147.021
21
-60.2528
0
LINE
8
Black
10
147.021
20
-60.2528
11
146.849
21
-60.7278
0
LINE
8
Black
10
146.849
20
-60.7278
11
146.524
21
-61.115
0
LINE
8
Black
10
146.524
20
-61.115
11
146.086
21
-61.3678
0
LINE
8
Black
10
146.086
20
-61.3678
11
145.588
21
-61.4555
0
LINE
8
Black
10
145.588
20
-61.4555
11
145.09
21
-61.3678
0
LINE
8
Black
10
145.09
20
-61.3678
11
144.652
21
-61.115
0
LINE
8
Black
10
144.652
20
-61.115
11
144.327
21
-60.7278
0
LINE
8
Black
10
144.327
20
-60.7278
11
144.155
21
-60.2528
0
LINE
8
Black
10
144.155
20
-60.2528
11
144.155
21
-59.7472
0
LINE
8
Black
10
144.155
20
-59.7472
11
144.327
21
-59.2722
0
LINE
8
Black
10
144.327
20
-59.2722
11
144.652
21
-58.885
0
LINE
8
Black
10
144.652
20
-58.885
11
145.09
21
-58.6322
0
LINE
8
Black
10
145.09
20
-58.6322
11
145.588
21
-58.5445
0
LINE
8
Black
10
145.588
20
-58.5445
11
146.086
21
-58.6322
0
LINE
8
Black
10
134.91
20
-58.6322
11
135.348
21
-58.885
0
LINE
8
Black
10
135.348
20
-58.885
11
135.673
21
-59.2722
0
LINE
8
Black
10
135.673
20
-59.2722
11
135.845
21
-59.7472
0
LINE
8
Black
10
135.845
20
-59.7472
11
135.845
21
-60.2528
0
LINE
8
Black
10
135.845
20
-60.2528
11
135.673
21
-60.7278
0
LINE
8
Black
10
135.673
20
-60.7278
11
135.348
21
-61.115
0
LINE
8
Black
10
135.348
20
-61.115
11
134.91
21
-61.3678
0
LINE
8
Black
10
134.91
20
-61.3678
11
134.412
21
-61.4555
0
LINE
8
Black
10
134.412
20
-61.4555
11
133.914
21
-61.3678
0
LINE
8
Black
10
133.914
20
-61.3678
11
133.476
21
-61.115
0
LINE
8
Black
10
133.476
20
-61.115
11
133.151
21
-60.7278
0
LINE
8
Black
10
133.151
20
-60.7278
11
132.979
21
-60.2528
0
LINE
8
Black
10
132.979
20
-60.2528
11
132.979
21
-59.7472
0
LINE
8
Black
10
132.979
20
-59.7472
11
133.151
21
-59.2722
0
LINE
8
Black
10
133.151
20
-59.2722
11
133.476
21
-58.885
0
LINE
8
Black
10
133.476
20
-58.885
11
133.914
21
-58.6322
0
LINE
8
Black
10
133.914
20
-58.6322
11
134.412
21
-58.5445
0
LINE
8
Black
10
134.412
20
-58.5445
11
134.91
21
-58.6322
0
LINE
8
Black
10
216.086
20
-58.6322
11
216.524
21
-58.885
0
LINE
8
Black
10
216.524
20
-58.885
11
216.849
21
-59.2722
0
LINE
8
Black
10
216.849
20
-59.2722
11
217.021
21
-59.7472
0
LINE
8
Black
10
217.021
20
-59.7472
11
217.021
21
-60.2528
0
LINE
8
Black
10
217.021
20
-60.2528
11
216.849
21
-60.7278
0
LINE
8
Black
10
216.849
20
-60.7278
11
216.524
21
-61.115
0
LINE
8
Black
10
216.524
20
-61.115
11
216.086
21
-61.3678
0
LINE
8
Black
10
216.086
20
-61.3678
11
215.588
21
-61.4555
0
LINE
8
Black
10
215.588
20
-61.4555
11
215.09
21
-61.3678
0
LINE
8
Black
10
215.09
20
-61.3678
11
214.652
21
-61.115
0
LINE
8
Black
10
214.652
20
-61.115
11
214.327
21
-60.7278
0
LINE
8
Black
10
214.327
20
-60.7278
11
214.155
21
-60.2528
0
LINE
8
Black
10
214.155
20
-60.2528
11
214.155
21
-59.7472
0
LINE
8
Black
10
214.155
20
-59.7472
11
214.327
21
-59.2722
0
LINE
8
Black
10
214.327
20
-59.2722
11
214.652
21
-58.885
0
LINE
8
Black
10
214.652
20
-58.885
11
215.09
21
-58.6322
0
LINE
8
Black
10
215.09
20
-58.6322
11
215.588
21
-58.5445
0
LINE
8
Black
10
215.588
20
-58.5445
11
216.086
21
-58.6322
0
LINE
8
Black
10
184.91
20
-58.6322
11
185.348
21
-58.885
0
LINE
8
Black
10
185.348
20
-58.885
11
185.673
21
-59.2722
0
LINE
8
Black
10
185.673
20
-59.2722
11
185.845
21
-59.7472
0
LINE
8
Black
10
185.845
20
-59.7472
11
185.845
21
-60.2528
0
LINE
8
Black
10
185.845
20
-60.2528
11
185.673
21
-60.7278
0
LINE
8
Black
10
185.673
20
-60.7278
11
185.348
21
-61.115
0
LINE
8
Black
10
185.348
20
-61.115
11
184.91
21
-61.3678
0
LINE
8
Black
10
184.91
20
-61.3678
11
184.412
21
-61.4555
0
LINE
8
Black
10
184.412
20
-61.4555
11
183.914
21
-61.3678
0
LINE
8
Black
10
183.914
20
-61.3678
11
183.476
21
-61.115
0
LINE
8
Black
10
183.476
20
-61.115
11
183.151
21
-60.7278
0
LINE
8
Black
10
183.151
20
-60.7278
11
182.979
21
-60.2528
0
LINE
8
Black
10
182.979
20
-60.2528
11
182.979
21
-59.7472
0
LINE
8
Black
10
182.979
20
-59.7472
11
183.151
21
-59.2722
0
LINE
8
Black
10
183.151
20
-59.2722
11
183.476
21
-58.885
0
LINE
8
Black
10
183.476
20
-58.885
11
183.914
21
-58.6322
0
LINE
8
Black
10
183.914
20
-58.6322
11
184.412
21
-58.5445
0
LINE
8
Black
10
184.412
20
-58.5445
11
184.91
21
-58.6322
0
LINE
8
Black
10
196.086
20
-58.6322
11
196.524
21
-58.885
0
LINE
8
Black
10
196.524
20
-58.885
11
196.849
21
-59.2722
0
LINE
8
Black
10
196.849
20
-59.2722
11
197.021
21
-59.7472
0
LINE
8
Black
10
197.021
20
-59.7472
11
197.021
21
-60.2528
0
LINE
8
Black
10
197.021
20
-60.2528
11
196.849
21
-60.7278
0
LINE
8
Black
10
196.849
20
-60.7278
11
196.524
21
-61.115
0
LINE
8
Black
10
196.524
20
-61.115
11
196.086
21
-61.3678
0
LINE
8
Black
10
196.086
20
-61.3678
11
195.588
21
-61.4555
0
LINE
8
Black
10
195.588
20
-61.4555
11
195.09
21
-61.3678
0
LINE
8
Black
10
195.09
20
-61.3678
11
194.652
21
-61.115
0
LINE
8
Black
10
194.652
20
-61.115
11
194.327
21
-60.7278
0
LINE
8
Black
10
194.327
20
-60.7278
11
194.155
21
-60.2528
0
LINE
8
Black
10
194.155
20
-60.2528
11
194.155
21
-59.7472
0
LINE
8
Black
10
194.155
20
-59.7472
11
194.327
21
-59.2722
0
LINE
8
Black
10
194.327
20
-59.2722
11
194.652
21
-58.885
0
LINE
8
Black
10
194.652
20
-58.885
11
195.09
21
-58.6322
0
LINE
8
Black
10
195.09
20
-58.6322
11
195.588
21
-58.5445
0
LINE
8
Black
10
195.588
20
-58.5445
11
196.086
21
-58.6322
0
LINE
8
Black
10
154.91
20
-58.6322
11
155.348
21
-58.885
0
LINE
8
Black
10
155.348
20
-58.885
11
155.673
21
-59.2722
0
LINE
8
Black
10
155.673
20
-59.2722
11
155.845
21
-59.7472
0
LINE
8
Black
10
155.845
20
-59.7472
11
155.845
21
-60.2528
0
LINE
8
Black
10
155.845
20
-60.2528
11
155.673
21
-60.7278
0
LINE
8
Black
10
155.673
20
-60.7278
11
155.348
21
-61.115
0
LINE
8
Black
10
155.348
20
-61.115
11
154.91
21
-61.3678
0
LINE
8
Black
10
154.91
20
-61.3678
11
154.412
21
-61.4555
0
LINE
8
Black
10
154.412
20
-61.4555
11
153.914
21
-61.3678
0
LINE
8
Black
10
153.914
20
-61.3678
11
153.476
21
-61.115
0
LINE
8
Black
10
153.476
20
-61.115
11
153.151
21
-60.7278
0
LINE
8
Black
10
153.151
20
-60.7278
11
152.979
21
-60.2528
0
LINE
8
Black
10
152.979
20
-60.2528
11
152.979
21
-59.7472
0
LINE
8
Black
10
152.979
20
-59.7472
11
153.151
21
-59.2722
0
LINE
8
Black
10
153.151
20
-59.2722
11
153.476
21
-58.885
0
LINE
8
Black
10
153.476
20
-58.885
11
153.914
21
-58.6322
0
LINE
8
Black
10
153.914
20
-58.6322
11
154.412
21
-58.5445
0
LINE
8
Black
10
154.412
20
-58.5445
11
154.91
21
-58.6322
0
LINE
8
Black
10
104.91
20
-58.6322
11
105.348
21
-58.885
0
LINE
8
Black
10
105.348
20
-58.885
11
105.673
21
-59.2722
0
LINE
8
Black
10
105.673
20
-59.2722
11
105.845
21
-59.7472
0
LINE
8
Black
10
105.845
20
-59.7472
11
105.845
21
-60.2528
0
LINE
8
Black
10
105.845
20
-60.2528
11
105.673
21
-60.7278
0
LINE
8
Black
10
105.673
20
-60.7278
11
105.348
21
-61.115
0
LINE
8
Black
10
105.348
20
-61.115
11
104.91
21
-61.3678
0
LINE
8
Black
10
104.91
20
-61.3678
11
104.412
21
-61.4555
0
LINE
8
Black
10
104.412
20
-61.4555
11
103.914
21
-61.3678
0
LINE
8
Black
10
103.914
20
-61.3678
11
103.476
21
-61.115
0
LINE
8
Black
10
103.476
20
-61.115
11
103.151
21
-60.7278
0
LINE
8
Black
10
103.151
20
-60.7278
11
102.979
21
-60.2528
0
LINE
8
Black
10
102.979
20
-60.2528
11
102.979
21
-59.7472
0
LINE
8
Black
10
102.979
20
-59.7472
11
103.151
21
-59.2722
0
LINE
8
Black
10
103.151
20
-59.2722
11
103.476
21
-58.885
0
LINE
8
Black
10
103.476
20
-58.885
11
103.914
21
-58.6322
0
LINE
8
Black
10
103.914
20
-58.6322
11
104.412
21
-58.5445
0
LINE
8
Black
10
104.412
20
-58.5445
11
104.91
21
-58.6322
0
LINE
8
Black
10
96.0858
20
-58.6322
11
96.5236
21
-58.885
0
LINE
8
Black
10
96.5236
20
-58.885
11
96.8485
21
-59.2722
0
LINE
8
Black
10
96.8485
20
-59.2722
11
97.0214
21
-59.7472
0
LINE
8
Black
10
97.0214
20
-59.7472
11
97.0214
21
-60.2528
0
LINE
8
Black
10
97.0214
20
-60.2528
11
96.8485
21
-60.7278
0
LINE
8
Black
10
96.8485
20
-60.7278
11
96.5236
21
-61.115
0
LINE
8
Black
10
96.5236
20
-61.115
11
96.0858
21
-61.3678
0
LINE
8
Black
10
96.0858
20
-61.3678
11
95.588
21
-61.4555
0
LINE
8
Black
10
95.588
20
-61.4555
11
95.0902
21
-61.3678
0
LINE
8
Black
10
95.0902
20
-61.3678
11
94.6524
21
-61.115
0
LINE
8
Black
10
94.6524
20
-61.115
11
94.3275
21
-60.7278
0
LINE
8
Black
10
94.3275
20
-60.7278
11
94.1546
21
-60.2528
0
LINE
8
Black
10
94.1546
20
-60.2528
11
94.1546
21
-59.7472
0
LINE
8
Black
10
94.1546
20
-59.7472
11
94.3275
21
-59.2722
0
LINE
8
Black
10
94.3275
20
-59.2722
11
94.6524
21
-58.885
0
LINE
8
Black
10
94.6524
20
-58.885
11
95.0902
21
-58.6322
0
LINE
8
Black
10
95.0902
20
-58.6322
11
95.588
21
-58.5445
0
LINE
8
Black
10
95.588
20
-58.5445
11
96.0858
21
-58.6322
0
LINE
8
Black
10
166.086
20
-58.6322
11
166.524
21
-58.885
0
LINE
8
Black
10
166.524
20
-58.885
11
166.849
21
-59.2722
0
LINE
8
Black
10
166.849
20
-59.2722
11
167.021
21
-59.7472
0
LINE
8
Black
10
167.021
20
-59.7472
11
167.021
21
-60.2528
0
LINE
8
Black
10
167.021
20
-60.2528
11
166.849
21
-60.7278
0
LINE
8
Black
10
166.849
20
-60.7278
11
166.524
21
-61.115
0
LINE
8
Black
10
166.524
20
-61.115
11
166.086
21
-61.3678
0
LINE
8
Black
10
166.086
20
-61.3678
11
165.588
21
-61.4555
0
LINE
8
Black
10
165.588
20
-61.4555
11
165.09
21
-61.3678
0
LINE
8
Black
10
165.09
20
-61.3678
11
164.652
21
-61.115
0
LINE
8
Black
10
164.652
20
-61.115
11
164.327
21
-60.7278
0
LINE
8
Black
10
164.327
20
-60.7278
11
164.155
21
-60.2528
0
LINE
8
Black
10
164.155
20
-60.2528
11
164.155
21
-59.7472
0
LINE
8
Black
10
164.155
20
-59.7472
11
164.327
21
-59.2722
0
LINE
8
Black
10
164.327
20
-59.2722
11
164.652
21
-58.885
0
LINE
8
Black
10
164.652
20
-58.885
11
165.09
21
-58.6322
0
LINE
8
Black
10
165.09
20
-58.6322
11
165.588
21
-58.5445
0
LINE
8
Black
10
165.588
20
-58.5445
11
166.086
21
-58.6322
0
LINE
8
Black
10
116.086
20
-58.6322
11
116.524
21
-58.885
0
LINE
8
Black
10
116.524
20
-58.885
11
116.849
21
-59.2722
0
LINE
8
Black
10
116.849
20
-59.2722
11
117.021
21
-59.7472
0
LINE
8
Black
10
117.021
20
-59.7472
11
117.021
21
-60.2528
0
LINE
8
Black
10
117.021
20
-60.2528
11
116.849
21
-60.7278
0
LINE
8
Black
10
116.849
20
-60.7278
11
116.524
21
-61.115
0
LINE
8
Black
10
116.524
20
-61.115
11
116.086
21
-61.3678
0
LINE
8
Black
10
116.086
20
-61.3678
11
115.588
21
-61.4555
0
LINE
8
Black
10
115.588
20
-61.4555
11
115.09
21
-61.3678
0
LINE
8
Black
10
115.09
20
-61.3678
11
114.652
21
-61.115
0
LINE
8
Black
10
114.652
20
-61.115
11
114.327
21
-60.7278
0
LINE
8
Black
10
114.327
20
-60.7278
11
114.155
21
-60.2528
0
LINE
8
Black
10
114.155
20
-60.2528
11
114.155
21
-59.7472
0
LINE
8
Black
10
114.155
20
-59.7472
11
114.327
21
-59.2722
0
LINE
8
Black
10
114.327
20
-59.2722
11
114.652
21
-58.885
0
LINE
8
Black
10
114.652
20
-58.885
11
115.09
21
-58.6322
0
LINE
8
Black
10
115.09
20
-58.6322
11
115.588
21
-58.5445
0
LINE
8
Black
10
115.588
20
-58.5445
11
116.086
21
-58.6322
0
LINE
8
Black
10
75.0631
20
-59.0133
11
75.3789
21
-59.1957
0
LINE
8
Black
10
75.3789
20
-59.1957
11
75.6133
21
-59.475
0
LINE
8
Black
10
75.6133
20
-59.475
11
75.7381
21
-59.8177
0
LINE
8
Black
10
75.7381
20
-59.8177
11
75.7381
21
-60.1823
0
LINE
8
Black
10
75.7381
20
-60.1823
11
75.6133
21
-60.525
0
LINE
8
Black
10
75.6133
20
-60.525
11
75.3789
21
-60.8043
0
LINE
8
Black
10
75.3789
20
-60.8043
11
75.0631
21
-60.9867
0
LINE
8
Black
10
75.0631
20
-60.9867
11
74.704
21
-61.05
0
LINE
8
Black
10
74.704
20
-61.05
11
74.696
21
-61.05
0
LINE
8
Black
10
74.696
20
-61.05
11
74.3369
21
-60.9867
0
LINE
8
Black
10
74.3369
20
-60.9867
11
74.0211
21
-60.8043
0
LINE
8
Black
10
74.0211
20
-60.8043
11
73.7867
21
-60.525
0
LINE
8
Black
10
73.7867
20
-60.525
11
73.6619
21
-60.1823
0
LINE
8
Black
10
73.6619
20
-60.1823
11
73.6619
21
-59.8177
0
LINE
8
Black
10
73.6619
20
-59.8177
11
73.7867
21
-59.475
0
LINE
8
Black
10
73.7867
20
-59.475
11
74.0211
21
-59.1957
0
LINE
8
Black
10
74.0211
20
-59.1957
11
74.3369
21
-59.0133
0
LINE
8
Black
10
74.3369
20
-59.0133
11
74.696
21
-58.95
0
LINE
8
Black
10
74.696
20
-58.95
11
74.704
21
-58.95
0
LINE
8
Black
10
74.704
20
-58.95
11
75.0631
21
-59.0133
0
LINE
8
Black
10
77.6031
20
-59.0133
11
77.9189
21
-59.1957
0
LINE
8
Black
10
77.9189
20
-59.1957
11
78.1533
21
-59.475
0
LINE
8
Black
10
78.1533
20
-59.475
11
78.2781
21
-59.8177
0
LINE
8
Black
10
78.2781
20
-59.8177
11
78.2781
21
-60.1823
0
LINE
8
Black
10
78.2781
20
-60.1823
11
78.1533
21
-60.525
0
LINE
8
Black
10
78.1533
20
-60.525
11
77.9189
21
-60.8043
0
LINE
8
Black
10
77.9189
20
-60.8043
11
77.6031
21
-60.9867
0
LINE
8
Black
10
77.6031
20
-60.9867
11
77.244
21
-61.05
0
LINE
8
Black
10
77.244
20
-61.05
11
77.236
21
-61.05
0
LINE
8
Black
10
77.236
20
-61.05
11
76.8769
21
-60.9867
0
LINE
8
Black
10
76.8769
20
-60.9867
11
76.5611
21
-60.8043
0
LINE
8
Black
10
76.5611
20
-60.8043
11
76.3267
21
-60.525
0
LINE
8
Black
10
76.3267
20
-60.525
11
76.2019
21
-60.1823
0
LINE
8
Black
10
76.2019
20
-60.1823
11
76.2019
21
-59.8177
0
LINE
8
Black
10
76.2019
20
-59.8177
11
76.3267
21
-59.475
0
LINE
8
Black
10
76.3267
20
-59.475
11
76.5611
21
-59.1957
0
LINE
8
Black
10
76.5611
20
-59.1957
11
76.8769
21
-59.0133
0
LINE
8
Black
10
76.8769
20
-59.0133
11
77.236
21
-58.95
0
LINE
8
Black
10
77.236
20
-58.95
11
77.244
21
-58.95
0
LINE
8
Black
10
77.244
20
-58.95
11
77.6031
21
-59.0133
0
LINE
8
Black
10
226.05
20
-61.05
11
223.95
21
-61.05
0
LINE
8
Black
10
223.95
20
-61.05
11
223.95
21
-58.95
0
LINE
8
Black
10
223.95
20
-58.95
11
226.05
21
-58.95
0
LINE
8
Black
10
226.05
20
-58.95
11
226.05
21
-61.05
0
LINE
8
Black
10
75.0631
20
-56.4733
11
75.3789
21
-56.6557
0
LINE
8
Black
10
75.3789
20
-56.6557
11
75.6133
21
-56.935
0
LINE
8
Black
10
75.6133
20
-56.935
11
75.7381
21
-57.2777
0
LINE
8
Black
10
75.7381
20
-57.2777
11
75.7381
21
-57.6423
0
LINE
8
Black
10
75.7381
20
-57.6423
11
75.6133
21
-57.985
0
LINE
8
Black
10
75.6133
20
-57.985
11
75.3789
21
-58.2643
0
LINE
8
Black
10
75.3789
20
-58.2643
11
75.0631
21
-58.4467
0
LINE
8
Black
10
75.0631
20
-58.4467
11
74.704
21
-58.51
0
LINE
8
Black
10
74.704
20
-58.51
11
74.696
21
-58.51
0
LINE
8
Black
10
74.696
20
-58.51
11
74.3369
21
-58.4467
0
LINE
8
Black
10
74.3369
20
-58.4467
11
74.0211
21
-58.2643
0
LINE
8
Black
10
74.0211
20
-58.2643
11
73.7867
21
-57.985
0
LINE
8
Black
10
73.7867
20
-57.985
11
73.6619
21
-57.6423
0
LINE
8
Black
10
73.6619
20
-57.6423
11
73.6619
21
-57.2777
0
LINE
8
Black
10
73.6619
20
-57.2777
11
73.7867
21
-56.935
0
LINE
8
Black
10
73.7867
20
-56.935
11
74.0211
21
-56.6557
0
LINE
8
Black
10
74.0211
20
-56.6557
11
74.3369
21
-56.4733
0
LINE
8
Black
10
74.3369
20
-56.4733
11
74.696
21
-56.41
0
LINE
8
Black
10
74.696
20
-56.41
11
74.704
21
-56.41
0
LINE
8
Black
10
74.704
20
-56.41
11
75.0631
21
-56.4733
0
LINE
8
Black
10
78.29
20
-58.51
11
76.19
21
-58.51
0
LINE
8
Black
10
76.19
20
-58.51
11
76.19
21
-56.41
0
LINE
8
Black
10
76.19
20
-56.41
11
78.29
21
-56.41
0
LINE
8
Black
10
78.29
20
-56.41
11
78.29
21
-58.51
0
LINE
8
Black
10
116.086
20
-54.3142
11
116.524
21
-54.567
0
LINE
8
Black
10
116.524
20
-54.567
11
116.849
21
-54.9542
0
LINE
8
Black
10
116.849
20
-54.9542
11
117.021
21
-55.4292
0
LINE
8
Black
10
117.021
20
-55.4292
11
117.021
21
-55.9348
0
LINE
8
Black
10
117.021
20
-55.9348
11
116.849
21
-56.4098
0
LINE
8
Black
10
116.849
20
-56.4098
11
116.524
21
-56.797
0
LINE
8
Black
10
116.524
20
-56.797
11
116.086
21
-57.0498
0
LINE
8
Black
10
116.086
20
-57.0498
11
115.588
21
-57.1375
0
LINE
8
Black
10
115.588
20
-57.1375
11
115.09
21
-57.0498
0
LINE
8
Black
10
115.09
20
-57.0498
11
114.652
21
-56.797
0
LINE
8
Black
10
114.652
20
-56.797
11
114.327
21
-56.4098
0
LINE
8
Black
10
114.327
20
-56.4098
11
114.155
21
-55.9348
0
LINE
8
Black
10
114.155
20
-55.9348
11
114.155
21
-55.4292
0
LINE
8
Black
10
114.155
20
-55.4292
11
114.327
21
-54.9542
0
LINE
8
Black
10
114.327
20
-54.9542
11
114.652
21
-54.567
0
LINE
8
Black
10
114.652
20
-54.567
11
115.09
21
-54.3142
0
LINE
8
Black
10
115.09
20
-54.3142
11
115.588
21
-54.2265
0
LINE
8
Black
10
115.588
20
-54.2265
11
116.086
21
-54.3142
0
LINE
8
Black
10
216.086
20
-54.3142
11
216.524
21
-54.567
0
LINE
8
Black
10
216.524
20
-54.567
11
216.849
21
-54.9542
0
LINE
8
Black
10
216.849
20
-54.9542
11
217.021
21
-55.4292
0
LINE
8
Black
10
217.021
20
-55.4292
11
217.021
21
-55.9348
0
LINE
8
Black
10
217.021
20
-55.9348
11
216.849
21
-56.4098
0
LINE
8
Black
10
216.849
20
-56.4098
11
216.524
21
-56.797
0
LINE
8
Black
10
216.524
20
-56.797
11
216.086
21
-57.0498
0
LINE
8
Black
10
216.086
20
-57.0498
11
215.588
21
-57.1375
0
LINE
8
Black
10
215.588
20
-57.1375
11
215.09
21
-57.0498
0
LINE
8
Black
10
215.09
20
-57.0498
11
214.652
21
-56.797
0
LINE
8
Black
10
214.652
20
-56.797
11
214.327
21
-56.4098
0
LINE
8
Black
10
214.327
20
-56.4098
11
214.155
21
-55.9348
0
LINE
8
Black
10
214.155
20
-55.9348
11
214.155
21
-55.4292
0
LINE
8
Black
10
214.155
20
-55.4292
11
214.327
21
-54.9542
0
LINE
8
Black
10
214.327
20
-54.9542
11
214.652
21
-54.567
0
LINE
8
Black
10
214.652
20
-54.567
11
215.09
21
-54.3142
0
LINE
8
Black
10
215.09
20
-54.3142
11
215.588
21
-54.2265
0
LINE
8
Black
10
215.588
20
-54.2265
11
216.086
21
-54.3142
0
LINE
8
Black
10
204.91
20
-54.3142
11
205.348
21
-54.567
0
LINE
8
Black
10
205.348
20
-54.567
11
205.673
21
-54.9542
0
LINE
8
Black
10
205.673
20
-54.9542
11
205.845
21
-55.4292
0
LINE
8
Black
10
205.845
20
-55.4292
11
205.845
21
-55.9348
0
LINE
8
Black
10
205.845
20
-55.9348
11
205.673
21
-56.4098
0
LINE
8
Black
10
205.673
20
-56.4098
11
205.348
21
-56.797
0
LINE
8
Black
10
205.348
20
-56.797
11
204.91
21
-57.0498
0
LINE
8
Black
10
204.91
20
-57.0498
11
204.412
21
-57.1375
0
LINE
8
Black
10
204.412
20
-57.1375
11
203.914
21
-57.0498
0
LINE
8
Black
10
203.914
20
-57.0498
11
203.476
21
-56.797
0
LINE
8
Black
10
203.476
20
-56.797
11
203.151
21
-56.4098
0
LINE
8
Black
10
203.151
20
-56.4098
11
202.979
21
-55.9348
0
LINE
8
Black
10
202.979
20
-55.9348
11
202.979
21
-55.4292
0
LINE
8
Black
10
202.979
20
-55.4292
11
203.151
21
-54.9542
0
LINE
8
Black
10
203.151
20
-54.9542
11
203.476
21
-54.567
0
LINE
8
Black
10
203.476
20
-54.567
11
203.914
21
-54.3142
0
LINE
8
Black
10
203.914
20
-54.3142
11
204.412
21
-54.2265
0
LINE
8
Black
10
204.412
20
-54.2265
11
204.91
21
-54.3142
0
LINE
8
Black
10
104.91
20
-54.3142
11
105.348
21
-54.567
0
LINE
8
Black
10
105.348
20
-54.567
11
105.673
21
-54.9542
0
LINE
8
Black
10
105.673
20
-54.9542
11
105.845
21
-55.4292
0
LINE
8
Black
10
105.845
20
-55.4292
11
105.845
21
-55.9348
0
LINE
8
Black
10
105.845
20
-55.9348
11
105.673
21
-56.4098
0
LINE
8
Black
10
105.673
20
-56.4098
11
105.348
21
-56.797
0
LINE
8
Black
10
105.348
20
-56.797
11
104.91
21
-57.0498
0
LINE
8
Black
10
104.91
20
-57.0498
11
104.412
21
-57.1375
0
LINE
8
Black
10
104.412
20
-57.1375
11
103.914
21
-57.0498
0
LINE
8
Black
10
103.914
20
-57.0498
11
103.476
21
-56.797
0
LINE
8
Black
10
103.476
20
-56.797
11
103.151
21
-56.4098
0
LINE
8
Black
10
103.151
20
-56.4098
11
102.979
21
-55.9348
0
LINE
8
Black
10
102.979
20
-55.9348
11
102.979
21
-55.4292
0
LINE
8
Black
10
102.979
20
-55.4292
11
103.151
21
-54.9542
0
LINE
8
Black
10
103.151
20
-54.9542
11
103.476
21
-54.567
0
LINE
8
Black
10
103.476
20
-54.567
11
103.914
21
-54.3142
0
LINE
8
Black
10
103.914
20
-54.3142
11
104.412
21
-54.2265
0
LINE
8
Black
10
104.412
20
-54.2265
11
104.91
21
-54.3142
0
LINE
8
Black
10
84.9098
20
-54.3142
11
85.3476
21
-54.567
0
LINE
8
Black
10
85.3476
20
-54.567
11
85.6725
21
-54.9542
0
LINE
8
Black
10
85.6725
20
-54.9542
11
85.8454
21
-55.4292
0
LINE
8
Black
10
85.8454
20
-55.4292
11
85.8454
21
-55.9348
0
LINE
8
Black
10
85.8454
20
-55.9348
11
85.6725
21
-56.4098
0
LINE
8
Black
10
85.6725
20
-56.4098
11
85.3476
21
-56.797
0
LINE
8
Black
10
85.3476
20
-56.797
11
84.9098
21
-57.0498
0
LINE
8
Black
10
84.9098
20
-57.0498
11
84.412
21
-57.1375
0
LINE
8
Black
10
84.412
20
-57.1375
11
83.9142
21
-57.0498
0
LINE
8
Black
10
83.9142
20
-57.0498
11
83.4764
21
-56.797
0
LINE
8
Black
10
83.4764
20
-56.797
11
83.1515
21
-56.4098
0
LINE
8
Black
10
83.1515
20
-56.4098
11
82.9786
21
-55.9348
0
LINE
8
Black
10
82.9786
20
-55.9348
11
82.9786
21
-55.4292
0
LINE
8
Black
10
82.9786
20
-55.4292
11
83.1515
21
-54.9542
0
LINE
8
Black
10
83.1515
20
-54.9542
11
83.4764
21
-54.567
0
LINE
8
Black
10
83.4764
20
-54.567
11
83.9142
21
-54.3142
0
LINE
8
Black
10
83.9142
20
-54.3142
11
84.412
21
-54.2265
0
LINE
8
Black
10
84.412
20
-54.2265
11
84.9098
21
-54.3142
0
LINE
8
Black
10
154.91
20
-54.3142
11
155.348
21
-54.567
0
LINE
8
Black
10
155.348
20
-54.567
11
155.673
21
-54.9542
0
LINE
8
Black
10
155.673
20
-54.9542
11
155.845
21
-55.4292
0
LINE
8
Black
10
155.845
20
-55.4292
11
155.845
21
-55.9348
0
LINE
8
Black
10
155.845
20
-55.9348
11
155.673
21
-56.4098
0
LINE
8
Black
10
155.673
20
-56.4098
11
155.348
21
-56.797
0
LINE
8
Black
10
155.348
20
-56.797
11
154.91
21
-57.0498
0
LINE
8
Black
10
154.91
20
-57.0498
11
154.412
21
-57.1375
0
LINE
8
Black
10
154.412
20
-57.1375
11
153.914
21
-57.0498
0
LINE
8
Black
10
153.914
20
-57.0498
11
153.476
21
-56.797
0
LINE
8
Black
10
153.476
20
-56.797
11
153.151
21
-56.4098
0
LINE
8
Black
10
153.151
20
-56.4098
11
152.979
21
-55.9348
0
LINE
8
Black
10
152.979
20
-55.9348
11
152.979
21
-55.4292
0
LINE
8
Black
10
152.979
20
-55.4292
11
153.151
21
-54.9542
0
LINE
8
Black
10
153.151
20
-54.9542
11
153.476
21
-54.567
0
LINE
8
Black
10
153.476
20
-54.567
11
153.914
21
-54.3142
0
LINE
8
Black
10
153.914
20
-54.3142
11
154.412
21
-54.2265
0
LINE
8
Black
10
154.412
20
-54.2265
11
154.91
21
-54.3142
0
LINE
8
Black
10
146.086
20
-54.3142
11
146.524
21
-54.567
0
LINE
8
Black
10
146.524
20
-54.567
11
146.849
21
-54.9542
0
LINE
8
Black
10
146.849
20
-54.9542
11
147.021
21
-55.4292
0
LINE
8
Black
10
147.021
20
-55.4292
11
147.021
21
-55.9348
0
LINE
8
Black
10
147.021
20
-55.9348
11
146.849
21
-56.4098
0
LINE
8
Black
10
146.849
20
-56.4098
11
146.524
21
-56.797
0
LINE
8
Black
10
146.524
20
-56.797
11
146.086
21
-57.0498
0
LINE
8
Black
10
146.086
20
-57.0498
11
145.588
21
-57.1375
0
LINE
8
Black
10
145.588
20
-57.1375
11
145.09
21
-57.0498
0
LINE
8
Black
10
145.09
20
-57.0498
11
144.652
21
-56.797
0
LINE
8
Black
10
144.652
20
-56.797
11
144.327
21
-56.4098
0
LINE
8
Black
10
144.327
20
-56.4098
11
144.155
21
-55.9348
0
LINE
8
Black
10
144.155
20
-55.9348
11
144.155
21
-55.4292
0
LINE
8
Black
10
144.155
20
-55.4292
11
144.327
21
-54.9542
0
LINE
8
Black
10
144.327
20
-54.9542
11
144.652
21
-54.567
0
LINE
8
Black
10
144.652
20
-54.567
11
145.09
21
-54.3142
0
LINE
8
Black
10
145.09
20
-54.3142
11
145.588
21
-54.2265
0
LINE
8
Black
10
145.588
20
-54.2265
11
146.086
21
-54.3142
0
LINE
8
Black
10
96.0858
20
-54.3142
11
96.5236
21
-54.567
0
LINE
8
Black
10
96.5236
20
-54.567
11
96.8485
21
-54.9542
0
LINE
8
Black
10
96.8485
20
-54.9542
11
97.0214
21
-55.4292
0
LINE
8
Black
10
97.0214
20
-55.4292
11
97.0214
21
-55.9348
0
LINE
8
Black
10
97.0214
20
-55.9348
11
96.8485
21
-56.4098
0
LINE
8
Black
10
96.8485
20
-56.4098
11
96.5236
21
-56.797
0
LINE
8
Black
10
96.5236
20
-56.797
11
96.0858
21
-57.0498
0
LINE
8
Black
10
96.0858
20
-57.0498
11
95.588
21
-57.1375
0
LINE
8
Black
10
95.588
20
-57.1375
11
95.0902
21
-57.0498
0
LINE
8
Black
10
95.0902
20
-57.0498
11
94.6524
21
-56.797
0
LINE
8
Black
10
94.6524
20
-56.797
11
94.3275
21
-56.4098
0
LINE
8
Black
10
94.3275
20
-56.4098
11
94.1546
21
-55.9348
0
LINE
8
Black
10
94.1546
20
-55.9348
11
94.1546
21
-55.4292
0
LINE
8
Black
10
94.1546
20
-55.4292
11
94.3275
21
-54.9542
0
LINE
8
Black
10
94.3275
20
-54.9542
11
94.6524
21
-54.567
0
LINE
8
Black
10
94.6524
20
-54.567
11
95.0902
21
-54.3142
0
LINE
8
Black
10
95.0902
20
-54.3142
11
95.588
21
-54.2265
0
LINE
8
Black
10
95.588
20
-54.2265
11
96.0858
21
-54.3142
0
LINE
8
Black
10
134.91
20
-54.3142
11
135.348
21
-54.567
0
LINE
8
Black
10
135.348
20
-54.567
11
135.673
21
-54.9542
0
LINE
8
Black
10
135.673
20
-54.9542
11
135.845
21
-55.4292
0
LINE
8
Black
10
135.845
20
-55.4292
11
135.845
21
-55.9348
0
LINE
8
Black
10
135.845
20
-55.9348
11
135.673
21
-56.4098
0
LINE
8
Black
10
135.673
20
-56.4098
11
135.348
21
-56.797
0
LINE
8
Black
10
135.348
20
-56.797
11
134.91
21
-57.0498
0
LINE
8
Black
10
134.91
20
-57.0498
11
134.412
21
-57.1375
0
LINE
8
Black
10
134.412
20
-57.1375
11
133.914
21
-57.0498
0
LINE
8
Black
10
133.914
20
-57.0498
11
133.476
21
-56.797
0
LINE
8
Black
10
133.476
20
-56.797
11
133.151
21
-56.4098
0
LINE
8
Black
10
133.151
20
-56.4098
11
132.979
21
-55.9348
0
LINE
8
Black
10
132.979
20
-55.9348
11
132.979
21
-55.4292
0
LINE
8
Black
10
132.979
20
-55.4292
11
133.151
21
-54.9542
0
LINE
8
Black
10
133.151
20
-54.9542
11
133.476
21
-54.567
0
LINE
8
Black
10
133.476
20
-54.567
11
133.914
21
-54.3142
0
LINE
8
Black
10
133.914
20
-54.3142
11
134.412
21
-54.2265
0
LINE
8
Black
10
134.412
20
-54.2265
11
134.91
21
-54.3142
0
LINE
8
Black
10
184.91
20
-54.3142
11
185.348
21
-54.567
0
LINE
8
Black
10
185.348
20
-54.567
11
185.673
21
-54.9542
0
LINE
8
Black
10
185.673
20
-54.9542
11
185.845
21
-55.4292
0
LINE
8
Black
10
185.845
20
-55.4292
11
185.845
21
-55.9348
0
LINE
8
Black
10
185.845
20
-55.9348
11
185.673
21
-56.4098
0
LINE
8
Black
10
185.673
20
-56.4098
11
185.348
21
-56.797
0
LINE
8
Black
10
185.348
20
-56.797
11
184.91
21
-57.0498
0
LINE
8
Black
10
184.91
20
-57.0498
11
184.412
21
-57.1375
0
LINE
8
Black
10
184.412
20
-57.1375
11
183.914
21
-57.0498
0
LINE
8
Black
10
183.914
20
-57.0498
11
183.476
21
-56.797
0
LINE
8
Black
10
183.476
20
-56.797
11
183.151
21
-56.4098
0
LINE
8
Black
10
183.151
20
-56.4098
11
182.979
21
-55.9348
0
LINE
8
Black
10
182.979
20
-55.9348
11
182.979
21
-55.4292
0
LINE
8
Black
10
182.979
20
-55.4292
11
183.151
21
-54.9542
0
LINE
8
Black
10
183.151
20
-54.9542
11
183.476
21
-54.567
0
LINE
8
Black
10
183.476
20
-54.567
11
183.914
21
-54.3142
0
LINE
8
Black
10
183.914
20
-54.3142
11
184.412
21
-54.2265
0
LINE
8
Black
10
184.412
20
-54.2265
11
184.91
21
-54.3142
0
LINE
8
Black
10
166.086
20
-54.3142
11
166.524
21
-54.567
0
LINE
8
Black
10
166.524
20
-54.567
11
166.849
21
-54.9542
0
LINE
8
Black
10
166.849
20
-54.9542
11
167.021
21
-55.4292
0
LINE
8
Black
10
167.021
20
-55.4292
11
167.021
21
-55.9348
0
LINE
8
Black
10
167.021
20
-55.9348
11
166.849
21
-56.4098
0
LINE
8
Black
10
166.849
20
-56.4098
11
166.524
21
-56.797
0
LINE
8
Black
10
166.524
20
-56.797
11
166.086
21
-57.0498
0
LINE
8
Black
10
166.086
20
-57.0498
11
165.588
21
-57.1375
0
LINE
8
Black
10
165.588
20
-57.1375
11
165.09
21
-57.0498
0
LINE
8
Black
10
165.09
20
-57.0498
11
164.652
21
-56.797
0
LINE
8
Black
10
164.652
20
-56.797
11
164.327
21
-56.4098
0
LINE
8
Black
10
164.327
20
-56.4098
11
164.155
21
-55.9348
0
LINE
8
Black
10
164.155
20
-55.9348
11
164.155
21
-55.4292
0
LINE
8
Black
10
164.155
20
-55.4292
11
164.327
21
-54.9542
0
LINE
8
Black
10
164.327
20
-54.9542
11
164.652
21
-54.567
0
LINE
8
Black
10
164.652
20
-54.567
11
165.09
21
-54.3142
0
LINE
8
Black
10
165.09
20
-54.3142
11
165.588
21
-54.2265
0
LINE
8
Black
10
165.588
20
-54.2265
11
166.086
21
-54.3142
0
LINE
8
Black
10
196.086
20
-54.3142
11
196.524
21
-54.567
0
LINE
8
Black
10
196.524
20
-54.567
11
196.849
21
-54.9542
0
LINE
8
Black
10
196.849
20
-54.9542
11
197.021
21
-55.4292
0
LINE
8
Black
10
197.021
20
-55.4292
11
197.021
21
-55.9348
0
LINE
8
Black
10
197.021
20
-55.9348
11
196.849
21
-56.4098
0
LINE
8
Black
10
196.849
20
-56.4098
11
196.524
21
-56.797
0
LINE
8
Black
10
196.524
20
-56.797
11
196.086
21
-57.0498
0
LINE
8
Black
10
196.086
20
-57.0498
11
195.588
21
-57.1375
0
LINE
8
Black
10
195.588
20
-57.1375
11
195.09
21
-57.0498
0
LINE
8
Black
10
195.09
20
-57.0498
11
194.652
21
-56.797
0
LINE
8
Black
10
194.652
20
-56.797
11
194.327
21
-56.4098
0
LINE
8
Black
10
194.327
20
-56.4098
11
194.155
21
-55.9348
0
LINE
8
Black
10
194.155
20
-55.9348
11
194.155
21
-55.4292
0
LINE
8
Black
10
194.155
20
-55.4292
11
194.327
21
-54.9542
0
LINE
8
Black
10
194.327
20
-54.9542
11
194.652
21
-54.567
0
LINE
8
Black
10
194.652
20
-54.567
11
195.09
21
-54.3142
0
LINE
8
Black
10
195.09
20
-54.3142
11
195.588
21
-54.2265
0
LINE
8
Black
10
195.588
20
-54.2265
11
196.086
21
-54.3142
0
LINE
8
Black
10
191.698
20
-53.4352
11
192.136
21
-53.688
0
LINE
8
Black
10
192.136
20
-53.688
11
192.461
21
-54.0752
0
LINE
8
Black
10
192.461
20
-54.0752
11
192.633
21
-54.5502
0
LINE
8
Black
10
192.633
20
-54.5502
11
192.633
21
-55.0558
0
LINE
8
Black
10
192.633
20
-55.0558
11
192.461
21
-55.5308
0
LINE
8
Black
10
192.461
20
-55.5308
11
192.136
21
-55.918
0
LINE
8
Black
10
192.136
20
-55.918
11
191.698
21
-56.1708
0
LINE
8
Black
10
191.698
20
-56.1708
11
191.2
21
-56.2585
0
LINE
8
Black
10
191.2
20
-56.2585
11
190.702
21
-56.1708
0
LINE
8
Black
10
190.702
20
-56.1708
11
190.264
21
-55.918
0
LINE
8
Black
10
190.264
20
-55.918
11
189.939
21
-55.5308
0
LINE
8
Black
10
189.939
20
-55.5308
11
189.767
21
-55.0558
0
LINE
8
Black
10
189.767
20
-55.0558
11
189.767
21
-54.5502
0
LINE
8
Black
10
189.767
20
-54.5502
11
189.939
21
-54.0752
0
LINE
8
Black
10
189.939
20
-54.0752
11
190.264
21
-53.688
0
LINE
8
Black
10
190.264
20
-53.688
11
190.702
21
-53.4352
0
LINE
8
Black
10
190.702
20
-53.4352
11
191.2
21
-53.3475
0
LINE
8
Black
10
191.2
20
-53.3475
11
191.698
21
-53.4352
0
LINE
8
Black
10
141.698
20
-53.4352
11
142.136
21
-53.688
0
LINE
8
Black
10
142.136
20
-53.688
11
142.461
21
-54.0752
0
LINE
8
Black
10
142.461
20
-54.0752
11
142.633
21
-54.5502
0
LINE
8
Black
10
142.633
20
-54.5502
11
142.633
21
-55.0558
0
LINE
8
Black
10
142.633
20
-55.0558
11
142.461
21
-55.5308
0
LINE
8
Black
10
142.461
20
-55.5308
11
142.136
21
-55.918
0
LINE
8
Black
10
142.136
20
-55.918
11
141.698
21
-56.1708
0
LINE
8
Black
10
141.698
20
-56.1708
11
141.2
21
-56.2585
0
LINE
8
Black
10
141.2
20
-56.2585
11
140.702
21
-56.1708
0
LINE
8
Black
10
140.702
20
-56.1708
11
140.264
21
-55.918
0
LINE
8
Black
10
140.264
20
-55.918
11
139.939
21
-55.5308
0
LINE
8
Black
10
139.939
20
-55.5308
11
139.767
21
-55.0558
0
LINE
8
Black
10
139.767
20
-55.0558
11
139.767
21
-54.5502
0
LINE
8
Black
10
139.767
20
-54.5502
11
139.939
21
-54.0752
0
LINE
8
Black
10
139.939
20
-54.0752
11
140.264
21
-53.688
0
LINE
8
Black
10
140.264
20
-53.688
11
140.702
21
-53.4352
0
LINE
8
Black
10
140.702
20
-53.4352
11
141.2
21
-53.3475
0
LINE
8
Black
10
141.2
20
-53.3475
11
141.698
21
-53.4352
0
LINE
8
Black
10
91.6978
20
-53.4352
11
92.1356
21
-53.688
0
LINE
8
Black
10
92.1356
20
-53.688
11
92.4605
21
-54.0752
0
LINE
8
Black
10
92.4605
20
-54.0752
11
92.6334
21
-54.5502
0
LINE
8
Black
10
92.6334
20
-54.5502
11
92.6334
21
-55.0558
0
LINE
8
Black
10
92.6334
20
-55.0558
11
92.4605
21
-55.5308
0
LINE
8
Black
10
92.4605
20
-55.5308
11
92.1356
21
-55.918
0
LINE
8
Black
10
92.1356
20
-55.918
11
91.6978
21
-56.1708
0
LINE
8
Black
10
91.6978
20
-56.1708
11
91.2
21
-56.2585
0
LINE
8
Black
10
91.2
20
-56.2585
11
90.7022
21
-56.1708
0
LINE
8
Black
10
90.7022
20
-56.1708
11
90.2644
21
-55.918
0
LINE
8
Black
10
90.2644
20
-55.918
11
89.9395
21
-55.5308
0
LINE
8
Black
10
89.9395
20
-55.5308
11
89.7666
21
-55.0558
0
LINE
8
Black
10
89.7666
20
-55.0558
11
89.7666
21
-54.5502
0
LINE
8
Black
10
89.7666
20
-54.5502
11
89.9395
21
-54.0752
0
LINE
8
Black
10
89.9395
20
-54.0752
11
90.2644
21
-53.688
0
LINE
8
Black
10
90.2644
20
-53.688
11
90.7022
21
-53.4352
0
LINE
8
Black
10
90.7022
20
-53.4352
11
91.2
21
-53.3475
0
LINE
8
Black
10
91.2
20
-53.3475
11
91.6978
21
-53.4352
0
LINE
8
Black
10
161.698
20
-53.4352
11
162.136
21
-53.688
0
LINE
8
Black
10
162.136
20
-53.688
11
162.461
21
-54.0752
0
LINE
8
Black
10
162.461
20
-54.0752
11
162.633
21
-54.5502
0
LINE
8
Black
10
162.633
20
-54.5502
11
162.633
21
-55.0558
0
LINE
8
Black
10
162.633
20
-55.0558
11
162.461
21
-55.5308
0
LINE
8
Black
10
162.461
20
-55.5308
11
162.136
21
-55.918
0
LINE
8
Black
10
162.136
20
-55.918
11
161.698
21
-56.1708
0
LINE
8
Black
10
161.698
20
-56.1708
11
161.2
21
-56.2585
0
LINE
8
Black
10
161.2
20
-56.2585
11
160.702
21
-56.1708
0
LINE
8
Black
10
160.702
20
-56.1708
11
160.264
21
-55.918
0
LINE
8
Black
10
160.264
20
-55.918
11
159.939
21
-55.5308
0
LINE
8
Black
10
159.939
20
-55.5308
11
159.767
21
-55.0558
0
LINE
8
Black
10
159.767
20
-55.0558
11
159.767
21
-54.5502
0
LINE
8
Black
10
159.767
20
-54.5502
11
159.939
21
-54.0752
0
LINE
8
Black
10
159.939
20
-54.0752
11
160.264
21
-53.688
0
LINE
8
Black
10
160.264
20
-53.688
11
160.702
21
-53.4352
0
LINE
8
Black
10
160.702
20
-53.4352
11
161.2
21
-53.3475
0
LINE
8
Black
10
161.2
20
-53.3475
11
161.698
21
-53.4352
0
LINE
8
Black
10
211.698
20
-53.4352
11
212.136
21
-53.688
0
LINE
8
Black
10
212.136
20
-53.688
11
212.461
21
-54.0752
0
LINE
8
Black
10
212.461
20
-54.0752
11
212.633
21
-54.5502
0
LINE
8
Black
10
212.633
20
-54.5502
11
212.633
21
-55.0558
0
LINE
8
Black
10
212.633
20
-55.0558
11
212.461
21
-55.5308
0
LINE
8
Black
10
212.461
20
-55.5308
11
212.136
21
-55.918
0
LINE
8
Black
10
212.136
20
-55.918
11
211.698
21
-56.1708
0
LINE
8
Black
10
211.698
20
-56.1708
11
211.2
21
-56.2585
0
LINE
8
Black
10
211.2
20
-56.2585
11
210.702
21
-56.1708
0
LINE
8
Black
10
210.702
20
-56.1708
11
210.264
21
-55.918
0
LINE
8
Black
10
210.264
20
-55.918
11
209.939
21
-55.5308
0
LINE
8
Black
10
209.939
20
-55.5308
11
209.767
21
-55.0558
0
LINE
8
Black
10
209.767
20
-55.0558
11
209.767
21
-54.5502
0
LINE
8
Black
10
209.767
20
-54.5502
11
209.939
21
-54.0752
0
LINE
8
Black
10
209.939
20
-54.0752
11
210.264
21
-53.688
0
LINE
8
Black
10
210.264
20
-53.688
11
210.702
21
-53.4352
0
LINE
8
Black
10
210.702
20
-53.4352
11
211.2
21
-53.3475
0
LINE
8
Black
10
211.2
20
-53.3475
11
211.698
21
-53.4352
0
LINE
8
Black
10
111.698
20
-53.4352
11
112.136
21
-53.688
0
LINE
8
Black
10
112.136
20
-53.688
11
112.461
21
-54.0752
0
LINE
8
Black
10
112.461
20
-54.0752
11
112.633
21
-54.5502
0
LINE
8
Black
10
112.633
20
-54.5502
11
112.633
21
-55.0558
0
LINE
8
Black
10
112.633
20
-55.0558
11
112.461
21
-55.5308
0
LINE
8
Black
10
112.461
20
-55.5308
11
112.136
21
-55.918
0
LINE
8
Black
10
112.136
20
-55.918
11
111.698
21
-56.1708
0
LINE
8
Black
10
111.698
20
-56.1708
11
111.2
21
-56.2585
0
LINE
8
Black
10
111.2
20
-56.2585
11
110.702
21
-56.1708
0
LINE
8
Black
10
110.702
20
-56.1708
11
110.264
21
-55.918
0
LINE
8
Black
10
110.264
20
-55.918
11
109.939
21
-55.5308
0
LINE
8
Black
10
109.939
20
-55.5308
11
109.767
21
-55.0558
0
LINE
8
Black
10
109.767
20
-55.0558
11
109.767
21
-54.5502
0
LINE
8
Black
10
109.767
20
-54.5502
11
109.939
21
-54.0752
0
LINE
8
Black
10
109.939
20
-54.0752
11
110.264
21
-53.688
0
LINE
8
Black
10
110.264
20
-53.688
11
110.702
21
-53.4352
0
LINE
8
Black
10
110.702
20
-53.4352
11
111.2
21
-53.3475
0
LINE
8
Black
10
111.2
20
-53.3475
11
111.698
21
-53.4352
0
LINE
8
Black
10
114.284
20
-50.8702
11
114.722
21
-51.123
0
LINE
8
Black
10
114.722
20
-51.123
11
115.047
21
-51.5102
0
LINE
8
Black
10
115.047
20
-51.5102
11
115.219
21
-51.9852
0
LINE
8
Black
10
115.219
20
-51.9852
11
115.219
21
-52.4908
0
LINE
8
Black
10
115.219
20
-52.4908
11
115.047
21
-52.9658
0
LINE
8
Black
10
115.047
20
-52.9658
11
114.722
21
-53.353
0
LINE
8
Black
10
114.722
20
-53.353
11
114.284
21
-53.6058
0
LINE
8
Black
10
114.284
20
-53.6058
11
113.786
21
-53.6935
0
LINE
8
Black
10
113.786
20
-53.6935
11
113.288
21
-53.6058
0
LINE
8
Black
10
113.288
20
-53.6058
11
112.85
21
-53.353
0
LINE
8
Black
10
112.85
20
-53.353
11
112.525
21
-52.9658
0
LINE
8
Black
10
112.525
20
-52.9658
11
112.353
21
-52.4908
0
LINE
8
Black
10
112.353
20
-52.4908
11
112.353
21
-51.9852
0
LINE
8
Black
10
112.353
20
-51.9852
11
112.525
21
-51.5102
0
LINE
8
Black
10
112.525
20
-51.5102
11
112.85
21
-51.123
0
LINE
8
Black
10
112.85
20
-51.123
11
113.288
21
-50.8702
0
LINE
8
Black
10
113.288
20
-50.8702
11
113.786
21
-50.7825
0
LINE
8
Black
10
113.786
20
-50.7825
11
114.284
21
-50.8702
0
LINE
8
Black
10
214.284
20
-50.8702
11
214.722
21
-51.123
0
LINE
8
Black
10
214.722
20
-51.123
11
215.047
21
-51.5102
0
LINE
8
Black
10
215.047
20
-51.5102
11
215.219
21
-51.9852
0
LINE
8
Black
10
215.219
20
-51.9852
11
215.219
21
-52.4908
0
LINE
8
Black
10
215.219
20
-52.4908
11
215.047
21
-52.9658
0
LINE
8
Black
10
215.047
20
-52.9658
11
214.722
21
-53.353
0
LINE
8
Black
10
214.722
20
-53.353
11
214.284
21
-53.6058
0
LINE
8
Black
10
214.284
20
-53.6058
11
213.786
21
-53.6935
0
LINE
8
Black
10
213.786
20
-53.6935
11
213.288
21
-53.6058
0
LINE
8
Black
10
213.288
20
-53.6058
11
212.85
21
-53.353
0
LINE
8
Black
10
212.85
20
-53.353
11
212.525
21
-52.9658
0
LINE
8
Black
10
212.525
20
-52.9658
11
212.353
21
-52.4908
0
LINE
8
Black
10
212.353
20
-52.4908
11
212.353
21
-51.9852
0
LINE
8
Black
10
212.353
20
-51.9852
11
212.525
21
-51.5102
0
LINE
8
Black
10
212.525
20
-51.5102
11
212.85
21
-51.123
0
LINE
8
Black
10
212.85
20
-51.123
11
213.288
21
-50.8702
0
LINE
8
Black
10
213.288
20
-50.8702
11
213.786
21
-50.7825
0
LINE
8
Black
10
213.786
20
-50.7825
11
214.284
21
-50.8702
0
LINE
8
Black
10
194.284
20
-50.8702
11
194.722
21
-51.123
0
LINE
8
Black
10
194.722
20
-51.123
11
195.047
21
-51.5102
0
LINE
8
Black
10
195.047
20
-51.5102
11
195.219
21
-51.9852
0
LINE
8
Black
10
195.219
20
-51.9852
11
195.219
21
-52.4908
0
LINE
8
Black
10
195.219
20
-52.4908
11
195.047
21
-52.9658
0
LINE
8
Black
10
195.047
20
-52.9658
11
194.722
21
-53.353
0
LINE
8
Black
10
194.722
20
-53.353
11
194.284
21
-53.6058
0
LINE
8
Black
10
194.284
20
-53.6058
11
193.786
21
-53.6935
0
LINE
8
Black
10
193.786
20
-53.6935
11
193.288
21
-53.6058
0
LINE
8
Black
10
193.288
20
-53.6058
11
192.85
21
-53.353
0
LINE
8
Black
10
192.85
20
-53.353
11
192.525
21
-52.9658
0
LINE
8
Black
10
192.525
20
-52.9658
11
192.353
21
-52.4908
0
LINE
8
Black
10
192.353
20
-52.4908
11
192.353
21
-51.9852
0
LINE
8
Black
10
192.353
20
-51.9852
11
192.525
21
-51.5102
0
LINE
8
Black
10
192.525
20
-51.5102
11
192.85
21
-51.123
0
LINE
8
Black
10
192.85
20
-51.123
11
193.288
21
-50.8702
0
LINE
8
Black
10
193.288
20
-50.8702
11
193.786
21
-50.7825
0
LINE
8
Black
10
193.786
20
-50.7825
11
194.284
21
-50.8702
0
LINE
8
Black
10
164.284
20
-50.8702
11
164.722
21
-51.123
0
LINE
8
Black
10
164.722
20
-51.123
11
165.047
21
-51.5102
0
LINE
8
Black
10
165.047
20
-51.5102
11
165.219
21
-51.9852
0
LINE
8
Black
10
165.219
20
-51.9852
11
165.219
21
-52.4908
0
LINE
8
Black
10
165.219
20
-52.4908
11
165.047
21
-52.9658
0
LINE
8
Black
10
165.047
20
-52.9658
11
164.722
21
-53.353
0
LINE
8
Black
10
164.722
20
-53.353
11
164.284
21
-53.6058
0
LINE
8
Black
10
164.284
20
-53.6058
11
163.786
21
-53.6935
0
LINE
8
Black
10
163.786
20
-53.6935
11
163.288
21
-53.6058
0
LINE
8
Black
10
163.288
20
-53.6058
11
162.85
21
-53.353
0
LINE
8
Black
10
162.85
20
-53.353
11
162.525
21
-52.9658
0
LINE
8
Black
10
162.525
20
-52.9658
11
162.353
21
-52.4908
0
LINE
8
Black
10
162.353
20
-52.4908
11
162.353
21
-51.9852
0
LINE
8
Black
10
162.353
20
-51.9852
11
162.525
21
-51.5102
0
LINE
8
Black
10
162.525
20
-51.5102
11
162.85
21
-51.123
0
LINE
8
Black
10
162.85
20
-51.123
11
163.288
21
-50.8702
0
LINE
8
Black
10
163.288
20
-50.8702
11
163.786
21
-50.7825
0
LINE
8
Black
10
163.786
20
-50.7825
11
164.284
21
-50.8702
0
LINE
8
Black
10
86.7118
20
-50.8702
11
87.1496
21
-51.123
0
LINE
8
Black
10
87.1496
20
-51.123
11
87.4745
21
-51.5102
0
LINE
8
Black
10
87.4745
20
-51.5102
11
87.6474
21
-51.9852
0
LINE
8
Black
10
87.6474
20
-51.9852
11
87.6474
21
-52.4908
0
LINE
8
Black
10
87.6474
20
-52.4908
11
87.4745
21
-52.9658
0
LINE
8
Black
10
87.4745
20
-52.9658
11
87.1496
21
-53.353
0
LINE
8
Black
10
87.1496
20
-53.353
11
86.7118
21
-53.6058
0
LINE
8
Black
10
86.7118
20
-53.6058
11
86.214
21
-53.6935
0
LINE
8
Black
10
86.214
20
-53.6935
11
85.7162
21
-53.6058
0
LINE
8
Black
10
85.7162
20
-53.6058
11
85.2784
21
-53.353
0
LINE
8
Black
10
85.2784
20
-53.353
11
84.9535
21
-52.9658
0
LINE
8
Black
10
84.9535
20
-52.9658
11
84.7806
21
-52.4908
0
LINE
8
Black
10
84.7806
20
-52.4908
11
84.7806
21
-51.9852
0
LINE
8
Black
10
84.7806
20
-51.9852
11
84.9535
21
-51.5102
0
LINE
8
Black
10
84.9535
20
-51.5102
11
85.2784
21
-51.123
0
LINE
8
Black
10
85.2784
20
-51.123
11
85.7162
21
-50.8702
0
LINE
8
Black
10
85.7162
20
-50.8702
11
86.214
21
-50.7825
0
LINE
8
Black
10
86.214
20
-50.7825
11
86.7118
21
-50.8702
0
LINE
8
Black
10
156.712
20
-50.8702
11
157.15
21
-51.123
0
LINE
8
Black
10
157.15
20
-51.123
11
157.475
21
-51.5102
0
LINE
8
Black
10
157.475
20
-51.5102
11
157.647
21
-51.9852
0
LINE
8
Black
10
157.647
20
-51.9852
11
157.647
21
-52.4908
0
LINE
8
Black
10
157.647
20
-52.4908
11
157.475
21
-52.9658
0
LINE
8
Black
10
157.475
20
-52.9658
11
157.15
21
-53.353
0
LINE
8
Black
10
157.15
20
-53.353
11
156.712
21
-53.6058
0
LINE
8
Black
10
156.712
20
-53.6058
11
156.214
21
-53.6935
0
LINE
8
Black
10
156.214
20
-53.6935
11
155.716
21
-53.6058
0
LINE
8
Black
10
155.716
20
-53.6058
11
155.278
21
-53.353
0
LINE
8
Black
10
155.278
20
-53.353
11
154.953
21
-52.9658
0
LINE
8
Black
10
154.953
20
-52.9658
11
154.781
21
-52.4908
0
LINE
8
Black
10
154.781
20
-52.4908
11
154.781
21
-51.9852
0
LINE
8
Black
10
154.781
20
-51.9852
11
154.953
21
-51.5102
0
LINE
8
Black
10
154.953
20
-51.5102
11
155.278
21
-51.123
0
LINE
8
Black
10
155.278
20
-51.123
11
155.716
21
-50.8702
0
LINE
8
Black
10
155.716
20
-50.8702
11
156.214
21
-50.7825
0
LINE
8
Black
10
156.214
20
-50.7825
11
156.712
21
-50.8702
0
LINE
8
Black
10
206.712
20
-50.8702
11
207.15
21
-51.123
0
LINE
8
Black
10
207.15
20
-51.123
11
207.475
21
-51.5102
0
LINE
8
Black
10
207.475
20
-51.5102
11
207.647
21
-51.9852
0
LINE
8
Black
10
207.647
20
-51.9852
11
207.647
21
-52.4908
0
LINE
8
Black
10
207.647
20
-52.4908
11
207.475
21
-52.9658
0
LINE
8
Black
10
207.475
20
-52.9658
11
207.15
21
-53.353
0
LINE
8
Black
10
207.15
20
-53.353
11
206.712
21
-53.6058
0
LINE
8
Black
10
206.712
20
-53.6058
11
206.214
21
-53.6935
0
LINE
8
Black
10
206.214
20
-53.6935
11
205.716
21
-53.6058
0
LINE
8
Black
10
205.716
20
-53.6058
11
205.278
21
-53.353
0
LINE
8
Black
10
205.278
20
-53.353
11
204.953
21
-52.9658
0
LINE
8
Black
10
204.953
20
-52.9658
11
204.781
21
-52.4908
0
LINE
8
Black
10
204.781
20
-52.4908
11
204.781
21
-51.9852
0
LINE
8
Black
10
204.781
20
-51.9852
11
204.953
21
-51.5102
0
LINE
8
Black
10
204.953
20
-51.5102
11
205.278
21
-51.123
0
LINE
8
Black
10
205.278
20
-51.123
11
205.716
21
-50.8702
0
LINE
8
Black
10
205.716
20
-50.8702
11
206.214
21
-50.7825
0
LINE
8
Black
10
206.214
20
-50.7825
11
206.712
21
-50.8702
0
LINE
8
Black
10
186.712
20
-50.8702
11
187.15
21
-51.123
0
LINE
8
Black
10
187.15
20
-51.123
11
187.475
21
-51.5102
0
LINE
8
Black
10
187.475
20
-51.5102
11
187.647
21
-51.9852
0
LINE
8
Black
10
187.647
20
-51.9852
11
187.647
21
-52.4908
0
LINE
8
Black
10
187.647
20
-52.4908
11
187.475
21
-52.9658
0
LINE
8
Black
10
187.475
20
-52.9658
11
187.15
21
-53.353
0
LINE
8
Black
10
187.15
20
-53.353
11
186.712
21
-53.6058
0
LINE
8
Black
10
186.712
20
-53.6058
11
186.214
21
-53.6935
0
LINE
8
Black
10
186.214
20
-53.6935
11
185.716
21
-53.6058
0
LINE
8
Black
10
185.716
20
-53.6058
11
185.278
21
-53.353
0
LINE
8
Black
10
185.278
20
-53.353
11
184.953
21
-52.9658
0
LINE
8
Black
10
184.953
20
-52.9658
11
184.781
21
-52.4908
0
LINE
8
Black
10
184.781
20
-52.4908
11
184.781
21
-51.9852
0
LINE
8
Black
10
184.781
20
-51.9852
11
184.953
21
-51.5102
0
LINE
8
Black
10
184.953
20
-51.5102
11
185.278
21
-51.123
0
LINE
8
Black
10
185.278
20
-51.123
11
185.716
21
-50.8702
0
LINE
8
Black
10
185.716
20
-50.8702
11
186.214
21
-50.7825
0
LINE
8
Black
10
186.214
20
-50.7825
11
186.712
21
-50.8702
0
LINE
8
Black
10
106.712
20
-50.8702
11
107.15
21
-51.123
0
LINE
8
Black
10
107.15
20
-51.123
11
107.475
21
-51.5102
0
LINE
8
Black
10
107.475
20
-51.5102
11
107.647
21
-51.9852
0
LINE
8
Black
10
107.647
20
-51.9852
11
107.647
21
-52.4908
0
LINE
8
Black
10
107.647
20
-52.4908
11
107.475
21
-52.9658
0
LINE
8
Black
10
107.475
20
-52.9658
11
107.15
21
-53.353
0
LINE
8
Black
10
107.15
20
-53.353
11
106.712
21
-53.6058
0
LINE
8
Black
10
106.712
20
-53.6058
11
106.214
21
-53.6935
0
LINE
8
Black
10
106.214
20
-53.6935
11
105.716
21
-53.6058
0
LINE
8
Black
10
105.716
20
-53.6058
11
105.278
21
-53.353
0
LINE
8
Black
10
105.278
20
-53.353
11
104.953
21
-52.9658
0
LINE
8
Black
10
104.953
20
-52.9658
11
104.781
21
-52.4908
0
LINE
8
Black
10
104.781
20
-52.4908
11
104.781
21
-51.9852
0
LINE
8
Black
10
104.781
20
-51.9852
11
104.953
21
-51.5102
0
LINE
8
Black
10
104.953
20
-51.5102
11
105.278
21
-51.123
0
LINE
8
Black
10
105.278
20
-51.123
11
105.716
21
-50.8702
0
LINE
8
Black
10
105.716
20
-50.8702
11
106.214
21
-50.7825
0
LINE
8
Black
10
106.214
20
-50.7825
11
106.712
21
-50.8702
0
LINE
8
Black
10
94.2838
20
-50.8702
11
94.7216
21
-51.123
0
LINE
8
Black
10
94.7216
20
-51.123
11
95.0465
21
-51.5102
0
LINE
8
Black
10
95.0465
20
-51.5102
11
95.2194
21
-51.9852
0
LINE
8
Black
10
95.2194
20
-51.9852
11
95.2194
21
-52.4908
0
LINE
8
Black
10
95.2194
20
-52.4908
11
95.0465
21
-52.9658
0
LINE
8
Black
10
95.0465
20
-52.9658
11
94.7216
21
-53.353
0
LINE
8
Black
10
94.7216
20
-53.353
11
94.2838
21
-53.6058
0
LINE
8
Black
10
94.2838
20
-53.6058
11
93.786
21
-53.6935
0
LINE
8
Black
10
93.786
20
-53.6935
11
93.2882
21
-53.6058
0
LINE
8
Black
10
93.2882
20
-53.6058
11
92.8504
21
-53.353
0
LINE
8
Black
10
92.8504
20
-53.353
11
92.5255
21
-52.9658
0
LINE
8
Black
10
92.5255
20
-52.9658
11
92.3526
21
-52.4908
0
LINE
8
Black
10
92.3526
20
-52.4908
11
92.3526
21
-51.9852
0
LINE
8
Black
10
92.3526
20
-51.9852
11
92.5255
21
-51.5102
0
LINE
8
Black
10
92.5255
20
-51.5102
11
92.8504
21
-51.123
0
LINE
8
Black
10
92.8504
20
-51.123
11
93.2882
21
-50.8702
0
LINE
8
Black
10
93.2882
20
-50.8702
11
93.786
21
-50.7825
0
LINE
8
Black
10
93.786
20
-50.7825
11
94.2838
21
-50.8702
0
LINE
8
Black
10
144.284
20
-50.8702
11
144.722
21
-51.123
0
LINE
8
Black
10
144.722
20
-51.123
11
145.047
21
-51.5102
0
LINE
8
Black
10
145.047
20
-51.5102
11
145.219
21
-51.9852
0
LINE
8
Black
10
145.219
20
-51.9852
11
145.219
21
-52.4908
0
LINE
8
Black
10
145.219
20
-52.4908
11
145.047
21
-52.9658
0
LINE
8
Black
10
145.047
20
-52.9658
11
144.722
21
-53.353
0
LINE
8
Black
10
144.722
20
-53.353
11
144.284
21
-53.6058
0
LINE
8
Black
10
144.284
20
-53.6058
11
143.786
21
-53.6935
0
LINE
8
Black
10
143.786
20
-53.6935
11
143.288
21
-53.6058
0
LINE
8
Black
10
143.288
20
-53.6058
11
142.85
21
-53.353
0
LINE
8
Black
10
142.85
20
-53.353
11
142.525
21
-52.9658
0
LINE
8
Black
10
142.525
20
-52.9658
11
142.353
21
-52.4908
0
LINE
8
Black
10
142.353
20
-52.4908
11
142.353
21
-51.9852
0
LINE
8
Black
10
142.353
20
-51.9852
11
142.525
21
-51.5102
0
LINE
8
Black
10
142.525
20
-51.5102
11
142.85
21
-51.123
0
LINE
8
Black
10
142.85
20
-51.123
11
143.288
21
-50.8702
0
LINE
8
Black
10
143.288
20
-50.8702
11
143.786
21
-50.7825
0
LINE
8
Black
10
143.786
20
-50.7825
11
144.284
21
-50.8702
0
LINE
8
Black
10
136.712
20
-50.8702
11
137.15
21
-51.123
0
LINE
8
Black
10
137.15
20
-51.123
11
137.475
21
-51.5102
0
LINE
8
Black
10
137.475
20
-51.5102
11
137.647
21
-51.9852
0
LINE
8
Black
10
137.647
20
-51.9852
11
137.647
21
-52.4908
0
LINE
8
Black
10
137.647
20
-52.4908
11
137.475
21
-52.9658
0
LINE
8
Black
10
137.475
20
-52.9658
11
137.15
21
-53.353
0
LINE
8
Black
10
137.15
20
-53.353
11
136.712
21
-53.6058
0
LINE
8
Black
10
136.712
20
-53.6058
11
136.214
21
-53.6935
0
LINE
8
Black
10
136.214
20
-53.6935
11
135.716
21
-53.6058
0
LINE
8
Black
10
135.716
20
-53.6058
11
135.278
21
-53.353
0
LINE
8
Black
10
135.278
20
-53.353
11
134.953
21
-52.9658
0
LINE
8
Black
10
134.953
20
-52.9658
11
134.781
21
-52.4908
0
LINE
8
Black
10
134.781
20
-52.4908
11
134.781
21
-51.9852
0
LINE
8
Black
10
134.781
20
-51.9852
11
134.953
21
-51.5102
0
LINE
8
Black
10
134.953
20
-51.5102
11
135.278
21
-51.123
0
LINE
8
Black
10
135.278
20
-51.123
11
135.716
21
-50.8702
0
LINE
8
Black
10
135.716
20
-50.8702
11
136.214
21
-50.7825
0
LINE
8
Black
10
136.214
20
-50.7825
11
136.712
21
-50.8702
0
LINE
8
Black
10
110.498
20
-49.9962
11
110.936
21
-50.249
0
LINE
8
Black
10
110.936
20
-50.249
11
111.261
21
-50.6362
0
LINE
8
Black
10
111.261
20
-50.6362
11
111.433
21
-51.1112
0
LINE
8
Black
10
111.433
20
-51.1112
11
111.433
21
-51.6168
0
LINE
8
Black
10
111.433
20
-51.6168
11
111.261
21
-52.0918
0
LINE
8
Black
10
111.261
20
-52.0918
11
110.936
21
-52.479
0
LINE
8
Black
10
110.936
20
-52.479
11
110.498
21
-52.7318
0
LINE
8
Black
10
110.498
20
-52.7318
11
110
21
-52.8195
0
LINE
8
Black
10
110
20
-52.8195
11
109.502
21
-52.7318
0
LINE
8
Black
10
109.502
20
-52.7318
11
109.064
21
-52.479
0
LINE
8
Black
10
109.064
20
-52.479
11
108.739
21
-52.0918
0
LINE
8
Black
10
108.739
20
-52.0918
11
108.567
21
-51.6168
0
LINE
8
Black
10
108.567
20
-51.6168
11
108.567
21
-51.1112
0
LINE
8
Black
10
108.567
20
-51.1112
11
108.739
21
-50.6362
0
LINE
8
Black
10
108.739
20
-50.6362
11
109.064
21
-50.249
0
LINE
8
Black
10
109.064
20
-50.249
11
109.502
21
-49.9962
0
LINE
8
Black
10
109.502
20
-49.9962
11
110
21
-49.9085
0
LINE
8
Black
10
110
20
-49.9085
11
110.498
21
-49.9962
0
LINE
8
Black
10
190.498
20
-49.9962
11
190.936
21
-50.249
0
LINE
8
Black
10
190.936
20
-50.249
11
191.261
21
-50.6362
0
LINE
8
Black
10
191.261
20
-50.6362
11
191.433
21
-51.1112
0
LINE
8
Black
10
191.433
20
-51.1112
11
191.433
21
-51.6168
0
LINE
8
Black
10
191.433
20
-51.6168
11
191.261
21
-52.0918
0
LINE
8
Black
10
191.261
20
-52.0918
11
190.936
21
-52.479
0
LINE
8
Black
10
190.936
20
-52.479
11
190.498
21
-52.7318
0
LINE
8
Black
10
190.498
20
-52.7318
11
190
21
-52.8195
0
LINE
8
Black
10
190
20
-52.8195
11
189.502
21
-52.7318
0
LINE
8
Black
10
189.502
20
-52.7318
11
189.064
21
-52.479
0
LINE
8
Black
10
189.064
20
-52.479
11
188.739
21
-52.0918
0
LINE
8
Black
10
188.739
20
-52.0918
11
188.567
21
-51.6168
0
LINE
8
Black
10
188.567
20
-51.6168
11
188.567
21
-51.1112
0
LINE
8
Black
10
188.567
20
-51.1112
11
188.739
21
-50.6362
0
LINE
8
Black
10
188.739
20
-50.6362
11
189.064
21
-50.249
0
LINE
8
Black
10
189.064
20
-50.249
11
189.502
21
-49.9962
0
LINE
8
Black
10
189.502
20
-49.9962
11
190
21
-49.9085
0
LINE
8
Black
10
190
20
-49.9085
11
190.498
21
-49.9962
0
LINE
8
Black
10
210.498
20
-49.9962
11
210.936
21
-50.249
0
LINE
8
Black
10
210.936
20
-50.249
11
211.261
21
-50.6362
0
LINE
8
Black
10
211.261
20
-50.6362
11
211.433
21
-51.1112
0
LINE
8
Black
10
211.433
20
-51.1112
11
211.433
21
-51.6168
0
LINE
8
Black
10
211.433
20
-51.6168
11
211.261
21
-52.0918
0
LINE
8
Black
10
211.261
20
-52.0918
11
210.936
21
-52.479
0
LINE
8
Black
10
210.936
20
-52.479
11
210.498
21
-52.7318
0
LINE
8
Black
10
210.498
20
-52.7318
11
210
21
-52.8195
0
LINE
8
Black
10
210
20
-52.8195
11
209.502
21
-52.7318
0
LINE
8
Black
10
209.502
20
-52.7318
11
209.064
21
-52.479
0
LINE
8
Black
10
209.064
20
-52.479
11
208.739
21
-52.0918
0
LINE
8
Black
10
208.739
20
-52.0918
11
208.567
21
-51.6168
0
LINE
8
Black
10
208.567
20
-51.6168
11
208.567
21
-51.1112
0
LINE
8
Black
10
208.567
20
-51.1112
11
208.739
21
-50.6362
0
LINE
8
Black
10
208.739
20
-50.6362
11
209.064
21
-50.249
0
LINE
8
Black
10
209.064
20
-50.249
11
209.502
21
-49.9962
0
LINE
8
Black
10
209.502
20
-49.9962
11
210
21
-49.9085
0
LINE
8
Black
10
210
20
-49.9085
11
210.498
21
-49.9962
0
LINE
8
Black
10
90.4978
20
-49.9962
11
90.9356
21
-50.249
0
LINE
8
Black
10
90.9356
20
-50.249
11
91.2605
21
-50.6362
0
LINE
8
Black
10
91.2605
20
-50.6362
11
91.4334
21
-51.1112
0
LINE
8
Black
10
91.4334
20
-51.1112
11
91.4334
21
-51.6168
0
LINE
8
Black
10
91.4334
20
-51.6168
11
91.2605
21
-52.0918
0
LINE
8
Black
10
91.2605
20
-52.0918
11
90.9356
21
-52.479
0
LINE
8
Black
10
90.9356
20
-52.479
11
90.4978
21
-52.7318
0
LINE
8
Black
10
90.4978
20
-52.7318
11
90
21
-52.8195
0
LINE
8
Black
10
90
20
-52.8195
11
89.5022
21
-52.7318
0
LINE
8
Black
10
89.5022
20
-52.7318
11
89.0644
21
-52.479
0
LINE
8
Black
10
89.0644
20
-52.479
11
88.7395
21
-52.0918
0
LINE
8
Black
10
88.7395
20
-52.0918
11
88.5666
21
-51.6168
0
LINE
8
Black
10
88.5666
20
-51.6168
11
88.5666
21
-51.1112
0
LINE
8
Black
10
88.5666
20
-51.1112
11
88.7395
21
-50.6362
0
LINE
8
Black
10
88.7395
20
-50.6362
11
89.0644
21
-50.249
0
LINE
8
Black
10
89.0644
20
-50.249
11
89.5022
21
-49.9962
0
LINE
8
Black
10
89.5022
20
-49.9962
11
90
21
-49.9085
0
LINE
8
Black
10
90
20
-49.9085
11
90.4978
21
-49.9962
0
LINE
8
Black
10
160.498
20
-49.9962
11
160.936
21
-50.249
0
LINE
8
Black
10
160.936
20
-50.249
11
161.261
21
-50.6362
0
LINE
8
Black
10
161.261
20
-50.6362
11
161.433
21
-51.1112
0
LINE
8
Black
10
161.433
20
-51.1112
11
161.433
21
-51.6168
0
LINE
8
Black
10
161.433
20
-51.6168
11
161.261
21
-52.0918
0
LINE
8
Black
10
161.261
20
-52.0918
11
160.936
21
-52.479
0
LINE
8
Black
10
160.936
20
-52.479
11
160.498
21
-52.7318
0
LINE
8
Black
10
160.498
20
-52.7318
11
160
21
-52.8195
0
LINE
8
Black
10
160
20
-52.8195
11
159.502
21
-52.7318
0
LINE
8
Black
10
159.502
20
-52.7318
11
159.064
21
-52.479
0
LINE
8
Black
10
159.064
20
-52.479
11
158.739
21
-52.0918
0
LINE
8
Black
10
158.739
20
-52.0918
11
158.567
21
-51.6168
0
LINE
8
Black
10
158.567
20
-51.6168
11
158.567
21
-51.1112
0
LINE
8
Black
10
158.567
20
-51.1112
11
158.739
21
-50.6362
0
LINE
8
Black
10
158.739
20
-50.6362
11
159.064
21
-50.249
0
LINE
8
Black
10
159.064
20
-50.249
11
159.502
21
-49.9962
0
LINE
8
Black
10
159.502
20
-49.9962
11
160
21
-49.9085
0
LINE
8
Black
10
160
20
-49.9085
11
160.498
21
-49.9962
0
LINE
8
Black
10
140.498
20
-49.9962
11
140.936
21
-50.249
0
LINE
8
Black
10
140.936
20
-50.249
11
141.261
21
-50.6362
0
LINE
8
Black
10
141.261
20
-50.6362
11
141.433
21
-51.1112
0
LINE
8
Black
10
141.433
20
-51.1112
11
141.433
21
-51.6168
0
LINE
8
Black
10
141.433
20
-51.6168
11
141.261
21
-52.0918
0
LINE
8
Black
10
141.261
20
-52.0918
11
140.936
21
-52.479
0
LINE
8
Black
10
140.936
20
-52.479
11
140.498
21
-52.7318
0
LINE
8
Black
10
140.498
20
-52.7318
11
140
21
-52.8195
0
LINE
8
Black
10
140
20
-52.8195
11
139.502
21
-52.7318
0
LINE
8
Black
10
139.502
20
-52.7318
11
139.064
21
-52.479
0
LINE
8
Black
10
139.064
20
-52.479
11
138.739
21
-52.0918
0
LINE
8
Black
10
138.739
20
-52.0918
11
138.567
21
-51.6168
0
LINE
8
Black
10
138.567
20
-51.6168
11
138.567
21
-51.1112
0
LINE
8
Black
10
138.567
20
-51.1112
11
138.739
21
-50.6362
0
LINE
8
Black
10
138.739
20
-50.6362
11
139.064
21
-50.249
0
LINE
8
Black
10
139.064
20
-50.249
11
139.502
21
-49.9962
0
LINE
8
Black
10
139.502
20
-49.9962
11
140
21
-49.9085
0
LINE
8
Black
10
140
20
-49.9085
11
140.498
21
-49.9962
0
LINE
8
Black
10
100.704
20
-43.0663
11
101.323
21
-43.4236
0
LINE
8
Black
10
101.323
20
-43.4236
11
101.782
21
-43.9711
0
LINE
8
Black
10
101.782
20
-43.9711
11
102.027
21
-44.6427
0
LINE
8
Black
10
102.027
20
-44.6427
11
102.027
21
-45.3573
0
LINE
8
Black
10
102.027
20
-45.3573
11
101.782
21
-46.0289
0
LINE
8
Black
10
101.782
20
-46.0289
11
101.323
21
-46.5764
0
LINE
8
Black
10
101.323
20
-46.5764
11
100.704
21
-46.9337
0
LINE
8
Black
10
100.704
20
-46.9337
11
100
21
-47.0578
0
LINE
8
Black
10
100
20
-47.0578
11
99.2962
21
-46.9337
0
LINE
8
Black
10
99.2962
20
-46.9337
11
98.6773
21
-46.5764
0
LINE
8
Black
10
98.6773
20
-46.5764
11
98.2179
21
-46.0289
0
LINE
8
Black
10
98.2179
20
-46.0289
11
97.9734
21
-45.3573
0
LINE
8
Black
10
97.9734
20
-45.3573
11
97.9734
21
-44.6427
0
LINE
8
Black
10
97.9734
20
-44.6427
11
98.2179
21
-43.9711
0
LINE
8
Black
10
98.2179
20
-43.9711
11
98.6773
21
-43.4236
0
LINE
8
Black
10
98.6773
20
-43.4236
11
99.2962
21
-43.0663
0
LINE
8
Black
10
99.2962
20
-43.0663
11
100
21
-42.9422
0
LINE
8
Black
10
100
20
-42.9422
11
100.704
21
-43.0663
0
LINE
8
Black
10
200.704
20
-43.0663
11
201.323
21
-43.4236
0
LINE
8
Black
10
201.323
20
-43.4236
11
201.782
21
-43.9711
0
LINE
8
Black
10
201.782
20
-43.9711
11
202.027
21
-44.6427
0
LINE
8
Black
10
202.027
20
-44.6427
11
202.027
21
-45.3573
0
LINE
8
Black
10
202.027
20
-45.3573
11
201.782
21
-46.0289
0
LINE
8
Black
10
201.782
20
-46.0289
11
201.323
21
-46.5764
0
LINE
8
Black
10
201.323
20
-46.5764
11
200.704
21
-46.9337
0
LINE
8
Black
10
200.704
20
-46.9337
11
200
21
-47.0578
0
LINE
8
Black
10
200
20
-47.0578
11
199.296
21
-46.9337
0
LINE
8
Black
10
199.296
20
-46.9337
11
198.677
21
-46.5764
0
LINE
8
Black
10
198.677
20
-46.5764
11
198.218
21
-46.0289
0
LINE
8
Black
10
198.218
20
-46.0289
11
197.973
21
-45.3573
0
LINE
8
Black
10
197.973
20
-45.3573
11
197.973
21
-44.6427
0
LINE
8
Black
10
197.973
20
-44.6427
11
198.218
21
-43.9711
0
LINE
8
Black
10
198.218
20
-43.9711
11
198.677
21
-43.4236
0
LINE
8
Black
10
198.677
20
-43.4236
11
199.296
21
-43.0663
0
LINE
8
Black
10
199.296
20
-43.0663
11
200
21
-42.9422
0
LINE
8
Black
10
200
20
-42.9422
11
200.704
21
-43.0663
  0
ENDSEC
  0
EOF
