G04 #@! TF.FileFunction,Soldermask,Top*
%FSLAX46Y46*%
G04 Gerber Fmt 4.6, Leading zero omitted, Abs format (unit mm)*
G04 Created by KiCad (PCBNEW 4.0.6) date Sunday, June 18, 2017 'PMt' 07:47:11 PM*
%MOMM*%
%LPD*%
G01*
G04 APERTURE LIST*
%ADD10C,0.100000*%
%ADD11C,4.100000*%
%ADD12R,1.700000X1.900000*%
%ADD13C,2.900000*%
%ADD14R,1.000000X2.350000*%
%ADD15R,1.900000X1.700000*%
%ADD16R,1.650000X1.900000*%
%ADD17R,1.900000X1.650000*%
%ADD18C,1.924000*%
%ADD19R,2.100000X2.100000*%
%ADD20O,2.100000X2.100000*%
%ADD21R,1.800000X1.350000*%
G04 APERTURE END LIST*
D10*
D11*
X159360000Y-100000000D03*
D12*
X190000000Y-46950000D03*
X190000000Y-44250000D03*
D11*
X200000000Y-100000000D03*
X100000000Y-100000000D03*
X100000000Y-45000000D03*
D13*
X213786000Y-67762000D03*
X215588000Y-64318000D03*
X215588000Y-60000000D03*
X215588000Y-55682000D03*
X213786000Y-52238000D03*
X210000000Y-51364000D03*
X206214000Y-52238000D03*
X204412000Y-55682000D03*
X204412000Y-60000000D03*
X204412000Y-64318000D03*
X206214000Y-67762000D03*
X210000000Y-68636000D03*
X211200000Y-65197000D03*
X211200000Y-54803000D03*
D14*
X204285000Y-87200000D03*
X205555000Y-87200000D03*
X206825000Y-87200000D03*
X208095000Y-87200000D03*
X209365000Y-87200000D03*
X210635000Y-87200000D03*
X211905000Y-87200000D03*
X213175000Y-87200000D03*
X214445000Y-87200000D03*
X215715000Y-87200000D03*
X215715000Y-77800000D03*
X214445000Y-77800000D03*
X213175000Y-77800000D03*
X211905000Y-77800000D03*
X210635000Y-77800000D03*
X209365000Y-77800000D03*
X208095000Y-77800000D03*
X206825000Y-77800000D03*
X205555000Y-77800000D03*
X204285000Y-77800000D03*
X154285000Y-87200000D03*
X155555000Y-87200000D03*
X156825000Y-87200000D03*
X158095000Y-87200000D03*
X159365000Y-87200000D03*
X160635000Y-87200000D03*
X161905000Y-87200000D03*
X163175000Y-87200000D03*
X164445000Y-87200000D03*
X165715000Y-87200000D03*
X165715000Y-77800000D03*
X164445000Y-77800000D03*
X163175000Y-77800000D03*
X161905000Y-77800000D03*
X160635000Y-77800000D03*
X159365000Y-77800000D03*
X158095000Y-77800000D03*
X156825000Y-77800000D03*
X155555000Y-77800000D03*
X154285000Y-77800000D03*
D15*
X133650000Y-92500000D03*
X136350000Y-92500000D03*
D16*
X131250000Y-86250000D03*
X131250000Y-88750000D03*
D14*
X134285000Y-87200000D03*
X135555000Y-87200000D03*
X136825000Y-87200000D03*
X138095000Y-87200000D03*
X139365000Y-87200000D03*
X140635000Y-87200000D03*
X141905000Y-87200000D03*
X143175000Y-87200000D03*
X144445000Y-87200000D03*
X145715000Y-87200000D03*
X145715000Y-77800000D03*
X144445000Y-77800000D03*
X143175000Y-77800000D03*
X141905000Y-77800000D03*
X140635000Y-77800000D03*
X139365000Y-77800000D03*
X138095000Y-77800000D03*
X136825000Y-77800000D03*
X135555000Y-77800000D03*
X134285000Y-77800000D03*
X184285000Y-87200000D03*
X185555000Y-87200000D03*
X186825000Y-87200000D03*
X188095000Y-87200000D03*
X189365000Y-87200000D03*
X190635000Y-87200000D03*
X191905000Y-87200000D03*
X193175000Y-87200000D03*
X194445000Y-87200000D03*
X195715000Y-87200000D03*
X195715000Y-77800000D03*
X194445000Y-77800000D03*
X193175000Y-77800000D03*
X191905000Y-77800000D03*
X190635000Y-77800000D03*
X189365000Y-77800000D03*
X188095000Y-77800000D03*
X186825000Y-77800000D03*
X185555000Y-77800000D03*
X184285000Y-77800000D03*
D13*
X143786000Y-67762000D03*
X145588000Y-64318000D03*
X145588000Y-60000000D03*
X145588000Y-55682000D03*
X143786000Y-52238000D03*
X140000000Y-51364000D03*
X136214000Y-52238000D03*
X134412000Y-55682000D03*
X134412000Y-60000000D03*
X134412000Y-64318000D03*
X136214000Y-67762000D03*
X140000000Y-68636000D03*
X141200000Y-65197000D03*
X141200000Y-54803000D03*
D16*
X81250000Y-86250000D03*
X81250000Y-88750000D03*
X101250000Y-86250000D03*
X101250000Y-88750000D03*
X151250000Y-86222928D03*
X151250000Y-88722928D03*
X181250000Y-86250000D03*
X181250000Y-88750000D03*
X201250000Y-86250000D03*
X201250000Y-88750000D03*
D17*
X91250000Y-62500000D03*
X88750000Y-62500000D03*
X111250000Y-62500000D03*
X108750000Y-62500000D03*
X126250000Y-52500000D03*
X123750000Y-52500000D03*
X126250000Y-70000000D03*
X123750000Y-70000000D03*
X141250000Y-62500000D03*
X138750000Y-62500000D03*
X161250000Y-62500000D03*
X158750000Y-62500000D03*
X176250000Y-52500000D03*
X173750000Y-52500000D03*
X176250000Y-70000000D03*
X173750000Y-70000000D03*
X191250000Y-62500000D03*
X188750000Y-62500000D03*
X211250000Y-62500000D03*
X208750000Y-62500000D03*
D13*
X93786000Y-67762000D03*
X95588000Y-64318000D03*
X95588000Y-60000000D03*
X95588000Y-55682000D03*
X93786000Y-52238000D03*
X90000000Y-51364000D03*
X86214000Y-52238000D03*
X84412000Y-55682000D03*
X84412000Y-60000000D03*
X84412000Y-64318000D03*
X86214000Y-67762000D03*
X90000000Y-68636000D03*
X91200000Y-65197000D03*
X91200000Y-54803000D03*
X113786000Y-67762000D03*
X115588000Y-64318000D03*
X115588000Y-60000000D03*
X115588000Y-55682000D03*
X113786000Y-52238000D03*
X110000000Y-51364000D03*
X106214000Y-52238000D03*
X104412000Y-55682000D03*
X104412000Y-60000000D03*
X104412000Y-64318000D03*
X106214000Y-67762000D03*
X110000000Y-68636000D03*
X111200000Y-65197000D03*
X111200000Y-54803000D03*
X163786000Y-67762000D03*
X165588000Y-64318000D03*
X165588000Y-60000000D03*
X165588000Y-55682000D03*
X163786000Y-52238000D03*
X160000000Y-51364000D03*
X156214000Y-52238000D03*
X154412000Y-55682000D03*
X154412000Y-60000000D03*
X154412000Y-64318000D03*
X156214000Y-67762000D03*
X160000000Y-68636000D03*
X161200000Y-65197000D03*
X161200000Y-54803000D03*
X193786000Y-67762000D03*
X195588000Y-64318000D03*
X195588000Y-60000000D03*
X195588000Y-55682000D03*
X193786000Y-52238000D03*
X190000000Y-51364000D03*
X186214000Y-52238000D03*
X184412000Y-55682000D03*
X184412000Y-60000000D03*
X184412000Y-64318000D03*
X186214000Y-67762000D03*
X190000000Y-68636000D03*
X191200000Y-65197000D03*
X191200000Y-54803000D03*
D15*
X83650000Y-92500000D03*
X86350000Y-92500000D03*
X104650000Y-92500000D03*
X107350000Y-92500000D03*
X153650000Y-92472928D03*
X156350000Y-92472928D03*
X183650000Y-92500000D03*
X186350000Y-92500000D03*
X204650000Y-92500000D03*
X207350000Y-92500000D03*
X78350000Y-54000000D03*
X75650000Y-54000000D03*
D12*
X90000000Y-46950000D03*
X90000000Y-44250000D03*
X148000000Y-46950000D03*
X148000000Y-44250000D03*
X118000000Y-46950000D03*
X118000000Y-44250000D03*
X168000000Y-46950000D03*
X168000000Y-44250000D03*
X222000000Y-56350000D03*
X222000000Y-53650000D03*
D14*
X84285000Y-87200000D03*
X85555000Y-87200000D03*
X86825000Y-87200000D03*
X88095000Y-87200000D03*
X89365000Y-87200000D03*
X90635000Y-87200000D03*
X91905000Y-87200000D03*
X93175000Y-87200000D03*
X94445000Y-87200000D03*
X95715000Y-87200000D03*
X95715000Y-77800000D03*
X94445000Y-77800000D03*
X93175000Y-77800000D03*
X91905000Y-77800000D03*
X90635000Y-77800000D03*
X89365000Y-77800000D03*
X88095000Y-77800000D03*
X86825000Y-77800000D03*
X85555000Y-77800000D03*
X84285000Y-77800000D03*
X104285000Y-87200000D03*
X105555000Y-87200000D03*
X106825000Y-87200000D03*
X108095000Y-87200000D03*
X109365000Y-87200000D03*
X110635000Y-87200000D03*
X111905000Y-87200000D03*
X113175000Y-87200000D03*
X114445000Y-87200000D03*
X115715000Y-87200000D03*
X115715000Y-77800000D03*
X114445000Y-77800000D03*
X113175000Y-77800000D03*
X111905000Y-77800000D03*
X110635000Y-77800000D03*
X109365000Y-77800000D03*
X108095000Y-77800000D03*
X106825000Y-77800000D03*
X105555000Y-77800000D03*
X104285000Y-77800000D03*
D18*
X118340000Y-102350000D03*
X115800000Y-102350000D03*
X113260000Y-102350000D03*
D19*
X129540000Y-101270000D03*
D20*
X132080000Y-101270000D03*
X134620000Y-101270000D03*
X137160000Y-101270000D03*
X139700000Y-101270000D03*
X142240000Y-101270000D03*
X144780000Y-101270000D03*
X147320000Y-101270000D03*
D19*
X192380000Y-101270000D03*
D20*
X189840000Y-101270000D03*
X187300000Y-101270000D03*
D11*
X200000000Y-45000000D03*
D19*
X77240000Y-57460000D03*
D20*
X74700000Y-57460000D03*
X77240000Y-60000000D03*
X74700000Y-60000000D03*
X77240000Y-62540000D03*
X74700000Y-62540000D03*
X77240000Y-65080000D03*
X74700000Y-65080000D03*
D19*
X225000000Y-60000000D03*
D20*
X225000000Y-62540000D03*
D19*
X167615000Y-101270000D03*
D20*
X172695000Y-101270000D03*
D21*
X176700000Y-65925000D03*
X176700000Y-64075000D03*
X173300000Y-64075000D03*
X173300000Y-65925000D03*
X176700000Y-57925000D03*
X176700000Y-56075000D03*
X173300000Y-56075000D03*
X173300000Y-57925000D03*
X126700000Y-65925000D03*
X126700000Y-64075000D03*
X123300000Y-64075000D03*
X123300000Y-65925000D03*
X126700000Y-57925000D03*
X126700000Y-56075000D03*
X123300000Y-56075000D03*
X123300000Y-57925000D03*
X211700000Y-60175000D03*
X211700000Y-58325000D03*
X208300000Y-58325000D03*
X208300000Y-60175000D03*
X191700000Y-60175000D03*
X191700000Y-58325000D03*
X188300000Y-58325000D03*
X188300000Y-60175000D03*
X161700000Y-60175000D03*
X161700000Y-58325000D03*
X158300000Y-58325000D03*
X158300000Y-60175000D03*
X141700000Y-60175000D03*
X141700000Y-58325000D03*
X138300000Y-58325000D03*
X138300000Y-60175000D03*
X111700000Y-60175000D03*
X111700000Y-58325000D03*
X108300000Y-58325000D03*
X108300000Y-60175000D03*
X91700000Y-60175000D03*
X91700000Y-58325000D03*
X88300000Y-58325000D03*
X88300000Y-60175000D03*
M02*
