G04 #@! TF.FileFunction,Soldermask,Bot*
%FSLAX46Y46*%
G04 Gerber Fmt 4.6, Leading zero omitted, Abs format (unit mm)*
G04 Created by KiCad (PCBNEW 4.0.6) date Sunday, June 18, 2017 'PMt' 07:47:11 PM*
%MOMM*%
%LPD*%
G01*
G04 APERTURE LIST*
%ADD10C,0.100000*%
%ADD11C,4.100000*%
%ADD12C,2.900000*%
%ADD13C,1.924000*%
%ADD14R,2.100000X2.100000*%
%ADD15O,2.100000X2.100000*%
G04 APERTURE END LIST*
D10*
D11*
X159360000Y-100000000D03*
X200000000Y-100000000D03*
X100000000Y-100000000D03*
X100000000Y-45000000D03*
D12*
X213786000Y-67762000D03*
X215588000Y-64318000D03*
X215588000Y-60000000D03*
X215588000Y-55682000D03*
X213786000Y-52238000D03*
X210000000Y-51364000D03*
X206214000Y-52238000D03*
X204412000Y-55682000D03*
X204412000Y-60000000D03*
X204412000Y-64318000D03*
X206214000Y-67762000D03*
X210000000Y-68636000D03*
X211200000Y-65197000D03*
X211200000Y-54803000D03*
X143786000Y-67762000D03*
X145588000Y-64318000D03*
X145588000Y-60000000D03*
X145588000Y-55682000D03*
X143786000Y-52238000D03*
X140000000Y-51364000D03*
X136214000Y-52238000D03*
X134412000Y-55682000D03*
X134412000Y-60000000D03*
X134412000Y-64318000D03*
X136214000Y-67762000D03*
X140000000Y-68636000D03*
X141200000Y-65197000D03*
X141200000Y-54803000D03*
X93786000Y-67762000D03*
X95588000Y-64318000D03*
X95588000Y-60000000D03*
X95588000Y-55682000D03*
X93786000Y-52238000D03*
X90000000Y-51364000D03*
X86214000Y-52238000D03*
X84412000Y-55682000D03*
X84412000Y-60000000D03*
X84412000Y-64318000D03*
X86214000Y-67762000D03*
X90000000Y-68636000D03*
X91200000Y-65197000D03*
X91200000Y-54803000D03*
X113786000Y-67762000D03*
X115588000Y-64318000D03*
X115588000Y-60000000D03*
X115588000Y-55682000D03*
X113786000Y-52238000D03*
X110000000Y-51364000D03*
X106214000Y-52238000D03*
X104412000Y-55682000D03*
X104412000Y-60000000D03*
X104412000Y-64318000D03*
X106214000Y-67762000D03*
X110000000Y-68636000D03*
X111200000Y-65197000D03*
X111200000Y-54803000D03*
X163786000Y-67762000D03*
X165588000Y-64318000D03*
X165588000Y-60000000D03*
X165588000Y-55682000D03*
X163786000Y-52238000D03*
X160000000Y-51364000D03*
X156214000Y-52238000D03*
X154412000Y-55682000D03*
X154412000Y-60000000D03*
X154412000Y-64318000D03*
X156214000Y-67762000D03*
X160000000Y-68636000D03*
X161200000Y-65197000D03*
X161200000Y-54803000D03*
X193786000Y-67762000D03*
X195588000Y-64318000D03*
X195588000Y-60000000D03*
X195588000Y-55682000D03*
X193786000Y-52238000D03*
X190000000Y-51364000D03*
X186214000Y-52238000D03*
X184412000Y-55682000D03*
X184412000Y-60000000D03*
X184412000Y-64318000D03*
X186214000Y-67762000D03*
X190000000Y-68636000D03*
X191200000Y-65197000D03*
X191200000Y-54803000D03*
D13*
X118340000Y-102350000D03*
X115800000Y-102350000D03*
X113260000Y-102350000D03*
D14*
X129540000Y-101270000D03*
D15*
X132080000Y-101270000D03*
X134620000Y-101270000D03*
X137160000Y-101270000D03*
X139700000Y-101270000D03*
X142240000Y-101270000D03*
X144780000Y-101270000D03*
X147320000Y-101270000D03*
D14*
X192380000Y-101270000D03*
D15*
X189840000Y-101270000D03*
X187300000Y-101270000D03*
D11*
X200000000Y-45000000D03*
D14*
X77240000Y-57460000D03*
D15*
X74700000Y-57460000D03*
X77240000Y-60000000D03*
X74700000Y-60000000D03*
X77240000Y-62540000D03*
X74700000Y-62540000D03*
X77240000Y-65080000D03*
X74700000Y-65080000D03*
D14*
X225000000Y-60000000D03*
D15*
X225000000Y-62540000D03*
D14*
X167615000Y-101270000D03*
D15*
X172695000Y-101270000D03*
M02*
