G04 #@! TF.FileFunction,Copper,L1,Top,Signal*
%FSLAX46Y46*%
G04 Gerber Fmt 4.6, Leading zero omitted, Abs format (unit mm)*
G04 Created by KiCad (PCBNEW 4.0.6) date 06/17/17 23:11:27*
%MOMM*%
%LPD*%
G01*
G04 APERTURE LIST*
%ADD10C,0.100000*%
%ADD11R,1.300000X1.500000*%
%ADD12C,2.500000*%
%ADD13R,0.600000X1.950000*%
%ADD14R,1.500000X1.300000*%
%ADD15R,1.250000X1.500000*%
%ADD16R,1.500000X1.250000*%
%ADD17C,1.524000*%
%ADD18R,1.200000X1.050000*%
%ADD19R,1.700000X1.700000*%
%ADD20O,1.700000X1.700000*%
%ADD21C,1.200000*%
%ADD22C,2.000000*%
%ADD23C,0.800000*%
%ADD24C,0.600000*%
%ADD25C,0.800000*%
%ADD26C,1.500000*%
%ADD27C,0.400000*%
%ADD28C,0.500000*%
%ADD29C,0.250000*%
G04 APERTURE END LIST*
D10*
D11*
X190000000Y-46950000D03*
X190000000Y-44250000D03*
D12*
X213786000Y-67762000D03*
X215588000Y-64318000D03*
X215588000Y-60000000D03*
X215588000Y-55682000D03*
X213786000Y-52238000D03*
X210000000Y-51364000D03*
X206214000Y-52238000D03*
X204412000Y-55682000D03*
X204412000Y-60000000D03*
X204412000Y-64318000D03*
X206214000Y-67762000D03*
X210000000Y-68636000D03*
X211200000Y-65197000D03*
X211200000Y-54803000D03*
D13*
X204285000Y-87200000D03*
X205555000Y-87200000D03*
X206825000Y-87200000D03*
X208095000Y-87200000D03*
X209365000Y-87200000D03*
X210635000Y-87200000D03*
X211905000Y-87200000D03*
X213175000Y-87200000D03*
X214445000Y-87200000D03*
X215715000Y-87200000D03*
X215715000Y-77800000D03*
X214445000Y-77800000D03*
X213175000Y-77800000D03*
X211905000Y-77800000D03*
X210635000Y-77800000D03*
X209365000Y-77800000D03*
X208095000Y-77800000D03*
X206825000Y-77800000D03*
X205555000Y-77800000D03*
X204285000Y-77800000D03*
X154285000Y-87200000D03*
X155555000Y-87200000D03*
X156825000Y-87200000D03*
X158095000Y-87200000D03*
X159365000Y-87200000D03*
X160635000Y-87200000D03*
X161905000Y-87200000D03*
X163175000Y-87200000D03*
X164445000Y-87200000D03*
X165715000Y-87200000D03*
X165715000Y-77800000D03*
X164445000Y-77800000D03*
X163175000Y-77800000D03*
X161905000Y-77800000D03*
X160635000Y-77800000D03*
X159365000Y-77800000D03*
X158095000Y-77800000D03*
X156825000Y-77800000D03*
X155555000Y-77800000D03*
X154285000Y-77800000D03*
D14*
X133650000Y-92500000D03*
X136350000Y-92500000D03*
D15*
X131250000Y-86250000D03*
X131250000Y-88750000D03*
D13*
X134285000Y-87200000D03*
X135555000Y-87200000D03*
X136825000Y-87200000D03*
X138095000Y-87200000D03*
X139365000Y-87200000D03*
X140635000Y-87200000D03*
X141905000Y-87200000D03*
X143175000Y-87200000D03*
X144445000Y-87200000D03*
X145715000Y-87200000D03*
X145715000Y-77800000D03*
X144445000Y-77800000D03*
X143175000Y-77800000D03*
X141905000Y-77800000D03*
X140635000Y-77800000D03*
X139365000Y-77800000D03*
X138095000Y-77800000D03*
X136825000Y-77800000D03*
X135555000Y-77800000D03*
X134285000Y-77800000D03*
X184285000Y-87200000D03*
X185555000Y-87200000D03*
X186825000Y-87200000D03*
X188095000Y-87200000D03*
X189365000Y-87200000D03*
X190635000Y-87200000D03*
X191905000Y-87200000D03*
X193175000Y-87200000D03*
X194445000Y-87200000D03*
X195715000Y-87200000D03*
X195715000Y-77800000D03*
X194445000Y-77800000D03*
X193175000Y-77800000D03*
X191905000Y-77800000D03*
X190635000Y-77800000D03*
X189365000Y-77800000D03*
X188095000Y-77800000D03*
X186825000Y-77800000D03*
X185555000Y-77800000D03*
X184285000Y-77800000D03*
D12*
X143786000Y-67762000D03*
X145588000Y-64318000D03*
X145588000Y-60000000D03*
X145588000Y-55682000D03*
X143786000Y-52238000D03*
X140000000Y-51364000D03*
X136214000Y-52238000D03*
X134412000Y-55682000D03*
X134412000Y-60000000D03*
X134412000Y-64318000D03*
X136214000Y-67762000D03*
X140000000Y-68636000D03*
X141200000Y-65197000D03*
X141200000Y-54803000D03*
D15*
X81250000Y-86250000D03*
X81250000Y-88750000D03*
X101250000Y-86250000D03*
X101250000Y-88750000D03*
X151250000Y-86222928D03*
X151250000Y-88722928D03*
X181250000Y-86250000D03*
X181250000Y-88750000D03*
X201250000Y-86250000D03*
X201250000Y-88750000D03*
D16*
X91250000Y-62500000D03*
X88750000Y-62500000D03*
X111250000Y-62500000D03*
X108750000Y-62500000D03*
X126250000Y-52500000D03*
X123750000Y-52500000D03*
X126250000Y-70000000D03*
X123750000Y-70000000D03*
X141250000Y-62500000D03*
X138750000Y-62500000D03*
X161250000Y-62500000D03*
X158750000Y-62500000D03*
X176250000Y-52500000D03*
X173750000Y-52500000D03*
X176250000Y-70000000D03*
X173750000Y-70000000D03*
X191250000Y-62500000D03*
X188750000Y-62500000D03*
X211250000Y-62500000D03*
X208750000Y-62500000D03*
D12*
X93786000Y-67762000D03*
X95588000Y-64318000D03*
X95588000Y-60000000D03*
X95588000Y-55682000D03*
X93786000Y-52238000D03*
X90000000Y-51364000D03*
X86214000Y-52238000D03*
X84412000Y-55682000D03*
X84412000Y-60000000D03*
X84412000Y-64318000D03*
X86214000Y-67762000D03*
X90000000Y-68636000D03*
X91200000Y-65197000D03*
X91200000Y-54803000D03*
X113786000Y-67762000D03*
X115588000Y-64318000D03*
X115588000Y-60000000D03*
X115588000Y-55682000D03*
X113786000Y-52238000D03*
X110000000Y-51364000D03*
X106214000Y-52238000D03*
X104412000Y-55682000D03*
X104412000Y-60000000D03*
X104412000Y-64318000D03*
X106214000Y-67762000D03*
X110000000Y-68636000D03*
X111200000Y-65197000D03*
X111200000Y-54803000D03*
X163786000Y-67762000D03*
X165588000Y-64318000D03*
X165588000Y-60000000D03*
X165588000Y-55682000D03*
X163786000Y-52238000D03*
X160000000Y-51364000D03*
X156214000Y-52238000D03*
X154412000Y-55682000D03*
X154412000Y-60000000D03*
X154412000Y-64318000D03*
X156214000Y-67762000D03*
X160000000Y-68636000D03*
X161200000Y-65197000D03*
X161200000Y-54803000D03*
X193786000Y-67762000D03*
X195588000Y-64318000D03*
X195588000Y-60000000D03*
X195588000Y-55682000D03*
X193786000Y-52238000D03*
X190000000Y-51364000D03*
X186214000Y-52238000D03*
X184412000Y-55682000D03*
X184412000Y-60000000D03*
X184412000Y-64318000D03*
X186214000Y-67762000D03*
X190000000Y-68636000D03*
X191200000Y-65197000D03*
X191200000Y-54803000D03*
D14*
X83650000Y-92500000D03*
X86350000Y-92500000D03*
X104650000Y-92500000D03*
X107350000Y-92500000D03*
X153650000Y-92472928D03*
X156350000Y-92472928D03*
X183650000Y-92500000D03*
X186350000Y-92500000D03*
X204650000Y-92500000D03*
X207350000Y-92500000D03*
X78350000Y-54000000D03*
X75650000Y-54000000D03*
D11*
X90000000Y-46950000D03*
X90000000Y-44250000D03*
X148000000Y-46950000D03*
X148000000Y-44250000D03*
X118000000Y-46950000D03*
X118000000Y-44250000D03*
X168000000Y-46950000D03*
X168000000Y-44250000D03*
X222000000Y-56350000D03*
X222000000Y-53650000D03*
D13*
X84285000Y-87200000D03*
X85555000Y-87200000D03*
X86825000Y-87200000D03*
X88095000Y-87200000D03*
X89365000Y-87200000D03*
X90635000Y-87200000D03*
X91905000Y-87200000D03*
X93175000Y-87200000D03*
X94445000Y-87200000D03*
X95715000Y-87200000D03*
X95715000Y-77800000D03*
X94445000Y-77800000D03*
X93175000Y-77800000D03*
X91905000Y-77800000D03*
X90635000Y-77800000D03*
X89365000Y-77800000D03*
X88095000Y-77800000D03*
X86825000Y-77800000D03*
X85555000Y-77800000D03*
X84285000Y-77800000D03*
X104285000Y-87200000D03*
X105555000Y-87200000D03*
X106825000Y-87200000D03*
X108095000Y-87200000D03*
X109365000Y-87200000D03*
X110635000Y-87200000D03*
X111905000Y-87200000D03*
X113175000Y-87200000D03*
X114445000Y-87200000D03*
X115715000Y-87200000D03*
X115715000Y-77800000D03*
X114445000Y-77800000D03*
X113175000Y-77800000D03*
X111905000Y-77800000D03*
X110635000Y-77800000D03*
X109365000Y-77800000D03*
X108095000Y-77800000D03*
X106825000Y-77800000D03*
X105555000Y-77800000D03*
X104285000Y-77800000D03*
D17*
X118340000Y-102350000D03*
X115800000Y-102350000D03*
X113260000Y-102350000D03*
D18*
X176500000Y-65875000D03*
X176500000Y-64125000D03*
X173500000Y-64125000D03*
X173500000Y-65875000D03*
X176500000Y-57875000D03*
X176500000Y-56125000D03*
X173500000Y-56125000D03*
X173500000Y-57875000D03*
X126500000Y-65875000D03*
X126500000Y-64125000D03*
X123500000Y-64125000D03*
X123500000Y-65875000D03*
X126500000Y-57875000D03*
X126500000Y-56125000D03*
X123500000Y-56125000D03*
X123500000Y-57875000D03*
X211500000Y-60125000D03*
X211500000Y-58375000D03*
X208500000Y-58375000D03*
X208500000Y-60125000D03*
X191500000Y-60125000D03*
X191500000Y-58375000D03*
X188500000Y-58375000D03*
X188500000Y-60125000D03*
X161500000Y-60125000D03*
X161500000Y-58375000D03*
X158500000Y-58375000D03*
X158500000Y-60125000D03*
X141500000Y-60125000D03*
X141500000Y-58375000D03*
X138500000Y-58375000D03*
X138500000Y-60125000D03*
X111500000Y-60125000D03*
X111500000Y-58375000D03*
X108500000Y-58375000D03*
X108500000Y-60125000D03*
X91500000Y-60125000D03*
X91500000Y-58375000D03*
X88500000Y-58375000D03*
X88500000Y-60125000D03*
D19*
X129540000Y-100000000D03*
D20*
X132080000Y-100000000D03*
X134620000Y-100000000D03*
X137160000Y-100000000D03*
X139700000Y-100000000D03*
X142240000Y-100000000D03*
X144780000Y-100000000D03*
X147320000Y-100000000D03*
D19*
X152400000Y-99992000D03*
D20*
X154940000Y-99992000D03*
X157480000Y-99992000D03*
D19*
X162560000Y-99992000D03*
D20*
X165100000Y-99992000D03*
X167640000Y-99992000D03*
D19*
X77240000Y-57460000D03*
D20*
X74700000Y-57460000D03*
X77240000Y-60000000D03*
X74700000Y-60000000D03*
X77240000Y-62540000D03*
X74700000Y-62540000D03*
X77240000Y-65080000D03*
X74700000Y-65080000D03*
D19*
X225000000Y-60000000D03*
D20*
X225000000Y-62540000D03*
D21*
X225000000Y-65500000D03*
X104500000Y-81400000D03*
X134400000Y-81500002D03*
X154400000Y-81600000D03*
X184400000Y-81600000D03*
D22*
X76200000Y-69000000D03*
D21*
X194310000Y-90805000D03*
X204724000Y-81534000D03*
X215709500Y-90995500D03*
X117475000Y-87249000D03*
X97155000Y-87122000D03*
X97424000Y-77800000D03*
X85480063Y-80177990D03*
X81307089Y-84483271D03*
X101246089Y-84483271D03*
X117617000Y-77800000D03*
X131345089Y-84483271D03*
X147589000Y-77800000D03*
X145669000Y-85217000D03*
X151284089Y-84483271D03*
X165728000Y-91254000D03*
X165728000Y-91254000D03*
X167528000Y-77800000D03*
X199600000Y-86300000D03*
X179500000Y-86200000D03*
X197500000Y-77800000D03*
X217500000Y-77700000D03*
D23*
X212974990Y-62750000D03*
X178324990Y-56250000D03*
X178250000Y-70000000D03*
X178000000Y-64000000D03*
X178250000Y-52500000D03*
X93000000Y-58250000D03*
X93000000Y-62750000D03*
X113000000Y-62750000D03*
X113000000Y-58250000D03*
X213000000Y-58250000D03*
X193000000Y-62750000D03*
X193000000Y-58250000D03*
X163000000Y-62750000D03*
X163000000Y-58250000D03*
X143000000Y-62750000D03*
X143000000Y-58250000D03*
X128000000Y-64000000D03*
X128250000Y-70000000D03*
X128250000Y-56250000D03*
X128250000Y-52500000D03*
D21*
X173755000Y-71755000D03*
X123750000Y-71750000D03*
X177500000Y-71755000D03*
D23*
X208500000Y-64250000D03*
D24*
X188750000Y-64008000D03*
D21*
X130700000Y-71755000D03*
D23*
X88740000Y-64135000D03*
X108740000Y-64262000D03*
X138712000Y-64135000D03*
X158778000Y-64262000D03*
D24*
X97980500Y-67754500D03*
X120000000Y-67750000D03*
X115760500Y-84073998D03*
X109982000Y-84074000D03*
X97663000Y-81915000D03*
X90678000Y-81915000D03*
X89408002Y-83820000D03*
X98425000Y-83820000D03*
X96520000Y-84836000D03*
X88138000Y-84836000D03*
X108077000Y-85217000D03*
X117221000Y-85217000D03*
X170053000Y-67818000D03*
X141478000Y-90805000D03*
X147193000Y-90297000D03*
X140081000Y-90678000D03*
X148539000Y-90475000D03*
X148209000Y-92329000D03*
X138557000Y-90457000D03*
X167767000Y-73025000D03*
X173228000Y-73152000D03*
X171950000Y-74300000D03*
X161000000Y-74168000D03*
X197993000Y-67754500D03*
X200224990Y-76600000D03*
X198100000Y-76600000D03*
X161290000Y-81915002D03*
X179578000Y-81915000D03*
X186250000Y-73000000D03*
X200900000Y-73500000D03*
X221750000Y-63250000D03*
X220750000Y-79749998D03*
X220901870Y-64306542D03*
X208055573Y-85044427D03*
X199875010Y-74500000D03*
X206492002Y-74549000D03*
X86868000Y-83312000D03*
X105156000Y-82931000D03*
X106934000Y-84582000D03*
X135001000Y-82931000D03*
X136906000Y-85217000D03*
X155448000Y-83058000D03*
X184997002Y-83100000D03*
X156845000Y-85090000D03*
X206800000Y-81800000D03*
X186900000Y-84600000D03*
X93018000Y-60125000D03*
X107188000Y-58375000D03*
X112830000Y-60125000D03*
X122183000Y-56125000D03*
X137332000Y-58375000D03*
X127978000Y-65875000D03*
X157300000Y-58400000D03*
X142800000Y-60100000D03*
X162814000Y-60198000D03*
X172094000Y-56125000D03*
X177900000Y-65900000D03*
X187325000Y-58375000D03*
X192800000Y-60100000D03*
X207264000Y-58375000D03*
X206750000Y-90500000D03*
X79500000Y-94000000D03*
X164465000Y-89535000D03*
X144462500Y-89535000D03*
X114427000Y-89535000D03*
X194400000Y-89535000D03*
X94488000Y-89408000D03*
X214503000Y-89535000D03*
X114400000Y-80000000D03*
X151500000Y-80000000D03*
X149733000Y-93091000D03*
X94488000Y-79883000D03*
X144399000Y-80010000D03*
X164465000Y-80010000D03*
X194400000Y-80010000D03*
X214503000Y-80010000D03*
X174900000Y-75600002D03*
X172847000Y-91948000D03*
X113157000Y-75565000D03*
X143129000Y-75565000D03*
X163195000Y-75565000D03*
X193200000Y-75565000D03*
X93218000Y-75692000D03*
X213233000Y-75565000D03*
D25*
X225000000Y-62540000D02*
X225000000Y-65500000D01*
X105099999Y-80800001D02*
X104500000Y-81400000D01*
X105545000Y-80355000D02*
X105099999Y-80800001D01*
X105545000Y-77927000D02*
X105545000Y-80355000D01*
X134999999Y-80900003D02*
X134400000Y-81500002D01*
X135517000Y-80383002D02*
X134999999Y-80900003D01*
X135517000Y-77927000D02*
X135517000Y-80383002D01*
X154999999Y-81000001D02*
X154400000Y-81600000D01*
X155583000Y-80417000D02*
X154999999Y-81000001D01*
X155583000Y-77927000D02*
X155583000Y-80417000D01*
X185555000Y-80445000D02*
X184999999Y-81000001D01*
X184999999Y-81000001D02*
X184400000Y-81600000D01*
X185555000Y-77800000D02*
X185555000Y-80445000D01*
D26*
X74700000Y-65080000D02*
X74700000Y-68000000D01*
X74700000Y-68000000D02*
X75700000Y-69000000D01*
X75700000Y-69000000D02*
X76200000Y-69000000D01*
D25*
X195158528Y-90805000D02*
X194310000Y-90805000D01*
X195715000Y-90248528D02*
X195158528Y-90805000D01*
X195715000Y-87200000D02*
X195715000Y-90248528D01*
X205555000Y-77800000D02*
X205555000Y-80703000D01*
X205555000Y-80703000D02*
X204724000Y-81534000D01*
X215715000Y-90990000D02*
X215709500Y-90995500D01*
X215715000Y-87200000D02*
X215715000Y-90990000D01*
X115715000Y-87200000D02*
X117426000Y-87200000D01*
X117426000Y-87200000D02*
X117475000Y-87249000D01*
X95715000Y-87200000D02*
X97077000Y-87200000D01*
X97077000Y-87200000D02*
X97155000Y-87122000D01*
X95639000Y-77800000D02*
X97424000Y-77800000D01*
X85606000Y-77673000D02*
X85606000Y-80052053D01*
X85606000Y-80052053D02*
X85480063Y-80177990D01*
X81307089Y-84483271D02*
X81257089Y-84533271D01*
X81257089Y-84533271D02*
X81257089Y-86233271D01*
X101196089Y-84533271D02*
X101196089Y-86233271D01*
X101246089Y-84483271D02*
X101196089Y-84533271D01*
X115832000Y-77800000D02*
X117617000Y-77800000D01*
X131295089Y-84533271D02*
X131295089Y-86233271D01*
X131345089Y-84483271D02*
X131295089Y-84533271D01*
X145804000Y-77800000D02*
X147589000Y-77800000D01*
X145715000Y-87200000D02*
X145715000Y-85263000D01*
X145715000Y-85263000D02*
X145669000Y-85217000D01*
X151284089Y-84483271D02*
X151234089Y-84533271D01*
X151234089Y-84533271D02*
X151234089Y-86233271D01*
X165743000Y-87454000D02*
X165743000Y-91239000D01*
X165743000Y-91239000D02*
X165728000Y-91254000D01*
X165743000Y-77800000D02*
X167528000Y-77800000D01*
X199600000Y-86300000D02*
X199650000Y-86250000D01*
X199650000Y-86250000D02*
X201250000Y-86250000D01*
X179550000Y-86250000D02*
X181250000Y-86250000D01*
X179500000Y-86200000D02*
X179550000Y-86250000D01*
X195715000Y-77800000D02*
X197500000Y-77800000D01*
X215715000Y-77800000D02*
X217400000Y-77800000D01*
X217400000Y-77800000D02*
X217500000Y-77700000D01*
D27*
X212724990Y-62500000D02*
X212974990Y-62750000D01*
X211250000Y-62500000D02*
X212724990Y-62500000D01*
X178324990Y-56125010D02*
X178324990Y-56250000D01*
X178325000Y-56125000D02*
X178324990Y-56125010D01*
D25*
X176250000Y-70000000D02*
X178250000Y-70000000D01*
D27*
X177875000Y-64125000D02*
X178000000Y-64000000D01*
D25*
X176500000Y-64125000D02*
X177875000Y-64125000D01*
X176700000Y-56125000D02*
X178325000Y-56125000D01*
X176250000Y-52500000D02*
X178250000Y-52500000D01*
D27*
X92875000Y-58375000D02*
X93000000Y-58250000D01*
X91500000Y-58375000D02*
X92875000Y-58375000D01*
X92750000Y-62500000D02*
X93000000Y-62750000D01*
X91250000Y-62500000D02*
X92750000Y-62500000D01*
X112750000Y-62500000D02*
X113000000Y-62750000D01*
X111250000Y-62500000D02*
X112750000Y-62500000D01*
X112875000Y-58375000D02*
X113000000Y-58250000D01*
X111500000Y-58375000D02*
X112875000Y-58375000D01*
X211500000Y-58375000D02*
X212875000Y-58375000D01*
X212875000Y-58375000D02*
X213000000Y-58250000D01*
X191250000Y-62500000D02*
X192750000Y-62500000D01*
X192750000Y-62500000D02*
X193000000Y-62750000D01*
X192875000Y-58375000D02*
X193000000Y-58250000D01*
X191500000Y-58375000D02*
X192875000Y-58375000D01*
X162750000Y-62500000D02*
X163000000Y-62750000D01*
X161250000Y-62500000D02*
X162750000Y-62500000D01*
X162875000Y-58375000D02*
X163000000Y-58250000D01*
X161500000Y-58375000D02*
X162875000Y-58375000D01*
X141250000Y-62500000D02*
X142750000Y-62500000D01*
X142750000Y-62500000D02*
X143000000Y-62750000D01*
X141500000Y-58375000D02*
X142875000Y-58375000D01*
X142875000Y-58375000D02*
X143000000Y-58250000D01*
D25*
X126500000Y-64125000D02*
X127875000Y-64125000D01*
D27*
X127875000Y-64125000D02*
X128000000Y-64000000D01*
D25*
X126250000Y-70000000D02*
X128250000Y-70000000D01*
X126500000Y-56125000D02*
X128125000Y-56125000D01*
D27*
X128125000Y-56125000D02*
X128250000Y-56250000D01*
D25*
X126250000Y-52500000D02*
X128250000Y-52500000D01*
D27*
X125000000Y-64525000D02*
X125000000Y-67250000D01*
X125400000Y-64125000D02*
X125000000Y-64525000D01*
X126250000Y-68500000D02*
X126250000Y-70000000D01*
X126500000Y-64125000D02*
X125400000Y-64125000D01*
X125000000Y-67250000D02*
X126250000Y-68500000D01*
D28*
X175000000Y-67250000D02*
X176250000Y-68500000D01*
X176250000Y-68500000D02*
X176250000Y-70000000D01*
X175000000Y-64525000D02*
X175000000Y-67250000D01*
X176500000Y-64125000D02*
X175400000Y-64125000D01*
X175400000Y-64125000D02*
X175000000Y-64525000D01*
D27*
X111250000Y-62250000D02*
X110000000Y-61000000D01*
X111250000Y-62500000D02*
X111250000Y-62250000D01*
X110400000Y-58375000D02*
X111500000Y-58375000D01*
X110000000Y-58775000D02*
X110400000Y-58375000D01*
X110000000Y-61000000D02*
X110000000Y-58775000D01*
X91250000Y-62250000D02*
X90000000Y-61000000D01*
X90000000Y-61000000D02*
X90000000Y-58775000D01*
X90000000Y-58775000D02*
X90400000Y-58375000D01*
X90400000Y-58375000D02*
X91500000Y-58375000D01*
X91250000Y-62500000D02*
X91250000Y-62250000D01*
D28*
X210400000Y-58375000D02*
X211500000Y-58375000D01*
X210000000Y-61000000D02*
X210000000Y-58775000D01*
X210000000Y-58775000D02*
X210400000Y-58375000D01*
X211250000Y-62250000D02*
X210000000Y-61000000D01*
D27*
X211250000Y-62500000D02*
X211250000Y-62250000D01*
D28*
X190400000Y-58375000D02*
X191500000Y-58375000D01*
X191250000Y-62250000D02*
X190000000Y-61000000D01*
X190000000Y-58775000D02*
X190400000Y-58375000D01*
X190000000Y-61000000D02*
X190000000Y-58775000D01*
D27*
X191250000Y-62500000D02*
X191250000Y-62250000D01*
X161250000Y-62500000D02*
X161250000Y-62250000D01*
D28*
X161250000Y-62250000D02*
X160000000Y-61000000D01*
X160000000Y-61000000D02*
X160000000Y-58775000D01*
X160000000Y-58775000D02*
X160400000Y-58375000D01*
X160400000Y-58375000D02*
X161500000Y-58375000D01*
X140000000Y-61000000D02*
X140000000Y-58775000D01*
X141250000Y-62250000D02*
X140000000Y-61000000D01*
X140400000Y-58375000D02*
X141500000Y-58375000D01*
X140000000Y-58775000D02*
X140400000Y-58375000D01*
D27*
X141250000Y-62500000D02*
X141250000Y-62250000D01*
D25*
X204750000Y-92500000D02*
X204750000Y-91450000D01*
X204500000Y-91200000D02*
X204500000Y-89750000D01*
X204750000Y-91450000D02*
X204500000Y-91200000D01*
X204500000Y-89750000D02*
X204000000Y-89250000D01*
X173750000Y-70000000D02*
X173750000Y-71750000D01*
X173750000Y-71750000D02*
X173755000Y-71755000D01*
D26*
X117475000Y-95250000D02*
X113200000Y-95250000D01*
X113200000Y-95250000D02*
X104750000Y-95250000D01*
X113260000Y-102350000D02*
X113260000Y-95310000D01*
X113260000Y-95310000D02*
X113200000Y-95250000D01*
D25*
X173750000Y-70000000D02*
X173750000Y-68750000D01*
X173750000Y-68750000D02*
X173750000Y-67750000D01*
X173736000Y-70014000D02*
X173750000Y-70000000D01*
X123750000Y-70000000D02*
X123750000Y-71750000D01*
X104750000Y-91450000D02*
X104750000Y-92400000D01*
X104750000Y-92400000D02*
X104650000Y-92500000D01*
D26*
X104750000Y-95250000D02*
X103500000Y-95250000D01*
D25*
X104650000Y-92500000D02*
X104650000Y-93950000D01*
X104650000Y-93950000D02*
X104750000Y-94050000D01*
X104750000Y-94050000D02*
X104750000Y-95250000D01*
D26*
X103500000Y-95250000D02*
X102230000Y-93980000D01*
X102230000Y-93980000D02*
X97520000Y-93980000D01*
X97520000Y-93980000D02*
X96250000Y-95250000D01*
X96250000Y-95250000D02*
X84963000Y-95250000D01*
X84963000Y-95250000D02*
X83650000Y-93937000D01*
X83650000Y-93937000D02*
X83650000Y-92500000D01*
X183642000Y-95250000D02*
X193675000Y-95250000D01*
X193675000Y-95250000D02*
X196425000Y-92500000D01*
X196425000Y-92500000D02*
X204250000Y-92500000D01*
D25*
X104750000Y-91450000D02*
X104000000Y-90700000D01*
X104000000Y-90700000D02*
X104000000Y-89250000D01*
D26*
X175750000Y-92000000D02*
X177500000Y-90250000D01*
X177500000Y-90250000D02*
X177500000Y-71755000D01*
X175750000Y-95250000D02*
X153670000Y-95250000D01*
X183642000Y-95250000D02*
X175750000Y-95250000D01*
X175750000Y-95250000D02*
X175750000Y-92000000D01*
D27*
X208750000Y-64000000D02*
X208500000Y-64250000D01*
X208750000Y-62500000D02*
X208750000Y-64000000D01*
D25*
X131250000Y-88750000D02*
X132675000Y-88750000D01*
D26*
X133731000Y-95250000D02*
X127600000Y-95250000D01*
X127600000Y-95250000D02*
X117475000Y-95250000D01*
X130700000Y-71755000D02*
X130700000Y-79300000D01*
X130700000Y-79300000D02*
X127600000Y-82400000D01*
X127600000Y-82400000D02*
X127600000Y-95250000D01*
D27*
X88740000Y-62750000D02*
X88740000Y-64135000D01*
X108740000Y-62500000D02*
X108740000Y-64262000D01*
X138712000Y-62500000D02*
X138712000Y-64135000D01*
X158778000Y-62500000D02*
X158778000Y-64262000D01*
D25*
X117460000Y-95265000D02*
X117475000Y-95250000D01*
D26*
X183650000Y-92500000D02*
X183650000Y-95242000D01*
D25*
X183650000Y-95242000D02*
X183642000Y-95250000D01*
D26*
X153670000Y-95250000D02*
X133731000Y-95250000D01*
X153650000Y-92472928D02*
X153650000Y-95230000D01*
D25*
X153650000Y-95230000D02*
X153670000Y-95250000D01*
D26*
X133650000Y-92500000D02*
X133650000Y-95169000D01*
D25*
X133650000Y-95169000D02*
X133731000Y-95250000D01*
D27*
X188750000Y-62500000D02*
X188750000Y-64008000D01*
D25*
X84000000Y-89250000D02*
X85000000Y-89250000D01*
X85000000Y-89250000D02*
X85555000Y-88695000D01*
X85555000Y-88695000D02*
X85555000Y-87200000D01*
X104000000Y-89250000D02*
X105000000Y-89250000D01*
X105000000Y-89250000D02*
X105555000Y-88695000D01*
X105555000Y-88695000D02*
X105555000Y-87200000D01*
X134000000Y-89250000D02*
X135000000Y-89250000D01*
X135000000Y-89250000D02*
X135555000Y-88695000D01*
X135555000Y-88695000D02*
X135555000Y-87200000D01*
X154000000Y-89250000D02*
X155000000Y-89250000D01*
X155000000Y-89250000D02*
X155555000Y-88695000D01*
X155555000Y-88695000D02*
X155555000Y-87200000D01*
X184000000Y-89250000D02*
X185000000Y-89250000D01*
X185000000Y-89250000D02*
X185555000Y-88695000D01*
X185555000Y-88695000D02*
X185555000Y-87200000D01*
X204000000Y-89250000D02*
X205000000Y-89250000D01*
X205000000Y-89250000D02*
X205555000Y-88695000D01*
X205555000Y-88695000D02*
X205555000Y-87200000D01*
X81250000Y-88750000D02*
X82675000Y-88750000D01*
X84000000Y-90700000D02*
X84000000Y-89250000D01*
X83175000Y-89250000D02*
X84000000Y-89250000D01*
X82675000Y-88750000D02*
X83175000Y-89250000D01*
X83650000Y-91050000D02*
X84000000Y-90700000D01*
X83650000Y-92500000D02*
X83650000Y-91050000D01*
X101250000Y-88750000D02*
X102675000Y-88750000D01*
X103175000Y-89250000D02*
X104000000Y-89250000D01*
X102675000Y-88750000D02*
X103175000Y-89250000D01*
X134000000Y-90700000D02*
X134000000Y-89250000D01*
X133175000Y-89250000D02*
X134000000Y-89250000D01*
X132675000Y-88750000D02*
X133175000Y-89250000D01*
X133650000Y-91050000D02*
X134000000Y-90700000D01*
X133650000Y-92500000D02*
X133650000Y-91050000D01*
X201250000Y-88750000D02*
X202675000Y-88750000D01*
X203175000Y-89250000D02*
X204000000Y-89250000D01*
X202675000Y-88750000D02*
X203175000Y-89250000D01*
X151250000Y-88750000D02*
X152675000Y-88750000D01*
X154000000Y-90700000D02*
X154000000Y-89250000D01*
X153175000Y-89250000D02*
X154000000Y-89250000D01*
X152675000Y-88750000D02*
X153175000Y-89250000D01*
X153650000Y-91050000D02*
X154000000Y-90700000D01*
X153650000Y-92500000D02*
X153650000Y-91050000D01*
X183175000Y-89250000D02*
X184000000Y-89250000D01*
X184000000Y-90700000D02*
X184000000Y-89250000D01*
X183650000Y-91050000D02*
X184000000Y-90700000D01*
X183650000Y-92500000D02*
X183650000Y-91050000D01*
X181250000Y-88750000D02*
X182675000Y-88750000D01*
X182675000Y-88750000D02*
X183175000Y-89250000D01*
D27*
X208750000Y-62500000D02*
X208746002Y-62500000D01*
D25*
X123750000Y-67750000D02*
X123500000Y-67500000D01*
X123750000Y-70000000D02*
X123750000Y-67750000D01*
X123500000Y-67500000D02*
X123500000Y-65875000D01*
D28*
X124600000Y-57875000D02*
X125000000Y-57475000D01*
X125000000Y-57475000D02*
X125000000Y-55000000D01*
X125000000Y-55000000D02*
X123750000Y-53750000D01*
X123750000Y-53750000D02*
X123750000Y-52500000D01*
X123500000Y-57875000D02*
X124600000Y-57875000D01*
X122375000Y-65875000D02*
X123500000Y-65875000D01*
X121750000Y-65250000D02*
X122375000Y-65875000D01*
X121750000Y-61000000D02*
X121750000Y-65250000D01*
X123500000Y-59250000D02*
X121750000Y-61000000D01*
X123500000Y-57875000D02*
X123500000Y-59250000D01*
X171750000Y-61000000D02*
X171750000Y-65250000D01*
X171750000Y-65250000D02*
X172375000Y-65875000D01*
X172375000Y-65875000D02*
X173500000Y-65875000D01*
X173500000Y-57875000D02*
X173500000Y-59250000D01*
X173500000Y-59250000D02*
X171750000Y-61000000D01*
D25*
X173750000Y-67750000D02*
X173500000Y-67500000D01*
X173500000Y-67500000D02*
X173500000Y-65875000D01*
D28*
X108750000Y-61375000D02*
X108625000Y-61250000D01*
X108750000Y-62500000D02*
X108750000Y-61375000D01*
X108500000Y-61150000D02*
X108500000Y-60125000D01*
X108625000Y-61250000D02*
X108600000Y-61250000D01*
X108600000Y-61250000D02*
X108500000Y-61150000D01*
D27*
X88750000Y-61625000D02*
X88625000Y-61500000D01*
X88750000Y-62750000D02*
X88750000Y-61625000D01*
X88500000Y-61400000D02*
X88500000Y-60375000D01*
X88625000Y-61500000D02*
X88600000Y-61500000D01*
X88600000Y-61500000D02*
X88500000Y-61400000D01*
D28*
X158750000Y-61375000D02*
X158625000Y-61250000D01*
X158750000Y-62500000D02*
X158750000Y-61375000D01*
X208500000Y-61150000D02*
X208600000Y-61250000D01*
X208600000Y-61250000D02*
X208625000Y-61250000D01*
X208625000Y-61250000D02*
X208750000Y-61375000D01*
X208500000Y-60125000D02*
X208500000Y-61150000D01*
X208750000Y-61375000D02*
X208750000Y-62500000D01*
X158500000Y-61150000D02*
X158500000Y-60125000D01*
X158625000Y-61250000D02*
X158600000Y-61250000D01*
X158600000Y-61250000D02*
X158500000Y-61150000D01*
X208500000Y-60125000D02*
X208425000Y-60125000D01*
X188500000Y-60125000D02*
X188425000Y-60125000D01*
X188600000Y-61250000D02*
X188625000Y-61250000D01*
X188625000Y-61250000D02*
X188750000Y-61375000D01*
X188750000Y-61375000D02*
X188750000Y-62500000D01*
X188500000Y-60125000D02*
X188500000Y-61150000D01*
X188500000Y-61150000D02*
X188600000Y-61250000D01*
X175000000Y-55000000D02*
X173750000Y-53750000D01*
X174600000Y-57875000D02*
X175000000Y-57475000D01*
X173500000Y-57875000D02*
X174600000Y-57875000D01*
X175000000Y-57475000D02*
X175000000Y-55000000D01*
X173750000Y-53750000D02*
X173750000Y-52500000D01*
X158500000Y-61125000D02*
X158500000Y-60125000D01*
X158750000Y-61375000D02*
X158500000Y-61125000D01*
X138625000Y-61250000D02*
X138600000Y-61250000D01*
X138600000Y-61250000D02*
X138500000Y-61150000D01*
X138500000Y-61150000D02*
X138500000Y-60125000D01*
X138750000Y-62500000D02*
X138750000Y-61375000D01*
X138750000Y-61375000D02*
X138625000Y-61250000D01*
D29*
X90000000Y-46950000D02*
X91700000Y-46950000D01*
X91700000Y-46950000D02*
X98000000Y-53250000D01*
X98000000Y-53250000D02*
X98000000Y-67735000D01*
X98000000Y-67735000D02*
X97980500Y-67754500D01*
X93798000Y-67750000D02*
X93786000Y-67762000D01*
X99020467Y-70826467D02*
X95588000Y-67394000D01*
X99020467Y-78398533D02*
X99020467Y-70826467D01*
X91905000Y-85514000D02*
X99020467Y-78398533D01*
X95588000Y-66085766D02*
X95588000Y-64318000D01*
X91905000Y-87200000D02*
X91905000Y-85514000D01*
X95588000Y-67394000D02*
X95588000Y-66085766D01*
X84412000Y-64318000D02*
X83947000Y-64783000D01*
X83947000Y-68961000D02*
X90635000Y-75649000D01*
X83947000Y-64783000D02*
X83947000Y-68961000D01*
X90635000Y-75649000D02*
X90635000Y-77800000D01*
X86214000Y-67762000D02*
X86214000Y-68307000D01*
X86214000Y-68307000D02*
X91905000Y-73998000D01*
X91905000Y-73998000D02*
X91905000Y-77800000D01*
X120000000Y-47000000D02*
X120000000Y-67750000D01*
X119950000Y-46950000D02*
X120000000Y-47000000D01*
X118000000Y-46950000D02*
X119950000Y-46950000D01*
X115588000Y-64318000D02*
X120015000Y-68745000D01*
X120015000Y-68745000D02*
X120015000Y-79819498D01*
X120015000Y-79819498D02*
X115760500Y-84074000D01*
X109982000Y-84074000D02*
X109365000Y-84691000D01*
X109365000Y-84691000D02*
X109365000Y-87200000D01*
X115588000Y-60000000D02*
X117729000Y-57859000D01*
X117729000Y-57859000D02*
X117729000Y-50779000D01*
X117729000Y-50779000D02*
X114450000Y-47500000D01*
X114450000Y-47500000D02*
X106000000Y-47500000D01*
X106000000Y-47500000D02*
X99520478Y-53979522D01*
X99520478Y-53979522D02*
X99520478Y-80057522D01*
X99520478Y-80057522D02*
X97962999Y-81615001D01*
X97962999Y-81615001D02*
X97663000Y-81915000D01*
X90635000Y-87200000D02*
X90635000Y-81958000D01*
X90635000Y-81958000D02*
X90678000Y-81915000D01*
X115588000Y-55682000D02*
X116014500Y-55255500D01*
X106000000Y-48250000D02*
X100020489Y-54229511D01*
X116014500Y-55255500D02*
X116014500Y-51625500D01*
X116014500Y-51625500D02*
X112639000Y-48250000D01*
X100020489Y-82224511D02*
X98724999Y-83520001D01*
X112639000Y-48250000D02*
X106000000Y-48250000D01*
X100020489Y-54229511D02*
X100020489Y-82224511D01*
X98724999Y-83520001D02*
X98425000Y-83820000D01*
X89365000Y-83863002D02*
X89408002Y-83820000D01*
X89365000Y-87200000D02*
X89365000Y-83863002D01*
X113786000Y-52238000D02*
X110548000Y-49000000D01*
X110548000Y-49000000D02*
X106000000Y-49000000D01*
X106000000Y-49000000D02*
X100520500Y-54479500D01*
X100520500Y-82994500D02*
X98679000Y-84836000D01*
X98679000Y-84836000D02*
X96944264Y-84836000D01*
X100520500Y-54479500D02*
X100520500Y-82994500D01*
X96944264Y-84836000D02*
X96520000Y-84836000D01*
X88095000Y-84879000D02*
X88138000Y-84836000D01*
X88095000Y-87200000D02*
X88095000Y-84879000D01*
X110000000Y-51364000D02*
X108674000Y-50038000D01*
X108674000Y-50038000D02*
X105788000Y-50038000D01*
X105788000Y-50038000D02*
X105750000Y-50000000D01*
X105712000Y-50038000D02*
X101028500Y-54721500D01*
X101028500Y-68389500D02*
X108095000Y-75456000D01*
X108095000Y-76575000D02*
X108095000Y-77800000D01*
X101028500Y-54721500D02*
X101028500Y-68389500D01*
X108095000Y-75456000D02*
X108095000Y-76575000D01*
X106214000Y-52238000D02*
X104446234Y-52238000D01*
X101536500Y-67754500D02*
X109365000Y-75583000D01*
X104446234Y-52238000D02*
X101536500Y-55147734D01*
X101536500Y-55147734D02*
X101536500Y-67754500D01*
X109365000Y-75583000D02*
X109365000Y-76575000D01*
X109365000Y-76575000D02*
X109365000Y-77800000D01*
X104412000Y-55682000D02*
X102044500Y-58049500D01*
X102044500Y-58049500D02*
X102044500Y-67246500D01*
X102044500Y-67246500D02*
X110635000Y-75837000D01*
X110635000Y-75837000D02*
X110635000Y-76575000D01*
X110635000Y-76575000D02*
X110635000Y-77800000D01*
X111905000Y-77800000D02*
X111905000Y-76218000D01*
X111905000Y-76218000D02*
X102552500Y-66865500D01*
X102552500Y-66865500D02*
X102552500Y-61859500D01*
X103162001Y-61249999D02*
X104412000Y-60000000D01*
X102552500Y-61859500D02*
X103162001Y-61249999D01*
X104412000Y-64318000D02*
X106179766Y-64318000D01*
X106179766Y-64318000D02*
X108077000Y-66215234D01*
X108077000Y-66215234D02*
X108077000Y-69723000D01*
X108077000Y-69723000D02*
X111252000Y-72898000D01*
X111252000Y-72898000D02*
X117039122Y-72898000D01*
X117039122Y-72898000D02*
X119372011Y-75230889D01*
X119372011Y-75230889D02*
X119372011Y-79319489D01*
X119372011Y-79319489D02*
X114046000Y-84645500D01*
X114046000Y-84645500D02*
X112966500Y-84645500D01*
X112966500Y-84645500D02*
X111905000Y-85707000D01*
X111905000Y-85707000D02*
X111905000Y-87200000D01*
X106214000Y-67762000D02*
X106214000Y-69529766D01*
X106214000Y-69529766D02*
X110217234Y-73533000D01*
X112014000Y-83566000D02*
X110635000Y-84945000D01*
X110217234Y-73533000D02*
X116967000Y-73533000D01*
X116967000Y-73533000D02*
X118872000Y-75438000D01*
X118872000Y-75438000D02*
X118872000Y-78676500D01*
X118872000Y-78676500D02*
X113982500Y-83566000D01*
X113982500Y-83566000D02*
X112014000Y-83566000D01*
X110635000Y-84945000D02*
X110635000Y-87200000D01*
X143786000Y-67762000D02*
X148038000Y-67762000D01*
X148038000Y-67762000D02*
X148100000Y-67700000D01*
X148100000Y-67700000D02*
X148100000Y-47050000D01*
X148100000Y-47050000D02*
X148000000Y-46950000D01*
X145588000Y-64318000D02*
X144338001Y-65567999D01*
X144338001Y-65567999D02*
X143347001Y-65567999D01*
X143347001Y-65567999D02*
X141859000Y-67056000D01*
X141905000Y-85425000D02*
X141905000Y-87200000D01*
X141859000Y-67056000D02*
X141859000Y-68834000D01*
X141859000Y-68834000D02*
X148590000Y-75565000D01*
X148590000Y-75565000D02*
X148590000Y-78740000D01*
X148590000Y-78740000D02*
X141905000Y-85425000D01*
X136214000Y-52238000D02*
X134446234Y-52238000D01*
X134446234Y-52238000D02*
X129300000Y-57384234D01*
X129300000Y-57384234D02*
X129300000Y-75424000D01*
X129300000Y-75424000D02*
X119507000Y-85217000D01*
X119507000Y-85217000D02*
X117221000Y-85217000D01*
X108077000Y-85217000D02*
X108077000Y-87182000D01*
X108077000Y-87182000D02*
X108095000Y-87200000D01*
X134412000Y-55682000D02*
X133162001Y-56931999D01*
X133162001Y-56931999D02*
X133162001Y-56956999D01*
X133162001Y-56956999D02*
X131191000Y-58928000D01*
X131191000Y-68072000D02*
X138095000Y-74976000D01*
X131191000Y-58928000D02*
X131191000Y-68072000D01*
X138095000Y-74976000D02*
X138095000Y-77800000D01*
X139365000Y-77800000D02*
X139365000Y-76575000D01*
X139365000Y-76575000D02*
X139319000Y-76529000D01*
X139319000Y-76529000D02*
X139319000Y-75057000D01*
X139319000Y-75057000D02*
X132207000Y-67945000D01*
X132207000Y-67945000D02*
X132207000Y-62205000D01*
X132207000Y-62205000D02*
X134412000Y-60000000D01*
X140635000Y-77800000D02*
X140635000Y-76575000D01*
X140589000Y-75184000D02*
X133858000Y-68453000D01*
X140635000Y-76575000D02*
X140589000Y-76529000D01*
X140589000Y-76529000D02*
X140589000Y-75184000D01*
X133858000Y-68453000D02*
X133858000Y-64872000D01*
X133858000Y-64872000D02*
X134412000Y-64318000D01*
X141905000Y-77800000D02*
X141905000Y-73453000D01*
X141905000Y-73453000D02*
X136214000Y-67762000D01*
X170000000Y-47000000D02*
X170053000Y-47053000D01*
X170053000Y-47053000D02*
X170053000Y-67818000D01*
X170053000Y-67818000D02*
X170000000Y-67871000D01*
X169950000Y-46950000D02*
X170000000Y-47000000D01*
X168000000Y-46950000D02*
X169950000Y-46950000D01*
X159365000Y-87200000D02*
X159365000Y-85435000D01*
X159365000Y-85435000D02*
X162631000Y-82169000D01*
X162631000Y-82169000D02*
X168275000Y-82169000D01*
X168275000Y-82169000D02*
X169839001Y-80604999D01*
X169839001Y-80604999D02*
X169839001Y-70336767D01*
X169839001Y-70336767D02*
X165588000Y-66085766D01*
X165588000Y-66085766D02*
X165588000Y-64318000D01*
X168700000Y-56888000D02*
X165588000Y-60000000D01*
X163000000Y-46750000D02*
X168700000Y-52450000D01*
X149225000Y-52275000D02*
X154750000Y-46750000D01*
X147955000Y-80772000D02*
X149225000Y-79502000D01*
X147955000Y-89535000D02*
X147955000Y-80772000D01*
X147193000Y-90297000D02*
X147955000Y-89535000D01*
X149225000Y-79502000D02*
X149225000Y-52275000D01*
X168700000Y-52450000D02*
X168700000Y-56888000D01*
X154750000Y-46750000D02*
X163000000Y-46750000D01*
X140635000Y-89962000D02*
X141178001Y-90505001D01*
X141178001Y-90505001D02*
X141478000Y-90805000D01*
X140635000Y-87200000D02*
X140635000Y-89962000D01*
X166837999Y-54432001D02*
X165588000Y-55682000D01*
X162500000Y-48000000D02*
X166837999Y-52337999D01*
X155000000Y-48000000D02*
X162500000Y-48000000D01*
X149800000Y-80070000D02*
X149800000Y-53200000D01*
X166837999Y-52337999D02*
X166837999Y-54432001D01*
X149800000Y-53200000D02*
X155000000Y-48000000D01*
X148539000Y-81331000D02*
X149800000Y-80070000D01*
X148539000Y-90475000D02*
X148539000Y-81331000D01*
X139781001Y-90378001D02*
X140081000Y-90678000D01*
X139365000Y-87875000D02*
X139365000Y-89962000D01*
X139365000Y-89962000D02*
X139781001Y-90378001D01*
X139365000Y-87200000D02*
X139365000Y-87875000D01*
X139365000Y-87875000D02*
X139400000Y-87910000D01*
X150324999Y-80582123D02*
X150324999Y-78975999D01*
X148209000Y-92329000D02*
X149232989Y-91305011D01*
X150327999Y-78972999D02*
X150327999Y-53922001D01*
X149232989Y-81674133D02*
X150324999Y-80582123D01*
X149232989Y-91305011D02*
X149232989Y-81674133D01*
X162536001Y-50988001D02*
X163786000Y-52238000D01*
X150324999Y-78975999D02*
X150327999Y-78972999D01*
X150327999Y-53922001D02*
X155150000Y-49100000D01*
X160648000Y-49100000D02*
X162536001Y-50988001D01*
X155150000Y-49100000D02*
X160648000Y-49100000D01*
X138095000Y-89995000D02*
X138557000Y-90457000D01*
X138095000Y-87200000D02*
X138095000Y-89995000D01*
X150900011Y-68500011D02*
X150900011Y-54599989D01*
X155385999Y-50114001D02*
X158750001Y-50114001D01*
X158095000Y-77800000D02*
X158095000Y-75695000D01*
X158095000Y-75695000D02*
X150900011Y-68500011D01*
X150900011Y-54599989D02*
X155385999Y-50114001D01*
X158750001Y-50114001D02*
X160000000Y-51364000D01*
X159365000Y-77800000D02*
X159365000Y-76065000D01*
X159365000Y-76065000D02*
X151400022Y-68100022D01*
X151400022Y-55599978D02*
X153512001Y-53487999D01*
X151400022Y-68100022D02*
X151400022Y-55599978D01*
X153512001Y-53487999D02*
X154964001Y-53487999D01*
X154964001Y-53487999D02*
X156214000Y-52238000D01*
X151900033Y-58193967D02*
X153162001Y-56931999D01*
X153162001Y-56931999D02*
X154412000Y-55682000D01*
X160635000Y-77800000D02*
X160635000Y-76435000D01*
X160635000Y-76435000D02*
X151900033Y-67700033D01*
X151900033Y-67700033D02*
X151900033Y-58193967D01*
X152400044Y-62011956D02*
X153162001Y-61249999D01*
X161905000Y-77800000D02*
X161905000Y-76575000D01*
X152400044Y-67070044D02*
X152400044Y-62011956D01*
X153162001Y-61249999D02*
X154412000Y-60000000D01*
X161905000Y-76575000D02*
X152400044Y-67070044D01*
X154412000Y-64318000D02*
X155661999Y-65567999D01*
X160569002Y-66800000D02*
X160869002Y-67100000D01*
X162000000Y-68800000D02*
X166225000Y-73025000D01*
X155661999Y-65567999D02*
X157667999Y-65567999D01*
X161300000Y-67100000D02*
X161700000Y-67500000D01*
X157667999Y-65567999D02*
X158900000Y-66800000D01*
X160869002Y-67100000D02*
X161300000Y-67100000D01*
X158900000Y-66800000D02*
X160569002Y-66800000D01*
X161700000Y-67500000D02*
X161700000Y-67930998D01*
X161700000Y-67930998D02*
X162000000Y-68230998D01*
X162000000Y-68230998D02*
X162000000Y-68800000D01*
X166225000Y-73025000D02*
X167767000Y-73025000D01*
X161905000Y-87200000D02*
X161905000Y-85495000D01*
X161905000Y-85495000D02*
X163326000Y-84074000D01*
X163326000Y-84074000D02*
X169037000Y-84074000D01*
X169037000Y-84074000D02*
X173228000Y-79883000D01*
X173228000Y-79883000D02*
X173228000Y-73152000D01*
X171950000Y-74724264D02*
X171950000Y-74300000D01*
X171950000Y-79891000D02*
X171950000Y-74724264D01*
X168783000Y-83058000D02*
X171950000Y-79891000D01*
X163552000Y-83058000D02*
X168783000Y-83058000D01*
X160635000Y-85975000D02*
X163552000Y-83058000D01*
X160635000Y-87200000D02*
X160635000Y-85975000D01*
X161000000Y-74168000D02*
X160368000Y-74168000D01*
X160368000Y-74168000D02*
X156214000Y-70014000D01*
X156214000Y-70014000D02*
X156214000Y-67762000D01*
X190000000Y-47000000D02*
X192500000Y-47000000D01*
X192500000Y-47000000D02*
X198000000Y-52500000D01*
X198000000Y-52500000D02*
X198000000Y-67747500D01*
X198000000Y-67747500D02*
X197993000Y-67754500D01*
X194660000Y-82500000D02*
X196600000Y-82500000D01*
X200224990Y-77024264D02*
X200224990Y-76600000D01*
X200224990Y-78875010D02*
X200224990Y-77024264D01*
X190635000Y-86525000D02*
X194660000Y-82500000D01*
X196600000Y-82500000D02*
X200224990Y-78875010D01*
X190635000Y-87200000D02*
X190635000Y-86525000D01*
X195588000Y-64318000D02*
X195588000Y-74088000D01*
X195588000Y-74088000D02*
X198100000Y-76600000D01*
X160990001Y-82215001D02*
X161290000Y-81915002D01*
X158095000Y-85110000D02*
X158395001Y-84810001D01*
X158395001Y-84810001D02*
X160990001Y-82215001D01*
X158095000Y-87200000D02*
X158095000Y-85110000D01*
X190000000Y-51364000D02*
X188750001Y-50114001D01*
X188750001Y-50114001D02*
X183057999Y-50114001D01*
X183057999Y-50114001D02*
X179578000Y-53594000D01*
X179578000Y-53594000D02*
X179578000Y-81915000D01*
X186214000Y-52238000D02*
X184446234Y-52238000D01*
X184446234Y-52238000D02*
X180467000Y-56217234D01*
X180467000Y-73406000D02*
X182753000Y-75692000D01*
X182753000Y-75692000D02*
X187642500Y-75692000D01*
X180467000Y-56217234D02*
X180467000Y-73406000D01*
X187642500Y-75692000D02*
X188095000Y-76144500D01*
X188095000Y-76144500D02*
X188095000Y-77800000D01*
X184412000Y-55682000D02*
X181356000Y-58738000D01*
X181356000Y-58738000D02*
X181356000Y-72961500D01*
X189365000Y-75700000D02*
X189365000Y-77800000D01*
X181356000Y-72961500D02*
X183451500Y-75057000D01*
X183451500Y-75057000D02*
X188722000Y-75057000D01*
X188722000Y-75057000D02*
X189365000Y-75700000D01*
X190635000Y-77800000D02*
X190635000Y-75065000D01*
X190635000Y-75065000D02*
X189992000Y-74422000D01*
X189992000Y-74422000D02*
X184277000Y-74422000D01*
X182245000Y-72390000D02*
X182245000Y-62167000D01*
X184277000Y-74422000D02*
X182245000Y-72390000D01*
X182245000Y-62167000D02*
X184412000Y-60000000D01*
X190635000Y-77800000D02*
X190635000Y-77125000D01*
X190635000Y-77125000D02*
X190600000Y-77090000D01*
X190660000Y-73660000D02*
X186589004Y-73660000D01*
X184412000Y-66085766D02*
X184412000Y-64318000D01*
X191905000Y-77800000D02*
X191905000Y-74905000D01*
X191905000Y-74905000D02*
X190660000Y-73660000D01*
X186589004Y-73660000D02*
X186574002Y-73675002D01*
X186574002Y-73675002D02*
X184800002Y-73675002D01*
X184800002Y-73675002D02*
X184412000Y-73287000D01*
X184412000Y-73287000D02*
X184412000Y-66085766D01*
X186214000Y-67762000D02*
X186214000Y-72964000D01*
X186214000Y-72964000D02*
X186250000Y-73000000D01*
X197000000Y-83500000D02*
X200900000Y-79600000D01*
X200900000Y-79600000D02*
X200900000Y-73500000D01*
X194930000Y-83500000D02*
X197000000Y-83500000D01*
X191905000Y-87200000D02*
X191905000Y-86525000D01*
X191905000Y-86525000D02*
X194930000Y-83500000D01*
X222000000Y-56350000D02*
X221750000Y-56600000D01*
X221750000Y-56600000D02*
X221750000Y-62825736D01*
X221750000Y-62825736D02*
X221750000Y-63250000D01*
X220901870Y-79598128D02*
X220750000Y-79749998D01*
X220901870Y-64306542D02*
X220901870Y-79598128D01*
X208095000Y-85083854D02*
X208055573Y-85044427D01*
X208095000Y-87200000D02*
X208095000Y-85083854D01*
X189365000Y-86525000D02*
X193890011Y-81999989D01*
X199549988Y-74825022D02*
X199575011Y-74799999D01*
X189365000Y-87200000D02*
X189365000Y-86525000D01*
X199549988Y-78842890D02*
X199549988Y-74825022D01*
X193890011Y-81999989D02*
X196392889Y-81999989D01*
X196392889Y-81999989D02*
X199549988Y-78842890D01*
X199575011Y-74799999D02*
X199875010Y-74500000D01*
X209550000Y-74549000D02*
X207391000Y-74549000D01*
X207391000Y-74549000D02*
X206492002Y-74549000D01*
X215588000Y-60000000D02*
X217678000Y-62090000D01*
X217678000Y-62090000D02*
X217678000Y-66421000D01*
X217678000Y-66421000D02*
X209550000Y-74549000D01*
X214338001Y-56931999D02*
X215588000Y-55682000D01*
X206085001Y-56931999D02*
X214338001Y-56931999D01*
X203454000Y-57785000D02*
X205232000Y-57785000D01*
X201295000Y-59944000D02*
X203454000Y-57785000D01*
X188095000Y-86525000D02*
X193120022Y-81499978D01*
X199049978Y-73619022D02*
X201295000Y-71374000D01*
X199049978Y-78635778D02*
X199049978Y-73619022D01*
X196185778Y-81499978D02*
X199049978Y-78635778D01*
X201295000Y-71374000D02*
X201295000Y-59944000D01*
X193120022Y-81499978D02*
X196185778Y-81499978D01*
X188095000Y-87200000D02*
X188095000Y-86525000D01*
X205232000Y-57785000D02*
X206085001Y-56931999D01*
X213786000Y-52238000D02*
X215035999Y-53487999D01*
X215035999Y-53487999D02*
X216428999Y-53487999D01*
X216428999Y-53487999D02*
X218313000Y-55372000D01*
X218313000Y-55372000D02*
X218313000Y-66675000D01*
X218313000Y-66675000D02*
X208095000Y-76893000D01*
X208095000Y-76893000D02*
X208095000Y-77800000D01*
X210000000Y-51364000D02*
X211767766Y-51364000D01*
X211767766Y-51364000D02*
X212892756Y-50239010D01*
X212892756Y-50239010D02*
X214704010Y-50239010D01*
X218948000Y-54483000D02*
X218948000Y-66929000D01*
X214704010Y-50239010D02*
X218948000Y-54483000D01*
X218948000Y-66929000D02*
X209365000Y-76512000D01*
X209365000Y-76512000D02*
X209365000Y-77800000D01*
X206214000Y-52238000D02*
X207463999Y-50988001D01*
X207463999Y-50981001D02*
X209042000Y-49403000D01*
X215646000Y-49403000D02*
X219583000Y-53340000D01*
X207463999Y-50988001D02*
X207463999Y-50981001D01*
X209042000Y-49403000D02*
X215646000Y-49403000D01*
X219583000Y-67056000D02*
X210635000Y-76004000D01*
X219583000Y-53340000D02*
X219583000Y-67056000D01*
X210635000Y-76004000D02*
X210635000Y-77800000D01*
X204412000Y-55682000D02*
X203898500Y-55168500D01*
X206121000Y-48768000D02*
X216535000Y-48768000D01*
X203898500Y-55168500D02*
X203898500Y-50990500D01*
X216535000Y-48768000D02*
X220218000Y-52451000D01*
X203898500Y-50990500D02*
X206121000Y-48768000D01*
X220218000Y-52451000D02*
X220218000Y-67183000D01*
X220218000Y-67183000D02*
X211905000Y-75496000D01*
X211905000Y-75496000D02*
X211905000Y-77800000D01*
X203073000Y-82677000D02*
X203073000Y-75184000D01*
X211963000Y-68072000D02*
X211582000Y-67691000D01*
X211905000Y-87200000D02*
X211905000Y-86525000D01*
X211905000Y-86525000D02*
X208057000Y-82677000D01*
X203073000Y-75184000D02*
X207518000Y-70739000D01*
X208057000Y-82677000D02*
X203073000Y-82677000D01*
X209900000Y-66500000D02*
X209500000Y-66500000D01*
X211264500Y-67183000D02*
X211074000Y-67183000D01*
X211582000Y-67500500D02*
X211264500Y-67183000D01*
X207518000Y-70739000D02*
X210566000Y-70739000D01*
X210300000Y-66900000D02*
X209900000Y-66500000D01*
X210566000Y-70739000D02*
X211963000Y-69342000D01*
X211963000Y-69342000D02*
X211963000Y-68072000D01*
X210791000Y-66900000D02*
X210300000Y-66900000D01*
X211074000Y-67183000D02*
X210791000Y-66900000D01*
X211582000Y-67691000D02*
X211582000Y-67500500D01*
X209500000Y-66500000D02*
X204412000Y-61412000D01*
X204412000Y-61412000D02*
X204412000Y-60000000D01*
X210635000Y-87200000D02*
X210635000Y-85962122D01*
X210635000Y-85962122D02*
X207992868Y-83319990D01*
X207992868Y-83319990D02*
X202572990Y-83319990D01*
X202572990Y-83319990D02*
X202500000Y-83247000D01*
X202500000Y-83247000D02*
X202500000Y-74169500D01*
X202500000Y-74169500D02*
X208153000Y-68516500D01*
X208153000Y-68516500D02*
X208153000Y-66929000D01*
X208153000Y-66929000D02*
X205542000Y-64318000D01*
X205542000Y-64318000D02*
X204412000Y-64318000D01*
X209365000Y-87200000D02*
X209365000Y-85399244D01*
X209365000Y-85399244D02*
X207785757Y-83820001D01*
X207785757Y-83820001D02*
X201800000Y-83820000D01*
X201800000Y-83820000D02*
X201800000Y-72176000D01*
X201800000Y-72176000D02*
X206214000Y-67762000D01*
D27*
X86350000Y-92500000D02*
X92412000Y-92500000D01*
X92412000Y-92500000D02*
X93175000Y-91737000D01*
X93175000Y-91737000D02*
X93175000Y-87200000D01*
X107250000Y-92500000D02*
X112478000Y-92500000D01*
X112478000Y-92500000D02*
X113175000Y-91803000D01*
X113175000Y-91803000D02*
X113175000Y-87200000D01*
X136350000Y-92500000D02*
X142577000Y-92500000D01*
X142577000Y-92500000D02*
X143175000Y-91902000D01*
X143175000Y-91902000D02*
X143175000Y-87200000D01*
X156350000Y-92472928D02*
X162627072Y-92472928D01*
X162627072Y-92472928D02*
X163175000Y-91925000D01*
X163175000Y-91925000D02*
X163175000Y-87200000D01*
X186350000Y-92500000D02*
X192615000Y-92500000D01*
X192615000Y-92500000D02*
X193175000Y-91940000D01*
X193175000Y-91940000D02*
X193175000Y-87200000D01*
X207250000Y-92500000D02*
X212681000Y-92500000D01*
X212681000Y-92500000D02*
X213175000Y-92006000D01*
X213175000Y-92006000D02*
X213175000Y-87200000D01*
D29*
X86868000Y-83312000D02*
X86868000Y-87157000D01*
X86868000Y-87157000D02*
X86825000Y-87200000D01*
X106825000Y-77800000D02*
X106825000Y-81262000D01*
X106825000Y-81262000D02*
X105156000Y-82931000D01*
X106934000Y-84582000D02*
X106934000Y-87091000D01*
X106934000Y-87091000D02*
X106825000Y-87200000D01*
X136825000Y-77800000D02*
X136825000Y-81107000D01*
X136825000Y-81107000D02*
X135001000Y-82931000D01*
X136906000Y-85217000D02*
X136906000Y-87119000D01*
X136906000Y-87119000D02*
X136825000Y-87200000D01*
X156825000Y-77800000D02*
X156825000Y-81681000D01*
X156825000Y-81681000D02*
X155448000Y-83058000D01*
X184997002Y-83100000D02*
X186517003Y-81579999D01*
X186517003Y-81579999D02*
X186817002Y-81280000D01*
X186825000Y-81272002D02*
X186817002Y-81280000D01*
X186825000Y-77800000D02*
X186825000Y-81272002D01*
X156845000Y-85090000D02*
X156845000Y-87180000D01*
X156845000Y-87180000D02*
X156825000Y-87200000D01*
X186900000Y-84600000D02*
X186825000Y-84675000D01*
X206825000Y-81775000D02*
X206800000Y-81800000D01*
X206825000Y-77800000D02*
X206825000Y-81775000D01*
X186825000Y-84675000D02*
X186825000Y-87200000D01*
D26*
X118340000Y-102350000D02*
X129540000Y-102350000D01*
X129540000Y-100000000D02*
X129540000Y-102350000D01*
X129540000Y-102350000D02*
X130940000Y-103750000D01*
X130940000Y-103750000D02*
X151000000Y-103750000D01*
X151000000Y-103750000D02*
X152400000Y-102350000D01*
X152400000Y-102350000D02*
X152400000Y-99992000D01*
D29*
X91500000Y-60125000D02*
X93018000Y-60125000D01*
X108500000Y-58375000D02*
X107188000Y-58375000D01*
X78350000Y-54000000D02*
X79250000Y-54000000D01*
X79250000Y-54000000D02*
X80000000Y-54750000D01*
X80000000Y-54750000D02*
X80000000Y-57000000D01*
X80000000Y-57000000D02*
X80900000Y-57900000D01*
X80900000Y-57900000D02*
X86400000Y-57900000D01*
X86400000Y-57900000D02*
X86875000Y-58375000D01*
X86875000Y-58375000D02*
X88500000Y-58375000D01*
X111500000Y-60125000D02*
X112830000Y-60125000D01*
X122183000Y-56125000D02*
X123500000Y-56125000D01*
X123500000Y-62500000D02*
X123500000Y-64125000D01*
X126500000Y-59500000D02*
X123500000Y-62500000D01*
X126500000Y-57875000D02*
X126500000Y-59500000D01*
X127978000Y-65875000D02*
X128016000Y-65913000D01*
X137332000Y-58375000D02*
X138500000Y-58375000D01*
X126500000Y-65875000D02*
X127978000Y-65875000D01*
X157300000Y-58400000D02*
X157325000Y-58375000D01*
X157325000Y-58375000D02*
X158500000Y-58375000D01*
X141500000Y-60125000D02*
X142775000Y-60125000D01*
X142775000Y-60125000D02*
X142800000Y-60100000D01*
X161500000Y-60125000D02*
X162741000Y-60125000D01*
X172094000Y-56125000D02*
X173500000Y-56125000D01*
X173500000Y-62500000D02*
X173500000Y-64125000D01*
X176500000Y-59500000D02*
X173500000Y-62500000D01*
X176500000Y-57875000D02*
X176500000Y-59500000D01*
X177875000Y-65875000D02*
X177900000Y-65900000D01*
X176500000Y-65875000D02*
X177875000Y-65875000D01*
X187325000Y-58375000D02*
X188500000Y-58375000D01*
X191500000Y-60125000D02*
X192775000Y-60125000D01*
X192775000Y-60125000D02*
X192800000Y-60100000D01*
X208500000Y-58375000D02*
X207264000Y-58375000D01*
D25*
X162560000Y-99992000D02*
X162560000Y-99793998D01*
X162560000Y-99793998D02*
X164690998Y-97663000D01*
X225650000Y-53650000D02*
X224650000Y-53650000D01*
X222750000Y-86900000D02*
X222750000Y-85000000D01*
X164690998Y-97663000D02*
X194437000Y-97663000D01*
X194437000Y-97663000D02*
X197485000Y-94615000D01*
X197485000Y-94615000D02*
X202692000Y-94615000D01*
X225171000Y-68829000D02*
X228000000Y-66000000D01*
X221450000Y-90300000D02*
X221450000Y-88200000D01*
X202692000Y-94615000D02*
X205740000Y-97663000D01*
X205740000Y-97663000D02*
X214087000Y-97663000D01*
X221450000Y-88200000D02*
X222750000Y-86900000D01*
X214087000Y-97663000D02*
X221450000Y-90300000D01*
X222750000Y-85000000D02*
X224100000Y-83650000D01*
X224100000Y-83650000D02*
X224100000Y-80700000D01*
X224100000Y-80700000D02*
X225171000Y-79629000D01*
X225171000Y-79629000D02*
X225171000Y-68829000D01*
X228000000Y-66000000D02*
X228000000Y-56000000D01*
X228000000Y-56000000D02*
X225650000Y-53650000D01*
X224650000Y-53650000D02*
X222000000Y-53650000D01*
X222000000Y-50600000D02*
X215650000Y-44250000D01*
X222000000Y-53650000D02*
X222000000Y-50600000D01*
X90000000Y-44250000D02*
X95000000Y-44250000D01*
X95000000Y-44250000D02*
X95000000Y-47000000D01*
X95000000Y-47000000D02*
X98000000Y-50000000D01*
X98000000Y-50000000D02*
X102000000Y-50000000D01*
X102000000Y-50000000D02*
X105250000Y-46750000D01*
X105250000Y-46750000D02*
X105250000Y-44250000D01*
X105250000Y-44250000D02*
X106750000Y-44250000D01*
X195000000Y-44250000D02*
X191000000Y-44250000D01*
X191000000Y-44250000D02*
X106750000Y-44250000D01*
X190000000Y-44250000D02*
X191000000Y-44250000D01*
X195000000Y-46750000D02*
X195000000Y-44250000D01*
X215650000Y-44250000D02*
X205000000Y-44250000D01*
X205000000Y-44250000D02*
X205000000Y-46750000D01*
X201750000Y-50000000D02*
X198250000Y-50000000D01*
X198250000Y-50000000D02*
X195000000Y-46750000D01*
X205000000Y-46750000D02*
X201750000Y-50000000D01*
X106750000Y-44250000D02*
X118000000Y-44250000D01*
X148000000Y-44250000D02*
X168000000Y-44250000D01*
X118000000Y-44250000D02*
X148000000Y-44250000D01*
D29*
X206825000Y-90425000D02*
X206750000Y-90500000D01*
X206825000Y-87200000D02*
X206825000Y-90425000D01*
X79500000Y-94000000D02*
X79500000Y-58620000D01*
X79500000Y-58620000D02*
X78340000Y-57460000D01*
X78340000Y-57460000D02*
X77240000Y-57460000D01*
X164445000Y-87200000D02*
X164445000Y-89515000D01*
X164445000Y-89515000D02*
X164465000Y-89535000D01*
X144445000Y-87200000D02*
X144445000Y-89517500D01*
X144445000Y-89517500D02*
X144462500Y-89535000D01*
X114445000Y-87200000D02*
X114445000Y-89517000D01*
X114445000Y-89517000D02*
X114427000Y-89535000D01*
X194445000Y-87200000D02*
X194445000Y-89490000D01*
X194445000Y-89490000D02*
X194400000Y-89535000D01*
X94488000Y-89408000D02*
X94488000Y-87243000D01*
X94488000Y-87243000D02*
X94445000Y-87200000D01*
X214445000Y-87200000D02*
X214445000Y-89477000D01*
X214445000Y-89477000D02*
X214503000Y-89535000D01*
X114445000Y-79955000D02*
X114400000Y-80000000D01*
X114445000Y-77800000D02*
X114445000Y-79955000D01*
X151500000Y-80424264D02*
X151500000Y-80000000D01*
X149733000Y-83185000D02*
X151500000Y-81418000D01*
X151500000Y-81418000D02*
X151500000Y-80424264D01*
X149733000Y-93091000D02*
X149733000Y-83185000D01*
X94445000Y-79840000D02*
X94488000Y-79883000D01*
X94445000Y-77800000D02*
X94445000Y-79840000D01*
X94488000Y-77843000D02*
X94488000Y-79883000D01*
X144445000Y-77800000D02*
X144445000Y-79964000D01*
X144445000Y-79964000D02*
X144399000Y-80010000D01*
X164445000Y-77800000D02*
X164445000Y-79990000D01*
X164445000Y-79990000D02*
X164465000Y-80010000D01*
X194445000Y-77800000D02*
X194445000Y-79965000D01*
X194445000Y-79965000D02*
X194400000Y-80010000D01*
X214445000Y-77800000D02*
X214445000Y-79952000D01*
X214445000Y-79952000D02*
X214503000Y-80010000D01*
X174900000Y-76024266D02*
X174900000Y-75600002D01*
X174900000Y-89895000D02*
X174900000Y-76024266D01*
X172847000Y-91948000D02*
X174900000Y-89895000D01*
X113175000Y-77800000D02*
X113175000Y-75583000D01*
X113175000Y-75583000D02*
X113157000Y-75565000D01*
X143175000Y-77800000D02*
X143175000Y-75611000D01*
X143175000Y-75611000D02*
X143129000Y-75565000D01*
X163175000Y-75585000D02*
X163195000Y-75565000D01*
X163175000Y-77800000D02*
X163175000Y-75585000D01*
X193175000Y-77800000D02*
X193175000Y-75590000D01*
X193175000Y-75590000D02*
X193200000Y-75565000D01*
X93218000Y-75692000D02*
X93218000Y-77757000D01*
X93218000Y-77757000D02*
X93175000Y-77800000D01*
X213175000Y-77800000D02*
X213175000Y-75623000D01*
X213175000Y-75623000D02*
X213233000Y-75565000D01*
X75650000Y-54000000D02*
X75550000Y-54000000D01*
X75550000Y-54000000D02*
X74700000Y-54850000D01*
X74700000Y-54850000D02*
X74700000Y-56257919D01*
X74700000Y-56257919D02*
X74700000Y-57460000D01*
X77240000Y-60000000D02*
X77240000Y-62540000D01*
X74700000Y-60000000D02*
X74700000Y-62540000D01*
M02*
