M48
;DRILL file {KiCad 4.0.6} date Sunday, June 18, 2017 'PMt' 07:50:07 PM
;FORMAT={-:-/ absolute / inch / decimal}
FMAT,2
INCH,TZ
T1C0.016
T2C0.031
T3C0.035
T4C0.039
T5C0.059
T6C0.076
T7C0.146
%
G90
G05
M72
T1
X3.1299Y-3.7008
X3.42Y-3.28
X3.47Y-3.34
X3.4937Y-2.525
X3.52Y-3.3
X3.57Y-3.225
X3.6614Y-2.4705
X3.6654Y-2.3661
X3.67Y-2.98
X3.685Y-2.2756
X3.72Y-3.145
X3.72Y-3.52
X3.8Y-3.34
X3.845Y-3.225
X3.8575Y-2.6675
X3.875Y-3.3
X4.14Y-3.265
X4.2087Y-2.2992
X4.21Y-3.33
X4.255Y-3.355
X4.2811Y-2.53
X4.33Y-3.31
X4.4488Y-2.4705
X4.4528Y-2.3661
X4.455Y-2.975
X4.4724Y-2.2717
X4.5039Y-3.1496
X4.505Y-3.525
X4.5575Y-3.31
X4.615Y-3.355
X4.7244Y-2.6673
X4.7992Y-2.2087
X5.0472Y-2.5945
X5.0492Y-2.0669
X5.0492Y-2.7559
X5.0669Y-2.1821
X5.0669Y-2.4961
X5.315Y-3.265
X5.3858Y-2.2992
X5.39Y-3.355
X5.455Y-3.5613
X5.4611Y-2.525
X5.515Y-3.57
X5.57Y-3.575
X5.6299Y-2.4705
X5.635Y-2.975
X5.6378Y-2.3661
X5.6535Y-2.2717
X5.685Y-3.15
X5.6875Y-3.525
X5.795Y-3.555
X5.835Y-3.635
X5.848Y-3.562
X5.895Y-3.665
X5.9646Y-3.1496
X6.12Y-3.27
X6.1732Y-2.2992
X6.175Y-3.35
X6.2511Y-2.53
X6.3386Y-2.92
X6.35Y-3.225
X6.4173Y-2.4705
X6.4213Y-2.3661
X6.425Y-2.975
X6.4409Y-2.2717
X6.475Y-3.15
X6.475Y-3.525
X6.605Y-2.875
X6.695Y-2.67
X6.7638Y-2.2087
X6.7697Y-2.9252
X6.805Y-3.62
X6.82Y-2.88
X6.8858Y-2.9764
X7.0177Y-2.0669
X7.0177Y-2.7559
X7.0197Y-2.5945
X7.0315Y-2.185
X7.0315Y-2.5
X7.07Y-3.225
X7.2833Y-3.2717
X7.3327Y-2.874
X7.3543Y-2.2992
X7.3583Y-3.3307
X7.4311Y-2.52
X7.5984Y-2.4705
X7.6024Y-2.3661
X7.6063Y-2.975
X7.6181Y-2.2717
X7.6535Y-3.15
X7.6535Y-3.525
X7.795Y-2.6675
X7.7992Y-3.0157
X7.8691Y-2.9331
X7.8829Y-3.0157
X7.9094Y-2.8937
X8.1296Y-2.935
X8.1398Y-3.563
X8.1417Y-3.2205
X8.1457Y-2.2953
X8.1912Y-3.3482
X8.2087Y-2.5295
X8.3848Y-2.4705
X8.395Y-2.975
X8.4094Y-2.2756
X8.445Y-3.15
X8.445Y-3.525
X8.6909Y-3.1398
X8.6969Y-2.5318
X8.7303Y-2.4902
T2
X3.2011Y-3.3261
X3.3654Y-3.1566
X3.825Y-3.43
X3.8356Y-3.063
X3.9861Y-3.3261
X4.1142Y-3.2047
X4.625Y-3.435
X4.6306Y-3.063
X4.872Y-2.8248
X5.1457Y-2.825
X5.1711Y-3.3261
X5.2913Y-3.2087
X5.735Y-3.355
X5.8106Y-3.063
X5.9561Y-3.3261
X6.0787Y-3.2126
X6.5247Y-3.5927
X6.5247Y-3.5927
X6.5956Y-3.063
X6.8407Y-2.825
X6.9882Y-2.825
X7.0669Y-3.3937
X7.2598Y-3.2126
X7.65Y-3.575
X7.7756Y-3.063
X7.8583Y-3.3976
X8.06Y-3.21
X8.4925Y-3.5825
X8.563Y-3.0591
X8.8583Y-2.5787
T3
X4.4591Y-4.0295
X4.5591Y-4.0295
X4.6591Y-4.0295
T4
X2.9409Y-2.2622
X2.9409Y-2.3622
X2.9409Y-2.4622
X2.9409Y-2.5622
X3.0409Y-2.2622
X3.0409Y-2.3622
X3.0409Y-2.4622
X3.0409Y-2.5622
X5.1Y-3.987
X5.2Y-3.987
X5.3Y-3.987
X5.4Y-3.987
X5.5Y-3.987
X5.6Y-3.987
X5.7Y-3.987
X5.8Y-3.987
X6.599Y-3.987
X6.799Y-3.987
X7.374Y-3.987
X7.474Y-3.987
X7.574Y-3.987
X8.8583Y-2.3622
X8.8583Y-2.4622
T5
X3.Y-2.7165
T6
X3.3233Y-2.1922
X3.3233Y-2.3622
X3.3233Y-2.5322
X3.3943Y-2.0566
X3.3943Y-2.6678
X3.5433Y-2.0222
X3.5433Y-2.7022
X3.5906Y-2.1576
X3.5906Y-2.5668
X3.6924Y-2.0566
X3.6924Y-2.6678
X3.7633Y-2.1922
X3.7633Y-2.3622
X3.7633Y-2.5322
X4.1107Y-2.1922
X4.1107Y-2.3622
X4.1107Y-2.5322
X4.1817Y-2.0566
X4.1817Y-2.6678
X4.3307Y-2.0222
X4.3307Y-2.7022
X4.378Y-2.1576
X4.378Y-2.5668
X4.4798Y-2.0566
X4.4798Y-2.6678
X4.5507Y-2.1922
X4.5507Y-2.3622
X4.5507Y-2.5322
X5.2918Y-2.1922
X5.2918Y-2.3622
X5.2918Y-2.5322
X5.3628Y-2.0566
X5.3628Y-2.6678
X5.5118Y-2.0222
X5.5118Y-2.7022
X5.5591Y-2.1576
X5.5591Y-2.5668
X5.6609Y-2.0566
X5.6609Y-2.6678
X5.7318Y-2.1922
X5.7318Y-2.3622
X5.7318Y-2.5322
X6.0792Y-2.1922
X6.0792Y-2.3622
X6.0792Y-2.5322
X6.1502Y-2.0566
X6.1502Y-2.6678
X6.2992Y-2.0222
X6.2992Y-2.7022
X6.3465Y-2.1576
X6.3465Y-2.5668
X6.4483Y-2.0566
X6.4483Y-2.6678
X6.5192Y-2.1922
X6.5192Y-2.3622
X6.5192Y-2.5322
X7.2603Y-2.1922
X7.2603Y-2.3622
X7.2603Y-2.5322
X7.3313Y-2.0566
X7.3313Y-2.6678
X7.4803Y-2.0222
X7.4803Y-2.7022
X7.5276Y-2.1576
X7.5276Y-2.5668
X7.6294Y-2.0566
X7.6294Y-2.6678
X7.7003Y-2.1922
X7.7003Y-2.3622
X7.7003Y-2.5322
X8.0477Y-2.1922
X8.0477Y-2.3622
X8.0477Y-2.5322
X8.1187Y-2.0566
X8.1187Y-2.6678
X8.2677Y-2.0222
X8.2677Y-2.7022
X8.315Y-2.1576
X8.315Y-2.5668
X8.4168Y-2.0566
X8.4168Y-2.6678
X8.4877Y-2.1922
X8.4877Y-2.3622
X8.4877Y-2.5322
T7
X3.937Y-1.7717
X3.937Y-3.937
X6.274Y-3.937
X7.874Y-1.7717
X7.874Y-3.937
T0
M30
