G04 #@! TF.FileFunction,Legend,Top*
%FSLAX46Y46*%
G04 Gerber Fmt 4.6, Leading zero omitted, Abs format (unit mm)*
G04 Created by KiCad (PCBNEW 4.0.6) date 06/17/17 23:11:27*
%MOMM*%
%LPD*%
G01*
G04 APERTURE LIST*
%ADD10C,0.100000*%
%ADD11C,0.300000*%
%ADD12C,0.150000*%
%ADD13R,1.700000X1.900000*%
%ADD14C,4.100000*%
%ADD15C,2.900000*%
%ADD16R,1.000000X2.350000*%
%ADD17R,1.900000X1.700000*%
%ADD18R,1.650000X1.900000*%
%ADD19R,1.900000X1.650000*%
%ADD20C,1.924000*%
%ADD21R,1.600000X1.450000*%
%ADD22R,2.100000X2.100000*%
%ADD23O,2.100000X2.100000*%
G04 APERTURE END LIST*
D10*
D11*
X172307145Y-42778571D02*
X171807145Y-42064286D01*
X171450002Y-42778571D02*
X171450002Y-41278571D01*
X172021430Y-41278571D01*
X172164288Y-41350000D01*
X172235716Y-41421429D01*
X172307145Y-41564286D01*
X172307145Y-41778571D01*
X172235716Y-41921429D01*
X172164288Y-41992857D01*
X172021430Y-42064286D01*
X171450002Y-42064286D01*
X173521430Y-42707143D02*
X173378573Y-42778571D01*
X173092859Y-42778571D01*
X172950002Y-42707143D01*
X172878573Y-42564286D01*
X172878573Y-41992857D01*
X172950002Y-41850000D01*
X173092859Y-41778571D01*
X173378573Y-41778571D01*
X173521430Y-41850000D01*
X173592859Y-41992857D01*
X173592859Y-42135714D01*
X172878573Y-42278571D01*
X174092859Y-41778571D02*
X174450002Y-42778571D01*
X174807144Y-41778571D01*
X175378573Y-42635714D02*
X175450001Y-42707143D01*
X175378573Y-42778571D01*
X175307144Y-42707143D01*
X175378573Y-42635714D01*
X175378573Y-42778571D01*
X178021430Y-42778571D02*
X177164287Y-42778571D01*
X177592859Y-42778571D02*
X177592859Y-41278571D01*
X177450002Y-41492857D01*
X177307144Y-41635714D01*
X177164287Y-41707143D01*
X178664287Y-42635714D02*
X178735715Y-42707143D01*
X178664287Y-42778571D01*
X178592858Y-42707143D01*
X178664287Y-42635714D01*
X178664287Y-42778571D01*
X179664287Y-41278571D02*
X179807144Y-41278571D01*
X179950001Y-41350000D01*
X180021430Y-41421429D01*
X180092859Y-41564286D01*
X180164287Y-41850000D01*
X180164287Y-42207143D01*
X180092859Y-42492857D01*
X180021430Y-42635714D01*
X179950001Y-42707143D01*
X179807144Y-42778571D01*
X179664287Y-42778571D01*
X179521430Y-42707143D01*
X179450001Y-42635714D01*
X179378573Y-42492857D01*
X179307144Y-42207143D01*
X179307144Y-41850000D01*
X179378573Y-41564286D01*
X179450001Y-41421429D01*
X179521430Y-41350000D01*
X179664287Y-41278571D01*
X180878572Y-42707143D02*
X180878572Y-42778571D01*
X180807144Y-42921429D01*
X180735715Y-42992857D01*
X183092858Y-41278571D02*
X183092858Y-42350000D01*
X183021430Y-42564286D01*
X182878573Y-42707143D01*
X182664287Y-42778571D01*
X182521430Y-42778571D01*
X184450001Y-41778571D02*
X184450001Y-42778571D01*
X183807144Y-41778571D02*
X183807144Y-42564286D01*
X183878572Y-42707143D01*
X184021430Y-42778571D01*
X184235715Y-42778571D01*
X184378572Y-42707143D01*
X184450001Y-42635714D01*
X185164287Y-41778571D02*
X185164287Y-42778571D01*
X185164287Y-41921429D02*
X185235715Y-41850000D01*
X185378573Y-41778571D01*
X185592858Y-41778571D01*
X185735715Y-41850000D01*
X185807144Y-41992857D01*
X185807144Y-42778571D01*
X187092858Y-42707143D02*
X186950001Y-42778571D01*
X186664287Y-42778571D01*
X186521430Y-42707143D01*
X186450001Y-42564286D01*
X186450001Y-41992857D01*
X186521430Y-41850000D01*
X186664287Y-41778571D01*
X186950001Y-41778571D01*
X187092858Y-41850000D01*
X187164287Y-41992857D01*
X187164287Y-42135714D01*
X186450001Y-42278571D01*
X188878572Y-41421429D02*
X188950001Y-41350000D01*
X189092858Y-41278571D01*
X189450001Y-41278571D01*
X189592858Y-41350000D01*
X189664287Y-41421429D01*
X189735715Y-41564286D01*
X189735715Y-41707143D01*
X189664287Y-41921429D01*
X188807144Y-42778571D01*
X189735715Y-42778571D01*
X190664286Y-41278571D02*
X190807143Y-41278571D01*
X190950000Y-41350000D01*
X191021429Y-41421429D01*
X191092858Y-41564286D01*
X191164286Y-41850000D01*
X191164286Y-42207143D01*
X191092858Y-42492857D01*
X191021429Y-42635714D01*
X190950000Y-42707143D01*
X190807143Y-42778571D01*
X190664286Y-42778571D01*
X190521429Y-42707143D01*
X190450000Y-42635714D01*
X190378572Y-42492857D01*
X190307143Y-42207143D01*
X190307143Y-41850000D01*
X190378572Y-41564286D01*
X190450000Y-41421429D01*
X190521429Y-41350000D01*
X190664286Y-41278571D01*
X192592857Y-42778571D02*
X191735714Y-42778571D01*
X192164286Y-42778571D02*
X192164286Y-41278571D01*
X192021429Y-41492857D01*
X191878571Y-41635714D01*
X191735714Y-41707143D01*
X193092857Y-41278571D02*
X194092857Y-41278571D01*
X193450000Y-42778571D01*
X151214286Y-42635714D02*
X151142857Y-42707143D01*
X150928571Y-42778571D01*
X150785714Y-42778571D01*
X150571429Y-42707143D01*
X150428571Y-42564286D01*
X150357143Y-42421429D01*
X150285714Y-42135714D01*
X150285714Y-41921429D01*
X150357143Y-41635714D01*
X150428571Y-41492857D01*
X150571429Y-41350000D01*
X150785714Y-41278571D01*
X150928571Y-41278571D01*
X151142857Y-41350000D01*
X151214286Y-41421429D01*
X152500000Y-42778571D02*
X152500000Y-41992857D01*
X152428571Y-41850000D01*
X152285714Y-41778571D01*
X152000000Y-41778571D01*
X151857143Y-41850000D01*
X152500000Y-42707143D02*
X152357143Y-42778571D01*
X152000000Y-42778571D01*
X151857143Y-42707143D01*
X151785714Y-42564286D01*
X151785714Y-42421429D01*
X151857143Y-42278571D01*
X152000000Y-42207143D01*
X152357143Y-42207143D01*
X152500000Y-42135714D01*
X153214286Y-42778571D02*
X153214286Y-41778571D01*
X153214286Y-42064286D02*
X153285714Y-41921429D01*
X153357143Y-41850000D01*
X153500000Y-41778571D01*
X153642857Y-41778571D01*
X154357143Y-42778571D02*
X154214285Y-42707143D01*
X154142857Y-42564286D01*
X154142857Y-41278571D01*
X156928571Y-42778571D02*
X156428571Y-42064286D01*
X156071428Y-42778571D02*
X156071428Y-41278571D01*
X156642856Y-41278571D01*
X156785714Y-41350000D01*
X156857142Y-41421429D01*
X156928571Y-41564286D01*
X156928571Y-41778571D01*
X156857142Y-41921429D01*
X156785714Y-41992857D01*
X156642856Y-42064286D01*
X156071428Y-42064286D01*
X158214285Y-42778571D02*
X158214285Y-41992857D01*
X158142856Y-41850000D01*
X157999999Y-41778571D01*
X157714285Y-41778571D01*
X157571428Y-41850000D01*
X158214285Y-42707143D02*
X158071428Y-42778571D01*
X157714285Y-42778571D01*
X157571428Y-42707143D01*
X157499999Y-42564286D01*
X157499999Y-42421429D01*
X157571428Y-42278571D01*
X157714285Y-42207143D01*
X158071428Y-42207143D01*
X158214285Y-42135714D01*
X158785714Y-41778571D02*
X159142857Y-42778571D01*
X159499999Y-41778571D02*
X159142857Y-42778571D01*
X158999999Y-43135714D01*
X158928571Y-43207143D01*
X158785714Y-43278571D01*
X160071428Y-42778571D02*
X160071428Y-41778571D01*
X160071428Y-41921429D02*
X160142856Y-41850000D01*
X160285714Y-41778571D01*
X160499999Y-41778571D01*
X160642856Y-41850000D01*
X160714285Y-41992857D01*
X160714285Y-42778571D01*
X160714285Y-41992857D02*
X160785714Y-41850000D01*
X160928571Y-41778571D01*
X161142856Y-41778571D01*
X161285714Y-41850000D01*
X161357142Y-41992857D01*
X161357142Y-42778571D01*
X162285714Y-42778571D02*
X162142856Y-42707143D01*
X162071428Y-42635714D01*
X161999999Y-42492857D01*
X161999999Y-42064286D01*
X162071428Y-41921429D01*
X162142856Y-41850000D01*
X162285714Y-41778571D01*
X162499999Y-41778571D01*
X162642856Y-41850000D01*
X162714285Y-41921429D01*
X162785714Y-42064286D01*
X162785714Y-42492857D01*
X162714285Y-42635714D01*
X162642856Y-42707143D01*
X162499999Y-42778571D01*
X162285714Y-42778571D01*
X163428571Y-41778571D02*
X163428571Y-42778571D01*
X163428571Y-41921429D02*
X163499999Y-41850000D01*
X163642857Y-41778571D01*
X163857142Y-41778571D01*
X163999999Y-41850000D01*
X164071428Y-41992857D01*
X164071428Y-42778571D01*
X165428571Y-42778571D02*
X165428571Y-41278571D01*
X165428571Y-42707143D02*
X165285714Y-42778571D01*
X165000000Y-42778571D01*
X164857142Y-42707143D01*
X164785714Y-42635714D01*
X164714285Y-42492857D01*
X164714285Y-42064286D01*
X164785714Y-41921429D01*
X164857142Y-41850000D01*
X165000000Y-41778571D01*
X165285714Y-41778571D01*
X165428571Y-41850000D01*
X119828572Y-42778571D02*
X119828572Y-41278571D01*
X120685715Y-42778571D01*
X120685715Y-41278571D01*
X121400001Y-42778571D02*
X121400001Y-41778571D01*
X121400001Y-41278571D02*
X121328572Y-41350000D01*
X121400001Y-41421429D01*
X121471429Y-41350000D01*
X121400001Y-41278571D01*
X121400001Y-41421429D01*
X121971430Y-42778571D02*
X122757144Y-41778571D01*
X121971430Y-41778571D02*
X122757144Y-42778571D01*
X123328573Y-42778571D02*
X123328573Y-41278571D01*
X123828573Y-42350000D01*
X124328573Y-41278571D01*
X124328573Y-42778571D01*
X125685716Y-42778571D02*
X125685716Y-41992857D01*
X125614287Y-41850000D01*
X125471430Y-41778571D01*
X125185716Y-41778571D01*
X125042859Y-41850000D01*
X125685716Y-42707143D02*
X125542859Y-42778571D01*
X125185716Y-42778571D01*
X125042859Y-42707143D01*
X124971430Y-42564286D01*
X124971430Y-42421429D01*
X125042859Y-42278571D01*
X125185716Y-42207143D01*
X125542859Y-42207143D01*
X125685716Y-42135714D01*
X126328573Y-42707143D02*
X126471430Y-42778571D01*
X126757145Y-42778571D01*
X126900002Y-42707143D01*
X126971430Y-42564286D01*
X126971430Y-42492857D01*
X126900002Y-42350000D01*
X126757145Y-42278571D01*
X126542859Y-42278571D01*
X126400002Y-42207143D01*
X126328573Y-42064286D01*
X126328573Y-41992857D01*
X126400002Y-41850000D01*
X126542859Y-41778571D01*
X126757145Y-41778571D01*
X126900002Y-41850000D01*
X127400002Y-41778571D02*
X127971431Y-41778571D01*
X127614288Y-41278571D02*
X127614288Y-42564286D01*
X127685716Y-42707143D01*
X127828574Y-42778571D01*
X127971431Y-42778571D01*
X129042859Y-42707143D02*
X128900002Y-42778571D01*
X128614288Y-42778571D01*
X128471431Y-42707143D01*
X128400002Y-42564286D01*
X128400002Y-41992857D01*
X128471431Y-41850000D01*
X128614288Y-41778571D01*
X128900002Y-41778571D01*
X129042859Y-41850000D01*
X129114288Y-41992857D01*
X129114288Y-42135714D01*
X128400002Y-42278571D01*
X129757145Y-42778571D02*
X129757145Y-41778571D01*
X129757145Y-42064286D02*
X129828573Y-41921429D01*
X129900002Y-41850000D01*
X130042859Y-41778571D01*
X130185716Y-41778571D01*
X131900001Y-42778571D02*
X132185716Y-42778571D01*
X132328573Y-42707143D01*
X132400001Y-42635714D01*
X132542859Y-42421429D01*
X132614287Y-42135714D01*
X132614287Y-41564286D01*
X132542859Y-41421429D01*
X132471430Y-41350000D01*
X132328573Y-41278571D01*
X132042859Y-41278571D01*
X131900001Y-41350000D01*
X131828573Y-41421429D01*
X131757144Y-41564286D01*
X131757144Y-41921429D01*
X131828573Y-42064286D01*
X131900001Y-42135714D01*
X132042859Y-42207143D01*
X132328573Y-42207143D01*
X132471430Y-42135714D01*
X132542859Y-42064286D01*
X132614287Y-41921429D01*
X133542858Y-41278571D02*
X133685715Y-41278571D01*
X133828572Y-41350000D01*
X133900001Y-41421429D01*
X133971430Y-41564286D01*
X134042858Y-41850000D01*
X134042858Y-42207143D01*
X133971430Y-42492857D01*
X133900001Y-42635714D01*
X133828572Y-42707143D01*
X133685715Y-42778571D01*
X133542858Y-42778571D01*
X133400001Y-42707143D01*
X133328572Y-42635714D01*
X133257144Y-42492857D01*
X133185715Y-42207143D01*
X133185715Y-41850000D01*
X133257144Y-41564286D01*
X133328572Y-41421429D01*
X133400001Y-41350000D01*
X133542858Y-41278571D01*
X134971429Y-41278571D02*
X135114286Y-41278571D01*
X135257143Y-41350000D01*
X135328572Y-41421429D01*
X135400001Y-41564286D01*
X135471429Y-41850000D01*
X135471429Y-42207143D01*
X135400001Y-42492857D01*
X135328572Y-42635714D01*
X135257143Y-42707143D01*
X135114286Y-42778571D01*
X134971429Y-42778571D01*
X134828572Y-42707143D01*
X134757143Y-42635714D01*
X134685715Y-42492857D01*
X134614286Y-42207143D01*
X134614286Y-41850000D01*
X134685715Y-41564286D01*
X134757143Y-41421429D01*
X134828572Y-41350000D01*
X134971429Y-41278571D01*
X136400000Y-41278571D02*
X136542857Y-41278571D01*
X136685714Y-41350000D01*
X136757143Y-41421429D01*
X136828572Y-41564286D01*
X136900000Y-41850000D01*
X136900000Y-42207143D01*
X136828572Y-42492857D01*
X136757143Y-42635714D01*
X136685714Y-42707143D01*
X136542857Y-42778571D01*
X136400000Y-42778571D01*
X136257143Y-42707143D01*
X136185714Y-42635714D01*
X136114286Y-42492857D01*
X136042857Y-42207143D01*
X136042857Y-41850000D01*
X136114286Y-41564286D01*
X136185714Y-41421429D01*
X136257143Y-41350000D01*
X136400000Y-41278571D01*
X138685714Y-42778571D02*
X138685714Y-41278571D01*
X139042857Y-41278571D01*
X139257142Y-41350000D01*
X139400000Y-41492857D01*
X139471428Y-41635714D01*
X139542857Y-41921429D01*
X139542857Y-42135714D01*
X139471428Y-42421429D01*
X139400000Y-42564286D01*
X139257142Y-42707143D01*
X139042857Y-42778571D01*
X138685714Y-42778571D01*
X140185714Y-42778571D02*
X140185714Y-41778571D01*
X140185714Y-41278571D02*
X140114285Y-41350000D01*
X140185714Y-41421429D01*
X140257142Y-41350000D01*
X140185714Y-41278571D01*
X140185714Y-41421429D01*
X140828571Y-42707143D02*
X140971428Y-42778571D01*
X141257143Y-42778571D01*
X141400000Y-42707143D01*
X141471428Y-42564286D01*
X141471428Y-42492857D01*
X141400000Y-42350000D01*
X141257143Y-42278571D01*
X141042857Y-42278571D01*
X140900000Y-42207143D01*
X140828571Y-42064286D01*
X140828571Y-41992857D01*
X140900000Y-41850000D01*
X141042857Y-41778571D01*
X141257143Y-41778571D01*
X141400000Y-41850000D01*
X142114286Y-41778571D02*
X142114286Y-43278571D01*
X142114286Y-41850000D02*
X142257143Y-41778571D01*
X142542857Y-41778571D01*
X142685714Y-41850000D01*
X142757143Y-41921429D01*
X142828572Y-42064286D01*
X142828572Y-42492857D01*
X142757143Y-42635714D01*
X142685714Y-42707143D01*
X142542857Y-42778571D01*
X142257143Y-42778571D01*
X142114286Y-42707143D01*
X143685715Y-42778571D02*
X143542857Y-42707143D01*
X143471429Y-42564286D01*
X143471429Y-41278571D01*
X144900000Y-42778571D02*
X144900000Y-41992857D01*
X144828571Y-41850000D01*
X144685714Y-41778571D01*
X144400000Y-41778571D01*
X144257143Y-41850000D01*
X144900000Y-42707143D02*
X144757143Y-42778571D01*
X144400000Y-42778571D01*
X144257143Y-42707143D01*
X144185714Y-42564286D01*
X144185714Y-42421429D01*
X144257143Y-42278571D01*
X144400000Y-42207143D01*
X144757143Y-42207143D01*
X144900000Y-42135714D01*
X145471429Y-41778571D02*
X145828572Y-42778571D01*
X146185714Y-41778571D02*
X145828572Y-42778571D01*
X145685714Y-43135714D01*
X145614286Y-43207143D01*
X145471429Y-43278571D01*
D12*
X190875000Y-45000000D02*
X190875000Y-46200000D01*
X189125000Y-46200000D02*
X189125000Y-45000000D01*
X201500000Y-69000000D02*
G75*
G03X218500000Y-69000000I8500000J9000000D01*
G01*
X218500000Y-51000000D02*
G75*
G03X201500000Y-51000000I-8500000J-9000000D01*
G01*
X201500000Y-69000000D02*
X201500000Y-51000000D01*
X218500000Y-51000000D02*
X218500000Y-69000000D01*
X203425000Y-86375000D02*
X203675000Y-86375000D01*
X203425000Y-78625000D02*
X203760000Y-78625000D01*
X216575000Y-78625000D02*
X216240000Y-78625000D01*
X216575000Y-86375000D02*
X216240000Y-86375000D01*
X203425000Y-86375000D02*
X203425000Y-78625000D01*
X216575000Y-86375000D02*
X216575000Y-78625000D01*
X203675000Y-86375000D02*
X203675000Y-88175000D01*
X153425000Y-86375000D02*
X153675000Y-86375000D01*
X153425000Y-78625000D02*
X153760000Y-78625000D01*
X166575000Y-78625000D02*
X166240000Y-78625000D01*
X166575000Y-86375000D02*
X166240000Y-86375000D01*
X153425000Y-86375000D02*
X153425000Y-78625000D01*
X166575000Y-86375000D02*
X166575000Y-78625000D01*
X153675000Y-86375000D02*
X153675000Y-88175000D01*
X135600000Y-93375000D02*
X134400000Y-93375000D01*
X134400000Y-91625000D02*
X135600000Y-91625000D01*
X132100000Y-88000000D02*
X132100000Y-87000000D01*
X130400000Y-87000000D02*
X130400000Y-88000000D01*
X133425000Y-86375000D02*
X133675000Y-86375000D01*
X133425000Y-78625000D02*
X133760000Y-78625000D01*
X146575000Y-78625000D02*
X146240000Y-78625000D01*
X146575000Y-86375000D02*
X146240000Y-86375000D01*
X133425000Y-86375000D02*
X133425000Y-78625000D01*
X146575000Y-86375000D02*
X146575000Y-78625000D01*
X133675000Y-86375000D02*
X133675000Y-88175000D01*
X183425000Y-86375000D02*
X183675000Y-86375000D01*
X183425000Y-78625000D02*
X183760000Y-78625000D01*
X196575000Y-78625000D02*
X196240000Y-78625000D01*
X196575000Y-86375000D02*
X196240000Y-86375000D01*
X183425000Y-86375000D02*
X183425000Y-78625000D01*
X196575000Y-86375000D02*
X196575000Y-78625000D01*
X183675000Y-86375000D02*
X183675000Y-88175000D01*
X131500000Y-69000000D02*
G75*
G03X148500000Y-69000000I8500000J9000000D01*
G01*
X148500000Y-51000000D02*
G75*
G03X131500000Y-51000000I-8500000J-9000000D01*
G01*
X131500000Y-69000000D02*
X131500000Y-51000000D01*
X148500000Y-51000000D02*
X148500000Y-69000000D01*
X82100000Y-88000000D02*
X82100000Y-87000000D01*
X80400000Y-87000000D02*
X80400000Y-88000000D01*
X102100000Y-88000000D02*
X102100000Y-87000000D01*
X100400000Y-87000000D02*
X100400000Y-88000000D01*
X152100000Y-87972928D02*
X152100000Y-86972928D01*
X150400000Y-86972928D02*
X150400000Y-87972928D01*
X182100000Y-88000000D02*
X182100000Y-87000000D01*
X180400000Y-87000000D02*
X180400000Y-88000000D01*
X202100000Y-88000000D02*
X202100000Y-87000000D01*
X200400000Y-87000000D02*
X200400000Y-88000000D01*
X89500000Y-63350000D02*
X90500000Y-63350000D01*
X90500000Y-61650000D02*
X89500000Y-61650000D01*
X109500000Y-63350000D02*
X110500000Y-63350000D01*
X110500000Y-61650000D02*
X109500000Y-61650000D01*
X124500000Y-53350000D02*
X125500000Y-53350000D01*
X125500000Y-51650000D02*
X124500000Y-51650000D01*
X124500000Y-70850000D02*
X125500000Y-70850000D01*
X125500000Y-69150000D02*
X124500000Y-69150000D01*
X139500000Y-63350000D02*
X140500000Y-63350000D01*
X140500000Y-61650000D02*
X139500000Y-61650000D01*
X159500000Y-63350000D02*
X160500000Y-63350000D01*
X160500000Y-61650000D02*
X159500000Y-61650000D01*
X174500000Y-53350000D02*
X175500000Y-53350000D01*
X175500000Y-51650000D02*
X174500000Y-51650000D01*
X174500000Y-70850000D02*
X175500000Y-70850000D01*
X175500000Y-69150000D02*
X174500000Y-69150000D01*
X189500000Y-63350000D02*
X190500000Y-63350000D01*
X190500000Y-61650000D02*
X189500000Y-61650000D01*
X209500000Y-63350000D02*
X210500000Y-63350000D01*
X210500000Y-61650000D02*
X209500000Y-61650000D01*
X81500000Y-69000000D02*
G75*
G03X98500000Y-69000000I8500000J9000000D01*
G01*
X98500000Y-51000000D02*
G75*
G03X81500000Y-51000000I-8500000J-9000000D01*
G01*
X81500000Y-69000000D02*
X81500000Y-51000000D01*
X98500000Y-51000000D02*
X98500000Y-69000000D01*
X101500000Y-69000000D02*
G75*
G03X118500000Y-69000000I8500000J9000000D01*
G01*
X118500000Y-51000000D02*
G75*
G03X101500000Y-51000000I-8500000J-9000000D01*
G01*
X101500000Y-69000000D02*
X101500000Y-51000000D01*
X118500000Y-51000000D02*
X118500000Y-69000000D01*
X151500000Y-69000000D02*
G75*
G03X168500000Y-69000000I8500000J9000000D01*
G01*
X168500000Y-51000000D02*
G75*
G03X151500000Y-51000000I-8500000J-9000000D01*
G01*
X151500000Y-69000000D02*
X151500000Y-51000000D01*
X168500000Y-51000000D02*
X168500000Y-69000000D01*
X181500000Y-69000000D02*
G75*
G03X198500000Y-69000000I8500000J9000000D01*
G01*
X198500000Y-51000000D02*
G75*
G03X181500000Y-51000000I-8500000J-9000000D01*
G01*
X181500000Y-69000000D02*
X181500000Y-51000000D01*
X198500000Y-51000000D02*
X198500000Y-69000000D01*
X85600000Y-93375000D02*
X84400000Y-93375000D01*
X84400000Y-91625000D02*
X85600000Y-91625000D01*
X106600000Y-93375000D02*
X105400000Y-93375000D01*
X105400000Y-91625000D02*
X106600000Y-91625000D01*
X155600000Y-93347928D02*
X154400000Y-93347928D01*
X154400000Y-91597928D02*
X155600000Y-91597928D01*
X185600000Y-93375000D02*
X184400000Y-93375000D01*
X184400000Y-91625000D02*
X185600000Y-91625000D01*
X206600000Y-93375000D02*
X205400000Y-93375000D01*
X205400000Y-91625000D02*
X206600000Y-91625000D01*
X76400000Y-53125000D02*
X77600000Y-53125000D01*
X77600000Y-54875000D02*
X76400000Y-54875000D01*
X90875000Y-45000000D02*
X90875000Y-46200000D01*
X89125000Y-46200000D02*
X89125000Y-45000000D01*
X148875000Y-45000000D02*
X148875000Y-46200000D01*
X147125000Y-46200000D02*
X147125000Y-45000000D01*
X118875000Y-45000000D02*
X118875000Y-46200000D01*
X117125000Y-46200000D02*
X117125000Y-45000000D01*
X168875000Y-45000000D02*
X168875000Y-46200000D01*
X167125000Y-46200000D02*
X167125000Y-45000000D01*
X222875000Y-54400000D02*
X222875000Y-55600000D01*
X221125000Y-55600000D02*
X221125000Y-54400000D01*
X83425000Y-86375000D02*
X83675000Y-86375000D01*
X83425000Y-78625000D02*
X83760000Y-78625000D01*
X96575000Y-78625000D02*
X96240000Y-78625000D01*
X96575000Y-86375000D02*
X96240000Y-86375000D01*
X83425000Y-86375000D02*
X83425000Y-78625000D01*
X96575000Y-86375000D02*
X96575000Y-78625000D01*
X83675000Y-86375000D02*
X83675000Y-88175000D01*
X103425000Y-86375000D02*
X103675000Y-86375000D01*
X103425000Y-78625000D02*
X103760000Y-78625000D01*
X116575000Y-78625000D02*
X116240000Y-78625000D01*
X116575000Y-86375000D02*
X116240000Y-86375000D01*
X103425000Y-86375000D02*
X103425000Y-78625000D01*
X116575000Y-86375000D02*
X116575000Y-78625000D01*
X103675000Y-86375000D02*
X103675000Y-88175000D01*
X172800000Y-63300000D02*
X173300000Y-62800000D01*
X172800000Y-62800000D02*
X173300000Y-62800000D01*
X172800000Y-63300000D02*
X172800000Y-62800000D01*
X176750000Y-66750000D02*
X173250000Y-66750000D01*
X176750000Y-63250000D02*
X176750000Y-66750000D01*
X173250000Y-63250000D02*
X176750000Y-63250000D01*
X173250000Y-66750000D02*
X173250000Y-63250000D01*
X172800000Y-55300000D02*
X173300000Y-54800000D01*
X172800000Y-54800000D02*
X173300000Y-54800000D01*
X172800000Y-55300000D02*
X172800000Y-54800000D01*
X176750000Y-58750000D02*
X173250000Y-58750000D01*
X176750000Y-55250000D02*
X176750000Y-58750000D01*
X173250000Y-55250000D02*
X176750000Y-55250000D01*
X173250000Y-58750000D02*
X173250000Y-55250000D01*
X122800000Y-63300000D02*
X123300000Y-62800000D01*
X122800000Y-62800000D02*
X123300000Y-62800000D01*
X122800000Y-63300000D02*
X122800000Y-62800000D01*
X126750000Y-66750000D02*
X123250000Y-66750000D01*
X126750000Y-63250000D02*
X126750000Y-66750000D01*
X123250000Y-63250000D02*
X126750000Y-63250000D01*
X123250000Y-66750000D02*
X123250000Y-63250000D01*
X122800000Y-55300000D02*
X123300000Y-54800000D01*
X122800000Y-54800000D02*
X123300000Y-54800000D01*
X122800000Y-55300000D02*
X122800000Y-54800000D01*
X126750000Y-58750000D02*
X123250000Y-58750000D01*
X126750000Y-55250000D02*
X126750000Y-58750000D01*
X123250000Y-55250000D02*
X126750000Y-55250000D01*
X123250000Y-58750000D02*
X123250000Y-55250000D01*
X207800000Y-57550000D02*
X208300000Y-57050000D01*
X207800000Y-57050000D02*
X208300000Y-57050000D01*
X207800000Y-57550000D02*
X207800000Y-57050000D01*
X211750000Y-61000000D02*
X208250000Y-61000000D01*
X211750000Y-57500000D02*
X211750000Y-61000000D01*
X208250000Y-57500000D02*
X211750000Y-57500000D01*
X208250000Y-61000000D02*
X208250000Y-57500000D01*
X187800000Y-57550000D02*
X188300000Y-57050000D01*
X187800000Y-57050000D02*
X188300000Y-57050000D01*
X187800000Y-57550000D02*
X187800000Y-57050000D01*
X191750000Y-61000000D02*
X188250000Y-61000000D01*
X191750000Y-57500000D02*
X191750000Y-61000000D01*
X188250000Y-57500000D02*
X191750000Y-57500000D01*
X188250000Y-61000000D02*
X188250000Y-57500000D01*
X157800000Y-57550000D02*
X158300000Y-57050000D01*
X157800000Y-57050000D02*
X158300000Y-57050000D01*
X157800000Y-57550000D02*
X157800000Y-57050000D01*
X161750000Y-61000000D02*
X158250000Y-61000000D01*
X161750000Y-57500000D02*
X161750000Y-61000000D01*
X158250000Y-57500000D02*
X161750000Y-57500000D01*
X158250000Y-61000000D02*
X158250000Y-57500000D01*
X137800000Y-57550000D02*
X138300000Y-57050000D01*
X137800000Y-57050000D02*
X138300000Y-57050000D01*
X137800000Y-57550000D02*
X137800000Y-57050000D01*
X141750000Y-61000000D02*
X138250000Y-61000000D01*
X141750000Y-57500000D02*
X141750000Y-61000000D01*
X138250000Y-57500000D02*
X141750000Y-57500000D01*
X138250000Y-61000000D02*
X138250000Y-57500000D01*
X107800000Y-57550000D02*
X108300000Y-57050000D01*
X107800000Y-57050000D02*
X108300000Y-57050000D01*
X107800000Y-57550000D02*
X107800000Y-57050000D01*
X111750000Y-61000000D02*
X108250000Y-61000000D01*
X111750000Y-57500000D02*
X111750000Y-61000000D01*
X108250000Y-57500000D02*
X111750000Y-57500000D01*
X108250000Y-61000000D02*
X108250000Y-57500000D01*
X87800000Y-57550000D02*
X88300000Y-57050000D01*
X87800000Y-57050000D02*
X88300000Y-57050000D01*
X87800000Y-57550000D02*
X87800000Y-57050000D01*
X91750000Y-61000000D02*
X88250000Y-61000000D01*
X91750000Y-57500000D02*
X91750000Y-61000000D01*
X88250000Y-57500000D02*
X91750000Y-57500000D01*
X88250000Y-61000000D02*
X88250000Y-57500000D01*
X186683143Y-46045381D02*
X186349809Y-45569190D01*
X186111714Y-46045381D02*
X186111714Y-45045381D01*
X186492667Y-45045381D01*
X186587905Y-45093000D01*
X186635524Y-45140619D01*
X186683143Y-45235857D01*
X186683143Y-45378714D01*
X186635524Y-45473952D01*
X186587905Y-45521571D01*
X186492667Y-45569190D01*
X186111714Y-45569190D01*
X187635524Y-46045381D02*
X187064095Y-46045381D01*
X187349809Y-46045381D02*
X187349809Y-45045381D01*
X187254571Y-45188238D01*
X187159333Y-45283476D01*
X187064095Y-45331095D01*
X188016476Y-45140619D02*
X188064095Y-45093000D01*
X188159333Y-45045381D01*
X188397429Y-45045381D01*
X188492667Y-45093000D01*
X188540286Y-45140619D01*
X188587905Y-45235857D01*
X188587905Y-45331095D01*
X188540286Y-45473952D01*
X187968857Y-46045381D01*
X188587905Y-46045381D01*
X201738095Y-73316381D02*
X201738095Y-72316381D01*
X202309524Y-73316381D01*
X202309524Y-72316381D01*
X203214286Y-72316381D02*
X203023809Y-72316381D01*
X202928571Y-72364000D01*
X202880952Y-72411619D01*
X202785714Y-72554476D01*
X202738095Y-72744952D01*
X202738095Y-73125905D01*
X202785714Y-73221143D01*
X202833333Y-73268762D01*
X202928571Y-73316381D01*
X203119048Y-73316381D01*
X203214286Y-73268762D01*
X203261905Y-73221143D01*
X203309524Y-73125905D01*
X203309524Y-72887810D01*
X203261905Y-72792571D01*
X203214286Y-72744952D01*
X203119048Y-72697333D01*
X202928571Y-72697333D01*
X202833333Y-72744952D01*
X202785714Y-72792571D01*
X202738095Y-72887810D01*
X201358595Y-81952381D02*
X201358595Y-82761905D01*
X201406214Y-82857143D01*
X201453833Y-82904762D01*
X201549071Y-82952381D01*
X201739548Y-82952381D01*
X201834786Y-82904762D01*
X201882405Y-82857143D01*
X201930024Y-82761905D01*
X201930024Y-81952381D01*
X202834786Y-81952381D02*
X202644309Y-81952381D01*
X202549071Y-82000000D01*
X202501452Y-82047619D01*
X202406214Y-82190476D01*
X202358595Y-82380952D01*
X202358595Y-82761905D01*
X202406214Y-82857143D01*
X202453833Y-82904762D01*
X202549071Y-82952381D01*
X202739548Y-82952381D01*
X202834786Y-82904762D01*
X202882405Y-82857143D01*
X202930024Y-82761905D01*
X202930024Y-82523810D01*
X202882405Y-82428571D01*
X202834786Y-82380952D01*
X202739548Y-82333333D01*
X202549071Y-82333333D01*
X202453833Y-82380952D01*
X202406214Y-82428571D01*
X202358595Y-82523810D01*
X151511095Y-81952381D02*
X151511095Y-82761905D01*
X151558714Y-82857143D01*
X151606333Y-82904762D01*
X151701571Y-82952381D01*
X151892048Y-82952381D01*
X151987286Y-82904762D01*
X152034905Y-82857143D01*
X152082524Y-82761905D01*
X152082524Y-81952381D01*
X152987286Y-82285714D02*
X152987286Y-82952381D01*
X152749190Y-81904762D02*
X152511095Y-82619048D01*
X153130143Y-82619048D01*
X131341834Y-93035381D02*
X131008500Y-92559190D01*
X130770405Y-93035381D02*
X130770405Y-92035381D01*
X131151358Y-92035381D01*
X131246596Y-92083000D01*
X131294215Y-92130619D01*
X131341834Y-92225857D01*
X131341834Y-92368714D01*
X131294215Y-92463952D01*
X131246596Y-92511571D01*
X131151358Y-92559190D01*
X130770405Y-92559190D01*
X131675167Y-92035381D02*
X132294215Y-92035381D01*
X131960881Y-92416333D01*
X132103739Y-92416333D01*
X132198977Y-92463952D01*
X132246596Y-92511571D01*
X132294215Y-92606810D01*
X132294215Y-92844905D01*
X132246596Y-92940143D01*
X132198977Y-92987762D01*
X132103739Y-93035381D01*
X131818024Y-93035381D01*
X131722786Y-92987762D01*
X131675167Y-92940143D01*
X128928834Y-87860143D02*
X128881215Y-87907762D01*
X128738358Y-87955381D01*
X128643120Y-87955381D01*
X128500262Y-87907762D01*
X128405024Y-87812524D01*
X128357405Y-87717286D01*
X128309786Y-87526810D01*
X128309786Y-87383952D01*
X128357405Y-87193476D01*
X128405024Y-87098238D01*
X128500262Y-87003000D01*
X128643120Y-86955381D01*
X128738358Y-86955381D01*
X128881215Y-87003000D01*
X128928834Y-87050619D01*
X129262167Y-86955381D02*
X129881215Y-86955381D01*
X129547881Y-87336333D01*
X129690739Y-87336333D01*
X129785977Y-87383952D01*
X129833596Y-87431571D01*
X129881215Y-87526810D01*
X129881215Y-87764905D01*
X129833596Y-87860143D01*
X129785977Y-87907762D01*
X129690739Y-87955381D01*
X129405024Y-87955381D01*
X129309786Y-87907762D01*
X129262167Y-87860143D01*
X131381595Y-81952381D02*
X131381595Y-82761905D01*
X131429214Y-82857143D01*
X131476833Y-82904762D01*
X131572071Y-82952381D01*
X131762548Y-82952381D01*
X131857786Y-82904762D01*
X131905405Y-82857143D01*
X131953024Y-82761905D01*
X131953024Y-81952381D01*
X132333976Y-81952381D02*
X132953024Y-81952381D01*
X132619690Y-82333333D01*
X132762548Y-82333333D01*
X132857786Y-82380952D01*
X132905405Y-82428571D01*
X132953024Y-82523810D01*
X132953024Y-82761905D01*
X132905405Y-82857143D01*
X132857786Y-82904762D01*
X132762548Y-82952381D01*
X132476833Y-82952381D01*
X132381595Y-82904762D01*
X132333976Y-82857143D01*
X181419595Y-82002381D02*
X181419595Y-82811905D01*
X181467214Y-82907143D01*
X181514833Y-82954762D01*
X181610071Y-83002381D01*
X181800548Y-83002381D01*
X181895786Y-82954762D01*
X181943405Y-82907143D01*
X181991024Y-82811905D01*
X181991024Y-82002381D01*
X182943405Y-82002381D02*
X182467214Y-82002381D01*
X182419595Y-82478571D01*
X182467214Y-82430952D01*
X182562452Y-82383333D01*
X182800548Y-82383333D01*
X182895786Y-82430952D01*
X182943405Y-82478571D01*
X182991024Y-82573810D01*
X182991024Y-82811905D01*
X182943405Y-82907143D01*
X182895786Y-82954762D01*
X182800548Y-83002381D01*
X182562452Y-83002381D01*
X182467214Y-82954762D01*
X182419595Y-82907143D01*
X131738095Y-73316381D02*
X131738095Y-72316381D01*
X132309524Y-73316381D01*
X132309524Y-72316381D01*
X132690476Y-72316381D02*
X133309524Y-72316381D01*
X132976190Y-72697333D01*
X133119048Y-72697333D01*
X133214286Y-72744952D01*
X133261905Y-72792571D01*
X133309524Y-72887810D01*
X133309524Y-73125905D01*
X133261905Y-73221143D01*
X133214286Y-73268762D01*
X133119048Y-73316381D01*
X132833333Y-73316381D01*
X132738095Y-73268762D01*
X132690476Y-73221143D01*
X78833334Y-87796643D02*
X78785715Y-87844262D01*
X78642858Y-87891881D01*
X78547620Y-87891881D01*
X78404762Y-87844262D01*
X78309524Y-87749024D01*
X78261905Y-87653786D01*
X78214286Y-87463310D01*
X78214286Y-87320452D01*
X78261905Y-87129976D01*
X78309524Y-87034738D01*
X78404762Y-86939500D01*
X78547620Y-86891881D01*
X78642858Y-86891881D01*
X78785715Y-86939500D01*
X78833334Y-86987119D01*
X79785715Y-87891881D02*
X79214286Y-87891881D01*
X79500000Y-87891881D02*
X79500000Y-86891881D01*
X79404762Y-87034738D01*
X79309524Y-87129976D01*
X79214286Y-87177595D01*
X99083834Y-87860143D02*
X99036215Y-87907762D01*
X98893358Y-87955381D01*
X98798120Y-87955381D01*
X98655262Y-87907762D01*
X98560024Y-87812524D01*
X98512405Y-87717286D01*
X98464786Y-87526810D01*
X98464786Y-87383952D01*
X98512405Y-87193476D01*
X98560024Y-87098238D01*
X98655262Y-87003000D01*
X98798120Y-86955381D01*
X98893358Y-86955381D01*
X99036215Y-87003000D01*
X99083834Y-87050619D01*
X99464786Y-87050619D02*
X99512405Y-87003000D01*
X99607643Y-86955381D01*
X99845739Y-86955381D01*
X99940977Y-87003000D01*
X99988596Y-87050619D01*
X100036215Y-87145857D01*
X100036215Y-87241095D01*
X99988596Y-87383952D01*
X99417167Y-87955381D01*
X100036215Y-87955381D01*
X148931334Y-87830071D02*
X148883715Y-87877690D01*
X148740858Y-87925309D01*
X148645620Y-87925309D01*
X148502762Y-87877690D01*
X148407524Y-87782452D01*
X148359905Y-87687214D01*
X148312286Y-87496738D01*
X148312286Y-87353880D01*
X148359905Y-87163404D01*
X148407524Y-87068166D01*
X148502762Y-86972928D01*
X148645620Y-86925309D01*
X148740858Y-86925309D01*
X148883715Y-86972928D01*
X148931334Y-87020547D01*
X149788477Y-87258642D02*
X149788477Y-87925309D01*
X149550381Y-86877690D02*
X149312286Y-87591976D01*
X149931334Y-87591976D01*
X179030334Y-88050643D02*
X178982715Y-88098262D01*
X178839858Y-88145881D01*
X178744620Y-88145881D01*
X178601762Y-88098262D01*
X178506524Y-88003024D01*
X178458905Y-87907786D01*
X178411286Y-87717310D01*
X178411286Y-87574452D01*
X178458905Y-87383976D01*
X178506524Y-87288738D01*
X178601762Y-87193500D01*
X178744620Y-87145881D01*
X178839858Y-87145881D01*
X178982715Y-87193500D01*
X179030334Y-87241119D01*
X179935096Y-87145881D02*
X179458905Y-87145881D01*
X179411286Y-87622071D01*
X179458905Y-87574452D01*
X179554143Y-87526833D01*
X179792239Y-87526833D01*
X179887477Y-87574452D01*
X179935096Y-87622071D01*
X179982715Y-87717310D01*
X179982715Y-87955405D01*
X179935096Y-88050643D01*
X179887477Y-88098262D01*
X179792239Y-88145881D01*
X179554143Y-88145881D01*
X179458905Y-88098262D01*
X179411286Y-88050643D01*
X199032834Y-88177643D02*
X198985215Y-88225262D01*
X198842358Y-88272881D01*
X198747120Y-88272881D01*
X198604262Y-88225262D01*
X198509024Y-88130024D01*
X198461405Y-88034786D01*
X198413786Y-87844310D01*
X198413786Y-87701452D01*
X198461405Y-87510976D01*
X198509024Y-87415738D01*
X198604262Y-87320500D01*
X198747120Y-87272881D01*
X198842358Y-87272881D01*
X198985215Y-87320500D01*
X199032834Y-87368119D01*
X199889977Y-87272881D02*
X199699500Y-87272881D01*
X199604262Y-87320500D01*
X199556643Y-87368119D01*
X199461405Y-87510976D01*
X199413786Y-87701452D01*
X199413786Y-88082405D01*
X199461405Y-88177643D01*
X199509024Y-88225262D01*
X199604262Y-88272881D01*
X199794739Y-88272881D01*
X199889977Y-88225262D01*
X199937596Y-88177643D01*
X199985215Y-88082405D01*
X199985215Y-87844310D01*
X199937596Y-87749071D01*
X199889977Y-87701452D01*
X199794739Y-87653833D01*
X199604262Y-87653833D01*
X199509024Y-87701452D01*
X199461405Y-87749071D01*
X199413786Y-87844310D01*
X86566667Y-62785714D02*
X86528572Y-62823810D01*
X86414286Y-62861905D01*
X86338096Y-62861905D01*
X86223810Y-62823810D01*
X86147619Y-62747619D01*
X86109524Y-62671429D01*
X86071429Y-62519048D01*
X86071429Y-62404762D01*
X86109524Y-62252381D01*
X86147619Y-62176190D01*
X86223810Y-62100000D01*
X86338096Y-62061905D01*
X86414286Y-62061905D01*
X86528572Y-62100000D01*
X86566667Y-62138095D01*
X86833334Y-62061905D02*
X87366667Y-62061905D01*
X87023810Y-62861905D01*
X106366667Y-62785714D02*
X106328572Y-62823810D01*
X106214286Y-62861905D01*
X106138096Y-62861905D01*
X106023810Y-62823810D01*
X105947619Y-62747619D01*
X105909524Y-62671429D01*
X105871429Y-62519048D01*
X105871429Y-62404762D01*
X105909524Y-62252381D01*
X105947619Y-62176190D01*
X106023810Y-62100000D01*
X106138096Y-62061905D01*
X106214286Y-62061905D01*
X106328572Y-62100000D01*
X106366667Y-62138095D01*
X106823810Y-62404762D02*
X106747619Y-62366667D01*
X106709524Y-62328571D01*
X106671429Y-62252381D01*
X106671429Y-62214286D01*
X106709524Y-62138095D01*
X106747619Y-62100000D01*
X106823810Y-62061905D01*
X106976191Y-62061905D01*
X107052381Y-62100000D01*
X107090477Y-62138095D01*
X107128572Y-62214286D01*
X107128572Y-62252381D01*
X107090477Y-62328571D01*
X107052381Y-62366667D01*
X106976191Y-62404762D01*
X106823810Y-62404762D01*
X106747619Y-62442857D01*
X106709524Y-62480952D01*
X106671429Y-62557143D01*
X106671429Y-62709524D01*
X106709524Y-62785714D01*
X106747619Y-62823810D01*
X106823810Y-62861905D01*
X106976191Y-62861905D01*
X107052381Y-62823810D01*
X107090477Y-62785714D01*
X107128572Y-62709524D01*
X107128572Y-62557143D01*
X107090477Y-62480952D01*
X107052381Y-62442857D01*
X106976191Y-62404762D01*
X124766667Y-50885714D02*
X124728572Y-50923810D01*
X124614286Y-50961905D01*
X124538096Y-50961905D01*
X124423810Y-50923810D01*
X124347619Y-50847619D01*
X124309524Y-50771429D01*
X124271429Y-50619048D01*
X124271429Y-50504762D01*
X124309524Y-50352381D01*
X124347619Y-50276190D01*
X124423810Y-50200000D01*
X124538096Y-50161905D01*
X124614286Y-50161905D01*
X124728572Y-50200000D01*
X124766667Y-50238095D01*
X125147619Y-50961905D02*
X125300000Y-50961905D01*
X125376191Y-50923810D01*
X125414286Y-50885714D01*
X125490477Y-50771429D01*
X125528572Y-50619048D01*
X125528572Y-50314286D01*
X125490477Y-50238095D01*
X125452381Y-50200000D01*
X125376191Y-50161905D01*
X125223810Y-50161905D01*
X125147619Y-50200000D01*
X125109524Y-50238095D01*
X125071429Y-50314286D01*
X125071429Y-50504762D01*
X125109524Y-50580952D01*
X125147619Y-50619048D01*
X125223810Y-50657143D01*
X125376191Y-50657143D01*
X125452381Y-50619048D01*
X125490477Y-50580952D01*
X125528572Y-50504762D01*
X125485714Y-72185714D02*
X125447619Y-72223810D01*
X125333333Y-72261905D01*
X125257143Y-72261905D01*
X125142857Y-72223810D01*
X125066666Y-72147619D01*
X125028571Y-72071429D01*
X124990476Y-71919048D01*
X124990476Y-71804762D01*
X125028571Y-71652381D01*
X125066666Y-71576190D01*
X125142857Y-71500000D01*
X125257143Y-71461905D01*
X125333333Y-71461905D01*
X125447619Y-71500000D01*
X125485714Y-71538095D01*
X126247619Y-72261905D02*
X125790476Y-72261905D01*
X126019047Y-72261905D02*
X126019047Y-71461905D01*
X125942857Y-71576190D01*
X125866666Y-71652381D01*
X125790476Y-71690476D01*
X126742857Y-71461905D02*
X126819048Y-71461905D01*
X126895238Y-71500000D01*
X126933333Y-71538095D01*
X126971429Y-71614286D01*
X127009524Y-71766667D01*
X127009524Y-71957143D01*
X126971429Y-72109524D01*
X126933333Y-72185714D01*
X126895238Y-72223810D01*
X126819048Y-72261905D01*
X126742857Y-72261905D01*
X126666667Y-72223810D01*
X126628571Y-72185714D01*
X126590476Y-72109524D01*
X126552381Y-71957143D01*
X126552381Y-71766667D01*
X126590476Y-71614286D01*
X126628571Y-71538095D01*
X126666667Y-71500000D01*
X126742857Y-71461905D01*
X135685714Y-62685714D02*
X135647619Y-62723810D01*
X135533333Y-62761905D01*
X135457143Y-62761905D01*
X135342857Y-62723810D01*
X135266666Y-62647619D01*
X135228571Y-62571429D01*
X135190476Y-62419048D01*
X135190476Y-62304762D01*
X135228571Y-62152381D01*
X135266666Y-62076190D01*
X135342857Y-62000000D01*
X135457143Y-61961905D01*
X135533333Y-61961905D01*
X135647619Y-62000000D01*
X135685714Y-62038095D01*
X136447619Y-62761905D02*
X135990476Y-62761905D01*
X136219047Y-62761905D02*
X136219047Y-61961905D01*
X136142857Y-62076190D01*
X136066666Y-62152381D01*
X135990476Y-62190476D01*
X137209524Y-62761905D02*
X136752381Y-62761905D01*
X136980952Y-62761905D02*
X136980952Y-61961905D01*
X136904762Y-62076190D01*
X136828571Y-62152381D01*
X136752381Y-62190476D01*
X155685714Y-62685714D02*
X155647619Y-62723810D01*
X155533333Y-62761905D01*
X155457143Y-62761905D01*
X155342857Y-62723810D01*
X155266666Y-62647619D01*
X155228571Y-62571429D01*
X155190476Y-62419048D01*
X155190476Y-62304762D01*
X155228571Y-62152381D01*
X155266666Y-62076190D01*
X155342857Y-62000000D01*
X155457143Y-61961905D01*
X155533333Y-61961905D01*
X155647619Y-62000000D01*
X155685714Y-62038095D01*
X156447619Y-62761905D02*
X155990476Y-62761905D01*
X156219047Y-62761905D02*
X156219047Y-61961905D01*
X156142857Y-62076190D01*
X156066666Y-62152381D01*
X155990476Y-62190476D01*
X156752381Y-62038095D02*
X156790476Y-62000000D01*
X156866667Y-61961905D01*
X157057143Y-61961905D01*
X157133333Y-62000000D01*
X157171429Y-62038095D01*
X157209524Y-62114286D01*
X157209524Y-62190476D01*
X157171429Y-62304762D01*
X156714286Y-62761905D01*
X157209524Y-62761905D01*
X174385714Y-50885714D02*
X174347619Y-50923810D01*
X174233333Y-50961905D01*
X174157143Y-50961905D01*
X174042857Y-50923810D01*
X173966666Y-50847619D01*
X173928571Y-50771429D01*
X173890476Y-50619048D01*
X173890476Y-50504762D01*
X173928571Y-50352381D01*
X173966666Y-50276190D01*
X174042857Y-50200000D01*
X174157143Y-50161905D01*
X174233333Y-50161905D01*
X174347619Y-50200000D01*
X174385714Y-50238095D01*
X175147619Y-50961905D02*
X174690476Y-50961905D01*
X174919047Y-50961905D02*
X174919047Y-50161905D01*
X174842857Y-50276190D01*
X174766666Y-50352381D01*
X174690476Y-50390476D01*
X175414286Y-50161905D02*
X175909524Y-50161905D01*
X175642857Y-50466667D01*
X175757143Y-50466667D01*
X175833333Y-50504762D01*
X175871429Y-50542857D01*
X175909524Y-50619048D01*
X175909524Y-50809524D01*
X175871429Y-50885714D01*
X175833333Y-50923810D01*
X175757143Y-50961905D01*
X175528571Y-50961905D01*
X175452381Y-50923810D01*
X175414286Y-50885714D01*
X175185714Y-72185714D02*
X175147619Y-72223810D01*
X175033333Y-72261905D01*
X174957143Y-72261905D01*
X174842857Y-72223810D01*
X174766666Y-72147619D01*
X174728571Y-72071429D01*
X174690476Y-71919048D01*
X174690476Y-71804762D01*
X174728571Y-71652381D01*
X174766666Y-71576190D01*
X174842857Y-71500000D01*
X174957143Y-71461905D01*
X175033333Y-71461905D01*
X175147619Y-71500000D01*
X175185714Y-71538095D01*
X175947619Y-72261905D02*
X175490476Y-72261905D01*
X175719047Y-72261905D02*
X175719047Y-71461905D01*
X175642857Y-71576190D01*
X175566666Y-71652381D01*
X175490476Y-71690476D01*
X176633333Y-71728571D02*
X176633333Y-72261905D01*
X176442857Y-71423810D02*
X176252381Y-71995238D01*
X176747619Y-71995238D01*
X185785714Y-62785714D02*
X185747619Y-62823810D01*
X185633333Y-62861905D01*
X185557143Y-62861905D01*
X185442857Y-62823810D01*
X185366666Y-62747619D01*
X185328571Y-62671429D01*
X185290476Y-62519048D01*
X185290476Y-62404762D01*
X185328571Y-62252381D01*
X185366666Y-62176190D01*
X185442857Y-62100000D01*
X185557143Y-62061905D01*
X185633333Y-62061905D01*
X185747619Y-62100000D01*
X185785714Y-62138095D01*
X186547619Y-62861905D02*
X186090476Y-62861905D01*
X186319047Y-62861905D02*
X186319047Y-62061905D01*
X186242857Y-62176190D01*
X186166666Y-62252381D01*
X186090476Y-62290476D01*
X187271429Y-62061905D02*
X186890476Y-62061905D01*
X186852381Y-62442857D01*
X186890476Y-62404762D01*
X186966667Y-62366667D01*
X187157143Y-62366667D01*
X187233333Y-62404762D01*
X187271429Y-62442857D01*
X187309524Y-62519048D01*
X187309524Y-62709524D01*
X187271429Y-62785714D01*
X187233333Y-62823810D01*
X187157143Y-62861905D01*
X186966667Y-62861905D01*
X186890476Y-62823810D01*
X186852381Y-62785714D01*
X205685714Y-62785714D02*
X205647619Y-62823810D01*
X205533333Y-62861905D01*
X205457143Y-62861905D01*
X205342857Y-62823810D01*
X205266666Y-62747619D01*
X205228571Y-62671429D01*
X205190476Y-62519048D01*
X205190476Y-62404762D01*
X205228571Y-62252381D01*
X205266666Y-62176190D01*
X205342857Y-62100000D01*
X205457143Y-62061905D01*
X205533333Y-62061905D01*
X205647619Y-62100000D01*
X205685714Y-62138095D01*
X206447619Y-62861905D02*
X205990476Y-62861905D01*
X206219047Y-62861905D02*
X206219047Y-62061905D01*
X206142857Y-62176190D01*
X206066666Y-62252381D01*
X205990476Y-62290476D01*
X207133333Y-62061905D02*
X206980952Y-62061905D01*
X206904762Y-62100000D01*
X206866667Y-62138095D01*
X206790476Y-62252381D01*
X206752381Y-62404762D01*
X206752381Y-62709524D01*
X206790476Y-62785714D01*
X206828571Y-62823810D01*
X206904762Y-62861905D01*
X207057143Y-62861905D01*
X207133333Y-62823810D01*
X207171429Y-62785714D01*
X207209524Y-62709524D01*
X207209524Y-62519048D01*
X207171429Y-62442857D01*
X207133333Y-62404762D01*
X207057143Y-62366667D01*
X206904762Y-62366667D01*
X206828571Y-62404762D01*
X206790476Y-62442857D01*
X206752381Y-62519048D01*
X81738095Y-73316381D02*
X81738095Y-72316381D01*
X82309524Y-73316381D01*
X82309524Y-72316381D01*
X83309524Y-73316381D02*
X82738095Y-73316381D01*
X83023809Y-73316381D02*
X83023809Y-72316381D01*
X82928571Y-72459238D01*
X82833333Y-72554476D01*
X82738095Y-72602095D01*
X101738095Y-73316381D02*
X101738095Y-72316381D01*
X102309524Y-73316381D01*
X102309524Y-72316381D01*
X102738095Y-72411619D02*
X102785714Y-72364000D01*
X102880952Y-72316381D01*
X103119048Y-72316381D01*
X103214286Y-72364000D01*
X103261905Y-72411619D01*
X103309524Y-72506857D01*
X103309524Y-72602095D01*
X103261905Y-72744952D01*
X102690476Y-73316381D01*
X103309524Y-73316381D01*
X151738095Y-73316381D02*
X151738095Y-72316381D01*
X152309524Y-73316381D01*
X152309524Y-72316381D01*
X153214286Y-72649714D02*
X153214286Y-73316381D01*
X152976190Y-72268762D02*
X152738095Y-72983048D01*
X153357143Y-72983048D01*
X181738095Y-73316381D02*
X181738095Y-72316381D01*
X182309524Y-73316381D01*
X182309524Y-72316381D01*
X183261905Y-72316381D02*
X182785714Y-72316381D01*
X182738095Y-72792571D01*
X182785714Y-72744952D01*
X182880952Y-72697333D01*
X183119048Y-72697333D01*
X183214286Y-72744952D01*
X183261905Y-72792571D01*
X183309524Y-72887810D01*
X183309524Y-73125905D01*
X183261905Y-73221143D01*
X183214286Y-73268762D01*
X183119048Y-73316381D01*
X182880952Y-73316381D01*
X182785714Y-73268762D01*
X182738095Y-73221143D01*
X81133334Y-93052381D02*
X80800000Y-92576190D01*
X80561905Y-93052381D02*
X80561905Y-92052381D01*
X80942858Y-92052381D01*
X81038096Y-92100000D01*
X81085715Y-92147619D01*
X81133334Y-92242857D01*
X81133334Y-92385714D01*
X81085715Y-92480952D01*
X81038096Y-92528571D01*
X80942858Y-92576190D01*
X80561905Y-92576190D01*
X82085715Y-93052381D02*
X81514286Y-93052381D01*
X81800000Y-93052381D02*
X81800000Y-92052381D01*
X81704762Y-92195238D01*
X81609524Y-92290476D01*
X81514286Y-92338095D01*
X102133334Y-93052381D02*
X101800000Y-92576190D01*
X101561905Y-93052381D02*
X101561905Y-92052381D01*
X101942858Y-92052381D01*
X102038096Y-92100000D01*
X102085715Y-92147619D01*
X102133334Y-92242857D01*
X102133334Y-92385714D01*
X102085715Y-92480952D01*
X102038096Y-92528571D01*
X101942858Y-92576190D01*
X101561905Y-92576190D01*
X102514286Y-92147619D02*
X102561905Y-92100000D01*
X102657143Y-92052381D01*
X102895239Y-92052381D01*
X102990477Y-92100000D01*
X103038096Y-92147619D01*
X103085715Y-92242857D01*
X103085715Y-92338095D01*
X103038096Y-92480952D01*
X102466667Y-93052381D01*
X103085715Y-93052381D01*
X151280834Y-92908381D02*
X150947500Y-92432190D01*
X150709405Y-92908381D02*
X150709405Y-91908381D01*
X151090358Y-91908381D01*
X151185596Y-91956000D01*
X151233215Y-92003619D01*
X151280834Y-92098857D01*
X151280834Y-92241714D01*
X151233215Y-92336952D01*
X151185596Y-92384571D01*
X151090358Y-92432190D01*
X150709405Y-92432190D01*
X152137977Y-92241714D02*
X152137977Y-92908381D01*
X151899881Y-91860762D02*
X151661786Y-92575048D01*
X152280834Y-92575048D01*
X181443334Y-92971881D02*
X181110000Y-92495690D01*
X180871905Y-92971881D02*
X180871905Y-91971881D01*
X181252858Y-91971881D01*
X181348096Y-92019500D01*
X181395715Y-92067119D01*
X181443334Y-92162357D01*
X181443334Y-92305214D01*
X181395715Y-92400452D01*
X181348096Y-92448071D01*
X181252858Y-92495690D01*
X180871905Y-92495690D01*
X182348096Y-91971881D02*
X181871905Y-91971881D01*
X181824286Y-92448071D01*
X181871905Y-92400452D01*
X181967143Y-92352833D01*
X182205239Y-92352833D01*
X182300477Y-92400452D01*
X182348096Y-92448071D01*
X182395715Y-92543310D01*
X182395715Y-92781405D01*
X182348096Y-92876643D01*
X182300477Y-92924262D01*
X182205239Y-92971881D01*
X181967143Y-92971881D01*
X181871905Y-92924262D01*
X181824286Y-92876643D01*
X202382334Y-92952381D02*
X202049000Y-92476190D01*
X201810905Y-92952381D02*
X201810905Y-91952381D01*
X202191858Y-91952381D01*
X202287096Y-92000000D01*
X202334715Y-92047619D01*
X202382334Y-92142857D01*
X202382334Y-92285714D01*
X202334715Y-92380952D01*
X202287096Y-92428571D01*
X202191858Y-92476190D01*
X201810905Y-92476190D01*
X203239477Y-91952381D02*
X203049000Y-91952381D01*
X202953762Y-92000000D01*
X202906143Y-92047619D01*
X202810905Y-92190476D01*
X202763286Y-92380952D01*
X202763286Y-92761905D01*
X202810905Y-92857143D01*
X202858524Y-92904762D01*
X202953762Y-92952381D01*
X203144239Y-92952381D01*
X203239477Y-92904762D01*
X203287096Y-92857143D01*
X203334715Y-92761905D01*
X203334715Y-92523810D01*
X203287096Y-92428571D01*
X203239477Y-92380952D01*
X203144239Y-92333333D01*
X202953762Y-92333333D01*
X202858524Y-92380952D01*
X202810905Y-92428571D01*
X202763286Y-92523810D01*
X76833334Y-52702381D02*
X76500000Y-52226190D01*
X76261905Y-52702381D02*
X76261905Y-51702381D01*
X76642858Y-51702381D01*
X76738096Y-51750000D01*
X76785715Y-51797619D01*
X76833334Y-51892857D01*
X76833334Y-52035714D01*
X76785715Y-52130952D01*
X76738096Y-52178571D01*
X76642858Y-52226190D01*
X76261905Y-52226190D01*
X77166667Y-51702381D02*
X77833334Y-51702381D01*
X77404762Y-52702381D01*
X87733334Y-46052381D02*
X87400000Y-45576190D01*
X87161905Y-46052381D02*
X87161905Y-45052381D01*
X87542858Y-45052381D01*
X87638096Y-45100000D01*
X87685715Y-45147619D01*
X87733334Y-45242857D01*
X87733334Y-45385714D01*
X87685715Y-45480952D01*
X87638096Y-45528571D01*
X87542858Y-45576190D01*
X87161905Y-45576190D01*
X88304762Y-45480952D02*
X88209524Y-45433333D01*
X88161905Y-45385714D01*
X88114286Y-45290476D01*
X88114286Y-45242857D01*
X88161905Y-45147619D01*
X88209524Y-45100000D01*
X88304762Y-45052381D01*
X88495239Y-45052381D01*
X88590477Y-45100000D01*
X88638096Y-45147619D01*
X88685715Y-45242857D01*
X88685715Y-45290476D01*
X88638096Y-45385714D01*
X88590477Y-45433333D01*
X88495239Y-45480952D01*
X88304762Y-45480952D01*
X88209524Y-45528571D01*
X88161905Y-45576190D01*
X88114286Y-45671429D01*
X88114286Y-45861905D01*
X88161905Y-45957143D01*
X88209524Y-46004762D01*
X88304762Y-46052381D01*
X88495239Y-46052381D01*
X88590477Y-46004762D01*
X88638096Y-45957143D01*
X88685715Y-45861905D01*
X88685715Y-45671429D01*
X88638096Y-45576190D01*
X88590477Y-45528571D01*
X88495239Y-45480952D01*
X144557143Y-46152381D02*
X144223809Y-45676190D01*
X143985714Y-46152381D02*
X143985714Y-45152381D01*
X144366667Y-45152381D01*
X144461905Y-45200000D01*
X144509524Y-45247619D01*
X144557143Y-45342857D01*
X144557143Y-45485714D01*
X144509524Y-45580952D01*
X144461905Y-45628571D01*
X144366667Y-45676190D01*
X143985714Y-45676190D01*
X145509524Y-46152381D02*
X144938095Y-46152381D01*
X145223809Y-46152381D02*
X145223809Y-45152381D01*
X145128571Y-45295238D01*
X145033333Y-45390476D01*
X144938095Y-45438095D01*
X146128571Y-45152381D02*
X146223810Y-45152381D01*
X146319048Y-45200000D01*
X146366667Y-45247619D01*
X146414286Y-45342857D01*
X146461905Y-45533333D01*
X146461905Y-45771429D01*
X146414286Y-45961905D01*
X146366667Y-46057143D01*
X146319048Y-46104762D01*
X146223810Y-46152381D01*
X146128571Y-46152381D01*
X146033333Y-46104762D01*
X145985714Y-46057143D01*
X145938095Y-45961905D01*
X145890476Y-45771429D01*
X145890476Y-45533333D01*
X145938095Y-45342857D01*
X145985714Y-45247619D01*
X146033333Y-45200000D01*
X146128571Y-45152381D01*
X115276334Y-46108881D02*
X114943000Y-45632690D01*
X114704905Y-46108881D02*
X114704905Y-45108881D01*
X115085858Y-45108881D01*
X115181096Y-45156500D01*
X115228715Y-45204119D01*
X115276334Y-45299357D01*
X115276334Y-45442214D01*
X115228715Y-45537452D01*
X115181096Y-45585071D01*
X115085858Y-45632690D01*
X114704905Y-45632690D01*
X115752524Y-46108881D02*
X115943000Y-46108881D01*
X116038239Y-46061262D01*
X116085858Y-46013643D01*
X116181096Y-45870786D01*
X116228715Y-45680310D01*
X116228715Y-45299357D01*
X116181096Y-45204119D01*
X116133477Y-45156500D01*
X116038239Y-45108881D01*
X115847762Y-45108881D01*
X115752524Y-45156500D01*
X115704905Y-45204119D01*
X115657286Y-45299357D01*
X115657286Y-45537452D01*
X115704905Y-45632690D01*
X115752524Y-45680310D01*
X115847762Y-45727929D01*
X116038239Y-45727929D01*
X116133477Y-45680310D01*
X116181096Y-45632690D01*
X116228715Y-45537452D01*
X164774643Y-46108881D02*
X164441309Y-45632690D01*
X164203214Y-46108881D02*
X164203214Y-45108881D01*
X164584167Y-45108881D01*
X164679405Y-45156500D01*
X164727024Y-45204119D01*
X164774643Y-45299357D01*
X164774643Y-45442214D01*
X164727024Y-45537452D01*
X164679405Y-45585071D01*
X164584167Y-45632690D01*
X164203214Y-45632690D01*
X165727024Y-46108881D02*
X165155595Y-46108881D01*
X165441309Y-46108881D02*
X165441309Y-45108881D01*
X165346071Y-45251738D01*
X165250833Y-45346976D01*
X165155595Y-45394595D01*
X166679405Y-46108881D02*
X166107976Y-46108881D01*
X166393690Y-46108881D02*
X166393690Y-45108881D01*
X166298452Y-45251738D01*
X166203214Y-45346976D01*
X166107976Y-45394595D01*
X221357143Y-52202381D02*
X221023809Y-51726190D01*
X220785714Y-52202381D02*
X220785714Y-51202381D01*
X221166667Y-51202381D01*
X221261905Y-51250000D01*
X221309524Y-51297619D01*
X221357143Y-51392857D01*
X221357143Y-51535714D01*
X221309524Y-51630952D01*
X221261905Y-51678571D01*
X221166667Y-51726190D01*
X220785714Y-51726190D01*
X222309524Y-52202381D02*
X221738095Y-52202381D01*
X222023809Y-52202381D02*
X222023809Y-51202381D01*
X221928571Y-51345238D01*
X221833333Y-51440476D01*
X221738095Y-51488095D01*
X222642857Y-51202381D02*
X223261905Y-51202381D01*
X222928571Y-51583333D01*
X223071429Y-51583333D01*
X223166667Y-51630952D01*
X223214286Y-51678571D01*
X223261905Y-51773810D01*
X223261905Y-52011905D01*
X223214286Y-52107143D01*
X223166667Y-52154762D01*
X223071429Y-52202381D01*
X222785714Y-52202381D01*
X222690476Y-52154762D01*
X222642857Y-52107143D01*
X81534095Y-81952381D02*
X81534095Y-82761905D01*
X81581714Y-82857143D01*
X81629333Y-82904762D01*
X81724571Y-82952381D01*
X81915048Y-82952381D01*
X82010286Y-82904762D01*
X82057905Y-82857143D01*
X82105524Y-82761905D01*
X82105524Y-81952381D01*
X83105524Y-82952381D02*
X82534095Y-82952381D01*
X82819809Y-82952381D02*
X82819809Y-81952381D01*
X82724571Y-82095238D01*
X82629333Y-82190476D01*
X82534095Y-82238095D01*
X101438095Y-81852381D02*
X101438095Y-82661905D01*
X101485714Y-82757143D01*
X101533333Y-82804762D01*
X101628571Y-82852381D01*
X101819048Y-82852381D01*
X101914286Y-82804762D01*
X101961905Y-82757143D01*
X102009524Y-82661905D01*
X102009524Y-81852381D01*
X102438095Y-81947619D02*
X102485714Y-81900000D01*
X102580952Y-81852381D01*
X102819048Y-81852381D01*
X102914286Y-81900000D01*
X102961905Y-81947619D01*
X103009524Y-82042857D01*
X103009524Y-82138095D01*
X102961905Y-82280952D01*
X102390476Y-82852381D01*
X103009524Y-82852381D01*
X174704762Y-62761905D02*
X174323809Y-62761905D01*
X174323809Y-61961905D01*
X174971428Y-62342857D02*
X175238095Y-62342857D01*
X175352381Y-62761905D02*
X174971428Y-62761905D01*
X174971428Y-61961905D01*
X175352381Y-61961905D01*
X175695238Y-62761905D02*
X175695238Y-61961905D01*
X175885714Y-61961905D01*
X176000000Y-62000000D01*
X176076191Y-62076190D01*
X176114286Y-62152381D01*
X176152381Y-62304762D01*
X176152381Y-62419048D01*
X176114286Y-62571429D01*
X176076191Y-62647619D01*
X176000000Y-62723810D01*
X175885714Y-62761905D01*
X175695238Y-62761905D01*
X176609524Y-62304762D02*
X176533333Y-62266667D01*
X176495238Y-62228571D01*
X176457143Y-62152381D01*
X176457143Y-62114286D01*
X176495238Y-62038095D01*
X176533333Y-62000000D01*
X176609524Y-61961905D01*
X176761905Y-61961905D01*
X176838095Y-62000000D01*
X176876191Y-62038095D01*
X176914286Y-62114286D01*
X176914286Y-62152381D01*
X176876191Y-62228571D01*
X176838095Y-62266667D01*
X176761905Y-62304762D01*
X176609524Y-62304762D01*
X176533333Y-62342857D01*
X176495238Y-62380952D01*
X176457143Y-62457143D01*
X176457143Y-62609524D01*
X176495238Y-62685714D01*
X176533333Y-62723810D01*
X176609524Y-62761905D01*
X176761905Y-62761905D01*
X176838095Y-62723810D01*
X176876191Y-62685714D01*
X176914286Y-62609524D01*
X176914286Y-62457143D01*
X176876191Y-62380952D01*
X176838095Y-62342857D01*
X176761905Y-62304762D01*
X173604762Y-60111905D02*
X173223809Y-60111905D01*
X173223809Y-59311905D01*
X173871428Y-59692857D02*
X174138095Y-59692857D01*
X174252381Y-60111905D02*
X173871428Y-60111905D01*
X173871428Y-59311905D01*
X174252381Y-59311905D01*
X174595238Y-60111905D02*
X174595238Y-59311905D01*
X174785714Y-59311905D01*
X174900000Y-59350000D01*
X174976191Y-59426190D01*
X175014286Y-59502381D01*
X175052381Y-59654762D01*
X175052381Y-59769048D01*
X175014286Y-59921429D01*
X174976191Y-59997619D01*
X174900000Y-60073810D01*
X174785714Y-60111905D01*
X174595238Y-60111905D01*
X175319048Y-59311905D02*
X175852381Y-59311905D01*
X175509524Y-60111905D01*
X124704762Y-62761905D02*
X124323809Y-62761905D01*
X124323809Y-61961905D01*
X124971428Y-62342857D02*
X125238095Y-62342857D01*
X125352381Y-62761905D02*
X124971428Y-62761905D01*
X124971428Y-61961905D01*
X125352381Y-61961905D01*
X125695238Y-62761905D02*
X125695238Y-61961905D01*
X125885714Y-61961905D01*
X126000000Y-62000000D01*
X126076191Y-62076190D01*
X126114286Y-62152381D01*
X126152381Y-62304762D01*
X126152381Y-62419048D01*
X126114286Y-62571429D01*
X126076191Y-62647619D01*
X126000000Y-62723810D01*
X125885714Y-62761905D01*
X125695238Y-62761905D01*
X126838095Y-62228571D02*
X126838095Y-62761905D01*
X126647619Y-61923810D02*
X126457143Y-62495238D01*
X126952381Y-62495238D01*
X123604762Y-60111905D02*
X123223809Y-60111905D01*
X123223809Y-59311905D01*
X123871428Y-59692857D02*
X124138095Y-59692857D01*
X124252381Y-60111905D02*
X123871428Y-60111905D01*
X123871428Y-59311905D01*
X124252381Y-59311905D01*
X124595238Y-60111905D02*
X124595238Y-59311905D01*
X124785714Y-59311905D01*
X124900000Y-59350000D01*
X124976191Y-59426190D01*
X125014286Y-59502381D01*
X125052381Y-59654762D01*
X125052381Y-59769048D01*
X125014286Y-59921429D01*
X124976191Y-59997619D01*
X124900000Y-60073810D01*
X124785714Y-60111905D01*
X124595238Y-60111905D01*
X125319048Y-59311905D02*
X125814286Y-59311905D01*
X125547619Y-59616667D01*
X125661905Y-59616667D01*
X125738095Y-59654762D01*
X125776191Y-59692857D01*
X125814286Y-59769048D01*
X125814286Y-59959524D01*
X125776191Y-60035714D01*
X125738095Y-60073810D01*
X125661905Y-60111905D01*
X125433333Y-60111905D01*
X125357143Y-60073810D01*
X125319048Y-60035714D01*
X206723810Y-56361905D02*
X206342857Y-56361905D01*
X206342857Y-55561905D01*
X206990476Y-55942857D02*
X207257143Y-55942857D01*
X207371429Y-56361905D02*
X206990476Y-56361905D01*
X206990476Y-55561905D01*
X207371429Y-55561905D01*
X207714286Y-56361905D02*
X207714286Y-55561905D01*
X207904762Y-55561905D01*
X208019048Y-55600000D01*
X208095239Y-55676190D01*
X208133334Y-55752381D01*
X208171429Y-55904762D01*
X208171429Y-56019048D01*
X208133334Y-56171429D01*
X208095239Y-56247619D01*
X208019048Y-56323810D01*
X207904762Y-56361905D01*
X207714286Y-56361905D01*
X208933334Y-56361905D02*
X208476191Y-56361905D01*
X208704762Y-56361905D02*
X208704762Y-55561905D01*
X208628572Y-55676190D01*
X208552381Y-55752381D01*
X208476191Y-55790476D01*
X209428572Y-55561905D02*
X209504763Y-55561905D01*
X209580953Y-55600000D01*
X209619048Y-55638095D01*
X209657144Y-55714286D01*
X209695239Y-55866667D01*
X209695239Y-56057143D01*
X209657144Y-56209524D01*
X209619048Y-56285714D01*
X209580953Y-56323810D01*
X209504763Y-56361905D01*
X209428572Y-56361905D01*
X209352382Y-56323810D01*
X209314286Y-56285714D01*
X209276191Y-56209524D01*
X209238096Y-56057143D01*
X209238096Y-55866667D01*
X209276191Y-55714286D01*
X209314286Y-55638095D01*
X209352382Y-55600000D01*
X209428572Y-55561905D01*
X187104762Y-56361905D02*
X186723809Y-56361905D01*
X186723809Y-55561905D01*
X187371428Y-55942857D02*
X187638095Y-55942857D01*
X187752381Y-56361905D02*
X187371428Y-56361905D01*
X187371428Y-55561905D01*
X187752381Y-55561905D01*
X188095238Y-56361905D02*
X188095238Y-55561905D01*
X188285714Y-55561905D01*
X188400000Y-55600000D01*
X188476191Y-55676190D01*
X188514286Y-55752381D01*
X188552381Y-55904762D01*
X188552381Y-56019048D01*
X188514286Y-56171429D01*
X188476191Y-56247619D01*
X188400000Y-56323810D01*
X188285714Y-56361905D01*
X188095238Y-56361905D01*
X188933333Y-56361905D02*
X189085714Y-56361905D01*
X189161905Y-56323810D01*
X189200000Y-56285714D01*
X189276191Y-56171429D01*
X189314286Y-56019048D01*
X189314286Y-55714286D01*
X189276191Y-55638095D01*
X189238095Y-55600000D01*
X189161905Y-55561905D01*
X189009524Y-55561905D01*
X188933333Y-55600000D01*
X188895238Y-55638095D01*
X188857143Y-55714286D01*
X188857143Y-55904762D01*
X188895238Y-55980952D01*
X188933333Y-56019048D01*
X189009524Y-56057143D01*
X189161905Y-56057143D01*
X189238095Y-56019048D01*
X189276191Y-55980952D01*
X189314286Y-55904762D01*
X157104762Y-56611905D02*
X156723809Y-56611905D01*
X156723809Y-55811905D01*
X157371428Y-56192857D02*
X157638095Y-56192857D01*
X157752381Y-56611905D02*
X157371428Y-56611905D01*
X157371428Y-55811905D01*
X157752381Y-55811905D01*
X158095238Y-56611905D02*
X158095238Y-55811905D01*
X158285714Y-55811905D01*
X158400000Y-55850000D01*
X158476191Y-55926190D01*
X158514286Y-56002381D01*
X158552381Y-56154762D01*
X158552381Y-56269048D01*
X158514286Y-56421429D01*
X158476191Y-56497619D01*
X158400000Y-56573810D01*
X158285714Y-56611905D01*
X158095238Y-56611905D01*
X159238095Y-55811905D02*
X159085714Y-55811905D01*
X159009524Y-55850000D01*
X158971429Y-55888095D01*
X158895238Y-56002381D01*
X158857143Y-56154762D01*
X158857143Y-56459524D01*
X158895238Y-56535714D01*
X158933333Y-56573810D01*
X159009524Y-56611905D01*
X159161905Y-56611905D01*
X159238095Y-56573810D01*
X159276191Y-56535714D01*
X159314286Y-56459524D01*
X159314286Y-56269048D01*
X159276191Y-56192857D01*
X159238095Y-56154762D01*
X159161905Y-56116667D01*
X159009524Y-56116667D01*
X158933333Y-56154762D01*
X158895238Y-56192857D01*
X158857143Y-56269048D01*
X137104762Y-56361905D02*
X136723809Y-56361905D01*
X136723809Y-55561905D01*
X137371428Y-55942857D02*
X137638095Y-55942857D01*
X137752381Y-56361905D02*
X137371428Y-56361905D01*
X137371428Y-55561905D01*
X137752381Y-55561905D01*
X138095238Y-56361905D02*
X138095238Y-55561905D01*
X138285714Y-55561905D01*
X138400000Y-55600000D01*
X138476191Y-55676190D01*
X138514286Y-55752381D01*
X138552381Y-55904762D01*
X138552381Y-56019048D01*
X138514286Y-56171429D01*
X138476191Y-56247619D01*
X138400000Y-56323810D01*
X138285714Y-56361905D01*
X138095238Y-56361905D01*
X139276191Y-55561905D02*
X138895238Y-55561905D01*
X138857143Y-55942857D01*
X138895238Y-55904762D01*
X138971429Y-55866667D01*
X139161905Y-55866667D01*
X139238095Y-55904762D01*
X139276191Y-55942857D01*
X139314286Y-56019048D01*
X139314286Y-56209524D01*
X139276191Y-56285714D01*
X139238095Y-56323810D01*
X139161905Y-56361905D01*
X138971429Y-56361905D01*
X138895238Y-56323810D01*
X138857143Y-56285714D01*
X109704762Y-57011905D02*
X109323809Y-57011905D01*
X109323809Y-56211905D01*
X109971428Y-56592857D02*
X110238095Y-56592857D01*
X110352381Y-57011905D02*
X109971428Y-57011905D01*
X109971428Y-56211905D01*
X110352381Y-56211905D01*
X110695238Y-57011905D02*
X110695238Y-56211905D01*
X110885714Y-56211905D01*
X111000000Y-56250000D01*
X111076191Y-56326190D01*
X111114286Y-56402381D01*
X111152381Y-56554762D01*
X111152381Y-56669048D01*
X111114286Y-56821429D01*
X111076191Y-56897619D01*
X111000000Y-56973810D01*
X110885714Y-57011905D01*
X110695238Y-57011905D01*
X111457143Y-56288095D02*
X111495238Y-56250000D01*
X111571429Y-56211905D01*
X111761905Y-56211905D01*
X111838095Y-56250000D01*
X111876191Y-56288095D01*
X111914286Y-56364286D01*
X111914286Y-56440476D01*
X111876191Y-56554762D01*
X111419048Y-57011905D01*
X111914286Y-57011905D01*
X89704762Y-57011905D02*
X89323809Y-57011905D01*
X89323809Y-56211905D01*
X89971428Y-56592857D02*
X90238095Y-56592857D01*
X90352381Y-57011905D02*
X89971428Y-57011905D01*
X89971428Y-56211905D01*
X90352381Y-56211905D01*
X90695238Y-57011905D02*
X90695238Y-56211905D01*
X90885714Y-56211905D01*
X91000000Y-56250000D01*
X91076191Y-56326190D01*
X91114286Y-56402381D01*
X91152381Y-56554762D01*
X91152381Y-56669048D01*
X91114286Y-56821429D01*
X91076191Y-56897619D01*
X91000000Y-56973810D01*
X90885714Y-57011905D01*
X90695238Y-57011905D01*
X91914286Y-57011905D02*
X91457143Y-57011905D01*
X91685714Y-57011905D02*
X91685714Y-56211905D01*
X91609524Y-56326190D01*
X91533333Y-56402381D01*
X91457143Y-56440476D01*
%LPC*%
D13*
X190000000Y-46950000D03*
X190000000Y-44250000D03*
D14*
X200000000Y-100000000D03*
X100000000Y-100000000D03*
X100000000Y-45000000D03*
D15*
X213786000Y-67762000D03*
X215588000Y-64318000D03*
X215588000Y-60000000D03*
X215588000Y-55682000D03*
X213786000Y-52238000D03*
X210000000Y-51364000D03*
X206214000Y-52238000D03*
X204412000Y-55682000D03*
X204412000Y-60000000D03*
X204412000Y-64318000D03*
X206214000Y-67762000D03*
X210000000Y-68636000D03*
X211200000Y-65197000D03*
X211200000Y-54803000D03*
D16*
X204285000Y-87200000D03*
X205555000Y-87200000D03*
X206825000Y-87200000D03*
X208095000Y-87200000D03*
X209365000Y-87200000D03*
X210635000Y-87200000D03*
X211905000Y-87200000D03*
X213175000Y-87200000D03*
X214445000Y-87200000D03*
X215715000Y-87200000D03*
X215715000Y-77800000D03*
X214445000Y-77800000D03*
X213175000Y-77800000D03*
X211905000Y-77800000D03*
X210635000Y-77800000D03*
X209365000Y-77800000D03*
X208095000Y-77800000D03*
X206825000Y-77800000D03*
X205555000Y-77800000D03*
X204285000Y-77800000D03*
X154285000Y-87200000D03*
X155555000Y-87200000D03*
X156825000Y-87200000D03*
X158095000Y-87200000D03*
X159365000Y-87200000D03*
X160635000Y-87200000D03*
X161905000Y-87200000D03*
X163175000Y-87200000D03*
X164445000Y-87200000D03*
X165715000Y-87200000D03*
X165715000Y-77800000D03*
X164445000Y-77800000D03*
X163175000Y-77800000D03*
X161905000Y-77800000D03*
X160635000Y-77800000D03*
X159365000Y-77800000D03*
X158095000Y-77800000D03*
X156825000Y-77800000D03*
X155555000Y-77800000D03*
X154285000Y-77800000D03*
D17*
X133650000Y-92500000D03*
X136350000Y-92500000D03*
D18*
X131250000Y-86250000D03*
X131250000Y-88750000D03*
D16*
X134285000Y-87200000D03*
X135555000Y-87200000D03*
X136825000Y-87200000D03*
X138095000Y-87200000D03*
X139365000Y-87200000D03*
X140635000Y-87200000D03*
X141905000Y-87200000D03*
X143175000Y-87200000D03*
X144445000Y-87200000D03*
X145715000Y-87200000D03*
X145715000Y-77800000D03*
X144445000Y-77800000D03*
X143175000Y-77800000D03*
X141905000Y-77800000D03*
X140635000Y-77800000D03*
X139365000Y-77800000D03*
X138095000Y-77800000D03*
X136825000Y-77800000D03*
X135555000Y-77800000D03*
X134285000Y-77800000D03*
X184285000Y-87200000D03*
X185555000Y-87200000D03*
X186825000Y-87200000D03*
X188095000Y-87200000D03*
X189365000Y-87200000D03*
X190635000Y-87200000D03*
X191905000Y-87200000D03*
X193175000Y-87200000D03*
X194445000Y-87200000D03*
X195715000Y-87200000D03*
X195715000Y-77800000D03*
X194445000Y-77800000D03*
X193175000Y-77800000D03*
X191905000Y-77800000D03*
X190635000Y-77800000D03*
X189365000Y-77800000D03*
X188095000Y-77800000D03*
X186825000Y-77800000D03*
X185555000Y-77800000D03*
X184285000Y-77800000D03*
D15*
X143786000Y-67762000D03*
X145588000Y-64318000D03*
X145588000Y-60000000D03*
X145588000Y-55682000D03*
X143786000Y-52238000D03*
X140000000Y-51364000D03*
X136214000Y-52238000D03*
X134412000Y-55682000D03*
X134412000Y-60000000D03*
X134412000Y-64318000D03*
X136214000Y-67762000D03*
X140000000Y-68636000D03*
X141200000Y-65197000D03*
X141200000Y-54803000D03*
D18*
X81250000Y-86250000D03*
X81250000Y-88750000D03*
X101250000Y-86250000D03*
X101250000Y-88750000D03*
X151250000Y-86222928D03*
X151250000Y-88722928D03*
X181250000Y-86250000D03*
X181250000Y-88750000D03*
X201250000Y-86250000D03*
X201250000Y-88750000D03*
D19*
X91250000Y-62500000D03*
X88750000Y-62500000D03*
X111250000Y-62500000D03*
X108750000Y-62500000D03*
X126250000Y-52500000D03*
X123750000Y-52500000D03*
X126250000Y-70000000D03*
X123750000Y-70000000D03*
X141250000Y-62500000D03*
X138750000Y-62500000D03*
X161250000Y-62500000D03*
X158750000Y-62500000D03*
X176250000Y-52500000D03*
X173750000Y-52500000D03*
X176250000Y-70000000D03*
X173750000Y-70000000D03*
X191250000Y-62500000D03*
X188750000Y-62500000D03*
X211250000Y-62500000D03*
X208750000Y-62500000D03*
D15*
X93786000Y-67762000D03*
X95588000Y-64318000D03*
X95588000Y-60000000D03*
X95588000Y-55682000D03*
X93786000Y-52238000D03*
X90000000Y-51364000D03*
X86214000Y-52238000D03*
X84412000Y-55682000D03*
X84412000Y-60000000D03*
X84412000Y-64318000D03*
X86214000Y-67762000D03*
X90000000Y-68636000D03*
X91200000Y-65197000D03*
X91200000Y-54803000D03*
X113786000Y-67762000D03*
X115588000Y-64318000D03*
X115588000Y-60000000D03*
X115588000Y-55682000D03*
X113786000Y-52238000D03*
X110000000Y-51364000D03*
X106214000Y-52238000D03*
X104412000Y-55682000D03*
X104412000Y-60000000D03*
X104412000Y-64318000D03*
X106214000Y-67762000D03*
X110000000Y-68636000D03*
X111200000Y-65197000D03*
X111200000Y-54803000D03*
X163786000Y-67762000D03*
X165588000Y-64318000D03*
X165588000Y-60000000D03*
X165588000Y-55682000D03*
X163786000Y-52238000D03*
X160000000Y-51364000D03*
X156214000Y-52238000D03*
X154412000Y-55682000D03*
X154412000Y-60000000D03*
X154412000Y-64318000D03*
X156214000Y-67762000D03*
X160000000Y-68636000D03*
X161200000Y-65197000D03*
X161200000Y-54803000D03*
X193786000Y-67762000D03*
X195588000Y-64318000D03*
X195588000Y-60000000D03*
X195588000Y-55682000D03*
X193786000Y-52238000D03*
X190000000Y-51364000D03*
X186214000Y-52238000D03*
X184412000Y-55682000D03*
X184412000Y-60000000D03*
X184412000Y-64318000D03*
X186214000Y-67762000D03*
X190000000Y-68636000D03*
X191200000Y-65197000D03*
X191200000Y-54803000D03*
D17*
X83650000Y-92500000D03*
X86350000Y-92500000D03*
X104650000Y-92500000D03*
X107350000Y-92500000D03*
X153650000Y-92472928D03*
X156350000Y-92472928D03*
X183650000Y-92500000D03*
X186350000Y-92500000D03*
X204650000Y-92500000D03*
X207350000Y-92500000D03*
X78350000Y-54000000D03*
X75650000Y-54000000D03*
D13*
X90000000Y-46950000D03*
X90000000Y-44250000D03*
X148000000Y-46950000D03*
X148000000Y-44250000D03*
X118000000Y-46950000D03*
X118000000Y-44250000D03*
X168000000Y-46950000D03*
X168000000Y-44250000D03*
X222000000Y-56350000D03*
X222000000Y-53650000D03*
D16*
X84285000Y-87200000D03*
X85555000Y-87200000D03*
X86825000Y-87200000D03*
X88095000Y-87200000D03*
X89365000Y-87200000D03*
X90635000Y-87200000D03*
X91905000Y-87200000D03*
X93175000Y-87200000D03*
X94445000Y-87200000D03*
X95715000Y-87200000D03*
X95715000Y-77800000D03*
X94445000Y-77800000D03*
X93175000Y-77800000D03*
X91905000Y-77800000D03*
X90635000Y-77800000D03*
X89365000Y-77800000D03*
X88095000Y-77800000D03*
X86825000Y-77800000D03*
X85555000Y-77800000D03*
X84285000Y-77800000D03*
X104285000Y-87200000D03*
X105555000Y-87200000D03*
X106825000Y-87200000D03*
X108095000Y-87200000D03*
X109365000Y-87200000D03*
X110635000Y-87200000D03*
X111905000Y-87200000D03*
X113175000Y-87200000D03*
X114445000Y-87200000D03*
X115715000Y-87200000D03*
X115715000Y-77800000D03*
X114445000Y-77800000D03*
X113175000Y-77800000D03*
X111905000Y-77800000D03*
X110635000Y-77800000D03*
X109365000Y-77800000D03*
X108095000Y-77800000D03*
X106825000Y-77800000D03*
X105555000Y-77800000D03*
X104285000Y-77800000D03*
D20*
X118340000Y-102350000D03*
X115800000Y-102350000D03*
X113260000Y-102350000D03*
D21*
X176500000Y-65875000D03*
X176500000Y-64125000D03*
X173500000Y-64125000D03*
X173500000Y-65875000D03*
X176500000Y-57875000D03*
X176500000Y-56125000D03*
X173500000Y-56125000D03*
X173500000Y-57875000D03*
X126500000Y-65875000D03*
X126500000Y-64125000D03*
X123500000Y-64125000D03*
X123500000Y-65875000D03*
X126500000Y-57875000D03*
X126500000Y-56125000D03*
X123500000Y-56125000D03*
X123500000Y-57875000D03*
X211500000Y-60125000D03*
X211500000Y-58375000D03*
X208500000Y-58375000D03*
X208500000Y-60125000D03*
X191500000Y-60125000D03*
X191500000Y-58375000D03*
X188500000Y-58375000D03*
X188500000Y-60125000D03*
X161500000Y-60125000D03*
X161500000Y-58375000D03*
X158500000Y-58375000D03*
X158500000Y-60125000D03*
X141500000Y-60125000D03*
X141500000Y-58375000D03*
X138500000Y-58375000D03*
X138500000Y-60125000D03*
X111500000Y-60125000D03*
X111500000Y-58375000D03*
X108500000Y-58375000D03*
X108500000Y-60125000D03*
X91500000Y-60125000D03*
X91500000Y-58375000D03*
X88500000Y-58375000D03*
X88500000Y-60125000D03*
D22*
X129540000Y-100000000D03*
D23*
X132080000Y-100000000D03*
X134620000Y-100000000D03*
X137160000Y-100000000D03*
X139700000Y-100000000D03*
X142240000Y-100000000D03*
X144780000Y-100000000D03*
X147320000Y-100000000D03*
D22*
X152400000Y-99992000D03*
D23*
X154940000Y-99992000D03*
X157480000Y-99992000D03*
D22*
X162560000Y-99992000D03*
D23*
X165100000Y-99992000D03*
X167640000Y-99992000D03*
D14*
X200000000Y-45000000D03*
D22*
X77240000Y-57460000D03*
D23*
X74700000Y-57460000D03*
X77240000Y-60000000D03*
X74700000Y-60000000D03*
X77240000Y-62540000D03*
X74700000Y-62540000D03*
X77240000Y-65080000D03*
X74700000Y-65080000D03*
D22*
X225000000Y-60000000D03*
D23*
X225000000Y-62540000D03*
M02*
