G04 #@! TF.FileFunction,Legend,Bot*
%FSLAX46Y46*%
G04 Gerber Fmt 4.6, Leading zero omitted, Abs format (unit mm)*
G04 Created by KiCad (PCBNEW 4.0.6) date Sunday, June 18, 2017 'PMt' 07:47:11 PM*
%MOMM*%
%LPD*%
G01*
G04 APERTURE LIST*
%ADD10C,0.100000*%
%ADD11C,0.200000*%
%ADD12C,0.300000*%
%ADD13C,0.150000*%
%ADD14C,0.120000*%
G04 APERTURE END LIST*
D10*
D11*
X222390476Y-62100000D02*
X222466667Y-62061905D01*
X222580952Y-62061905D01*
X222695238Y-62100000D01*
X222771429Y-62176190D01*
X222809524Y-62252381D01*
X222847619Y-62404762D01*
X222847619Y-62519048D01*
X222809524Y-62671429D01*
X222771429Y-62747619D01*
X222695238Y-62823810D01*
X222580952Y-62861905D01*
X222504762Y-62861905D01*
X222390476Y-62823810D01*
X222352381Y-62785714D01*
X222352381Y-62519048D01*
X222504762Y-62519048D01*
X222009524Y-62861905D02*
X222009524Y-62061905D01*
X221552381Y-62861905D01*
X221552381Y-62061905D01*
X221171429Y-62861905D02*
X221171429Y-62061905D01*
X220980953Y-62061905D01*
X220866667Y-62100000D01*
X220790476Y-62176190D01*
X220752381Y-62252381D01*
X220714286Y-62404762D01*
X220714286Y-62519048D01*
X220752381Y-62671429D01*
X220790476Y-62747619D01*
X220866667Y-62823810D01*
X220980953Y-62861905D01*
X221171429Y-62861905D01*
X222809524Y-60057143D02*
X222200000Y-60057143D01*
X222504762Y-60361905D02*
X222504762Y-59752381D01*
X221438095Y-59561905D02*
X221819048Y-59561905D01*
X221857143Y-59942857D01*
X221819048Y-59904762D01*
X221742857Y-59866667D01*
X221552381Y-59866667D01*
X221476191Y-59904762D01*
X221438095Y-59942857D01*
X221400000Y-60019048D01*
X221400000Y-60209524D01*
X221438095Y-60285714D01*
X221476191Y-60323810D01*
X221552381Y-60361905D01*
X221742857Y-60361905D01*
X221819048Y-60323810D01*
X221857143Y-60285714D01*
X221171429Y-59561905D02*
X220904762Y-60361905D01*
X220638095Y-59561905D01*
X88385716Y-44623810D02*
X88271430Y-44661905D01*
X88080954Y-44661905D01*
X88004764Y-44623810D01*
X87966668Y-44585714D01*
X87928573Y-44509524D01*
X87928573Y-44433333D01*
X87966668Y-44357143D01*
X88004764Y-44319048D01*
X88080954Y-44280952D01*
X88233335Y-44242857D01*
X88309526Y-44204762D01*
X88347621Y-44166667D01*
X88385716Y-44090476D01*
X88385716Y-44014286D01*
X88347621Y-43938095D01*
X88309526Y-43900000D01*
X88233335Y-43861905D01*
X88042859Y-43861905D01*
X87928573Y-43900000D01*
X87585716Y-44661905D02*
X87585716Y-43861905D01*
X87242859Y-44661905D02*
X87242859Y-44242857D01*
X87280954Y-44166667D01*
X87357144Y-44128571D01*
X87471430Y-44128571D01*
X87547621Y-44166667D01*
X87585716Y-44204762D01*
X86519049Y-44128571D02*
X86519049Y-44661905D01*
X86861906Y-44128571D02*
X86861906Y-44547619D01*
X86823811Y-44623810D01*
X86747620Y-44661905D01*
X86633334Y-44661905D01*
X86557144Y-44623810D01*
X86519049Y-44585714D01*
X86138096Y-44128571D02*
X86138096Y-44661905D01*
X86138096Y-44204762D02*
X86100001Y-44166667D01*
X86023810Y-44128571D01*
X85909524Y-44128571D01*
X85833334Y-44166667D01*
X85795239Y-44242857D01*
X85795239Y-44661905D01*
X85528572Y-44128571D02*
X85223810Y-44128571D01*
X85414286Y-43861905D02*
X85414286Y-44547619D01*
X85376191Y-44623810D01*
X85300000Y-44661905D01*
X85223810Y-44661905D01*
X83928571Y-44661905D02*
X84385714Y-44661905D01*
X84157143Y-44661905D02*
X84157143Y-43861905D01*
X84233333Y-43976190D01*
X84309524Y-44052381D01*
X84385714Y-44090476D01*
X83585714Y-44357143D02*
X82976190Y-44357143D01*
X82633333Y-43938095D02*
X82595238Y-43900000D01*
X82519047Y-43861905D01*
X82328571Y-43861905D01*
X82252381Y-43900000D01*
X82214285Y-43938095D01*
X82176190Y-44014286D01*
X82176190Y-44090476D01*
X82214285Y-44204762D01*
X82671428Y-44661905D01*
X82176190Y-44661905D01*
X81338095Y-44128571D02*
X81033333Y-44128571D01*
X81223809Y-43861905D02*
X81223809Y-44547619D01*
X81185714Y-44623810D01*
X81109523Y-44661905D01*
X81033333Y-44661905D01*
X80652380Y-44661905D02*
X80728571Y-44623810D01*
X80766666Y-44585714D01*
X80804761Y-44509524D01*
X80804761Y-44280952D01*
X80766666Y-44204762D01*
X80728571Y-44166667D01*
X80652380Y-44128571D01*
X80538094Y-44128571D01*
X80461904Y-44166667D01*
X80423809Y-44204762D01*
X80385713Y-44280952D01*
X80385713Y-44509524D01*
X80423809Y-44585714D01*
X80461904Y-44623810D01*
X80538094Y-44661905D01*
X80652380Y-44661905D01*
X79319046Y-44661905D02*
X79395237Y-44623810D01*
X79433332Y-44585714D01*
X79471427Y-44509524D01*
X79471427Y-44280952D01*
X79433332Y-44204762D01*
X79395237Y-44166667D01*
X79319046Y-44128571D01*
X79204760Y-44128571D01*
X79128570Y-44166667D01*
X79090475Y-44204762D01*
X79052379Y-44280952D01*
X79052379Y-44509524D01*
X79090475Y-44585714D01*
X79128570Y-44623810D01*
X79204760Y-44661905D01*
X79319046Y-44661905D01*
X78709522Y-44661905D02*
X78709522Y-44128571D01*
X78709522Y-44204762D02*
X78671427Y-44166667D01*
X78595236Y-44128571D01*
X78480950Y-44128571D01*
X78404760Y-44166667D01*
X78366665Y-44242857D01*
X78366665Y-44661905D01*
X78366665Y-44242857D02*
X78328569Y-44166667D01*
X78252379Y-44128571D01*
X78138093Y-44128571D01*
X78061903Y-44166667D01*
X78023808Y-44242857D01*
X78023808Y-44661905D01*
X77642855Y-44661905D02*
X77642855Y-44128571D01*
X77642855Y-43861905D02*
X77680950Y-43900000D01*
X77642855Y-43938095D01*
X77604760Y-43900000D01*
X77642855Y-43861905D01*
X77642855Y-43938095D01*
X77376189Y-44128571D02*
X77071427Y-44128571D01*
X77261903Y-43861905D02*
X77261903Y-44547619D01*
X77223808Y-44623810D01*
X77147617Y-44661905D01*
X77071427Y-44661905D01*
X76195236Y-44661905D02*
X76195236Y-44128571D01*
X76195236Y-44280952D02*
X76157141Y-44204762D01*
X76119045Y-44166667D01*
X76042855Y-44128571D01*
X75966664Y-44128571D01*
X75699998Y-44661905D02*
X75699998Y-44128571D01*
X75699998Y-43861905D02*
X75738093Y-43900000D01*
X75699998Y-43938095D01*
X75661903Y-43900000D01*
X75699998Y-43861905D01*
X75699998Y-43938095D01*
X75319046Y-44128571D02*
X75319046Y-44661905D01*
X75319046Y-44204762D02*
X75280951Y-44166667D01*
X75204760Y-44128571D01*
X75090474Y-44128571D01*
X75014284Y-44166667D01*
X74976189Y-44242857D01*
X74976189Y-44661905D01*
X74252379Y-44128571D02*
X74252379Y-44776190D01*
X74290474Y-44852381D01*
X74328569Y-44890476D01*
X74404760Y-44928571D01*
X74519045Y-44928571D01*
X74595236Y-44890476D01*
X74252379Y-44623810D02*
X74328569Y-44661905D01*
X74480950Y-44661905D01*
X74557141Y-44623810D01*
X74595236Y-44585714D01*
X74633331Y-44509524D01*
X74633331Y-44280952D01*
X74595236Y-44204762D01*
X74557141Y-44166667D01*
X74480950Y-44128571D01*
X74328569Y-44128571D01*
X74252379Y-44166667D01*
X89966669Y-46023810D02*
X89852383Y-46061905D01*
X89661907Y-46061905D01*
X89585717Y-46023810D01*
X89547621Y-45985714D01*
X89509526Y-45909524D01*
X89509526Y-45833333D01*
X89547621Y-45757143D01*
X89585717Y-45719048D01*
X89661907Y-45680952D01*
X89814288Y-45642857D01*
X89890479Y-45604762D01*
X89928574Y-45566667D01*
X89966669Y-45490476D01*
X89966669Y-45414286D01*
X89928574Y-45338095D01*
X89890479Y-45300000D01*
X89814288Y-45261905D01*
X89623812Y-45261905D01*
X89509526Y-45300000D01*
X89166669Y-46061905D02*
X89166669Y-45261905D01*
X88823812Y-46061905D02*
X88823812Y-45642857D01*
X88861907Y-45566667D01*
X88938097Y-45528571D01*
X89052383Y-45528571D01*
X89128574Y-45566667D01*
X89166669Y-45604762D01*
X88100002Y-45528571D02*
X88100002Y-46061905D01*
X88442859Y-45528571D02*
X88442859Y-45947619D01*
X88404764Y-46023810D01*
X88328573Y-46061905D01*
X88214287Y-46061905D01*
X88138097Y-46023810D01*
X88100002Y-45985714D01*
X87719049Y-45528571D02*
X87719049Y-46061905D01*
X87719049Y-45604762D02*
X87680954Y-45566667D01*
X87604763Y-45528571D01*
X87490477Y-45528571D01*
X87414287Y-45566667D01*
X87376192Y-45642857D01*
X87376192Y-46061905D01*
X87109525Y-45528571D02*
X86804763Y-45528571D01*
X86995239Y-45261905D02*
X86995239Y-45947619D01*
X86957144Y-46023810D01*
X86880953Y-46061905D01*
X86804763Y-46061905D01*
X85509524Y-46061905D02*
X85966667Y-46061905D01*
X85738096Y-46061905D02*
X85738096Y-45261905D01*
X85814286Y-45376190D01*
X85890477Y-45452381D01*
X85966667Y-45490476D01*
X85166667Y-45757143D02*
X84557143Y-45757143D01*
X84252381Y-45261905D02*
X83757143Y-45261905D01*
X84023810Y-45566667D01*
X83909524Y-45566667D01*
X83833334Y-45604762D01*
X83795238Y-45642857D01*
X83757143Y-45719048D01*
X83757143Y-45909524D01*
X83795238Y-45985714D01*
X83833334Y-46023810D01*
X83909524Y-46061905D01*
X84138096Y-46061905D01*
X84214286Y-46023810D01*
X84252381Y-45985714D01*
X82461905Y-46061905D02*
X82461905Y-45642857D01*
X82500000Y-45566667D01*
X82576190Y-45528571D01*
X82728571Y-45528571D01*
X82804762Y-45566667D01*
X82461905Y-46023810D02*
X82538095Y-46061905D01*
X82728571Y-46061905D01*
X82804762Y-46023810D01*
X82842857Y-45947619D01*
X82842857Y-45871429D01*
X82804762Y-45795238D01*
X82728571Y-45757143D01*
X82538095Y-45757143D01*
X82461905Y-45719048D01*
X82080952Y-45528571D02*
X82080952Y-46061905D01*
X82080952Y-45604762D02*
X82042857Y-45566667D01*
X81966666Y-45528571D01*
X81852380Y-45528571D01*
X81776190Y-45566667D01*
X81738095Y-45642857D01*
X81738095Y-46061905D01*
X81014285Y-46061905D02*
X81014285Y-45261905D01*
X81014285Y-46023810D02*
X81090475Y-46061905D01*
X81242856Y-46061905D01*
X81319047Y-46023810D01*
X81357142Y-45985714D01*
X81395237Y-45909524D01*
X81395237Y-45680952D01*
X81357142Y-45604762D01*
X81319047Y-45566667D01*
X81242856Y-45528571D01*
X81090475Y-45528571D01*
X81014285Y-45566667D01*
X80061903Y-45338095D02*
X80023808Y-45300000D01*
X79947617Y-45261905D01*
X79757141Y-45261905D01*
X79680951Y-45300000D01*
X79642855Y-45338095D01*
X79604760Y-45414286D01*
X79604760Y-45490476D01*
X79642855Y-45604762D01*
X80099998Y-46061905D01*
X79604760Y-46061905D01*
X79261903Y-45757143D02*
X78652379Y-45757143D01*
X77928570Y-45528571D02*
X77928570Y-46061905D01*
X78119046Y-45223810D02*
X78309522Y-45795238D01*
X77814284Y-45795238D01*
X77014284Y-45528571D02*
X76709522Y-45528571D01*
X76899998Y-46061905D02*
X76899998Y-45376190D01*
X76861903Y-45300000D01*
X76785712Y-45261905D01*
X76709522Y-45261905D01*
X76328569Y-46061905D02*
X76404760Y-46023810D01*
X76442855Y-45985714D01*
X76480950Y-45909524D01*
X76480950Y-45680952D01*
X76442855Y-45604762D01*
X76404760Y-45566667D01*
X76328569Y-45528571D01*
X76214283Y-45528571D01*
X76138093Y-45566667D01*
X76099998Y-45604762D01*
X76061902Y-45680952D01*
X76061902Y-45909524D01*
X76099998Y-45985714D01*
X76138093Y-46023810D01*
X76214283Y-46061905D01*
X76328569Y-46061905D01*
X75719045Y-46061905D02*
X75719045Y-45528571D01*
X75719045Y-45680952D02*
X75680950Y-45604762D01*
X75642854Y-45566667D01*
X75566664Y-45528571D01*
X75490473Y-45528571D01*
X74614283Y-46061905D02*
X74614283Y-45528571D01*
X74614283Y-45680952D02*
X74576188Y-45604762D01*
X74538092Y-45566667D01*
X74461902Y-45528571D01*
X74385711Y-45528571D01*
X74119045Y-46061905D02*
X74119045Y-45528571D01*
X74119045Y-45261905D02*
X74157140Y-45300000D01*
X74119045Y-45338095D01*
X74080950Y-45300000D01*
X74119045Y-45261905D01*
X74119045Y-45338095D01*
X73738093Y-45528571D02*
X73738093Y-46061905D01*
X73738093Y-45604762D02*
X73699998Y-45566667D01*
X73623807Y-45528571D01*
X73509521Y-45528571D01*
X73433331Y-45566667D01*
X73395236Y-45642857D01*
X73395236Y-46061905D01*
X72671426Y-45528571D02*
X72671426Y-46176190D01*
X72709521Y-46252381D01*
X72747616Y-46290476D01*
X72823807Y-46328571D01*
X72938092Y-46328571D01*
X73014283Y-46290476D01*
X72671426Y-46023810D02*
X72747616Y-46061905D01*
X72899997Y-46061905D01*
X72976188Y-46023810D01*
X73014283Y-45985714D01*
X73052378Y-45909524D01*
X73052378Y-45680952D01*
X73014283Y-45604762D01*
X72976188Y-45566667D01*
X72899997Y-45528571D01*
X72747616Y-45528571D01*
X72671426Y-45566667D01*
X86328572Y-47461905D02*
X86328572Y-46661905D01*
X86138096Y-46661905D01*
X86023810Y-46700000D01*
X85947619Y-46776190D01*
X85909524Y-46852381D01*
X85871429Y-47004762D01*
X85871429Y-47119048D01*
X85909524Y-47271429D01*
X85947619Y-47347619D01*
X86023810Y-47423810D01*
X86138096Y-47461905D01*
X86328572Y-47461905D01*
X85376191Y-46661905D02*
X85223810Y-46661905D01*
X85147619Y-46700000D01*
X85071429Y-46776190D01*
X85033334Y-46928571D01*
X85033334Y-47195238D01*
X85071429Y-47347619D01*
X85147619Y-47423810D01*
X85223810Y-47461905D01*
X85376191Y-47461905D01*
X85452381Y-47423810D01*
X85528572Y-47347619D01*
X85566667Y-47195238D01*
X85566667Y-46928571D01*
X85528572Y-46776190D01*
X85452381Y-46700000D01*
X85376191Y-46661905D01*
X84690477Y-46661905D02*
X84690477Y-47309524D01*
X84652382Y-47385714D01*
X84614286Y-47423810D01*
X84538096Y-47461905D01*
X84385715Y-47461905D01*
X84309524Y-47423810D01*
X84271429Y-47385714D01*
X84233334Y-47309524D01*
X84233334Y-46661905D01*
X83966668Y-46661905D02*
X83509525Y-46661905D01*
X83738096Y-47461905D02*
X83738096Y-46661905D01*
X82747620Y-46928571D02*
X82442858Y-46928571D01*
X82633334Y-46661905D02*
X82633334Y-47347619D01*
X82595239Y-47423810D01*
X82519048Y-47461905D01*
X82442858Y-47461905D01*
X82061905Y-47461905D02*
X82138096Y-47423810D01*
X82176191Y-47385714D01*
X82214286Y-47309524D01*
X82214286Y-47080952D01*
X82176191Y-47004762D01*
X82138096Y-46966667D01*
X82061905Y-46928571D01*
X81947619Y-46928571D01*
X81871429Y-46966667D01*
X81833334Y-47004762D01*
X81795238Y-47080952D01*
X81795238Y-47309524D01*
X81833334Y-47385714D01*
X81871429Y-47423810D01*
X81947619Y-47461905D01*
X82061905Y-47461905D01*
X80842857Y-47461905D02*
X80842857Y-46928571D01*
X80842857Y-47080952D02*
X80804762Y-47004762D01*
X80766666Y-46966667D01*
X80690476Y-46928571D01*
X80614285Y-46928571D01*
X80347619Y-47461905D02*
X80347619Y-46928571D01*
X80347619Y-46661905D02*
X80385714Y-46700000D01*
X80347619Y-46738095D01*
X80309524Y-46700000D01*
X80347619Y-46661905D01*
X80347619Y-46738095D01*
X79966667Y-46928571D02*
X79966667Y-47461905D01*
X79966667Y-47004762D02*
X79928572Y-46966667D01*
X79852381Y-46928571D01*
X79738095Y-46928571D01*
X79661905Y-46966667D01*
X79623810Y-47042857D01*
X79623810Y-47461905D01*
X78900000Y-46928571D02*
X78900000Y-47576190D01*
X78938095Y-47652381D01*
X78976190Y-47690476D01*
X79052381Y-47728571D01*
X79166666Y-47728571D01*
X79242857Y-47690476D01*
X78900000Y-47423810D02*
X78976190Y-47461905D01*
X79128571Y-47461905D01*
X79204762Y-47423810D01*
X79242857Y-47385714D01*
X79280952Y-47309524D01*
X79280952Y-47080952D01*
X79242857Y-47004762D01*
X79204762Y-46966667D01*
X79128571Y-46928571D01*
X78976190Y-46928571D01*
X78900000Y-46966667D01*
X77909523Y-47461905D02*
X77909523Y-46661905D01*
X77719047Y-46661905D01*
X77604761Y-46700000D01*
X77528570Y-46776190D01*
X77490475Y-46852381D01*
X77452380Y-47004762D01*
X77452380Y-47119048D01*
X77490475Y-47271429D01*
X77528570Y-47347619D01*
X77604761Y-47423810D01*
X77719047Y-47461905D01*
X77909523Y-47461905D01*
X77109523Y-47461905D02*
X77109523Y-46661905D01*
X76728571Y-47461905D02*
X76728571Y-46661905D01*
X76271428Y-47461905D01*
X76271428Y-46661905D01*
X86023810Y-48861905D02*
X86290477Y-48480952D01*
X86480953Y-48861905D02*
X86480953Y-48061905D01*
X86176191Y-48061905D01*
X86100000Y-48100000D01*
X86061905Y-48138095D01*
X86023810Y-48214286D01*
X86023810Y-48328571D01*
X86061905Y-48404762D01*
X86100000Y-48442857D01*
X86176191Y-48480952D01*
X86480953Y-48480952D01*
X85680953Y-48861905D02*
X85680953Y-48328571D01*
X85680953Y-48061905D02*
X85719048Y-48100000D01*
X85680953Y-48138095D01*
X85642858Y-48100000D01*
X85680953Y-48061905D01*
X85680953Y-48138095D01*
X85300001Y-48328571D02*
X85300001Y-48861905D01*
X85300001Y-48404762D02*
X85261906Y-48366667D01*
X85185715Y-48328571D01*
X85071429Y-48328571D01*
X84995239Y-48366667D01*
X84957144Y-48442857D01*
X84957144Y-48861905D01*
X84233334Y-48328571D02*
X84233334Y-48976190D01*
X84271429Y-49052381D01*
X84309524Y-49090476D01*
X84385715Y-49128571D01*
X84500000Y-49128571D01*
X84576191Y-49090476D01*
X84233334Y-48823810D02*
X84309524Y-48861905D01*
X84461905Y-48861905D01*
X84538096Y-48823810D01*
X84576191Y-48785714D01*
X84614286Y-48709524D01*
X84614286Y-48480952D01*
X84576191Y-48404762D01*
X84538096Y-48366667D01*
X84461905Y-48328571D01*
X84309524Y-48328571D01*
X84233334Y-48366667D01*
X83242857Y-48861905D02*
X83242857Y-48061905D01*
X83052381Y-48061905D01*
X82938095Y-48100000D01*
X82861904Y-48176190D01*
X82823809Y-48252381D01*
X82785714Y-48404762D01*
X82785714Y-48519048D01*
X82823809Y-48671429D01*
X82861904Y-48747619D01*
X82938095Y-48823810D01*
X83052381Y-48861905D01*
X83242857Y-48861905D01*
X82290476Y-48061905D02*
X82138095Y-48061905D01*
X82061904Y-48100000D01*
X81985714Y-48176190D01*
X81947619Y-48328571D01*
X81947619Y-48595238D01*
X81985714Y-48747619D01*
X82061904Y-48823810D01*
X82138095Y-48861905D01*
X82290476Y-48861905D01*
X82366666Y-48823810D01*
X82442857Y-48747619D01*
X82480952Y-48595238D01*
X82480952Y-48328571D01*
X82442857Y-48176190D01*
X82366666Y-48100000D01*
X82290476Y-48061905D01*
X81604762Y-48061905D02*
X81604762Y-48709524D01*
X81566667Y-48785714D01*
X81528571Y-48823810D01*
X81452381Y-48861905D01*
X81300000Y-48861905D01*
X81223809Y-48823810D01*
X81185714Y-48785714D01*
X81147619Y-48709524D01*
X81147619Y-48061905D01*
X80880953Y-48061905D02*
X80423810Y-48061905D01*
X80652381Y-48861905D02*
X80652381Y-48061905D01*
X79661905Y-48328571D02*
X79357143Y-48328571D01*
X79547619Y-48061905D02*
X79547619Y-48747619D01*
X79509524Y-48823810D01*
X79433333Y-48861905D01*
X79357143Y-48861905D01*
X78976190Y-48861905D02*
X79052381Y-48823810D01*
X79090476Y-48785714D01*
X79128571Y-48709524D01*
X79128571Y-48480952D01*
X79090476Y-48404762D01*
X79052381Y-48366667D01*
X78976190Y-48328571D01*
X78861904Y-48328571D01*
X78785714Y-48366667D01*
X78747619Y-48404762D01*
X78709523Y-48480952D01*
X78709523Y-48709524D01*
X78747619Y-48785714D01*
X78785714Y-48823810D01*
X78861904Y-48861905D01*
X78976190Y-48861905D01*
X77757142Y-48861905D02*
X77757142Y-48061905D01*
X77566666Y-48061905D01*
X77452380Y-48100000D01*
X77376189Y-48176190D01*
X77338094Y-48252381D01*
X77299999Y-48404762D01*
X77299999Y-48519048D01*
X77338094Y-48671429D01*
X77376189Y-48747619D01*
X77452380Y-48823810D01*
X77566666Y-48861905D01*
X77757142Y-48861905D01*
X76957142Y-48861905D02*
X76957142Y-48061905D01*
X76576190Y-48861905D02*
X76576190Y-48061905D01*
X76119047Y-48861905D01*
X76119047Y-48061905D01*
X72066667Y-59828571D02*
X72066667Y-60361905D01*
X72257143Y-59523810D02*
X72447619Y-60095238D01*
X71952381Y-60095238D01*
X72547619Y-57038095D02*
X72509524Y-57000000D01*
X72433333Y-56961905D01*
X72242857Y-56961905D01*
X72166667Y-57000000D01*
X72128571Y-57038095D01*
X72090476Y-57114286D01*
X72090476Y-57190476D01*
X72128571Y-57304762D01*
X72585714Y-57761905D01*
X72090476Y-57761905D01*
X80047619Y-59661905D02*
X79552381Y-59661905D01*
X79819048Y-59966667D01*
X79704762Y-59966667D01*
X79628572Y-60004762D01*
X79590476Y-60042857D01*
X79552381Y-60119048D01*
X79552381Y-60309524D01*
X79590476Y-60385714D01*
X79628572Y-60423810D01*
X79704762Y-60461905D01*
X79933334Y-60461905D01*
X80009524Y-60423810D01*
X80047619Y-60385714D01*
X79452381Y-57861905D02*
X79909524Y-57861905D01*
X79680953Y-57861905D02*
X79680953Y-57061905D01*
X79757143Y-57176190D01*
X79833334Y-57252381D01*
X79909524Y-57290476D01*
X72409524Y-62861905D02*
X72409524Y-62061905D01*
X72219048Y-62061905D01*
X72104762Y-62100000D01*
X72028571Y-62176190D01*
X71990476Y-62252381D01*
X71952381Y-62404762D01*
X71952381Y-62519048D01*
X71990476Y-62671429D01*
X72028571Y-62747619D01*
X72104762Y-62823810D01*
X72219048Y-62861905D01*
X72409524Y-62861905D01*
X71609524Y-62861905D02*
X71609524Y-62061905D01*
X71228572Y-62861905D02*
X71228572Y-62061905D01*
X70771429Y-62861905D01*
X70771429Y-62061905D01*
X71990476Y-64700000D02*
X72066667Y-64661905D01*
X72180952Y-64661905D01*
X72295238Y-64700000D01*
X72371429Y-64776190D01*
X72409524Y-64852381D01*
X72447619Y-65004762D01*
X72447619Y-65119048D01*
X72409524Y-65271429D01*
X72371429Y-65347619D01*
X72295238Y-65423810D01*
X72180952Y-65461905D01*
X72104762Y-65461905D01*
X71990476Y-65423810D01*
X71952381Y-65385714D01*
X71952381Y-65119048D01*
X72104762Y-65119048D01*
X71609524Y-65461905D02*
X71609524Y-64661905D01*
X71152381Y-65461905D01*
X71152381Y-64661905D01*
X70771429Y-65461905D02*
X70771429Y-64661905D01*
X70580953Y-64661905D01*
X70466667Y-64700000D01*
X70390476Y-64776190D01*
X70352381Y-64852381D01*
X70314286Y-65004762D01*
X70314286Y-65119048D01*
X70352381Y-65271429D01*
X70390476Y-65347619D01*
X70466667Y-65423810D01*
X70580953Y-65461905D01*
X70771429Y-65461905D01*
X82395238Y-62861905D02*
X82395238Y-62061905D01*
X82204762Y-62061905D01*
X82090476Y-62100000D01*
X82014285Y-62176190D01*
X81976190Y-62252381D01*
X81938095Y-62404762D01*
X81938095Y-62519048D01*
X81976190Y-62671429D01*
X82014285Y-62747619D01*
X82090476Y-62823810D01*
X82204762Y-62861905D01*
X82395238Y-62861905D01*
X81442857Y-62061905D02*
X81290476Y-62061905D01*
X81214285Y-62100000D01*
X81138095Y-62176190D01*
X81100000Y-62328571D01*
X81100000Y-62595238D01*
X81138095Y-62747619D01*
X81214285Y-62823810D01*
X81290476Y-62861905D01*
X81442857Y-62861905D01*
X81519047Y-62823810D01*
X81595238Y-62747619D01*
X81633333Y-62595238D01*
X81633333Y-62328571D01*
X81595238Y-62176190D01*
X81519047Y-62100000D01*
X81442857Y-62061905D01*
X80757143Y-62061905D02*
X80757143Y-62709524D01*
X80719048Y-62785714D01*
X80680952Y-62823810D01*
X80604762Y-62861905D01*
X80452381Y-62861905D01*
X80376190Y-62823810D01*
X80338095Y-62785714D01*
X80300000Y-62709524D01*
X80300000Y-62061905D01*
X80033334Y-62061905D02*
X79576191Y-62061905D01*
X79804762Y-62861905D02*
X79804762Y-62061905D01*
X81747619Y-65157143D02*
X81138095Y-65157143D01*
X81442857Y-65461905D02*
X81442857Y-64852381D01*
X80376190Y-64661905D02*
X80757143Y-64661905D01*
X80795238Y-65042857D01*
X80757143Y-65004762D01*
X80680952Y-64966667D01*
X80490476Y-64966667D01*
X80414286Y-65004762D01*
X80376190Y-65042857D01*
X80338095Y-65119048D01*
X80338095Y-65309524D01*
X80376190Y-65385714D01*
X80414286Y-65423810D01*
X80490476Y-65461905D01*
X80680952Y-65461905D01*
X80757143Y-65423810D01*
X80795238Y-65385714D01*
X80109524Y-64661905D02*
X79842857Y-65461905D01*
X79576190Y-64661905D01*
D12*
X172157143Y-99014286D02*
X173357143Y-99014286D01*
X172785714Y-99014286D02*
X172785714Y-98328571D01*
X172157143Y-98328571D02*
X173357143Y-98328571D01*
X173357143Y-97928571D02*
X172157143Y-97528571D01*
X173357143Y-97128571D01*
X172614286Y-96728572D02*
X172614286Y-95814286D01*
X167057143Y-99114286D02*
X168257143Y-99114286D01*
X167685714Y-99114286D02*
X167685714Y-98428571D01*
X167057143Y-98428571D02*
X168257143Y-98428571D01*
X168257143Y-98028571D02*
X167057143Y-97628571D01*
X168257143Y-97228571D01*
X167514286Y-96828572D02*
X167514286Y-95914286D01*
X167057143Y-96371429D02*
X167971429Y-96371429D01*
X187850000Y-98485714D02*
X187907143Y-98600000D01*
X187907143Y-98771429D01*
X187850000Y-98942857D01*
X187735714Y-99057143D01*
X187621429Y-99114286D01*
X187392857Y-99171429D01*
X187221429Y-99171429D01*
X186992857Y-99114286D01*
X186878571Y-99057143D01*
X186764286Y-98942857D01*
X186707143Y-98771429D01*
X186707143Y-98657143D01*
X186764286Y-98485714D01*
X186821429Y-98428571D01*
X187221429Y-98428571D01*
X187221429Y-98657143D01*
X186707143Y-97914286D02*
X187907143Y-97914286D01*
X186707143Y-97228571D01*
X187907143Y-97228571D01*
X186707143Y-96657143D02*
X187907143Y-96657143D01*
X187907143Y-96371428D01*
X187850000Y-96200000D01*
X187735714Y-96085714D01*
X187621429Y-96028571D01*
X187392857Y-95971428D01*
X187221429Y-95971428D01*
X186992857Y-96028571D01*
X186878571Y-96085714D01*
X186764286Y-96200000D01*
X186707143Y-96371428D01*
X186707143Y-96657143D01*
X189314286Y-99171429D02*
X189257143Y-99000000D01*
X189257143Y-98714286D01*
X189314286Y-98600000D01*
X189371429Y-98542857D01*
X189485714Y-98485714D01*
X189600000Y-98485714D01*
X189714286Y-98542857D01*
X189771429Y-98600000D01*
X189828571Y-98714286D01*
X189885714Y-98942857D01*
X189942857Y-99057143D01*
X190000000Y-99114286D01*
X190114286Y-99171429D01*
X190228571Y-99171429D01*
X190342857Y-99114286D01*
X190400000Y-99057143D01*
X190457143Y-98942857D01*
X190457143Y-98657143D01*
X190400000Y-98485714D01*
X189257143Y-97971429D02*
X190457143Y-97971429D01*
X189885714Y-97971429D02*
X189885714Y-97285714D01*
X189257143Y-97285714D02*
X190457143Y-97285714D01*
X189257143Y-96714286D02*
X190457143Y-96714286D01*
X190457143Y-96428571D01*
X190400000Y-96257143D01*
X190285714Y-96142857D01*
X190171429Y-96085714D01*
X189942857Y-96028571D01*
X189771429Y-96028571D01*
X189542857Y-96085714D01*
X189428571Y-96142857D01*
X189314286Y-96257143D01*
X189257143Y-96428571D01*
X189257143Y-96714286D01*
X189257143Y-95514286D02*
X190457143Y-95514286D01*
X189257143Y-94828571D01*
X190457143Y-94828571D01*
X192214286Y-99114286D02*
X192214286Y-98200000D01*
X191757143Y-98657143D02*
X192671429Y-98657143D01*
X191757143Y-97000000D02*
X191757143Y-97685715D01*
X191757143Y-97342857D02*
X192957143Y-97342857D01*
X192785714Y-97457143D01*
X192671429Y-97571429D01*
X192614286Y-97685715D01*
X192842857Y-96542858D02*
X192900000Y-96485715D01*
X192957143Y-96371429D01*
X192957143Y-96085715D01*
X192900000Y-95971429D01*
X192842857Y-95914286D01*
X192728571Y-95857143D01*
X192614286Y-95857143D01*
X192442857Y-95914286D01*
X191757143Y-96600000D01*
X191757143Y-95857143D01*
X192957143Y-95514286D02*
X191757143Y-95114286D01*
X192957143Y-94714286D01*
X146713643Y-97808786D02*
X147913643Y-97808786D01*
X146713643Y-97123071D01*
X147913643Y-97123071D01*
X146713643Y-96551643D02*
X147913643Y-96551643D01*
X147913643Y-96094499D02*
X146713643Y-95294499D01*
X147913643Y-95294499D02*
X146713643Y-96094499D01*
X146713643Y-94837357D02*
X147913643Y-94837357D01*
X147342214Y-94265928D02*
X147342214Y-93865928D01*
X146713643Y-93694499D02*
X146713643Y-94265928D01*
X147913643Y-94265928D01*
X147913643Y-93694499D01*
X146713643Y-92265928D02*
X147913643Y-92265928D01*
X147913643Y-91980213D01*
X147856500Y-91808785D01*
X147742214Y-91694499D01*
X147627929Y-91637356D01*
X147399357Y-91580213D01*
X147227929Y-91580213D01*
X146999357Y-91637356D01*
X146885071Y-91694499D01*
X146770786Y-91808785D01*
X146713643Y-91980213D01*
X146713643Y-92265928D01*
X146713643Y-91065928D02*
X147913643Y-91065928D01*
X146713643Y-90494499D02*
X147913643Y-90494499D01*
X146713643Y-89808784D01*
X147913643Y-89808784D01*
X144040286Y-97865929D02*
X143983143Y-97694500D01*
X143983143Y-97408786D01*
X144040286Y-97294500D01*
X144097429Y-97237357D01*
X144211714Y-97180214D01*
X144326000Y-97180214D01*
X144440286Y-97237357D01*
X144497429Y-97294500D01*
X144554571Y-97408786D01*
X144611714Y-97637357D01*
X144668857Y-97751643D01*
X144726000Y-97808786D01*
X144840286Y-97865929D01*
X144954571Y-97865929D01*
X145068857Y-97808786D01*
X145126000Y-97751643D01*
X145183143Y-97637357D01*
X145183143Y-97351643D01*
X145126000Y-97180214D01*
X143983143Y-95980214D02*
X144554571Y-96380214D01*
X143983143Y-96665929D02*
X145183143Y-96665929D01*
X145183143Y-96208786D01*
X145126000Y-96094500D01*
X145068857Y-96037357D01*
X144954571Y-95980214D01*
X144783143Y-95980214D01*
X144668857Y-96037357D01*
X144611714Y-96094500D01*
X144554571Y-96208786D01*
X144554571Y-96665929D01*
X144097429Y-94780214D02*
X144040286Y-94837357D01*
X143983143Y-95008786D01*
X143983143Y-95123072D01*
X144040286Y-95294500D01*
X144154571Y-95408786D01*
X144268857Y-95465929D01*
X144497429Y-95523072D01*
X144668857Y-95523072D01*
X144897429Y-95465929D01*
X145011714Y-95408786D01*
X145126000Y-95294500D01*
X145183143Y-95123072D01*
X145183143Y-95008786D01*
X145126000Y-94837357D01*
X145068857Y-94780214D01*
X143983143Y-94265929D02*
X145183143Y-94265929D01*
X143983143Y-93580214D02*
X144668857Y-94094500D01*
X145183143Y-93580214D02*
X144497429Y-94265929D01*
X141633643Y-97123071D02*
X142205071Y-97523071D01*
X141633643Y-97808786D02*
X142833643Y-97808786D01*
X142833643Y-97351643D01*
X142776500Y-97237357D01*
X142719357Y-97180214D01*
X142605071Y-97123071D01*
X142433643Y-97123071D01*
X142319357Y-97180214D01*
X142262214Y-97237357D01*
X142205071Y-97351643D01*
X142205071Y-97808786D01*
X141747929Y-95923071D02*
X141690786Y-95980214D01*
X141633643Y-96151643D01*
X141633643Y-96265929D01*
X141690786Y-96437357D01*
X141805071Y-96551643D01*
X141919357Y-96608786D01*
X142147929Y-96665929D01*
X142319357Y-96665929D01*
X142547929Y-96608786D01*
X142662214Y-96551643D01*
X142776500Y-96437357D01*
X142833643Y-96265929D01*
X142833643Y-96151643D01*
X142776500Y-95980214D01*
X142719357Y-95923071D01*
X141633643Y-95408786D02*
X142833643Y-95408786D01*
X141633643Y-94723071D02*
X142319357Y-95237357D01*
X142833643Y-94723071D02*
X142147929Y-95408786D01*
X139093643Y-97808786D02*
X140293643Y-97808786D01*
X139093643Y-97123071D01*
X140293643Y-97123071D01*
X139093643Y-96551643D02*
X140293643Y-96551643D01*
X140293643Y-96094499D02*
X139093643Y-95294499D01*
X140293643Y-95294499D02*
X139093643Y-96094499D01*
X139093643Y-94837357D02*
X140293643Y-94837357D01*
X139722214Y-94265928D02*
X139722214Y-93865928D01*
X139093643Y-93694499D02*
X139093643Y-94265928D01*
X140293643Y-94265928D01*
X140293643Y-93694499D01*
X140350786Y-91408785D02*
X138807929Y-92437356D01*
X139722214Y-91008785D02*
X139722214Y-90608785D01*
X139093643Y-90437356D02*
X139093643Y-91008785D01*
X140293643Y-91008785D01*
X140293643Y-90437356D01*
X139093643Y-89923071D02*
X140293643Y-89923071D01*
X139093643Y-89237356D01*
X140293643Y-89237356D01*
X136426643Y-97808786D02*
X137626643Y-97808786D01*
X137626643Y-97351643D01*
X137569500Y-97237357D01*
X137512357Y-97180214D01*
X137398071Y-97123071D01*
X137226643Y-97123071D01*
X137112357Y-97180214D01*
X137055214Y-97237357D01*
X136998071Y-97351643D01*
X136998071Y-97808786D01*
X136426643Y-96608786D02*
X137626643Y-96608786D01*
X137626643Y-96151642D02*
X136426643Y-95351642D01*
X137626643Y-95351642D02*
X136426643Y-96151642D01*
X137055214Y-94894500D02*
X137055214Y-94494500D01*
X136426643Y-94323071D02*
X136426643Y-94894500D01*
X137626643Y-94894500D01*
X137626643Y-94323071D01*
X136426643Y-93237357D02*
X136426643Y-93808786D01*
X137626643Y-93808786D01*
X136426643Y-91923071D02*
X137626643Y-91923071D01*
X137626643Y-91637356D01*
X137569500Y-91465928D01*
X137455214Y-91351642D01*
X137340929Y-91294499D01*
X137112357Y-91237356D01*
X136940929Y-91237356D01*
X136712357Y-91294499D01*
X136598071Y-91351642D01*
X136483786Y-91465928D01*
X136426643Y-91637356D01*
X136426643Y-91923071D01*
X136426643Y-90723071D02*
X137626643Y-90723071D01*
X136426643Y-90151642D02*
X137626643Y-90151642D01*
X136426643Y-89465927D01*
X137626643Y-89465927D01*
X135220000Y-97180214D02*
X135277143Y-97294500D01*
X135277143Y-97465929D01*
X135220000Y-97637357D01*
X135105714Y-97751643D01*
X134991429Y-97808786D01*
X134762857Y-97865929D01*
X134591429Y-97865929D01*
X134362857Y-97808786D01*
X134248571Y-97751643D01*
X134134286Y-97637357D01*
X134077143Y-97465929D01*
X134077143Y-97351643D01*
X134134286Y-97180214D01*
X134191429Y-97123071D01*
X134591429Y-97123071D01*
X134591429Y-97351643D01*
X134077143Y-96608786D02*
X135277143Y-96608786D01*
X134077143Y-95923071D01*
X135277143Y-95923071D01*
X134077143Y-95351643D02*
X135277143Y-95351643D01*
X135277143Y-95065928D01*
X135220000Y-94894500D01*
X135105714Y-94780214D01*
X134991429Y-94723071D01*
X134762857Y-94665928D01*
X134591429Y-94665928D01*
X134362857Y-94723071D01*
X134248571Y-94780214D01*
X134134286Y-94894500D01*
X134077143Y-95065928D01*
X134077143Y-95351643D01*
X131537143Y-97808786D02*
X132737143Y-97808786D01*
X132165714Y-97808786D02*
X132165714Y-97123071D01*
X131537143Y-97123071D02*
X132737143Y-97123071D01*
X132737143Y-96723071D02*
X131537143Y-96323071D01*
X132737143Y-95923071D01*
X132794286Y-93751643D02*
X131251429Y-94780214D01*
X132165714Y-93351643D02*
X132165714Y-92951643D01*
X131537143Y-92780214D02*
X131537143Y-93351643D01*
X132737143Y-93351643D01*
X132737143Y-92780214D01*
X131537143Y-92265929D02*
X132737143Y-92265929D01*
X131537143Y-91580214D01*
X132737143Y-91580214D01*
X129581286Y-97808786D02*
X129581286Y-96894500D01*
X129124143Y-97351643D02*
X130038429Y-97351643D01*
X129124143Y-95694500D02*
X129124143Y-96380215D01*
X129124143Y-96037357D02*
X130324143Y-96037357D01*
X130152714Y-96151643D01*
X130038429Y-96265929D01*
X129981286Y-96380215D01*
X130209857Y-95237358D02*
X130267000Y-95180215D01*
X130324143Y-95065929D01*
X130324143Y-94780215D01*
X130267000Y-94665929D01*
X130209857Y-94608786D01*
X130095571Y-94551643D01*
X129981286Y-94551643D01*
X129809857Y-94608786D01*
X129124143Y-95294500D01*
X129124143Y-94551643D01*
X130324143Y-94208786D02*
X129124143Y-93808786D01*
X130324143Y-93408786D01*
D13*
X121600000Y-104300000D02*
X110000000Y-104300000D01*
X121600000Y-95900000D02*
X121600000Y-104300000D01*
X110000000Y-95900000D02*
X121600000Y-95900000D01*
X110000000Y-104300000D02*
X110000000Y-95900000D01*
D14*
X130810000Y-99940000D02*
X148650000Y-99940000D01*
X148650000Y-99940000D02*
X148650000Y-102600000D01*
X148650000Y-102600000D02*
X130810000Y-102600000D01*
X130810000Y-102600000D02*
X130810000Y-99940000D01*
X129540000Y-99940000D02*
X128210000Y-99940000D01*
X128210000Y-99940000D02*
X128210000Y-101270000D01*
X191110000Y-102600000D02*
X185970000Y-102600000D01*
X185970000Y-102600000D02*
X185970000Y-99940000D01*
X185970000Y-99940000D02*
X191110000Y-99940000D01*
X191110000Y-99940000D02*
X191110000Y-102600000D01*
X192380000Y-102600000D02*
X193710000Y-102600000D01*
X193710000Y-102600000D02*
X193710000Y-101270000D01*
X78570000Y-58730000D02*
X78570000Y-66410000D01*
X78570000Y-66410000D02*
X73370000Y-66410000D01*
X73370000Y-66410000D02*
X73370000Y-56130000D01*
X73370000Y-56130000D02*
X75970000Y-56130000D01*
X75970000Y-56130000D02*
X75970000Y-58730000D01*
X75970000Y-58730000D02*
X78570000Y-58730000D01*
X78570000Y-57460000D02*
X78570000Y-56130000D01*
X78570000Y-56130000D02*
X77240000Y-56130000D01*
X226330000Y-61270000D02*
X226330000Y-63870000D01*
X226330000Y-63870000D02*
X223670000Y-63870000D01*
X223670000Y-63870000D02*
X223670000Y-61270000D01*
X223670000Y-61270000D02*
X226330000Y-61270000D01*
X226330000Y-60000000D02*
X226330000Y-58670000D01*
X226330000Y-58670000D02*
X225000000Y-58670000D01*
X168885000Y-99940000D02*
X174025000Y-99940000D01*
X174025000Y-99940000D02*
X174025000Y-102600000D01*
X174025000Y-102600000D02*
X168885000Y-102600000D01*
X168885000Y-102600000D02*
X168885000Y-99940000D01*
X167615000Y-99940000D02*
X166285000Y-99940000D01*
X166285000Y-99940000D02*
X166285000Y-101270000D01*
D13*
X116513405Y-94230881D02*
X116513405Y-95040405D01*
X116465786Y-95135643D01*
X116418167Y-95183262D01*
X116322929Y-95230881D01*
X116132452Y-95230881D01*
X116037214Y-95183262D01*
X115989595Y-95135643D01*
X115941976Y-95040405D01*
X115941976Y-94230881D01*
X115561024Y-94230881D02*
X114894357Y-94230881D01*
X115322929Y-95230881D01*
X127033333Y-100722381D02*
X127033333Y-101436667D01*
X127080953Y-101579524D01*
X127176191Y-101674762D01*
X127319048Y-101722381D01*
X127414286Y-101722381D01*
X126033333Y-101722381D02*
X126604762Y-101722381D01*
X126319048Y-101722381D02*
X126319048Y-100722381D01*
X126414286Y-100865238D01*
X126509524Y-100960476D01*
X126604762Y-101008095D01*
X195473333Y-100722381D02*
X195473333Y-101436667D01*
X195520953Y-101579524D01*
X195616191Y-101674762D01*
X195759048Y-101722381D01*
X195854286Y-101722381D01*
X195044762Y-100817619D02*
X194997143Y-100770000D01*
X194901905Y-100722381D01*
X194663809Y-100722381D01*
X194568571Y-100770000D01*
X194520952Y-100817619D01*
X194473333Y-100912857D01*
X194473333Y-101008095D01*
X194520952Y-101150952D01*
X195092381Y-101722381D01*
X194473333Y-101722381D01*
X76303333Y-54582381D02*
X76303333Y-55296667D01*
X76350953Y-55439524D01*
X76446191Y-55534762D01*
X76589048Y-55582381D01*
X76684286Y-55582381D01*
X75398571Y-54915714D02*
X75398571Y-55582381D01*
X75636667Y-54534762D02*
X75874762Y-55249048D01*
X75255714Y-55249048D01*
X225333333Y-57122381D02*
X225333333Y-57836667D01*
X225380953Y-57979524D01*
X225476191Y-58074762D01*
X225619048Y-58122381D01*
X225714286Y-58122381D01*
X224380952Y-57122381D02*
X224857143Y-57122381D01*
X224904762Y-57598571D01*
X224857143Y-57550952D01*
X224761905Y-57503333D01*
X224523809Y-57503333D01*
X224428571Y-57550952D01*
X224380952Y-57598571D01*
X224333333Y-57693810D01*
X224333333Y-57931905D01*
X224380952Y-58027143D01*
X224428571Y-58074762D01*
X224523809Y-58122381D01*
X224761905Y-58122381D01*
X224857143Y-58074762D01*
X224904762Y-58027143D01*
X164737381Y-100936667D02*
X165451667Y-100936667D01*
X165594524Y-100889047D01*
X165689762Y-100793809D01*
X165737381Y-100650952D01*
X165737381Y-100555714D01*
X164737381Y-101317619D02*
X164737381Y-101936667D01*
X165118333Y-101603333D01*
X165118333Y-101746191D01*
X165165952Y-101841429D01*
X165213571Y-101889048D01*
X165308810Y-101936667D01*
X165546905Y-101936667D01*
X165642143Y-101889048D01*
X165689762Y-101841429D01*
X165737381Y-101746191D01*
X165737381Y-101460476D01*
X165689762Y-101365238D01*
X165642143Y-101317619D01*
M02*
